<?xml version="1.0" encoding="UTF-8"?>
<svg width="1em" height="1em" viewBox="0 0 18 18" version="1.1" xmlns="http://www.w3.org/2000/svg" xmlns:xlink="http://www.w3.org/1999/xlink">
    <!-- Generator: Sketch 53.2 (72643) - https://sketchapp.com -->
    <title>a-to-z</title>
    <desc>Created with Sketch.</desc>
    <g id="a-to-z" stroke="none" stroke-width="1" fill="none" fill-rule="evenodd">
        <path d="M5.73441734,7.29590866 L5.06233062,5.76479543 L1.8102981,5.76479543 L1.13821138,7.29590866 L0,7.29590866 L3.3495935,0 L3.50135501,0 L6.86178862,7.29590866 L5.73441734,7.29590866 Z M2.22222222,4.81941009 L4.6504065,4.81941009 L3.43631436,2.04490961 L2.22222222,4.81941009 Z M18,10.8068506 L18,10.9301618 L14.7913279,17.0546147 L17.8915989,17.0546147 L17.8915989,18 L13.2628726,18 L13.2628726,17.856137 L16.4932249,11.752236 L13.3062331,11.752236 L13.3062331,10.8068506 L18,10.8068506 Z M9,4.10553852 C9,4.0472512 9.03798008,4 9.08525944,4 L9.91474056,4 C9.96182805,4 10,4.04458427 10,4.10553852 L10,13.8944615 C10,13.9527488 9.96201992,14 9.91474056,14 L9.08525944,14 C9.03817195,14 9,13.9554157 9,13.8944615 L9,4.10553852 Z" id="Shape" fill="currentColor" fill-rule="nonzero"></path>
    </g>
</svg>