<?xml version="1.0" encoding="UTF-8"?>
<svg width="1em" height="1em" viewBox="0 0 18 18" version="1.1" xmlns="http://www.w3.org/2000/svg" xmlns:xlink="http://www.w3.org/1999/xlink">
    <!-- Generator: Sketch 53.2 (72643) - https://sketchapp.com -->
    <title>access</title>
    <desc>Created with Sketch.</desc>
    <g id="access" stroke="none" stroke-width="1" fill="none" fill-rule="evenodd">
        <path d="M16.4384525,7.11881188 L7.5,7.11881188 C6.78253224,5.85148515 5.62485346,5 4,5 C1.63657679,5 0,6.78217822 0,9 C0,11.2178218 1.63657679,13 4,13 C5.77256741,13 6.86694021,11.990099 7.5,10.5445545 L8.73622509,10.5445545 L9.51699883,10.0693069 L10.3610785,10.6831683 L11.1207503,9.87128713 L11.8171161,10.1881188 L12.4923798,9.61386139 L13.5052755,10.2277228 L14.1594373,9.81188119 L14.961313,10.0693069 L15.6576788,9.63366337 L16.3329426,10.009901 L18,8.64356436 L16.4384525,7.11881188 Z M3,10 C2.45098039,10 2,9.54901961 2,9 C2,8.45098039 2.45098039,8 3,8 C3.54901961,8 4,8.45098039 4,9 C4,9.54901961 3.54901961,10 3,10 Z" id="Shape" fill="currentColor" fill-rule="nonzero"></path>
    </g>
</svg>