<?xml version="1.0" encoding="UTF-8"?>
<svg width="1em" height="1em" viewBox="0 0 18 18" version="1.1" xmlns="http://www.w3.org/2000/svg" xmlns:xlink="http://www.w3.org/1999/xlink">
    <!-- Generator: Sketch 55 (78076) - https://sketchapp.com -->
    <title>activity</title>
    <desc>Created with Sketch.</desc>
    <g id="activity" stroke="none" stroke-width="1" fill="none" fill-rule="evenodd">
        <path d="M3.02259017,10.1647756 L4.24542739,9 L5,9.70324164 L2.5,12.0845389 L0,9.70324164 L0.754572614,9 L2.0202739,10.2056044 C2.00675797,9.72979683 2,9.1976387 2,9 C2,4.59 5.59,1 10,1 C14.41,1 18,4.59 18,9 C18,13.41 14.41,17 10,17 C8.24,17 6.6,16.42 5.28,15.45 L5.93,14.69 C7.08,15.52 8.48,16 10,16 C13.87,16 17,12.87 17,9 C17,5.13 13.87,2 10,2 C6.13,2 3,5.13 3,9 C3,9.19143163 3.00634015,9.69987078 3.02259017,10.1647756 Z M9,4 L10,4 L10,9 L13,9 L13,10 L9,10 L9,4 Z" id="Fill" fill="currentColor" fill-rule="nonzero"></path>
    </g>
</svg>