<?xml version="1.0" encoding="UTF-8"?>
<svg width="1em" height="1em" viewBox="0 0 18 18" version="1.1" xmlns="http://www.w3.org/2000/svg" xmlns:xlink="http://www.w3.org/1999/xlink">
    <!-- Generator: Sketch 53.2 (72643) - https://sketchapp.com -->
    <title>add-folder</title>
    <desc>Created with Sketch.</desc>
    <g id="add-folder" stroke="none" stroke-width="1" fill="none" fill-rule="evenodd">
        <path d="M0,1.98842865 C0,1.93345436 0.0512719154,1.88888889 0.106502153,1.88888889 L11.3934978,1.88888889 C11.4523174,1.88888889 11.5332718,1.8556171 11.5719175,1.81697136 L12.4280825,0.960806423 C12.4678014,0.921087466 12.5505371,0.888888889 12.6112366,0.888888889 L16.8887634,0.888888889 C16.9501977,0.888888889 17.0332718,0.922160678 17.0719175,0.960806423 L17.9280825,1.81697136 C17.9678014,1.85669031 18,1.93185764 18,1.98842865 L18,2.88888889 L0,2.88888889 L0,1.98842865 Z M0,3.88888889 L18,3.88888889 L18,16.8888889 L0.105707198,16.8888889 C0.0473267248,16.8888889 0,16.8418161 0,16.7765031 L0,3.88888889 Z M10,8.88888889 L10,6.01454979 C10,5.93997531 9.94398681,5.88888889 9.87489104,5.88888889 L8.12510896,5.88888889 C8.0576992,5.88888889 8,5.94514919 8,6.01454979 L8,8.88888889 L5.1256609,8.88888889 C5.05108643,8.88888889 5,8.94490208 5,9.01399785 L5,10.7637799 C5,10.8311897 5.0562603,10.8888889 5.1256609,10.8888889 L8,10.8888889 L8,13.763228 C8,13.8378025 8.05601319,13.8888889 8.12510896,13.8888889 L9.87489104,13.8888889 C9.9423008,13.8888889 10,13.8326286 10,13.763228 L10,10.8888889 L12.8743391,10.8888889 C12.9489136,10.8888889 13,10.8328757 13,10.7637799 L13,9.01399785 C13,8.94658809 12.9437397,8.88888889 12.8743391,8.88888889 L10,8.88888889 L10,8.88888889 Z" id="Shape" fill="currentColor" fill-rule="nonzero"></path>
    </g>
</svg>