<?xml version="1.0" encoding="UTF-8"?>
<svg width="1em" height="1em" viewBox="0 0 18 18" version="1.1" xmlns="http://www.w3.org/2000/svg" xmlns:xlink="http://www.w3.org/1999/xlink">
    <!-- Generator: Sketch 53.2 (72643) - https://sketchapp.com -->
    <title>add-page</title>
    <desc>Created with Sketch.</desc>
    <g id="add-page" stroke="none" stroke-width="1" fill="none" fill-rule="evenodd">
        <path d="M2,0.124555081 C2,0.0557652093 2.059183,0 2.12353516,0 L13,0 L16,3 L16,17.8703241 C16,17.9419421 15.9435925,18 15.8789692,18 L2.12103081,18 C2.05418734,18 2,17.9483643 2,17.8754449 L2,0.124555081 Z M10,8 L10,5.1256609 C10,5.05108643 9.94398681,5 9.87489104,5 L8.12510896,5 C8.0576992,5 8,5.0562603 8,5.1256609 L8,8 L5.1256609,8 C5.05108643,8 5,8.05601319 5,8.12510896 L5,9.87489104 C5,9.9423008 5.0562603,10 5.1256609,10 L8,10 L8,12.8743391 C8,12.9489136 8.05601319,13 8.12510896,13 L9.87489104,13 C9.9423008,13 10,12.9437397 10,12.8743391 L10,10 L12.8743391,10 C12.9489136,10 13,9.94398681 13,9.87489104 L13,8.12510896 C13,8.0576992 12.9437397,8 12.8743391,8 L10,8 Z" id="Shape" fill="currentColor" fill-rule="nonzero"></path>
    </g>
</svg>