<?xml version="1.0" encoding="UTF-8"?>
<svg width="1em" height="1em" viewBox="0 0 18 18" version="1.1" xmlns="http://www.w3.org/2000/svg" xmlns:xlink="http://www.w3.org/1999/xlink">
    <!-- Generator: Sketch 53.2 (72643) - https://sketchapp.com -->
    <title>address</title>
    <desc>Created with Sketch.</desc>
    <g id="address" stroke="none" stroke-width="1" fill="none" fill-rule="evenodd">
        <path d="M2.09722222,0 L15.9027778,0 C15.9564721,0 16,0.0479694911 16,0.107142857 L16,17.8928571 C16,17.9520305 15.9564721,18 15.9027778,18 L2.09722222,18 C2.04352787,18 2,17.9520305 2,17.8928571 L2,0.107142857 C2,0.0479694911 2.04352787,0 2.09722222,0 Z M4,14 L4,15 L14,15 L14,14 L4,14 Z M4,16 L4,17 L7,17 L7,16 L4,16 Z M8,16 L8,17 L13.7777778,17 L13.7777778,16 L8,16 Z M13,5.80774112 C13,3.70812446 11.2056296,2 9,2 C6.79437037,2 5,3.70812446 5,5.80774112 C5,6.43813382 5.16266667,7.03256452 5.44874074,7.55662252 C5.45274074,7.56536622 5.4557037,7.57425095 5.46044444,7.58285363 L8.21362963,12.5485711 C8.21466667,12.5504045 8.216,12.5518148 8.21688889,12.5536481 C8.36696296,12.8190618 8.66162963,13 9,13 C9.33837037,13 9.63288889,12.8190618 9.78311111,12.5536481 C9.78414815,12.5518148 9.78548148,12.5504045 9.78637037,12.5485711 L12.5395556,7.58285363 C12.5442963,7.57425095 12.5472593,7.56536622 12.5512593,7.55662252 C12.8373333,7.03256452 13,6.43813382 13,5.80774112 Z M9,8 C7.8954305,8 7,7.1045695 7,6 C7,4.8954305 7.8954305,4 9,4 C10.1045695,4 11,4.8954305 11,6 C11,7.1045695 10.1045695,8 9,8 Z" id="Shape" fill="currentColor" fill-rule="nonzero"></path>
    </g>
</svg>