<?xml version="1.0" encoding="UTF-8"?>
<svg width="1em" height="1em" viewBox="0 0 18 18" version="1.1" xmlns="http://www.w3.org/2000/svg" xmlns:xlink="http://www.w3.org/1999/xlink">
    <!-- Generator: Sketch 53.2 (72643) - https://sketchapp.com -->
    <title>adjust-properties</title>
    <desc>Created with Sketch.</desc>
    <g id="adjust-properties" stroke="none" stroke-width="1" fill="none" fill-rule="evenodd">
        <path d="M2.25,0 L12.8964466,1.72084569e-15 C12.9627507,1.70866582e-15 13.0263392,0.0263392101 13.0732233,0.0732233047 L15.9267767,2.9267767 C15.9736608,2.97366079 16,3.03724927 16,3.10355339 L16,17.75 C16,17.8880712 15.8880712,18 15.75,18 L2.25,18 C2.11192881,18 2,17.8880712 2,17.75 L2,0.25 C2,0.111928813 2.11192881,2.53632657e-17 2.25,0 Z M9,5.25 L9,5.75 C9,5.88807119 9.11192881,6 9.25,6 L13.75,6 C13.8880712,6 14,5.88807119 14,5.75 L14,5.25 C14,5.11192881 13.8880712,5 13.75,5 L9.25,5 C9.11192881,5 9,5.11192881 9,5.25 Z M4,5.25 L4,5.75 C4,5.88807119 4.11192881,6 4.25,6 L5.75,6 C5.88807119,6 6,5.88807119 6,5.75 L6,5.25 C6,5.11192881 5.88807119,5 5.75,5 L4.25,5 C4.11192881,5 4,5.11192881 4,5.25 Z M7,4.25 L7,6.75 C7,6.88807119 7.11192881,7 7.25,7 L7.75,7 C7.88807119,7 8,6.88807119 8,6.75 L8,4.25 C8,4.11192881 7.88807119,4 7.75,4 L7.25,4 C7.11192881,4 7,4.11192881 7,4.25 Z M4,9.25 L4,9.75 C4,9.88807119 4.11192881,10 4.25,10 L9.75,10 C9.88807119,10 10,9.88807119 10,9.75 L10,9.25 C10,9.11192881 9.88807119,9 9.75,9 L4.25,9 C4.11192881,9 4,9.11192881 4,9.25 Z M13,9.25 L13,9.75 C13,9.88807119 13.1119288,10 13.25,10 L13.75,10 C13.8880712,10 14,9.88807119 14,9.75 L14,9.25 C14,9.11192881 13.8880712,9 13.75,9 L13.25,9 C13.1119288,9 13,9.11192881 13,9.25 Z M11,8.25 L11,10.75 C11,10.8880712 11.1119288,11 11.25,11 L11.75,11 C11.8880712,11 12,10.8880712 12,10.75 L12,8.25 C12,8.11192881 11.8880712,8 11.75,8 L11.25,8 C11.1119288,8 11,8.11192881 11,8.25 Z M8,12.25 L8,14.75 C8,14.8880712 8.11192881,15 8.25,15 L8.75,15 C8.88807119,15 9,14.8880712 9,14.75 L9,12.25 C9,12.1119288 8.88807119,12 8.75,12 L8.25,12 C8.11192881,12 8,12.1119288 8,12.25 Z M4,13.25 L4,13.75 C4,13.8880712 4.11192881,14 4.25,14 L6.75,14 C6.88807119,14 7,13.8880712 7,13.75 L7,13.25 C7,13.1119288 6.88807119,13 6.75,13 L4.25,13 C4.11192881,13 4,13.1119288 4,13.25 Z M10,13.25 L10,13.75 C10,13.8880712 10.1119288,14 10.25,14 L13.75,14 C13.8880712,14 14,13.8880712 14,13.75 L14,13.25 C14,13.1119288 13.8880712,13 13.75,13 L10.25,13 C10.1119288,13 10,13.1119288 10,13.25 Z" id="Shape" fill="currentColor" fill-rule="nonzero"></path>
    </g>
</svg>