<?xml version="1.0" encoding="UTF-8"?>
<svg width="1em" height="1em" viewBox="0 0 18 18" version="1.1" xmlns="http://www.w3.org/2000/svg" xmlns:xlink="http://www.w3.org/1999/xlink">
    <!-- Generator: Sketch 53.2 (72643) - https://sketchapp.com -->
    <title>ajax</title>
    <desc>Created with Sketch.</desc>
    <g id="ajax" stroke="none" stroke-width="1" fill="none" fill-rule="evenodd">
        <path d="M4.35669803,11.0573042 L5.32910694,9.76734 C5.36606234,9.71831624 5.43749124,9.70694386 5.48909216,9.74186835 L6.38557029,10.3486219 C6.43745397,10.3837378 6.44971511,10.452385 6.41295631,10.5019498 L6.41244012,10.5026401 L3.81050404,13.954279 C3.77334613,14.0035714 3.70139477,14.0147547 3.64979617,13.9792575 C3.63972858,13.9723316 3.630899,13.9638966 3.62364899,13.954279 L1.02171291,10.5026401 C0.984555004,10.4533477 0.996261494,10.3846122 1.04786009,10.3491151 L1.04858275,10.3486219 L1.94506088,9.74186835 C1.99666179,9.70694386 2.0680907,9.71831624 2.1050461,9.76734 L3.02628528,10.9894242 L3.02628528,0.109986068 C3.02628528,0.0492424401 3.07783158,0 3.14141716,0 L14.8848681,0 C14.9484537,0 15,0.0492424401 15,0.109986068 L15,1.70743332 C15,1.76817695 14.9484537,1.81741939 14.8848681,1.81741939 L13.7847191,1.81741939 C13.7211335,1.81741939 13.6695873,1.76817695 13.6695873,1.70743332 L13.6695873,1.36270875 C13.6695873,1.30196512 13.618041,1.25272268 13.5544554,1.25272268 L4.4718299,1.25272268 C4.40824432,1.25272268 4.35669803,1.30196512 4.35669803,1.36270875 L4.35669803,11.0573042 Z M13.643302,6.94269579 L12.6708931,8.23266 C12.6339377,8.28168376 12.5625088,8.29305614 12.5109078,8.25813165 L11.6144297,7.65137805 C11.562546,7.61626218 11.5502849,7.54761498 11.5870437,7.49805023 L11.5875599,7.49735988 L14.189496,4.04572099 C14.2266539,3.99642859 14.2986052,3.98524532 14.3502038,4.02074246 C14.3602714,4.02766843 14.369101,4.03610338 14.376351,4.04572099 L16.9782871,7.49735988 C17.015445,7.54665228 17.0037385,7.61538779 16.9521399,7.65088493 L16.9514173,7.65137805 L16.0549391,8.25813165 C16.0033382,8.29305614 15.9319093,8.28168376 15.8949539,8.23266 L14.9737147,7.01057579 L14.9737147,17.8900139 C14.9737147,17.9507576 14.9221684,18 14.8585828,18 L3.11513187,18 C3.05154629,18 3,17.9507576 3,17.8900139 L3,16.2309021 C3,16.1701584 3.05154629,16.120916 3.11513187,16.120916 L4.21528087,16.120916 C4.27886645,16.120916 4.33041275,16.1701584 4.33041275,16.2309021 L4.33041275,16.6372913 C4.33041275,16.6980349 4.38195904,16.7472773 4.44554462,16.7472773 L13.5281701,16.7472773 C13.5917557,16.7472773 13.643302,16.6980349 13.643302,16.6372913 L13.643302,6.94269579 Z" id="Shape" fill="currentColor" fill-rule="nonzero"></path>
    </g>
</svg>