<?xml version="1.0" encoding="UTF-8"?>
<svg width="1em" height="1em" viewBox="0 0 18 18" version="1.1" xmlns="http://www.w3.org/2000/svg" xmlns:xlink="http://www.w3.org/1999/xlink">
    <!-- Generator: Sketch 53.2 (72643) - https://sketchapp.com -->
    <title>align-center</title>
    <desc>Created with Sketch.</desc>
    <g id="align-center" stroke="none" stroke-width="1" fill="none" fill-rule="evenodd">
        <path d="M3,0.327336788 C3,0.146553672 3.15172434,0 3.33347315,0 L14.6665269,0 C14.850699,0 15,0.151920319 15,0.327336788 L15,3.67266321 C15,3.85344633 14.8482757,4 14.6665269,4 L3.33347315,4 C3.14930101,4 3,3.84807968 3,3.67266321 L3,0.327336788 Z M0,7.32733679 C0,7.14655367 0.134537458,7 0.29740575,7 L17.7025943,7 C17.8668469,7 18,7.15192032 18,7.32733679 L18,10.6726632 C18,10.8534463 17.8654625,11 17.7025943,11 L0.29740575,11 C0.13315309,11 0,10.8480797 0,10.6726632 L0,7.32733679 Z M3,14.3273368 C3,14.1465537 3.15172434,14 3.33347315,14 L14.6665269,14 C14.850699,14 15,14.1519203 15,14.3273368 L15,17.6726632 C15,17.8534463 14.8482757,18 14.6665269,18 L3.33347315,18 C3.14930101,18 3,17.8480797 3,17.6726632 L3,14.3273368 Z" id="Shape" fill="currentColor" fill-rule="nonzero"></path>
    </g>
</svg>