<?xml version="1.0" encoding="UTF-8"?>
<svg width="1em" height="1em" viewBox="0 0 18 18" version="1.1" xmlns="http://www.w3.org/2000/svg" xmlns:xlink="http://www.w3.org/1999/xlink">
    <!-- Generator: Sketch 55 (78076) - https://sketchapp.com -->
    <title>api-keys</title>
    <desc>Created with Sketch.</desc>
    <g id="api-keys" stroke="none" stroke-width="1" fill="none" fill-rule="evenodd">
        <path d="M0.28125,0 L17.71875,0 C17.8740801,-2.85336739e-17 18,0.125919914 18,0.28125 L18,2.25 L0,2.25 L0,0.28125 C-1.90224492e-17,0.125919914 0.125919914,2.85336739e-17 0.28125,0 Z M0,16.875 L18,16.875 L18,17.71875 C18,17.8740801 17.8740801,18 17.71875,18 L0.28125,18 C0.125919914,18 1.90224492e-17,17.8740801 0,17.71875 L0,16.875 Z M0,2.25 L1.125,2.25 L1.125,16.875 L0,16.875 L0,2.25 Z M16.875,2.25 L18,2.25 L18,16.875 L16.875,16.875 L16.875,2.25 Z M3.85,10.49 L6.01,10.49 L5.9,10.15 C5.6466654,9.3633294 5.4400008,8.71166925 5.28,8.195 C5.1199992,7.67833075 5.0233335,7.3566673 4.99,7.23 L4.94,7.04 C4.8666663,7.3533349 4.5400029,8.3899912 3.96,10.15 L3.85,10.49 Z M6.82,13 L6.29,11.35 L3.57,11.35 L3.03,13 L1.94,13 L4.27,6.26 L5.62,6.26 L7.92,13 L6.82,13 Z M9.99,9.76 L10.87,9.76 C11.3566691,9.76 11.728332,9.6400012 11.985,9.4 C12.2416679,9.1599988 12.37,8.8433353 12.37,8.45 C12.37,8.0366646 12.2400013,7.7100012 11.98,7.47 C11.7199987,7.2299988 11.3433358,7.11 10.85,7.11 L9.99,7.11 L9.99,9.76 Z M8.96,6.26 L10.89,6.26 C11.6633372,6.26 12.2766644,6.46499795 12.73,6.875 C13.1833356,7.28500205 13.41,7.8099968 13.41,8.45 C13.41,9.0900032 13.181669,9.609998 12.725,10.01 C12.2683311,10.410002 11.6766703,10.61 10.95,10.61 L9.99,10.61 L9.99,13 L8.96,13 L8.96,6.26 Z M14.54,13 L14.54,6.26 L15.56,6.26 L15.56,13 L14.54,13 Z" id="Fill" fill="currentColor" fill-rule="nonzero"></path>
    </g>
</svg>