<?xml version="1.0" encoding="UTF-8"?>
<svg width="1em" height="1em" viewBox="0 0 18 18" version="1.1" xmlns="http://www.w3.org/2000/svg" xmlns:xlink="http://www.w3.org/1999/xlink">
    <!-- Generator: Sketch 53.2 (72643) - https://sketchapp.com -->
    <title>array</title>
    <desc>Created with Sketch.</desc>
    <g id="array" stroke="none" stroke-width="1" fill="none" fill-rule="evenodd">
        <path d="M18,2.28125 L18,15.71875 C18,15.8740801 17.8740801,16 17.71875,16 L0.28125,16 C0.125919914,16 1.12270909e-15,15.8740801 0,15.71875 L0,2.28125 C-1.90224492e-17,2.12591991 0.125919914,2 0.28125,2 L17.71875,2 C17.8740801,2 18,2.12591991 18,2.28125 Z M2.25,14 L5.75,14 C5.88807119,14 6,13.8880712 6,13.75 L6,4.25 C6,4.11192881 5.88807119,4 5.75,4 L2.25,4 C2.11192881,4 2,4.11192881 2,4.25 L2,13.75 C2,13.8880712 2.11192881,14 2.25,14 Z M7.25,14 L10.75,14 C10.8880712,14 11,13.8880712 11,13.75 L11,4.25 C11,4.11192881 10.8880712,4 10.75,4 L7.25,4 C7.11192881,4 7,4.11192881 7,4.25 L7,13.75 C7,13.8880712 7.11192881,14 7.25,14 Z M12.25,14 L15.75,14 C15.8880712,14 16,13.8880712 16,13.75 L16,4.25 C16,4.11192881 15.8880712,4 15.75,4 L12.25,4 C12.1119288,4 12,4.11192881 12,4.25 L12,13.75 C12,13.8880712 12.1119288,14 12.25,14 Z" id="Shape" fill="currentColor" fill-rule="nonzero"></path>
    </g>
</svg>