<?xml version="1.0" encoding="UTF-8"?>
<svg width="1em" height="1em" viewBox="0 0 18 18" version="1.1" xmlns="http://www.w3.org/2000/svg" xmlns:xlink="http://www.w3.org/1999/xlink">
    <!-- Generator: Sketch 53.2 (72643) - https://sketchapp.com -->
    <title>attachment</title>
    <desc>Created with Sketch.</desc>
    <g id="attachment" stroke="none" stroke-width="1" fill="none" fill-rule="evenodd">
        <path d="M12.8965682,0.000138311763 C12.9628725,0.00013873058 13.0264611,0.0264781967 13.0733453,0.0733624169 L15.9269305,2.92694766 C15.9738151,2.97383226 16.0001546,3.03742144 16.0001546,3.10372628 L16.0001546,17.75 C16.0001546,17.8873285 15.8893835,17.9989524 15.752059,18 L2.25684489,17.9984146 C2.11877621,17.9994678 2.00599559,17.8883949 2.00494233,17.7503262 L2.00000001,0.250072226 C1.99996163,0.111999534 2.11186055,3.83894004e-05 2.24993324,9.65337144e-09 L12.8965682,0.000138311763 Z M6.46975276,14.000292 C7.10254,14.000292 7.73532725,13.7593482 8.21703625,13.2775782 L13.2775693,8.21775821 C14.2409873,7.25445356 14.2409873,5.68714231 13.2775693,4.72383766 C12.8108034,4.25724433 12.1903707,4.00018269 11.5302858,4.00018269 C10.8703186,4.00018269 10.2497682,4.25712668 9.78311996,4.72372002 L9.19727993,5.30960877 C9.05937985,5.44749263 9.05937985,5.67090684 9.19727993,5.80867305 C9.33518001,5.94655691 9.55862051,5.94655691 9.69640293,5.80867305 L10.282243,5.22278429 C10.6156976,4.88948653 11.0586957,4.70583747 11.5302858,4.70583747 C12.0012875,4.70583747 12.4447563,4.88948653 12.7780933,5.22278429 C13.4661818,5.91090946 13.4661818,7.03045111 12.7780933,7.71857628 L7.71791325,12.7786316 C7.02958945,13.4668744 5.9101514,13.4666391 5.2218276,12.7786316 C4.53362146,12.0905064 4.53362146,10.9709648 5.2218276,10.2828396 L7.98029992,7.52480946 C8.18032564,7.32480727 8.44635985,7.21468842 8.72910209,7.21468842 C9.01207965,7.21468842 9.27787853,7.32480727 9.47802191,7.52480946 C9.67792997,7.72481165 9.78806177,7.99069691 9.78806177,8.27352353 C9.78806177,8.5562325 9.67792997,8.82211776 9.47802191,9.02211995 L7.26973797,11.2300264 C7.13183789,11.3679103 7.13183789,11.5912069 7.26973797,11.7290907 C7.40763806,11.8669746 7.63096089,11.8669746 7.76886097,11.7290907 L9.97679192,9.52106658 C10.3101289,9.18788646 10.4937996,8.74494045 10.4937996,8.27352353 C10.4937996,7.80210661 10.3101289,7.35892529 9.97679192,7.02574518 C9.64357261,6.69244742 9.20010382,6.50879835 8.72886676,6.50879835 C8.25751204,6.50879835 7.81427858,6.69244742 7.4809416,7.02574518 L4.72258694,9.78377533 C3.75916895,10.7469623 3.75916895,12.3142736 4.72258694,13.2775782 C5.20429593,13.7593482 5.83708318,14.000292 6.46975276,14.000292 Z" id="Shape" fill="currentColor" fill-rule="nonzero"></path>
    </g>
</svg>