<?xml version="1.0" encoding="UTF-8"?>
<svg width="1em" height="1em" viewBox="0 0 18 18" version="1.1" xmlns="http://www.w3.org/2000/svg" xmlns:xlink="http://www.w3.org/1999/xlink">
    <!-- Generator: Sketch 55 (78076) - https://sketchapp.com -->
    <title>bell</title>
    <desc>Created with Sketch.</desc>
    <g id="bell" stroke="none" stroke-width="1" fill="none" fill-rule="evenodd">
        <path d="M14.3617647,12.5294118 L15.9356002,14.1032473 C15.9824843,14.1501314 16.0088235,14.2137199 16.0088235,14.280024 L16.0088235,14.75 C16.0088235,14.8880712 15.8968947,15 15.7588235,15 L2.25882353,15 C2.12075234,15 2.00882353,14.8880712 2.00882353,14.75 L2.00882353,14.280024 C2.00882353,14.2137199 2.03516274,14.1501314 2.08204683,14.1032473 L3.65588235,12.5294118 L3.65588235,7 C3.65588235,4.44705882 5.38529412,2.38823529 7.77352941,1.81176471 L7.77352941,1.23529412 C7.77352941,0.576470588 8.35,5.32907052e-15 9.00882353,5.32907052e-15 C9.66764706,5.32907052e-15 10.2441176,0.576470588 10.2441176,1.23529412 L10.2441176,1.81176471 C12.6323529,2.38823529 14.3617647,4.44705882 14.3617647,7 L14.3617647,12.5294118 Z M7,16 L11,16 C11,17.1045695 10.1045695,18 9,18 C7.8954305,18 7,17.1045695 7,16 Z" id="Fill" fill="currentColor" fill-rule="nonzero"></path>
    </g>
</svg>