<?xml version="1.0" encoding="UTF-8"?>
<svg width="1em" height="1em" viewBox="0 0 18 18" version="1.1" xmlns="http://www.w3.org/2000/svg" xmlns:xlink="http://www.w3.org/1999/xlink">
    <!-- Generator: Sketch 55 (78076) - https://sketchapp.com -->
    <title>billings</title>
    <desc>Created with Sketch.</desc>
    <g id="billings" stroke="none" stroke-width="1" fill="none" fill-rule="evenodd">
        <path d="M5,5 L13.4975266,0.0339874713 C13.6168413,-0.0354747678 13.7698749,0.0049304865 13.8393489,0.124238342 L17,5 L5,5 Z M0.25,6 L17.75,6 C17.8880712,6 18,6.11192881 18,6.25 L18,17.75 C18,17.8880712 17.8880712,18 17.75,18 L0.25,18 C0.111928813,18 1.69088438e-17,17.8880712 0,17.75 L0,6.25 C-1.69088438e-17,6.11192881 0.111928813,6 0.25,6 Z M1.25,7 C1.11192881,7 1,7.11192881 1,7.25 L1,8.75 C1,8.88807119 1.11192881,9 1.25,9 L16.75,9 C16.8880712,9 17,8.88807119 17,8.75 L17,7.25 C17,7.11192881 16.8880712,7 16.75,7 L1.25,7 Z M13.25,13 C13.1119288,13 13,13.1119288 13,13.25 L13,15.75 C13,15.8880712 13.1119288,16 13.25,16 L16.75,16 C16.8880712,16 17,15.8880712 17,15.75 L17,13.25 C17,13.1119288 16.8880712,13 16.75,13 L13.25,13 Z M1.25,13 C1.11192881,13 1,13.1119288 1,13.25 L1,13.75 C1,13.8880712 1.11192881,14 1.25,14 L7.75,14 C7.88807119,14 8,13.8880712 8,13.75 L8,13.25 C8,13.1119288 7.88807119,13 7.75,13 L1.25,13 Z M5.25,15 C5.11192881,15 5,15.1119288 5,15.25 L5,15.75 C5,15.8880712 5.11192881,16 5.25,16 L5.75,16 C5.88807119,16 6,15.8880712 6,15.75 L6,15.25 C6,15.1119288 5.88807119,15 5.75,15 L5.25,15 Z M1.25,15 C1.11192881,15 1,15.1119288 1,15.25 L1,15.75 C1,15.8880712 1.11192881,16 1.25,16 L3.75,16 C3.88807119,16 4,15.8880712 4,15.75 L4,15.25 C4,15.1119288 3.88807119,15 3.75,15 L1.25,15 Z" id="Fill" fill="currentColor" fill-rule="nonzero"></path>
    </g>
</svg>