<?xml version="1.0" encoding="UTF-8"?>
<svg width="1em" height="1em" viewBox="0 0 18 18" version="1.1" xmlns="http://www.w3.org/2000/svg" xmlns:xlink="http://www.w3.org/1999/xlink">
    <!-- Generator: Sketch 55 (78076) - https://sketchapp.com -->
    <title>blocked-users</title>
    <desc>Created with Sketch.</desc>
    <g id="blocked-users" stroke="none" stroke-width="1" fill="none" fill-rule="evenodd">
        <path d="M8.54785058,7.33910566 C6.99876742,8.52716134 6,10.3969434 6,12.5 C6,12.668236 6.00639146,12.8349792 6.01894482,13 L1.24344979e-14,13 L0.344441307,11.1055728 C0.776705577,8.72811933 2.84736013,7 5.26379086,7 L6.73620914,7 C7.37185925,7 7.98358267,7.11958075 8.54785058,7.33910566 L8.54785058,7.33910566 Z M6,6 C4.34314575,6 3,4.65685425 3,3 C3,1.34314575 4.34314575,0 6,0 C7.65685425,0 9,1.34314575 9,3 C9,4.65685425 7.65685425,6 6,6 Z M16.0161137,9.69099313 L9.69099313,16.0161137 C11.457839,17.4312133 14.0441255,17.3198356 15.6819805,15.6819805 C17.3198356,14.0441255 17.4312133,11.457839 16.0161137,9.69099313 L16.0161137,9.69099313 Z M15.3090069,8.98388635 C13.542161,7.56878672 10.9558745,7.68016443 9.31801948,9.31801948 C7.68016443,10.9558745 7.56878672,13.542161 8.98388635,15.3090069 L15.3090069,8.98388635 L15.3090069,8.98388635 Z M16.3890873,16.3890873 C14.2412037,18.5369709 10.7587963,18.5369709 8.6109127,16.3890873 C6.4630291,14.2412037 6.4630291,10.7587963 8.6109127,8.6109127 C10.7587963,6.4630291 14.2412037,6.4630291 16.3890873,8.6109127 C18.5369709,10.7587963 18.5369709,14.2412037 16.3890873,16.3890873 Z" id="Fill" fill="currentColor" fill-rule="nonzero"></path>
    </g>
</svg>