<?xml version="1.0" encoding="UTF-8"?>
<svg width="1em" height="1em" viewBox="0 0 18 18" version="1.1" xmlns="http://www.w3.org/2000/svg" xmlns:xlink="http://www.w3.org/1999/xlink">
    <!-- Generator: Sketch 53.2 (72643) - https://sketchapp.com -->
    <title>body</title>
    <desc>Created with Sketch.</desc>
    <g id="body" stroke="none" stroke-width="1" fill="none" fill-rule="evenodd">
        <path d="M0.107142857,0 L17.8928571,0 C17.9520305,0 18,0.0479694911 18,0.107142857 L18,17.8928571 C18,17.9520305 17.9520305,18 17.8928571,18 L0.107142857,18 C0.0479694911,18 0,17.9520305 0,17.8928571 L0,0.107142857 C0,0.0479694911 0.0479694911,0 0.107142857,0 Z M10.2651429,9.37714286 C10.7074286,9.048 10.9645714,8.544 10.9645714,7.94742857 C10.9645714,6.97028571 10.2754286,6.08571429 8.856,6.08571429 L6.87085714,6.08571429 L6.87085714,13.2857143 L9.22628571,13.2857143 C10.6971429,13.2857143 11.4685714,12.2674286 11.4685714,11.2182857 C11.4685714,10.3542857 10.9954286,9.696 10.2651429,9.37714286 Z M8.79428571,7.04228571 C9.53485714,7.04228571 9.97714286,7.45371429 9.97714286,8.04 C9.97714286,8.60571429 9.52457143,9.07885714 8.784,9.07885714 L7.848,9.07885714 L7.848,7.04228571 L8.79428571,7.04228571 Z M9.15428571,12.3291429 L7.848,12.3291429 L7.848,10.0457143 L9.15428571,10.0457143 C9.97714286,10.0457143 10.4502857,10.5394286 10.4502857,11.1771429 C10.4502857,11.8148571 9.96685714,12.3291429 9.15428571,12.3291429 Z" id="Shape" fill="currentColor" fill-rule="nonzero"></path>
    </g>
</svg>