<?xml version="1.0" encoding="UTF-8"?>
<svg width="1em" height="1em" viewBox="0 0 18 18" version="1.1" xmlns="http://www.w3.org/2000/svg" xmlns:xlink="http://www.w3.org/1999/xlink">
    <!-- Generator: Sketch 53.2 (72643) - https://sketchapp.com -->
    <title>bolt</title>
    <desc>Created with Sketch.</desc>
    <g id="bolt" stroke="none" stroke-width="1" fill="none" fill-rule="evenodd">
        <path d="M13.875344,4.73798077 C14.0092338,4.88221154 14.0352679,5.04086538 13.9534464,5.21394231 L7.92840475,17.7295673 C7.83170655,17.9098558 7.67550177,18 7.4597904,18 C7.43003711,18 7.37796885,17.9927885 7.30358562,17.9783654 C7.17713413,17.9423077 7.08229551,17.8737981 7.01906976,17.7728365 C6.95584402,17.671875 6.93910779,17.5637019 6.96886108,17.4483173 L9.16688552,8.70793269 L4.63694683,9.80048077 C4.60719354,9.80769231 4.5625636,9.81129808 4.50305702,9.81129808 C4.3691672,9.81129808 4.2538732,9.77163462 4.157175,9.69230769 C4.02328518,9.58413462 3.97493609,9.44350962 4.0121277,9.27043269 L6.25478208,0.346153846 C6.28453537,0.245192308 6.34404195,0.162259615 6.43330183,0.0973557692 C6.5225617,0.0324519231 6.62669823,0 6.74571139,0 L10.4053663,0 C10.5466944,0 10.6657076,0.0450721154 10.7624058,0.135216346 C10.859104,0.225360577 10.9074531,0.331730769 10.9074531,0.454326923 C10.9074531,0.512019231 10.8888573,0.576923077 10.8516657,0.649038462 L8.94373583,5.65745192 L13.3620997,4.59735577 C13.4216063,4.58293269 13.4662362,4.57572115 13.4959895,4.57572115 C13.6373176,4.57572115 13.7637691,4.62980769 13.875344,4.73798077 Z" id="Shape" fill="currentColor" fill-rule="nonzero"></path>
    </g>
</svg>