<?xml version="1.0" encoding="UTF-8"?>
<svg width="1em" height="1em" viewBox="0 0 18 18" version="1.1" xmlns="http://www.w3.org/2000/svg" xmlns:xlink="http://www.w3.org/1999/xlink">
    <!-- Generator: Sketch 53.2 (72643) - https://sketchapp.com -->
    <title>center-stroke</title>
    <desc>Created with Sketch.</desc>
    <g id="center-stroke" stroke="none" stroke-width="1" fill="none" fill-rule="evenodd">
        <path d="M0.9,17.1 L1.6875,17.1 C1.74963203,17.1 1.8,17.150368 1.8,17.2125 L1.8,17.8875 C1.8,17.949632 1.74963203,18 1.6875,18 L0.1125,18 C0.0503679656,18 0,17.949632 0,17.8875 L0,16.3125 C0,16.250368 0.0503679656,16.2 0.1125,16.2 L0.7875,16.2 C0.849632034,16.2 0.9,16.250368 0.9,16.3125 L0.9,17.1 Z M17.8875,18 L16.3125,18 C16.250368,18 16.2,17.949632 16.2,17.8875 L16.2,17.2125 C16.2,17.150368 16.250368,17.1 16.3125,17.1 L17.1,17.1 L17.1,16.3125 C17.1,16.250368 17.150368,16.2 17.2125,16.2 L17.8875,16.2 C17.949632,16.2 18,16.250368 18,16.3125 L18,17.8875 C18,17.949632 17.949632,18 17.8875,18 Z M7.2,0.1125 L7.2,1.6875 C7.2,1.74963203 7.14963203,1.8 7.0875,1.8 L6.4125,1.8 C6.35036797,1.8 6.3,1.74963203 6.3,1.6875 L6.3,0.9 L5.5125,0.9 C5.45036797,0.9 5.4,0.849632034 5.4,0.7875 L5.4,0.1125 C5.4,0.0503679656 5.45036797,0 5.5125,0 L7.0875,0 C7.14963203,0 7.2,0.0503679656 7.2,0.1125 Z M0.1125,0 L1.6875,0 C1.74963203,0 1.8,0.0503679656 1.8,0.1125 L1.8,0.7875 C1.8,0.849632034 1.74963203,0.9 1.6875,0.9 L0.9,0.9 L0.9,1.6875 C0.9,1.74963203 0.849632034,1.8 0.7875,1.8 L0.1125,1.8 C0.0503679656,1.8 0,1.74963203 0,1.6875 L0,0.1125 C0,0.0503679656 0.0503679656,0 0.1125,0 Z M4.38750001,2.69999999 C4.44963204,2.7 4.5,2.75036797 4.5,2.8125 L4.50004779,13.382816 C4.50004778,13.4449289 4.55038602,13.495289 4.61249899,13.495316 L15.1875,13.5 C15.249613,13.500027 15.2999512,13.550387 15.2999512,13.6125 L15.3000001,15.1891282 C15.3000001,15.2512602 15.2496321,15.3016282 15.1875001,15.3016282 L2.8125,15.3016282 C2.75036796,15.3016282 2.7,15.2512602 2.7,15.1891282 L2.7,2.81249999 C2.7,2.75036795 2.75036796,2.69999999 2.8125,2.69999999 L4.3875,2.7 L4.38750001,2.69999999 Z M0.1125,2.7 L0.7875,2.7 C0.849632034,2.7 0.9,2.75036797 0.9,2.8125 L0.9,4.3875 C0.9,4.44963203 0.849632034,4.5 0.7875,4.5 L0.1125,4.5 C0.0503679656,4.5 0,4.44963203 0,4.3875 L0,2.8125 C0,2.75036797 0.0503679656,2.7 0.1125,2.7 Z M0.1125,5.4 L0.7875,5.4 C0.849632034,5.4 0.9,5.45036797 0.9,5.5125 L0.9,7.0875 C0.9,7.14963203 0.849632034,7.2 0.7875,7.2 L0.1125,7.2 C0.0503679656,7.2 0,7.14963203 0,7.0875 L0,5.5125 C0,5.45036797 0.0503679656,5.4 0.1125,5.4 Z M0.1125,8.1 L0.7875,8.1 C0.849632034,8.1 0.9,8.15036797 0.9,8.2125 L0.9,9.7875 C0.9,9.84963203 0.849632034,9.9 0.7875,9.9 L0.1125,9.9 C0.0503679656,9.9 0,9.84963203 0,9.7875 L0,8.2125 C0,8.15036797 0.0503679656,8.1 0.1125,8.1 Z M0.1125,10.8 L0.7875,10.8 C0.849632034,10.8 0.9,10.850368 0.9,10.9125 L0.9,12.4875 C0.9,12.549632 0.849632034,12.6 0.7875,12.6 L0.1125,12.6 C0.0503679656,12.6 0,12.549632 0,12.4875 L0,10.9125 C0,10.850368 0.0503679656,10.8 0.1125,10.8 Z M0.1125,13.5 L0.7875,13.5 C0.849632034,13.5 0.9,13.550368 0.9,13.6125 L0.9,15.1875 C0.9,15.249632 0.849632034,15.3 0.7875,15.3 L0.1125,15.3 C0.0503679656,15.3 0,15.249632 0,15.1875 L0,13.6125 C0,13.550368 0.0503679656,13.5 0.1125,13.5 Z M2.8125,0 L4.3875,0 C4.44963203,0 4.5,0.0503679656 4.5,0.1125 L4.5,0.7875 C4.5,0.849632034 4.44963203,0.9 4.3875,0.9 L2.8125,0.9 C2.75036797,0.9 2.7,0.849632034 2.7,0.7875 L2.7,0.1125 C2.7,0.0503679656 2.75036797,0 2.8125,0 Z M6.4125,2.7 L7.0875,2.7 C7.14963203,2.7 7.2,2.75036797 7.2,2.8125 L7.2,4.3875 C7.2,4.44963203 7.14963203,4.5 7.0875,4.5 L6.4125,4.5 C6.35036797,4.5 6.3,4.44963203 6.3,4.3875 L6.3,2.8125 C6.3,2.75036797 6.35036797,2.7 6.4125,2.7 Z M6.4125,5.4 L7.0875,5.4 C7.14963203,5.4 7.2,5.45036797 7.2,5.5125 L7.2,7.0875 C7.2,7.14963203 7.14963203,7.2 7.0875,7.2 L6.4125,7.2 C6.35036797,7.2 6.3,7.14963203 6.3,7.0875 L6.3,5.5125 C6.3,5.45036797 6.35036797,5.4 6.4125,5.4 Z M6.4125,8.1 L7.0875,8.1 C7.14963203,8.1 7.2,8.15036797 7.2,8.2125 L7.2,9.7875 C7.2,9.84963203 7.14963203,9.9 7.0875,9.9 L6.4125,9.9 C6.35036797,9.9 6.3,9.84963203 6.3,9.7875 L6.3,8.2125 C6.3,8.15036797 6.35036797,8.1 6.4125,8.1 Z M6.4125,10.8 L7.9875,10.8 C8.04963203,10.8 8.1,10.850368 8.1,10.9125 L8.1,11.5875 C8.1,11.649632 8.04963203,11.7 7.9875,11.7 L6.4125,11.7 C6.35036797,11.7 6.3,11.649632 6.3,11.5875 L6.3,10.9125 C6.3,10.850368 6.35036797,10.8 6.4125,10.8 Z M9.1125,10.8 L10.6875,10.8 C10.749632,10.8 10.8,10.850368 10.8,10.9125 L10.8,11.5875 C10.8,11.649632 10.749632,11.7 10.6875,11.7 L9.1125,11.7 C9.05036797,11.7 9,11.649632 9,11.5875 L9,10.9125 C9,10.850368 9.05036797,10.8 9.1125,10.8 Z M11.8125,10.8 L13.3875,10.8 C13.449632,10.8 13.5,10.850368 13.5,10.9125 L13.5,11.5875 C13.5,11.649632 13.449632,11.7 13.3875,11.7 L11.8125,11.7 C11.750368,11.7 11.7,11.649632 11.7,11.5875 L11.7,10.9125 C11.7,10.850368 11.750368,10.8 11.8125,10.8 Z M14.5125,10.8 L16.0875,10.8 C16.149632,10.8 16.2,10.850368 16.2,10.9125 L16.2,11.5875 C16.2,11.649632 16.149632,11.7 16.0875,11.7 L14.5125,11.7 C14.450368,11.7 14.4,11.649632 14.4,11.5875 L14.4,10.9125 C14.4,10.850368 14.450368,10.8 14.5125,10.8 Z M17.2125,10.8 L17.8875,10.8 C17.949632,10.8 18,10.850368 18,10.9125 L18,12.4875 C18,12.549632 17.949632,12.6 17.8875,12.6 L17.2125,12.6 C17.150368,12.6 17.1,12.549632 17.1,12.4875 L17.1,10.9125 C17.1,10.850368 17.150368,10.8 17.2125,10.8 Z M17.2125,13.5 L17.8875,13.5 C17.949632,13.5 18,13.550368 18,13.6125 L18,15.1875 C18,15.249632 17.949632,15.3 17.8875,15.3 L17.2125,15.3 C17.150368,15.3 17.1,15.249632 17.1,15.1875 L17.1,13.6125 C17.1,13.550368 17.150368,13.5 17.2125,13.5 Z M13.6125,17.1 L15.1875,17.1 C15.249632,17.1 15.3,17.150368 15.3,17.2125 L15.3,17.8875 C15.3,17.949632 15.249632,18 15.1875,18 L13.6125,18 C13.550368,18 13.5,17.949632 13.5,17.8875 L13.5,17.2125 C13.5,17.150368 13.550368,17.1 13.6125,17.1 Z M10.9125,17.1 L12.4875,17.1 C12.549632,17.1 12.6,17.150368 12.6,17.2125 L12.6,17.8875 C12.6,17.949632 12.549632,18 12.4875,18 L10.9125,18 C10.850368,18 10.8,17.949632 10.8,17.8875 L10.8,17.2125 C10.8,17.150368 10.850368,17.1 10.9125,17.1 Z M8.2125,17.1 L9.7875,17.1 C9.84963203,17.1 9.9,17.150368 9.9,17.2125 L9.9,17.8875 C9.9,17.949632 9.84963203,18 9.7875,18 L8.2125,18 C8.15036797,18 8.1,17.949632 8.1,17.8875 L8.1,17.2125 C8.1,17.150368 8.15036797,17.1 8.2125,17.1 Z M5.5125,17.1 L7.0875,17.1 C7.14963203,17.1 7.2,17.150368 7.2,17.2125 L7.2,17.8875 C7.2,17.949632 7.14963203,18 7.0875,18 L5.5125,18 C5.45036797,18 5.4,17.949632 5.4,17.8875 L5.4,17.2125 C5.4,17.150368 5.45036797,17.1 5.5125,17.1 Z M2.8125,17.1 L4.3875,17.1 C4.44963203,17.1 4.5,17.150368 4.5,17.2125 L4.5,17.8875 C4.5,17.949632 4.44963203,18 4.3875,18 L2.8125,18 C2.75036797,18 2.7,17.949632 2.7,17.8875 L2.7,17.2125 C2.7,17.150368 2.75036797,17.1 2.8125,17.1 Z" id="Shape" fill="currentColor" fill-rule="nonzero"></path>
    </g>
</svg>