<?xml version="1.0" encoding="UTF-8"?>
<svg width="1em" height="1em" viewBox="0 0 18 18" version="1.1" xmlns="http://www.w3.org/2000/svg" xmlns:xlink="http://www.w3.org/1999/xlink">
    <!-- Generator: Sketch 53.2 (72643) - https://sketchapp.com -->
    <title>checked</title>
    <desc>Created with Sketch.</desc>
    <g id="checked" stroke="none" stroke-width="1" fill="none" fill-rule="evenodd">
        <path d="M0,9.21 C0,9.07 0.0692307692,8.86 0.207692308,8.72 L1.17692308,7.74 C1.45384615,7.46 1.86923077,7.46 2.14615385,7.74 L6.02307692,11.94 C6.16153846,12.08 6.36923077,12.08 6.50769231,11.94 L15.8538462,2.21 C16.1307692,1.93 16.5461538,1.93 16.8230769,2.21 L17.7923077,3.19 C18.0692308,3.47 18.0692308,3.89 17.7923077,4.17 L6.71538462,15.79 C6.57692308,15.93 6.43846154,16 6.23076923,16 C6.02307692,16 5.88461538,15.93 5.74615385,15.79 L0.207692308,9.7 C0.0692307692,9.56 0,9.35 0,9.21 Z" id="Shape" fill="currentColor" fill-rule="nonzero"></path>
    </g>
</svg>