<?xml version="1.0" encoding="UTF-8"?>
<svg width="1em" height="1em" viewBox="0 0 18 18" version="1.1" xmlns="http://www.w3.org/2000/svg" xmlns:xlink="http://www.w3.org/1999/xlink">
    <!-- Generator: Sketch 53.2 (72643) - https://sketchapp.com -->
    <title>checkbox</title>
    <desc>Created with Sketch.</desc>
    <g id="checkbox" stroke="none" stroke-width="1" fill="none" fill-rule="evenodd">
        <path d="M0,0.105707198 C0,0.0473267248 0.0516357422,0 0.105707198,0 L17.8942928,0 C17.9526733,0 18,0.0516357422 18,0.105707198 L18,17.8942928 C18,17.9526733 17.9483643,18 17.8942928,18 L0.105707198,18 C0.0473267248,18 0,17.9483643 0,17.8942928 L0,0.105707198 Z M6.10769231,14.82 C6.23076923,14.94 6.35384615,15 6.53846154,15 C6.72307692,15 6.84615385,14.94 6.96923077,14.82 L16.8153846,4.86 C17.0615385,4.62 17.0615385,4.26 16.8153846,4.02 L15.9538462,3.18 C15.7076923,2.94 15.3384615,2.94 15.0923077,3.18 L6.78461538,11.52 C6.66153846,11.64 6.47692308,11.64 6.35384615,11.52 L2.90769231,7.92 C2.66153846,7.68 2.29230769,7.68 2.04615385,7.92 L1.18461538,8.76 C1.06153846,8.88 1,9.06 1,9.18 C1,9.3 1.06153846,9.48 1.18461538,9.6 L6.10769231,14.82 Z" id="Shape" fill="currentColor" fill-rule="nonzero"></path>
    </g>
</svg>