<?xml version="1.0" encoding="UTF-8"?>
<svg width="1em" height="1em" viewBox="0 0 18 18" version="1.1" xmlns="http://www.w3.org/2000/svg" xmlns:xlink="http://www.w3.org/1999/xlink">
    <!-- Generator: Sketch 53.2 (72643) - https://sketchapp.com -->
    <title>circle-add</title>
    <desc>Created with Sketch.</desc>
    <g id="circle-add" stroke="none" stroke-width="1" fill="none" fill-rule="evenodd">
        <path d="M9,18 C4.02943725,18 0,13.9705627 0,9 C0,4.02943725 4.02943725,0 9,0 C13.9705627,0 18,4.02943725 18,9 C18,13.9705627 13.9705627,18 9,18 Z M7.875,7.875 L3.65625,7.875 C3.50091991,7.875 3.375,8.00091991 3.375,8.15625 L3.375,9.84375 C3.375,9.99908009 3.50091991,10.125 3.65625,10.125 L7.875,10.125 L7.875,14.34375 C7.875,14.4990801 8.00091991,14.625 8.15625,14.625 L9.84375,14.625 C9.99908009,14.625 10.125,14.4990801 10.125,14.34375 L10.125,10.125 L14.34375,10.125 C14.4990801,10.125 14.625,9.99908009 14.625,9.84375 L14.625,8.15625 C14.625,8.00091991 14.4990801,7.875 14.34375,7.875 L10.125,7.875 L10.125,3.65625 C10.125,3.50091991 9.99908009,3.375 9.84375,3.375 L8.16035265,3.37525653 C8.0051227,3.37525653 7.87924429,3.50102022 7.87910277,3.65625012 L7.875,7.875 Z" id="Shape" fill="currentColor" fill-rule="nonzero"></path>
    </g>
</svg>