<?xml version="1.0" encoding="UTF-8"?>
<svg width="1em" height="1em" viewBox="0 0 18 18" version="1.1" xmlns="http://www.w3.org/2000/svg" xmlns:xlink="http://www.w3.org/1999/xlink">
    <!-- Generator: Sketch 53.2 (72643) - https://sketchapp.com -->
    <title>circle-check</title>
    <desc>Created with Sketch.</desc>
    <g id="circle-check" stroke="none" stroke-width="1" fill="none" fill-rule="evenodd">
        <path d="M9,18 C13.9705627,18 18,13.9705627 18,9 C18,4.02943725 13.9705627,0 9,0 C4.02943725,0 0,4.02943725 0,9 C0,13.9705627 4.02943725,18 9,18 Z M2.25,9.151875 C2.25,9.050625 2.30192308,8.89875 2.40576923,8.7975 L3.13269231,8.08875 C3.34038462,7.88625 3.65192308,7.88625 3.85961538,8.08875 L6.76730769,11.12625 C6.87115385,11.2275 7.02692308,11.2275 7.13076923,11.12625 L14.1403846,4.089375 C14.3480769,3.886875 14.6596154,3.886875 14.8673077,4.089375 L15.5942308,4.798125 C15.8019231,5.000625 15.8019231,5.304375 15.5942308,5.506875 L7.28653846,13.910625 C7.18269231,14.011875 7.07884615,14.0625 6.92307692,14.0625 C6.76730769,14.0625 6.66346154,14.011875 6.55961538,13.910625 L2.40576923,9.50625 C2.30192308,9.405 2.25,9.253125 2.25,9.151875 Z" id="Shape" fill="currentColor" fill-rule="nonzero"></path>
    </g>
</svg>