<?xml version="1.0" encoding="UTF-8"?>
<svg width="1em" height="1em" viewBox="0 0 18 18" version="1.1" xmlns="http://www.w3.org/2000/svg" xmlns:xlink="http://www.w3.org/1999/xlink">
    <!-- Generator: Sketch 53.2 (72643) - https://sketchapp.com -->
    <title>circle-plus</title>
    <desc>Created with Sketch.</desc>
    <g id="circle-plus" stroke="none" stroke-width="1" fill="none" fill-rule="evenodd">
        <path d="M9,18 C4.02943725,18 0,13.9705627 0,9 C0,4.02943725 4.02943725,0 9,0 C13.9705627,0 18,4.02943725 18,9 C18,13.9705627 13.9705627,18 9,18 Z M9,16.875 C13.3492424,16.875 16.875,13.3492424 16.875,9 C16.875,4.6507576 13.3492424,1.125 9,1.125 C4.6507576,1.125 1.125,4.6507576 1.125,9 C1.125,13.3492424 4.6507576,16.875 9,16.875 Z M9.703125,8.296875 L14.4492187,8.296875 C14.5463001,8.296875 14.625,8.37557495 14.625,8.47265625 L14.625,9.52734375 C14.625,9.62442505 14.5463001,9.703125 14.4492187,9.703125 L9.703125,9.703125 L9.703125,14.4492188 C9.703125,14.5463001 9.62442505,14.625 9.52734375,14.625 L8.47265625,14.625 C8.37557495,14.625 8.296875,14.5463001 8.296875,14.4492188 L8.296875,9.703125 L3.55078125,9.703125 C3.45369995,9.703125 3.375,9.62442505 3.375,9.52734375 L3.375,8.47265625 C3.375,8.37557495 3.45369995,8.296875 3.55078125,8.296875 L8.296875,8.296875 L8.296875,3.55078125 C8.296875,3.45369995 8.37557495,3.375 8.47265625,3.375 L9.52734375,3.375 C9.62442505,3.375 9.703125,3.45369995 9.703125,3.55078125 L9.703125,8.296875 Z" id="Shape" fill="currentColor" fill-rule="nonzero"></path>
    </g>
</svg>