<?xml version="1.0" encoding="UTF-8"?>
<svg width="1em" height="1em" viewBox="0 0 18 18" version="1.1" xmlns="http://www.w3.org/2000/svg" xmlns:xlink="http://www.w3.org/1999/xlink">
    <!-- Generator: Sketch 53.2 (72643) - https://sketchapp.com -->
    <title>circle-exclamation</title>
    <desc>Created with Sketch.</desc>
    <g id="circle-exclamation" stroke="none" stroke-width="1" fill="none" fill-rule="evenodd">
        <path d="M9,18 C4.02943725,18 0,13.9705627 0,9 C0,4.02943725 4.02943725,0 9,0 C13.9705627,0 18,4.02943725 18,9 C18,13.9705627 13.9705627,18 9,18 Z M7.875,10.96875 C7.875,11.1240801 8.00091991,11.25 8.15625,11.25 L9.84375,11.25 C9.99908009,11.25 10.125,11.1240801 10.125,10.96875 L10.125,3.65625 C10.125,3.50091991 9.99908009,3.375 9.84375,3.375 L8.15625,3.375 C8.00091991,3.375 7.875,3.50091991 7.875,3.65625 L7.875,10.96875 Z M8.1780438,14.3129562 C8.39702299,14.5209864 8.66526849,14.625 8.98278832,14.625 C9.30030816,14.625 9.56855365,14.5182492 9.78753285,14.3047445 C10.006512,14.0912398 10.116,13.8257315 10.116,13.5082117 C10.116,13.2016408 10.0037748,12.9361325 9.77932117,12.7116788 C9.55486749,12.4872252 9.2893592,12.375 8.98278832,12.375 C8.66526849,12.375 8.39976019,12.484488 8.18625547,12.7034672 C7.97275076,12.9224464 7.866,13.1906918 7.866,13.5082117 C7.866,13.8257315 7.97001356,14.093977 8.1780438,14.3129562 Z" id="Shape" fill="currentColor" fill-rule="nonzero"></path>
    </g>
</svg>