<?xml version="1.0" encoding="UTF-8"?>
<svg width="1em" height="1em" viewBox="0 0 18 18" version="1.1" xmlns="http://www.w3.org/2000/svg" xmlns:xlink="http://www.w3.org/1999/xlink">
    <!-- Generator: Sketch 53.2 (72643) - https://sketchapp.com -->
    <title>circle-change</title>
    <desc>Created with Sketch.</desc>
    <g id="circle-change" stroke="none" stroke-width="1" fill="none" fill-rule="evenodd">
        <path d="M9,18 C4.02943725,18 0,13.9705627 0,9 C0,4.02943725 4.02943725,0 9,0 C13.9705627,0 18,4.02943725 18,9 C18,13.9705627 13.9705627,18 9,18 Z M11.25,14.625 C9.38603897,14.625 7.875,13.113961 7.875,11.25 C7.875,9.38603897 9.38603897,7.875 11.25,7.875 C13.113961,7.875 14.625,9.38603897 14.625,11.25 C14.625,13.113961 13.113961,14.625 11.25,14.625 Z M11.25,15.75 C13.7352814,15.75 15.75,13.7352814 15.75,11.25 C15.75,8.76471863 13.7352814,6.75 11.25,6.75 C8.76471863,6.75 6.75,8.76471863 6.75,11.25 C6.75,13.7352814 8.76471863,15.75 11.25,15.75 Z M3.375,4.5 L3.375,10.96875 C3.375,11.1240801 3.50091991,11.25 3.65625,11.25 L4.5,11.25 L4.5,4.5 L3.375,4.5 Z M10.125,4.5 L10.125,5.625 L11.25,5.625 L11.25,4.5 L10.125,4.5 Z M4.5,10.125 L4.5,11.25 L5.625,11.25 L5.625,10.125 L4.5,10.125 Z M3.65625,3.375 C3.50091991,3.375 3.375,3.50091991 3.375,3.65625 L3.375,4.5 L11.25,4.5 L11.25,3.65625 C11.25,3.50091991 11.1240801,3.375 10.96875,3.375 L3.65625,3.375 Z" id="Shape" fill="currentColor" fill-rule="nonzero"></path>
    </g>
</svg>