<?xml version="1.0" encoding="UTF-8"?>
<svg width="1em" height="1em" viewBox="0 0 18 18" version="1.1" xmlns="http://www.w3.org/2000/svg" xmlns:xlink="http://www.w3.org/1999/xlink">
    <!-- Generator: Sketch 53.2 (72643) - https://sketchapp.com -->
    <title>clone</title>
    <desc>Created with Sketch.</desc>
    <g id="clone" stroke="none" stroke-width="1" fill="none" fill-rule="evenodd">
        <path d="M12.8571429,0 L12.8571429,4.28571429 L4.28571429,4.28571429 L4.28571429,12.8571429 L0,12.8571429 L0,0 L12.8571429,0 Z M0.857142857,1.37218665 L3.7706705,4.28571429 L4.28571429,3.7706705 L1.37218665,0.857142857 L0.857142857,1.37218665 Z M12,2.57142857 L12,0.857142857 L10.2857143,0.857142857 L12,2.57142857 Z M18,5.14285714 L18,17.8928571 C18,17.9520305 17.9520305,18 17.8928571,18 L5.25,18 C5.19082663,18 5.14285714,17.9520305 5.14285714,17.8928571 L5.14285714,5.25 C5.14285714,5.19082663 5.19082663,5.14285714 5.25,5.14285714 L18,5.14285714 Z M17.1428571,8.57142857 L17.1428571,6 L14.5714286,6 L17.1428571,8.57142857 Z M13.7142857,1.37218665 L14.2293295,0.857142857 L17.1428571,3.7706705 L16.6278134,4.28571429 L13.7142857,1.37218665 Z M0.857142857,14.2293295 L1.37218665,13.7142857 L4.28571429,16.6278134 L3.7706705,17.1428571 L0.857142857,14.2293295 Z" id="Shape" fill="currentColor" fill-rule="nonzero"></path>
    </g>
</svg>