<?xml version="1.0" encoding="UTF-8"?>
<svg width="1em" height="1em" viewBox="0 0 18 18" version="1.1" xmlns="http://www.w3.org/2000/svg" xmlns:xlink="http://www.w3.org/1999/xlink">
    <!-- Generator: Sketch 53.2 (72643) - https://sketchapp.com -->
    <title>close</title>
    <desc>Created with Sketch.</desc>
    <g id="close" stroke="none" stroke-width="1" fill="none" fill-rule="evenodd">
        <path d="M9,6.966918 L15.8616517,0.105266267 C16.0020068,-0.0350887557 16.2295672,-0.0350887557 16.3699222,0.105266267 L17.8947337,1.63007776 C18.0350888,1.77043279 18.0350888,1.99799324 17.8947337,2.13834826 L11.033082,9 L17.8947337,15.8616517 C18.0350888,16.0020068 18.0350888,16.2295672 17.8947337,16.3699222 L16.3699222,17.8947337 C16.2295672,18.0350888 16.0020068,18.0350888 15.8616517,17.8947337 L9,11.033082 L2.13834826,17.8947337 C1.99799324,18.0350888 1.77043279,18.0350888 1.63007776,17.8947337 L0.105266267,16.3699222 C-0.0350887557,16.2295672 -0.0350887557,16.0020068 0.105266267,15.8616517 L6.966918,9 L0.105266267,2.13834826 C-0.0350887557,1.99799324 -0.0350887557,1.77043279 0.105266267,1.63007776 L1.63007776,0.105266267 C1.77043279,-0.0350887557 1.99799324,-0.0350887557 2.13834826,0.105266267 L9,6.966918 Z" id="Shape" fill="currentColor" fill-rule="nonzero"></path>
    </g>
</svg>