<?xml version="1.0" encoding="UTF-8"?>
<svg width="1em" height="1em" viewBox="0 0 18 18" version="1.1" xmlns="http://www.w3.org/2000/svg" xmlns:xlink="http://www.w3.org/1999/xlink">
    <!-- Generator: Sketch 53.2 (72643) - https://sketchapp.com -->
    <title>code-fork</title>
    <desc>Created with Sketch.</desc>
    <g id="code-fork" stroke="none" stroke-width="1" fill="none" fill-rule="evenodd">
        <path d="M15,3.75 C15,4.15625 14.8984375,4.53320313 14.6953125,4.88085938 C14.4921875,5.22851563 14.21875,5.5 13.875,5.6953125 C13.859375,7.9375 12.9765625,9.5546875 11.2265625,10.546875 C10.6953125,10.84375 9.90234375,11.1601563 8.84765625,11.4960938 C7.84765625,11.8085938 7.18554688,12.0859375 6.86132813,12.328125 C6.53710938,12.5703125 6.375,12.9609375 6.375,13.5 L6.375,13.8046875 C6.71875,14 6.9921875,14.2714844 7.1953125,14.6191406 C7.3984375,14.9667969 7.5,15.34375 7.5,15.75 C7.5,16.375 7.28125,16.90625 6.84375,17.34375 C6.40625,17.78125 5.875,18 5.25,18 C4.625,18 4.09375,17.78125 3.65625,17.34375 C3.21875,16.90625 3,16.375 3,15.75 C3,15.34375 3.1015625,14.9667969 3.3046875,14.6191406 C3.5078125,14.2714844 3.78125,14 4.125,13.8046875 L4.125,4.1953125 C3.78125,4 3.5078125,3.72851563 3.3046875,3.38085938 C3.1015625,3.03320313 3,2.65625 3,2.25 C3,1.625 3.21875,1.09375 3.65625,0.65625 C4.09375,0.21875 4.625,0 5.25,0 C5.875,0 6.40625,0.21875 6.84375,0.65625 C7.28125,1.09375 7.5,1.625 7.5,2.25 C7.5,2.65625 7.3984375,3.03320313 7.1953125,3.38085938 C6.9921875,3.72851563 6.71875,4 6.375,4.1953125 L6.375,10.0195313 C6.796875,9.81640625 7.3984375,9.59375 8.1796875,9.3515625 C8.609375,9.21875 8.95117188,9.10351563 9.20507813,9.00585938 C9.45898438,8.90820313 9.734375,8.78710938 10.03125,8.64257813 C10.328125,8.49804688 10.5585938,8.34375 10.7226563,8.1796875 C10.8867188,8.015625 11.0449219,7.81640625 11.1972656,7.58203125 C11.3496094,7.34765625 11.4589844,7.07617188 11.5253906,6.76757813 C11.5917969,6.45898438 11.625,6.1015625 11.625,5.6953125 C11.28125,5.5 11.0078125,5.22851563 10.8046875,4.88085938 C10.6015625,4.53320313 10.5,4.15625 10.5,3.75 C10.5,3.125 10.71875,2.59375 11.15625,2.15625 C11.59375,1.71875 12.125,1.5 12.75,1.5 C13.375,1.5 13.90625,1.71875 14.34375,2.15625 C14.78125,2.59375 15,3.125 15,3.75 Z M6.375,15.75 C6.375,15.4375 6.265625,15.171875 6.046875,14.953125 C5.828125,14.734375 5.5625,14.625 5.25,14.625 C4.9375,14.625 4.671875,14.734375 4.453125,14.953125 C4.234375,15.171875 4.125,15.4375 4.125,15.75 C4.125,16.0625 4.234375,16.328125 4.453125,16.546875 C4.671875,16.765625 4.9375,16.875 5.25,16.875 C5.5625,16.875 5.828125,16.765625 6.046875,16.546875 C6.265625,16.328125 6.375,16.0625 6.375,15.75 Z M6.375,2.25 C6.375,1.9375 6.265625,1.671875 6.046875,1.453125 C5.828125,1.234375 5.5625,1.125 5.25,1.125 C4.9375,1.125 4.671875,1.234375 4.453125,1.453125 C4.234375,1.671875 4.125,1.9375 4.125,2.25 C4.125,2.5625 4.234375,2.828125 4.453125,3.046875 C4.671875,3.265625 4.9375,3.375 5.25,3.375 C5.5625,3.375 5.828125,3.265625 6.046875,3.046875 C6.265625,2.828125 6.375,2.5625 6.375,2.25 Z M13.875,3.75 C13.875,3.4375 13.765625,3.171875 13.546875,2.953125 C13.328125,2.734375 13.0625,2.625 12.75,2.625 C12.4375,2.625 12.171875,2.734375 11.953125,2.953125 C11.734375,3.171875 11.625,3.4375 11.625,3.75 C11.625,4.0625 11.734375,4.328125 11.953125,4.546875 C12.171875,4.765625 12.4375,4.875 12.75,4.875 C13.0625,4.875 13.328125,4.765625 13.546875,4.546875 C13.765625,4.328125 13.875,4.0625 13.875,3.75 Z" id="Shape" fill="currentColor" fill-rule="nonzero"></path>
    </g>
</svg>