<?xml version="1.0" encoding="UTF-8"?>
<svg width="1em" height="1em" viewBox="0 0 18 18" version="1.1" xmlns="http://www.w3.org/2000/svg" xmlns:xlink="http://www.w3.org/1999/xlink">
    <!-- Generator: Sketch 55 (78076) - https://sketchapp.com -->
    <title>collaborator</title>
    <desc>Created with Sketch.</desc>
    <g id="collaborator" stroke="none" stroke-width="1" fill="none" fill-rule="evenodd">
        <path d="M2.5,13.9502 C2.5,14.5402 2.84,15.0102 3.4,15.3802 C1.5,15.1602 -2.7533531e-14,14.6102 -2.7533531e-14,13.7402 C-2.7533531e-14,11.9502 1.37,10.4302 3.43,9.8102 C2.57,9.1702 2,8.1502 2,7.0002 C2,5.1502 3.44,3.6302 5.26,3.5102 C4.78,4.2202 4.5,5.0802 4.5,6.0002 C4.5,7.2002 4.98,8.3402 5.81,9.1702 C3.78,10.1102 2.5,11.9102 2.5,13.9502 Z M14.5752,9.8101 C16.6352,10.4301 18.0052,11.9501 18.0052,13.7401 C18.0052,14.6101 16.5052,15.1601 14.6052,15.3801 C15.1652,15.0101 15.5052,14.5401 15.5052,13.9501 C15.5052,11.9101 14.2252,10.1101 12.1952,9.1701 C13.0252,8.3401 13.5052,7.2001 13.5052,6.0001 C13.5052,5.0801 13.2252,4.2201 12.7452,3.5101 C14.5652,3.6301 16.0052,5.1501 16.0052,7.0001 C16.0052,8.1501 15.4352,9.1701 14.5752,9.8101 Z M15,13.9497 C15,16.6837 3,16.6837 3,13.9497 C3,11.8427 4.521,10.0477 6.794,9.3337 C5.714,8.6167 5,7.3927 5,5.9997 C5,3.7907 6.791,1.9997 9,1.9997 C11.209,1.9997 13,3.7907 13,5.9997 C13,7.3927 12.286,8.6167 11.206,9.3337 C13.479,10.0477 15,11.8427 15,13.9497 Z" id="Fill" fill="currentColor" fill-rule="nonzero"></path>
    </g>
</svg>