<?xml version="1.0" encoding="UTF-8"?>
<svg width="1em" height="1em" viewBox="0 0 18 18" version="1.1" xmlns="http://www.w3.org/2000/svg" xmlns:xlink="http://www.w3.org/1999/xlink">
    <!-- Generator: Sketch 53.2 (72643) - https://sketchapp.com -->
    <title>color-rgb</title>
    <desc>Created with Sketch.</desc>
    <g id="color-rgb" stroke="none" stroke-width="1" fill="none" fill-rule="evenodd">
        <path d="M9,11.1363636 C6.06284929,11.1363636 3.68181818,8.75533253 3.68181818,5.81818182 C3.68181818,2.8810311 6.06284929,0.5 9,0.5 C11.9371507,0.5 14.3181818,2.8810311 14.3181818,5.81818182 C14.3181818,8.75533253 11.9371507,11.1363636 9,11.1363636 Z M9,10.3181818 C11.4852814,10.3181818 13.5,8.30346319 13.5,5.81818182 C13.5,3.33290044 11.4852814,1.31818182 9,1.31818182 C6.51471863,1.31818182 4.5,3.33290044 4.5,5.81818182 C4.5,8.30346319 6.51471863,10.3181818 9,10.3181818 Z M5.31818182,17.6818182 C2.3810311,17.6818182 0,15.3007871 0,12.3636364 C0,9.42648565 2.3810311,7.04545455 5.31818182,7.04545455 C8.25533253,7.04545455 10.6363636,9.42648565 10.6363636,12.3636364 C10.6363636,15.3007871 8.25533253,17.6818182 5.31818182,17.6818182 Z M5.31818182,16.8636364 C7.80346319,16.8636364 9.81818182,14.8489177 9.81818182,12.3636364 C9.81818182,9.87835499 7.80346319,7.86363636 5.31818182,7.86363636 C2.83290044,7.86363636 0.818181818,9.87835499 0.818181818,12.3636364 C0.818181818,14.8489177 2.83290044,16.8636364 5.31818182,16.8636364 Z M12.6818182,17.6818182 C9.74466747,17.6818182 7.36363636,15.3007871 7.36363636,12.3636364 C7.36363636,9.42648565 9.74466747,7.04545455 12.6818182,7.04545455 C15.6189689,7.04545455 18,9.42648565 18,12.3636364 C18,15.3007871 15.6189689,17.6818182 12.6818182,17.6818182 Z M12.6818182,16.8636364 C15.1670996,16.8636364 17.1818182,14.8489177 17.1818182,12.3636364 C17.1818182,9.87835499 15.1670996,7.86363636 12.6818182,7.86363636 C10.1965368,7.86363636 8.18181818,9.87835499 8.18181818,12.3636364 C8.18181818,14.8489177 10.1965368,16.8636364 12.6818182,16.8636364 Z M8.96144585,9.74085319 C9.33865883,9.19785024 9.86436149,8.74555389 10.5659355,8.37641289 C11.50211,7.88383428 12.3422151,7.77830578 13.0338918,7.86280384 C12.7891241,8.4353474 12.1743741,9.19759753 11.322525,9.71483373 C10.697229,10.0945087 10.0294557,10.2769133 9.35928929,10.3206195 C9.64454349,10.864486 9.89005131,11.6285948 9.86073183,12.3753575 C9.8192302,13.4323977 9.44539257,14.4137885 9,14.9763303 C8.56482774,14.4052313 8.14430961,13.3716986 8.12229445,12.3753575 C8.10656151,11.6633308 8.36251972,10.8777766 8.65213061,10.3177494 C8.64536016,10.3172751 8.63859091,10.3167886 8.63182291,10.3162901 L8.63776023,10.3035738 C7.97457598,10.2623351 7.33101563,10.1086504 6.69443627,9.72212432 C5.8425872,9.20488812 5.22511067,8.40079907 4.95395277,7.85953619 C5.60214434,7.80863024 6.49562327,7.87563378 7.43179772,8.36821239 C8.12388263,8.73236058 8.59367206,9.21426252 8.96144585,9.74085319 L8.96144585,9.74085319 Z" id="Shape" fill="currentColor" fill-rule="nonzero"></path>
    </g>
</svg>