<?xml version="1.0" encoding="UTF-8"?>
<svg width="1em" height="1em" viewBox="0 0 18 18" version="1.1" xmlns="http://www.w3.org/2000/svg" xmlns:xlink="http://www.w3.org/1999/xlink">
    <!-- Generator: Sketch 53.2 (72643) - https://sketchapp.com -->
    <title>color-scheme</title>
    <desc>Created with Sketch.</desc>
    <g id="color-scheme" stroke="none" stroke-width="1" fill="none" fill-rule="evenodd">
        <path d="M5.14285714,9.29935063 L12.6521606,1.79004716 C12.6940025,1.74820527 12.7618416,1.74820527 12.8036835,1.79004716 L16.2887098,5.27507343 C16.3305517,5.31691532 16.3305517,5.38475443 16.2887098,5.42659632 L8.85816324,12.8571429 L17.8928571,12.8571429 C17.9520305,12.8571429 18,12.9051123 18,12.9642857 L18,17.8928571 C18,17.9520305 17.9520305,18 17.8928571,18 L3.7153061,18 L3.7123106,18.0029955 C3.67046871,18.0448374 3.60262961,18.0448374 3.56078772,18.0029955 L3.55779222,18 L0.107142857,18 C0.0479694911,18 0,17.9520305 0,17.8928571 L0,0.107142857 C0,0.0479694911 0.0479694911,0 0.107142857,0 L5.03571429,0 C5.09488765,0 5.14285714,0.0479694911 5.14285714,0.107142857 L5.14285714,9.29935063 Z M3.42857143,15.4285714 C3.90195836,15.4285714 4.28571429,15.0448155 4.28571429,14.5714286 C4.28571429,14.0980416 3.90195836,13.7142857 3.42857143,13.7142857 C2.9551845,13.7142857 2.57142857,14.0980416 2.57142857,14.5714286 C2.57142857,15.0448155 2.9551845,15.4285714 3.42857143,15.4285714 Z" id="Shape" fill="currentColor" fill-rule="nonzero"></path>
    </g>
</svg>