<?xml version="1.0" encoding="UTF-8"?>
<svg width="1em" height="1em" viewBox="0 0 18 18" version="1.1" xmlns="http://www.w3.org/2000/svg" xmlns:xlink="http://www.w3.org/1999/xlink">
    <!-- Generator: Sketch 53.2 (72643) - https://sketchapp.com -->
    <title>color-rgba</title>
    <desc>Created with Sketch.</desc>
    <g id="color-rgba" stroke="none" stroke-width="1" fill="none" fill-rule="evenodd">
        <path d="M9,10.9565217 C5.97444007,10.9565217 3.52173913,8.5038208 3.52173913,5.47826087 C3.52173913,2.45270094 5.97444007,0 9,0 C12.0255599,0 14.4782609,2.45270094 14.4782609,5.47826087 C14.4782609,8.5038208 12.0255599,10.9565217 9,10.9565217 Z M9,10.173913 C11.5933371,10.173913 13.6956522,8.07159796 13.6956522,5.47826087 C13.6956522,2.88492378 11.5933371,0.782608696 9,0.782608696 C6.40666291,0.782608696 4.30434783,2.88492378 4.30434783,5.47826087 C4.30434783,8.07159796 6.40666291,10.173913 9,10.173913 Z M5.47826087,16.4347826 C2.45270094,16.4347826 0,13.9820817 0,10.9565217 C0,7.93096181 2.45270094,5.47826087 5.47826087,5.47826087 C8.5038208,5.47826087 10.9565217,7.93096181 10.9565217,10.9565217 C10.9565217,13.9820817 8.5038208,16.4347826 5.47826087,16.4347826 Z M5.47826087,15.6521739 C8.07159796,15.6521739 10.173913,13.5498588 10.173913,10.9565217 C10.173913,8.36318465 8.07159796,6.26086957 5.47826087,6.26086957 C2.88492378,6.26086957 0.782608696,8.36318465 0.782608696,10.9565217 C0.782608696,13.5498588 2.88492378,15.6521739 5.47826087,15.6521739 Z M12.5217391,16.4347826 C9.4961792,16.4347826 7.04347826,13.9820817 7.04347826,10.9565217 C7.04347826,7.93096181 9.4961792,5.47826087 12.5217391,5.47826087 C15.5472991,5.47826087 18,7.93096181 18,10.9565217 C18,13.9820817 15.5472991,16.4347826 12.5217391,16.4347826 Z M12.5217391,15.6521739 C15.1150762,15.6521739 17.2173913,13.5498588 17.2173913,10.9565217 C17.2173913,8.36318465 15.1150762,6.26086957 12.5217391,6.26086957 C9.92840204,6.26086957 7.82608696,8.36318465 7.82608696,10.9565217 C7.82608696,13.5498588 9.92840204,15.6521739 12.5217391,15.6521739 Z M9,18 C7.34314575,18 6,16.6568542 6,15 C6,13.3431458 7.34314575,12 9,12 C10.6568542,12 12,13.3431458 12,15 C12,16.6568542 10.6568542,18 9,18 Z" id="Shape" fill="currentColor" fill-rule="nonzero"></path>
    </g>
</svg>