<?xml version="1.0" encoding="UTF-8"?>
<svg width="1em" height="1em" viewBox="0 0 18 18" version="1.1" xmlns="http://www.w3.org/2000/svg" xmlns:xlink="http://www.w3.org/1999/xlink">
    <!-- Generator: Sketch 53.2 (72643) - https://sketchapp.com -->
    <title>color</title>
    <desc>Created with Sketch.</desc>
    <g id="color" stroke="none" stroke-width="1" fill="none" fill-rule="evenodd">
        <path d="M10.8316668,2.06022654 L17.9705662,9.1892194 C18.0088056,9.22740578 18.0108042,9.28732231 17.9705662,9.3275045 L10.1000012,17.1871476 C10.0617618,17.225334 10.001762,17.2273298 9.96152396,17.1871476 L2.82262459,10.0581548 L2.08822483,10.7915354 C2.05149543,10.8282139 1.99130196,10.8275714 1.95343572,10.7897577 L1.28910079,10.1263447 C1.25138822,10.0886844 1.24838633,10.0306228 1.2873206,9.9917426 L10.7651623,0.527053061 C10.8018917,0.49037463 10.8620852,0.491017082 10.8999515,0.528830773 L11.5642864,1.19224383 C11.601999,1.22990406 11.6050008,1.28796564 11.5660666,1.32684588 L10.8316668,2.06022654 Z M3.66199746,9.09274066 L16.2174173,9.09252784 L9.93960082,2.82403793 L3.66199746,9.09274066 Z M1.75,17.5 C0.783501688,17.5 0,16.8293907 0,16.0021522 C0,15.1749137 1.79375017,13.0064566 1.79375017,13.0064566 C1.79375017,13.0064566 3.5,15.1749137 3.5,16.0021522 C3.5,16.8293907 2.71649831,17.5 1.75,17.5 Z" id="Shape" fill="currentColor" fill-rule="nonzero"></path>
    </g>
</svg>