<?xml version="1.0" encoding="UTF-8"?>
<svg width="1em" height="1em" viewBox="0 0 18 18" version="1.1" xmlns="http://www.w3.org/2000/svg" xmlns:xlink="http://www.w3.org/1999/xlink">
    <!-- Generator: Sketch 53.2 (72643) - https://sketchapp.com -->
    <title>column</title>
    <desc>Created with Sketch.</desc>
    <g id="column" stroke="none" stroke-width="1" fill="none" fill-rule="evenodd">
        <path d="M0.107142857,0 L17.8928571,0 C17.9520305,0 18,0.0479694911 18,0.107142857 L18,17.8928571 C18,17.9520305 17.9520305,18 17.8928571,18 L0.107142857,18 C0.0479694911,18 0,17.9520305 0,17.8928571 L0,0.107142857 C0,0.0479694911 0.0479694911,0 0.107142857,0 Z M1.39285714,2.57142857 C1.33368378,2.57142857 1.28571429,2.61939806 1.28571429,2.67857143 L1.28571429,15.3214286 C1.28571429,15.3806019 1.33368378,15.4285714 1.39285714,15.4285714 L16.6071429,15.4285714 C16.6663162,15.4285714 16.7142857,15.3806019 16.7142857,15.3214286 L16.7142857,2.67857143 C16.7142857,2.61939806 16.6663162,2.57142857 16.6071429,2.57142857 L1.39285714,2.57142857 Z M2.57142857,3.85714286 L6,3.85714286 L6,14.1428571 L2.57142857,14.1428571 L2.57142857,3.85714286 Z M7.28571429,3.85714286 L10.7142857,3.85714286 L10.7142857,14.1428571 L7.28571429,14.1428571 L7.28571429,3.85714286 Z M8.14285714,4.71428571 L8.14285714,13.2857143 L9.85714286,13.2857143 L9.85714286,4.71428571 L8.14285714,4.71428571 Z M12,3.85714286 L15.4285714,3.85714286 L15.4285714,14.1428571 L12,14.1428571 L12,3.85714286 Z M12.8571429,4.71428571 L12.8571429,13.2857143 L14.5714286,13.2857143 L14.5714286,4.71428571 L12.8571429,4.71428571 Z" id="Shape" fill="currentColor" fill-rule="nonzero"></path>
    </g>
</svg>