<?xml version="1.0" encoding="UTF-8"?>
<svg width="1em" height="1em" viewBox="0 0 18 18" version="1.1" xmlns="http://www.w3.org/2000/svg" xmlns:xlink="http://www.w3.org/1999/xlink">
    <!-- Generator: Sketch 53.2 (72643) - https://sketchapp.com -->
    <title>column-view</title>
    <desc>Created with Sketch.</desc>
    <g id="column-view" stroke="none" stroke-width="1" fill="none" fill-rule="evenodd">
        <path d="M0,0.105707198 C0,0.0473267248 0.0484673636,0 0.106369972,0 L3.32220146,0 C3.38094797,0 3.42857143,0.0516357422 3.42857143,0.105707198 L3.42857143,17.8942928 C3.42857143,17.9526733 3.38010406,18 3.32220146,18 L0.106369972,18 C0.0476234587,18 0,17.9483643 0,17.8942928 L0,0.105707198 Z M7.28571429,0.105707198 C7.28571429,0.0473267248 7.33418165,0 7.39208426,0 L10.6079157,0 C10.6666623,0 10.7142857,0.0516357422 10.7142857,0.105707198 L10.7142857,17.8942928 C10.7142857,17.9526733 10.6658184,18 10.6079157,18 L7.39208426,18 C7.33333774,18 7.28571429,17.9483643 7.28571429,17.8942928 L7.28571429,0.105707198 Z M14.5714286,0.105707198 C14.5714286,0.0473267248 14.6198959,0 14.6777985,0 L17.89363,0 C17.9523765,0 18,0.0516357422 18,0.105707198 L18,17.8942928 C18,17.9526733 17.9515326,18 17.89363,18 L14.6777985,18 C14.619052,18 14.5714286,17.9483643 14.5714286,17.8942928 L14.5714286,0.105707198 Z" id="Shape" fill="currentColor" fill-rule="nonzero"></path>
    </g>
</svg>