<?xml version="1.0" encoding="UTF-8"?>
<svg width="1em" height="1em" viewBox="0 0 18 18" version="1.1" xmlns="http://www.w3.org/2000/svg" xmlns:xlink="http://www.w3.org/1999/xlink">
    <!-- Generator: Sketch 53.2 (72643) - https://sketchapp.com -->
    <title>comment</title>
    <desc>Created with Sketch.</desc>
    <g id="comment" stroke="none" stroke-width="1" fill="none" fill-rule="evenodd">
        <path d="M0,0.103784066 C0,0.0464657089 0.0516357422,0 0.105707198,0 L17.8942928,0 C17.9526733,0 18,0.0485064653 18,0.103784066 L18,14.8945056 C18,14.9518239 17.9511685,14.9982896 17.8903807,14.9982896 L16.7142857,14.9982896 L16.7142857,17.9979964 L12.8571429,14.9982896 L0.111150742,14.9982896 C0.0497638821,14.9982896 0,14.9497832 0,14.8945056 L0,0.103784066 Z M7.71428571,6.5390499 L7.71428571,8.88922832 C7.71428571,8.95507992 7.76375425,8.99970679 7.82477679,8.99970679 L10.1752232,8.99970679 C10.2410823,8.99970679 10.2857143,8.9502439 10.2857143,8.88922832 L10.2857143,6.5390499 C10.2857143,6.4731983 10.2362457,6.42857143 10.1752232,6.42857143 L7.82477679,6.42857143 C7.75891767,6.42857143 7.71428571,6.47803433 7.71428571,6.5390499 Z M12.8571429,6.5390499 L12.8571429,8.88922832 C12.8571429,8.95507992 12.9066114,8.99970679 12.9676339,8.99970679 L15.3180804,8.99970679 C15.3839395,8.99970679 15.4285714,8.9502439 15.4285714,8.88922832 L15.4285714,6.5390499 C15.4285714,6.4731983 15.3791029,6.42857143 15.3180804,6.42857143 L12.9676339,6.42857143 C12.9017748,6.42857143 12.8571429,6.47803433 12.8571429,6.5390499 Z M2.57142857,6.53885443 L2.57142857,8.88903285 C2.57142857,8.95488445 2.62089711,8.99951132 2.68191964,8.99951132 L5.03236607,8.99951132 C5.09822518,8.99951132 5.14285714,8.95004842 5.14285714,8.88903285 L5.14285714,6.53885443 C5.14285714,6.47300283 5.09338861,6.42837596 5.03236607,6.42837596 L2.68191964,6.42837596 C2.61606053,6.42837596 2.57142857,6.47783885 2.57142857,6.53885443 Z" id="Shape" fill="currentColor" fill-rule="nonzero"></path>
    </g>
</svg>