<?xml version="1.0" encoding="UTF-8"?>
<svg width="1em" height="1em" viewBox="0 0 18 18" version="1.1" xmlns="http://www.w3.org/2000/svg" xmlns:xlink="http://www.w3.org/1999/xlink">
    <!-- Generator: Sketch 53.2 (72643) - https://sketchapp.com -->
    <title>components</title>
    <desc>Created with Sketch.</desc>
    <g id="components" stroke="none" stroke-width="1" fill="none" fill-rule="evenodd">
        <path d="M13.9885973,7.99782116 C13.9892045,8.26379581 13.8810373,8.51904723 13.6880195,8.70712018 C13.4950017,8.89519313 13.2330392,9.00058924 12.9600715,8.99999752 C12.419805,8.96488299 12,8.5276387 12,8.00004328 C12,7.47244787 12.419805,7.03520357 12.9600715,7.00008904 C13.2342167,6.99652649 13.4984267,7.09999828 13.6937876,7.28743217 C13.8891485,7.47486606 13.9994151,7.73067597 14,7.99782116 L13.9885973,7.99782116 Z M17,9 C16.4723804,9 16.0351161,8.5627357 16,8 C16.0351161,7.4372643 16.4723804,7 17,7 C17.5276196,7 17.9648839,7.4372643 18,8 C17.9648839,8.5627357 17.5276196,9 17,9 Z M16.0022254,12 C15.9773885,11.6508857 16.1619452,11.3178504 16.4809018,11.1362216 C16.7998584,10.9545928 17.2001416,10.9545928 17.5190982,11.1362216 C17.8380548,11.3178504 18.0226115,11.6508857 17.9977746,12 C18.0226115,12.3491143 17.8380548,12.6821496 17.5190982,12.8637784 C17.2001416,13.0454072 16.7998584,13.0454072 16.4809018,12.8637784 C16.1619452,12.6821496 15.9773885,12.3491143 16.0022254,12 Z M16.4809018,15.1362216 C16.7998584,14.9545928 17.2001416,14.9545928 17.5190982,15.1362216 C17.8380548,15.3178504 18.0226115,15.6508857 17.9977746,16 C18.0226115,16.3491143 17.8380548,16.6821496 17.5190982,16.8637784 C17.2001416,17.0454072 16.7998584,17.0454072 16.4809018,16.8637784 C16.1619452,16.6821496 15.9773885,16.3491143 16.0022254,16 C15.9773885,15.6508857 16.1619452,15.3178504 16.4809018,15.1362216 Z M13,17 C12.4372643,16.9648839 12,16.5276196 12,16 C12,15.4723804 12.4372643,15.0351161 13,15 C13.5627357,15.0351161 14,15.4723804 14,16 C14,16.5276196 13.5627357,16.9648839 13,17 Z M10,16 C9.96488386,16.5627357 9.52761956,17 9,17 C8.47238044,17 8.03511614,16.5627357 8,16 C8.03511614,15.4372643 8.47238044,15 9,15 C9.52761956,15 9.96488386,15.4372643 10,16 Z M9.63038617,12.4435373 L8.19797517,10.9647719 L10.825349,8.84331996 L15.1303038,12.3321903 C15.1948645,12.3848575 15.2067956,12.479718 15.1573305,12.5470704 C14.4357083,13.483361 13.2635832,13.9420283 12.1071831,13.7406313 C11.1624199,13.5808468 10.2987018,13.1271046 9.63038617,12.4435373 Z M2.56292439,9.63056227 C3.00407898,9.58726523 3.4491146,9.64949558 3.86213274,9.81223357 L5.46442536,8.17133149 L3.86213274,6.53042941 C2.76138377,6.96664552 1.50865364,6.66457878 0.72060086,5.77292205 C-0.0674519147,4.88126533 -0.22478466,3.58789062 0.326049934,2.52946384 C0.876884529,1.47103705 2.01982565,0.870568628 3.1922586,1.02364017 C4.00010808,1.12758766 4.7244705,1.57886956 5.17994,2.26197698 C5.63540949,2.94508439 5.77777659,3.79371251 5.57060138,4.59064874 L7.4663259,6.1241108 L9.64389948,3.89912572 C10.3122151,3.21555841 11.1759332,2.76181621 12.1129745,2.6020317 C13.2693725,2.40470336 14.4392811,2.86712763 15.1573305,3.80535989 C15.2067956,3.87271222 15.1948645,3.96757273 15.1303038,4.02023992 L5.57060138,11.7461539 C5.66883297,12.1287386 5.68854314,12.5276349 5.62851557,12.9182268 C5.40290481,14.3888125 4.10110034,15.4389949 2.63408124,15.3338754 C1.16706213,15.2287559 0.0244962024,14.0034218 0.00593028443,12.5153395 C-0.0126356336,11.0272573 1.09899547,9.77312529 2.56292439,9.63056227 Z M1.48185949,3.85810317 C1.48185949,4.6133075 2.08687104,5.22552157 2.83319061,5.22552157 C3.19158591,5.22552157 3.53530227,5.08145469 3.78872602,4.82501399 C4.04214976,4.5685733 4.18452174,4.22076508 4.18452174,3.85810317 C4.18452174,3.10289884 3.57951019,2.49068477 2.83319061,2.49068477 C2.08687104,2.49068477 1.48185949,3.10289884 1.48185949,3.85810317 Z M1.48185949,12.4728391 C1.48185949,13.2280434 2.08687104,13.8402575 2.83319061,13.8402575 C3.57951019,13.8402575 4.18452174,13.2280434 4.18452174,12.4728391 C4.18452174,11.7176348 3.57951019,11.1054207 2.83319061,11.1054207 C2.08687104,11.1054207 1.48185949,11.7176348 1.48185949,12.4728391 Z" id="Shape" fill="currentColor" fill-rule="nonzero"></path>
    </g>
</svg>