<?xml version="1.0" encoding="UTF-8"?>
<svg width="1em" height="1em" viewBox="0 0 18 18" version="1.1" xmlns="http://www.w3.org/2000/svg" xmlns:xlink="http://www.w3.org/1999/xlink">
    <!-- Generator: Sketch 53.2 (72643) - https://sketchapp.com -->
    <title>comparison</title>
    <desc>Created with Sketch.</desc>
    <g id="comparison" stroke="none" stroke-width="1" fill="none" fill-rule="evenodd">
        <path d="M8.25,0 L9.75,0 C9.88807119,-2.53632657e-17 10,0.111928813 10,0.25 L10,17.75 C10,17.8880712 9.88807119,18 9.75,18 L8.25,18 C8.11192881,18 8,17.8880712 8,17.75 L8,0.25 C8,0.111928813 8.11192881,2.53632657e-17 8.25,0 Z M3.25,5 L4.75,5 C4.88807119,5 5,5.11192881 5,5.25 L5,12.75 C5,12.8880712 4.88807119,13 4.75,13 L3.25,13 C3.11192881,13 3,12.8880712 3,12.75 L3,5.25 C3,5.11192881 3.11192881,5 3.25,5 Z M13.25,5 L14.75,5 C14.8880712,5 15,5.11192881 15,5.25 L15,12.75 C15,12.8880712 14.8880712,13 14.75,13 L13.25,13 C13.1119288,13 13,12.8880712 13,12.75 L13,5.25 C13,5.11192881 13.1119288,5 13.25,5 Z" id="Shape" fill="currentColor" fill-rule="nonzero"></path>
    </g>
</svg>