<?xml version="1.0" encoding="UTF-8"?>
<svg width="1em" height="1em" viewBox="0 0 18 18" version="1.1" xmlns="http://www.w3.org/2000/svg" xmlns:xlink="http://www.w3.org/1999/xlink">
    <!-- Generator: Sketch 55 (78076) - https://sketchapp.com -->
    <title>contact-info</title>
    <desc>Created with Sketch.</desc>
    <g id="contact-info" stroke="none" stroke-width="1" fill="none" fill-rule="evenodd">
        <path d="M0.28125,0 L17.71875,0 C17.8740801,-2.85336739e-17 18,0.125919914 18,0.28125 L18,2.25 L0,2.25 L0,0.28125 C-1.90224492e-17,0.125919914 0.125919914,2.85336739e-17 0.28125,0 Z M0,16.875 L18,16.875 L18,17.71875 C18,17.8740801 17.8740801,18 17.71875,18 L0.28125,18 C0.125919914,18 1.90224492e-17,17.8740801 0,17.71875 L0,16.875 Z M0,2.25 L1.125,2.25 L1.125,16.875 L0,16.875 L0,2.25 Z M16.875,2.25 L18,2.25 L18,16.875 L16.875,16.875 L16.875,2.25 Z M6,4 C8.20554839,4 10,5.79445161 10,8 C10,10.2055484 8.20554839,12 6,12 C3.79445161,12 2,10.2055484 2,8 C2,5.79445161 3.79445161,4 6,4 Z M6,5.67741935 C5.07509677,5.67741935 4.32258065,6.42993548 4.32258065,7.35483871 C4.32258065,8.27974194 5.07509677,9.03225806 6,9.03225806 C6.92490323,9.03225806 7.67741935,8.27974194 7.67741935,7.35483871 C7.67741935,6.42993548 6.92490323,5.67741935 6,5.67741935 Z M6,11.7419355 C7.01458065,11.7419355 7.9356129,11.3354839 8.61032258,10.6774194 C8.0483871,9.8076129 7.10490323,9.29032258 6.06451613,9.29032258 C5.00658065,9.29032258 4.01806452,9.85045161 3.47032258,10.7543226 C4.13690323,11.3670968 5.02541935,11.7419355 6,11.7419355 Z M11.25,4 L15.75,4 C15.8880712,4 16,4.11192881 16,4.25 L16,4.75 C16,4.88807119 15.8880712,5 15.75,5 L11.25,5 C11.1119288,5 11,4.88807119 11,4.75 L11,4.25 C11,4.11192881 11.1119288,4 11.25,4 Z M11.25,6 L15.75,6 C15.8880712,6 16,6.11192881 16,6.25 L16,6.75 C16,6.88807119 15.8880712,7 15.75,7 L11.25,7 C11.1119288,7 11,6.88807119 11,6.75 L11,6.25 C11,6.11192881 11.1119288,6 11.25,6 Z M11.25,8 L15.75,8 C15.8880712,8 16,8.11192881 16,8.25 L16,8.75 C16,8.88807119 15.8880712,9 15.75,9 L11.25,9 C11.1119288,9 11,8.88807119 11,8.75 L11,8.25 C11,8.11192881 11.1119288,8 11.25,8 Z M11.25,10 L15.75,10 C15.8880712,10 16,10.1119288 16,10.25 L16,10.75 C16,10.8880712 15.8880712,11 15.75,11 L11.25,11 C11.1119288,11 11,10.8880712 11,10.75 L11,10.25 C11,10.1119288 11.1119288,10 11.25,10 Z M11.25,12 L15.75,12 C15.8880712,12 16,12.1119288 16,12.25 L16,12.75 C16,12.8880712 15.8880712,13 15.75,13 L11.25,13 C11.1119288,13 11,12.8880712 11,12.75 L11,12.25 C11,12.1119288 11.1119288,12 11.25,12 Z M11.25,14 L15.75,14 C15.8880712,14 16,14.1119288 16,14.25 L16,14.75 C16,14.8880712 15.8880712,15 15.75,15 L11.25,15 C11.1119288,15 11,14.8880712 11,14.75 L11,14.25 C11,14.1119288 11.1119288,14 11.25,14 Z" id="Fill" fill="currentColor" fill-rule="nonzero"></path>
    </g>
</svg>