<?xml version="1.0" encoding="UTF-8"?>
<svg width="1em" height="1em" viewBox="0 0 18 18" version="1.1" xmlns="http://www.w3.org/2000/svg" xmlns:xlink="http://www.w3.org/1999/xlink">
    <!-- Generator: Sketch 53.2 (72643) - https://sketchapp.com -->
    <title>contact</title>
    <desc>Created with Sketch.</desc>
    <g id="contact" stroke="none" stroke-width="1" fill="none" fill-rule="evenodd">
        <path d="M2,0.105707198 C2,0.0473267248 2.04016113,0 2.09687617,0 L15.9031238,0 C15.9566271,0 16,0.0516357422 16,0.105707198 L16,17.8942928 C16,17.9526733 15.9598389,18 15.9031238,18 L2.09687617,18 C2.04337294,18 2,17.9483643 2,17.8942928 L2,0.105707198 Z M9,9 C10.6568542,9 12,7.65685425 12,6 C12,4.34314575 10.6568542,3 9,3 C7.34314575,3 6,4.34314575 6,6 C6,7.65685425 7.34314575,9 9,9 Z M9,16 C11.5773288,16 15,15.8210678 15,13.75 C15,11.6789322 12.4707915,10 9,10 C5.52920845,10 3,11.6789322 3,13.75 C3,15.8210678 6.42267117,16 9,16 Z" id="Shape" fill="currentColor" fill-rule="nonzero"></path>
    </g>
</svg>