<?xml version="1.0" encoding="UTF-8"?>
<svg width="1em" height="1em" viewBox="0 0 18 18" version="1.1" xmlns="http://www.w3.org/2000/svg" xmlns:xlink="http://www.w3.org/1999/xlink">
    <!-- Generator: Sketch 53.2 (72643) - https://sketchapp.com -->
    <title>copy</title>
    <desc>Created with Sketch.</desc>
    <g id="copy" stroke="none" stroke-width="1" fill="none" fill-rule="evenodd">
        <path d="M18,0 L18,12.75 C18,12.8091734 17.9520305,12.8571429 17.8928571,12.8571429 L5.25,12.8571429 C5.19082663,12.8571429 5.14285714,12.8091734 5.14285714,12.75 L5.14285714,0.107142857 C5.14285714,0.0479694911 5.19082663,0 5.25,0 L18,0 Z M17.1428571,3.42857143 L17.1428571,0.857142857 L14.5714286,0.857142857 L17.1428571,3.42857143 Z M2.67857143,5.14285714 L4.17857143,5.14285714 C4.23774479,5.14285714 4.28571429,5.19082663 4.28571429,5.25 L4.28571429,6.75 C4.28571429,6.80917337 4.23774479,6.85714286 4.17857143,6.85714286 L3.53571429,6.85714286 C3.47654092,6.85714286 3.42857143,6.80917337 3.42857143,6.75 L3.42857143,6 L2.67857143,6 C2.61939806,6 2.57142857,5.95203051 2.57142857,5.89285714 L2.57142857,5.25 C2.57142857,5.19082663 2.61939806,5.14285714 2.67857143,5.14285714 Z M4.28571429,13.7142857 L5.03571429,13.7142857 C5.09488765,13.7142857 5.14285714,13.7622552 5.14285714,13.8214286 L5.14285714,14.4642857 C5.14285714,14.5234591 5.09488765,14.5714286 5.03571429,14.5714286 L3.53571429,14.5714286 C3.47654092,14.5714286 3.42857143,14.5234591 3.42857143,14.4642857 L3.42857143,12.9642857 C3.42857143,12.9051123 3.47654092,12.8571429 3.53571429,12.8571429 L4.17857143,12.8571429 C4.23774479,12.8571429 4.28571429,12.9051123 4.28571429,12.9642857 L4.28571429,13.7142857 L4.28571429,13.7142857 Z M11.25,13.7142857 L12.75,13.7142857 C12.8091734,13.7142857 12.8571429,13.7622552 12.8571429,13.8214286 L12.8571429,15.3214286 C12.8571429,15.3806019 12.8091734,15.4285714 12.75,15.4285714 L12.1071429,15.4285714 C12.0479695,15.4285714 12,15.3806019 12,15.3214286 L12,14.5714286 L11.25,14.5714286 C11.1908266,14.5714286 11.1428571,14.5234591 11.1428571,14.4642857 L11.1428571,13.8214286 C11.1428571,13.7622552 11.1908266,13.7142857 11.25,13.7142857 Z M12,17.1428571 L12,16.3928571 C12,16.3336838 12.0479695,16.2857143 12.1071429,16.2857143 L12.75,16.2857143 C12.8091734,16.2857143 12.8571429,16.3336838 12.8571429,16.3928571 L12.8571429,17.8928571 C12.8571429,17.9520305 12.8091734,18 12.75,18 L11.25,18 C11.1908266,18 11.1428571,17.9520305 11.1428571,17.8928571 L11.1428571,17.25 C11.1428571,17.1908266 11.1908266,17.1428571 11.25,17.1428571 L12,17.1428571 Z M0.857142857,6 L0.857142857,6.75 C0.857142857,6.80917337 0.809173366,6.85714286 0.75,6.85714286 L0.107142857,6.85714286 C0.0479694911,6.85714286 0,6.80917337 0,6.75 L0,5.25 C0,5.19082663 0.0479694911,5.14285714 0.107142857,5.14285714 L1.60714286,5.14285714 C1.66631622,5.14285714 1.71428571,5.19082663 1.71428571,5.25 L1.71428571,5.89285714 C1.71428571,5.95203051 1.66631622,6 1.60714286,6 L0.857142857,6 Z M0.107142857,7.71428571 L0.75,7.71428571 C0.809173366,7.71428571 0.857142857,7.76225521 0.857142857,7.82142857 L0.857142857,9.32142857 C0.857142857,9.38060194 0.809173366,9.42857143 0.75,9.42857143 L0.107142857,9.42857143 C0.0479694911,9.42857143 0,9.38060194 0,9.32142857 L0,7.82142857 C0,7.76225521 0.0479694911,7.71428571 0.107142857,7.71428571 Z M0.107142857,10.2857143 L0.75,10.2857143 C0.809173366,10.2857143 0.857142857,10.3336838 0.857142857,10.3928571 L0.857142857,11.8928571 C0.857142857,11.9520305 0.809173366,12 0.75,12 L0.107142857,12 C0.0479694911,12 0,11.9520305 0,11.8928571 L0,10.3928571 C0,10.3336838 0.0479694911,10.2857143 0.107142857,10.2857143 Z M0.107142857,12.8571429 L0.75,12.8571429 C0.809173366,12.8571429 0.857142857,12.9051123 0.857142857,12.9642857 L0.857142857,14.4642857 C0.857142857,14.5234591 0.809173366,14.5714286 0.75,14.5714286 L0.107142857,14.5714286 C0.0479694911,14.5714286 0,14.5234591 0,14.4642857 L0,12.9642857 C0,12.9051123 0.0479694911,12.8571429 0.107142857,12.8571429 Z M0.107142857,15.4285714 L0.75,15.4285714 C0.809173366,15.4285714 0.857142857,15.4765409 0.857142857,15.5357143 L0.857142857,17.0357143 C0.857142857,17.0948877 0.809173366,17.1428571 0.75,17.1428571 L0.107142857,17.1428571 C0.0479694911,17.1428571 0,17.0948877 0,17.0357143 L0,15.5357143 C0,15.4765409 0.0479694911,15.4285714 0.107142857,15.4285714 Z M0.964285714,17.1428571 L2.46428571,17.1428571 C2.52345908,17.1428571 2.57142857,17.1908266 2.57142857,17.25 L2.57142857,17.8928571 C2.57142857,17.9520305 2.52345908,18 2.46428571,18 L0.964285714,18 C0.905112348,18 0.857142857,17.9520305 0.857142857,17.8928571 L0.857142857,17.25 C0.857142857,17.1908266 0.905112348,17.1428571 0.964285714,17.1428571 Z M3.53571429,17.1428571 L5.03571429,17.1428571 C5.09488765,17.1428571 5.14285714,17.1908266 5.14285714,17.25 L5.14285714,17.8928571 C5.14285714,17.9520305 5.09488765,18 5.03571429,18 L3.53571429,18 C3.47654092,18 3.42857143,17.9520305 3.42857143,17.8928571 L3.42857143,17.25 C3.42857143,17.1908266 3.47654092,17.1428571 3.53571429,17.1428571 Z M6.10714286,17.1428571 L7.60714286,17.1428571 C7.66631622,17.1428571 7.71428571,17.1908266 7.71428571,17.25 L7.71428571,17.8928571 C7.71428571,17.9520305 7.66631622,18 7.60714286,18 L6.10714286,18 C6.04796949,18 6,17.9520305 6,17.8928571 L6,17.25 C6,17.1908266 6.04796949,17.1428571 6.10714286,17.1428571 Z M8.67857143,17.1428571 L10.1785714,17.1428571 C10.2377448,17.1428571 10.2857143,17.1908266 10.2857143,17.25 L10.2857143,17.8928571 C10.2857143,17.9520305 10.2377448,18 10.1785714,18 L8.67857143,18 C8.61939806,18 8.57142857,17.9520305 8.57142857,17.8928571 L8.57142857,17.25 C8.57142857,17.1908266 8.61939806,17.1428571 8.67857143,17.1428571 Z M8.67857143,13.7142857 L10.1785714,13.7142857 C10.2377448,13.7142857 10.2857143,13.7622552 10.2857143,13.8214286 L10.2857143,14.4642857 C10.2857143,14.5234591 10.2377448,14.5714286 10.1785714,14.5714286 L8.67857143,14.5714286 C8.61939806,14.5714286 8.57142857,14.5234591 8.57142857,14.4642857 L8.57142857,13.8214286 C8.57142857,13.7622552 8.61939806,13.7142857 8.67857143,13.7142857 Z M6.10714286,13.7142857 L7.60714286,13.7142857 C7.66631622,13.7142857 7.71428571,13.7622552 7.71428571,13.8214286 L7.71428571,14.4642857 C7.71428571,14.5234591 7.66631622,14.5714286 7.60714286,14.5714286 L6.10714286,14.5714286 C6.04796949,14.5714286 6,14.5234591 6,14.4642857 L6,13.8214286 C6,13.7622552 6.04796949,13.7142857 6.10714286,13.7142857 Z M3.53571429,10.2857143 L4.17857143,10.2857143 C4.23774479,10.2857143 4.28571429,10.3336838 4.28571429,10.3928571 L4.28571429,11.8928571 C4.28571429,11.9520305 4.23774479,12 4.17857143,12 L3.53571429,12 C3.47654092,12 3.42857143,11.9520305 3.42857143,11.8928571 L3.42857143,10.3928571 C3.42857143,10.3336838 3.47654092,10.2857143 3.53571429,10.2857143 Z M3.53571429,7.71428571 L4.17857143,7.71428571 C4.23774479,7.71428571 4.28571429,7.76225521 4.28571429,7.82142857 L4.28571429,9.32142857 C4.28571429,9.38060194 4.23774479,9.42857143 4.17857143,9.42857143 L3.53571429,9.42857143 C3.47654092,9.42857143 3.42857143,9.38060194 3.42857143,9.32142857 L3.42857143,7.82142857 C3.42857143,7.76225521 3.47654092,7.71428571 3.53571429,7.71428571 Z" id="Shape" fill="currentColor" fill-rule="nonzero"></path>
    </g>
</svg>