<?xml version="1.0" encoding="UTF-8"?>
<svg width="1em" height="1em" viewBox="0 0 18 18" version="1.1" xmlns="http://www.w3.org/2000/svg" xmlns:xlink="http://www.w3.org/1999/xlink">
    <!-- Generator: Sketch 53.2 (72643) - https://sketchapp.com -->
    <title>css</title>
    <desc>Created with Sketch.</desc>
    <g id="css" stroke="none" stroke-width="1" fill="none" fill-rule="evenodd">
        <path d="M0.107142857,0 L17.8928571,0 C17.9520305,0 18,0.0479694911 18,0.107142857 L18,17.8928571 C18,17.9520305 17.9520305,18 17.8928571,18 L0.107142857,18 C0.0479694911,18 0,17.9520305 0,17.8928571 L0,0.107142857 C0,0.0479694911 0.0479694911,0 0.107142857,0 Z M4.67485714,13.4091429 C5.33314286,13.4091429 5.88857143,13.2754286 6.372,13.0285714 L6.372,11.928 C5.96057143,12.2571429 5.41542857,12.4628571 4.68514286,12.4628571 C3.07028571,12.4628571 1.99028571,11.1668571 1.99028571,9.68571429 C1.99028571,8.20457143 3.07028571,6.90857143 4.68514286,6.90857143 C5.41542857,6.90857143 5.96057143,7.11428571 6.372,7.44342857 L6.372,6.34285714 C5.88857143,6.096 5.33314286,5.96228571 4.67485714,5.96228571 C2.43257143,5.96228571 0.992571429,7.69028571 0.992571429,9.68571429 C0.992571429,11.6811429 2.43257143,13.4091429 4.67485714,13.4091429 Z M9.52971429,13.3885714 C10.9285714,13.3885714 11.7617143,12.5142857 11.772,11.4342857 C11.8028571,9.00685714 8.40857143,9.408 8.41885714,7.84457143 C8.41885714,7.30971429 8.87142857,6.91885714 9.52971429,6.91885714 C10.0954286,6.91885714 10.6097143,7.27885714 10.9594286,7.66971429 L11.5971429,7.01142857 C11.1548571,6.47657143 10.4245714,5.98285714 9.50914286,5.98285714 C8.30571429,5.98285714 7.43142857,6.79542857 7.42114286,7.83428571 C7.42114286,10.1897143 10.7845714,9.696 10.7845714,11.424 C10.7845714,12 10.3114286,12.4422857 9.59142857,12.4422857 C8.94342857,12.4422857 8.33657143,12.0411429 7.93542857,11.4651429 L7.22571429,12.1337143 C7.68857143,12.8434286 8.55257143,13.3885714 9.52971429,13.3885714 Z M14.9297143,13.3885714 C16.3285714,13.3885714 17.1617143,12.5142857 17.172,11.4342857 C17.2028571,9.00685714 13.8085714,9.408 13.8188571,7.84457143 C13.8188571,7.30971429 14.2714286,6.91885714 14.9297143,6.91885714 C15.4954286,6.91885714 16.0097143,7.27885714 16.3594286,7.66971429 L16.9971429,7.01142857 C16.5548571,6.47657143 15.8245714,5.98285714 14.9091429,5.98285714 C13.7057143,5.98285714 12.8314286,6.79542857 12.8211429,7.83428571 C12.8211429,10.1897143 16.1845714,9.696 16.1845714,11.424 C16.1845714,12 15.7114286,12.4422857 14.9914286,12.4422857 C14.3434286,12.4422857 13.7365714,12.0411429 13.3354286,11.4651429 L12.6257143,12.1337143 C13.0885714,12.8434286 13.9525714,13.3885714 14.9297143,13.3885714 Z" id="Shape" fill="currentColor" fill-rule="nonzero"></path>
    </g>
</svg>