<?xml version="1.0" encoding="UTF-8"?>
<svg width="1em" height="1em" viewBox="0 0 18 18" version="1.1" xmlns="http://www.w3.org/2000/svg" xmlns:xlink="http://www.w3.org/1999/xlink">
    <!-- Generator: Sketch 53.2 (72643) - https://sketchapp.com -->
    <title>currency</title>
    <desc>Created with Sketch.</desc>
    <g id="currency" stroke="none" stroke-width="1" fill="none" fill-rule="evenodd">
        <path d="M8.05287888,9.01639122 C7.52706421,9.67702084 7.1376903,10.4510894 6.92739102,11.295963 C6.29605304,11.3904268 5.58916265,11.4432058 4.84280054,11.4432058 C2.16790455,11.4432058 0,10.7607713 0,9.92015667 L0,8.60952094 C0.000777523691,8.55330377 0.010850547,8.49758712 0.0298230256,8.44456161 C1.26633155,9.0885809 3.09012427,9.34844833 4.8473887,9.34844833 L4.8473887,9.35070804 C5.94095423,9.35070804 7.06569619,9.24892814 8.05287888,9.01639122 L8.05287888,9.01639122 Z M6.75012279,12.7887943 C6.75464847,13.5035605 6.88415529,14.188673 7.11788839,14.8233769 C6.44071948,14.9362122 5.66790653,15 4.8473887,15 C2.17249271,15 0.00229407889,14.322085 0,13.467912 L0,12.1572763 C0.000818183539,12.1010629 0.0108900462,12.0453527 0.0298230256,11.992317 C1.26633155,12.6363362 3.09012427,12.8962037 4.8473887,12.8962037 C5.48205494,12.8962037 6.12722211,12.8622174 6.75012279,12.7887943 L6.75012279,12.7887943 Z M9.69018924,1.52304911 L9.69018924,2.83368484 C9.69018924,3.67429949 7.52228469,4.35673396 4.8473887,4.35673396 C2.17249271,4.35673396 0.00458815779,3.67881892 0.00458815779,2.83368484 L0.00458815779,1.52304911 C0.00458815779,0.682434468 2.17249271,0 4.8473887,0 C7.52228469,0 9.69018924,0.680174751 9.69018924,1.52304911 Z M4.8473887,5.80069298 C6.60235905,5.80069298 8.43762217,5.54082555 9.65577806,4.89680627 C9.67471104,4.94984201 9.6847829,5.00555224 9.68560108,5.06176559 L9.68560108,6.37240133 C9.68560108,7.2175354 7.51769653,7.89545044 4.84280054,7.89545044 C2.16790455,7.89545044 0,7.21301597 0,6.37240133 L0,5.06176559 C0.000818183539,5.00555224 0.0108900462,4.94984201 0.0298230256,4.89680627 C1.26633155,5.54082555 3.09012427,5.80069298 4.8473887,5.80069298 Z M12.75,18 C9.85050506,18 7.5,15.6494949 7.5,12.75 C7.5,9.85050506 9.85050506,7.5 12.75,7.5 C15.6494949,7.5 18,9.85050506 18,12.75 C18,15.6494949 15.6494949,18 12.75,18 Z M14.4701583,13.0007163 C14.1566527,12.7014039 13.6799864,12.4371997 13.0485758,12.218418 C12.4317023,12.0069754 12.1765367,11.8300458 12.0705683,11.7179773 C11.9383948,11.5785362 11.8777595,11.3994248 11.8777595,11.1532706 C11.8777595,10.898984 11.9531233,10.6962688 12.10672,10.5363975 C12.2580213,10.3793031 12.4997975,10.2995658 12.8247798,10.2995658 C13.1300605,10.2995658 13.3555779,10.3945762 13.5177822,10.5885639 C13.6874463,10.7946511 13.7752432,11.0737317 13.7752432,11.4180698 C13.7752432,11.6096773 13.9267358,11.7667717 14.1111284,11.7667717 L14.592194,11.7667717 C14.7310623,11.7667717 14.8538632,11.6804888 14.9217671,11.4986005 L14.9364955,11.4002182 C14.9462507,10.7547825 14.7850029,10.2263741 14.4598292,9.83086129 C14.1897439,9.50239124 13.8284186,9.28658483 13.386565,9.18879755 L13.386565,8.59890025 C13.386565,8.40709437 13.2364114,8.25 13.0497234,8.25 L12.6164774,8.25 C12.4309372,8.25 12.2805922,8.40709437 12.2805922,8.59890025 L12.2805922,9.18562393 C11.8525107,9.27289858 11.4974976,9.46351435 11.2211001,9.75588443 C10.8745033,10.1212479 10.7008223,10.5953079 10.7008223,11.1631882 C10.7008223,11.7580443 10.8789027,12.2321043 11.2325768,12.5726738 C11.5504818,12.8787301 12.0336515,13.1389672 12.6564546,13.3454511 C13.2379416,13.5608608 13.4986543,13.7453277 13.6141866,13.8619584 C13.7530548,14.0025896 13.8184721,14.1751554 13.8184721,14.404648 C13.8184721,14.655761 13.7358398,14.8473685 13.5610111,15.0100167 C13.2061893,15.3400736 12.409514,15.3521731 11.9602006,14.9923635 C11.7622272,14.8318971 11.6606583,14.546271 11.6606583,14.1442125 C11.6606583,13.952605 11.510122,13.7953123 11.3247731,13.7953123 L10.8490632,13.7953123 C10.7230106,13.7953123 10.6097737,13.8673139 10.5418698,14.0035813 L10.5017013,14.094228 L10.5005536,14.1640477 C10.4879292,14.8892207 10.6912584,15.4471834 11.1067155,15.8230595 C11.427681,16.1142394 11.8165503,16.3008882 12.2677765,16.3800304 L12.2677765,16.9012981 C12.2677765,17.0929056 12.4181215,17.25 12.6036618,17.25 L13.0369078,17.25 C13.2234044,17.25 13.3737494,17.0929056 13.3737494,16.9012981 L13.3737494,16.3695178 C13.8104384,16.2822431 14.1736765,16.0965862 14.4565775,15.8141336 C14.8169464,15.457101 15,14.9792723 15,14.3953255 C15,13.8042381 14.8209632,13.3357319 14.4701583,13.0007163 Z" id="Shape" fill="currentColor" fill-rule="nonzero"></path>
    </g>
</svg>