<?xml version="1.0" encoding="UTF-8"?>
<svg width="1em" height="1em" viewBox="0 0 18 18" version="1.1" xmlns="http://www.w3.org/2000/svg" xmlns:xlink="http://www.w3.org/1999/xlink">
    <!-- Generator: Sketch 53.2 (72643) - https://sketchapp.com -->
    <title>customize-field</title>
    <desc>Created with Sketch.</desc>
    <g id="customize-field" stroke="none" stroke-width="1" fill="none" fill-rule="evenodd">
        <path d="M1.49254201,10.7661646 L1.49254201,10.7669198 L0.693121027,10.7669198 C0.120460696,10.7669198 0.0156712191,10.416859 0,10.2314438 L0,7.70171611 C0,7.32673184 0.323053685,7.24780766 0.527723582,7.23440188 L1.50500346,7.23440188 C1.64170181,7.2319473 2.08106237,7.18719842 2.26873938,6.70326858 C2.27024986,6.69873705 2.27270439,6.69609365 2.27421487,6.69175093 C2.36333312,6.43024378 2.46850022,6.17534511 2.58745044,5.92724374 L2.58442948,5.9266773 C2.58442948,5.9266773 2.86386808,5.3628792 2.47831833,4.97694373 L2.47794071,4.97675492 L1.8099314,4.30873159 C1.80955378,4.30797634 1.80917616,4.30759871 1.80898735,4.30722108 C1.44194097,3.94035581 1.73686198,3.54630135 1.8654415,3.40695674 L3.43690604,1.83527042 C3.6160866,1.68629631 3.99087419,1.49351739 4.44609478,1.94874753 C4.44685002,1.94931398 4.44703883,1.94950279 4.44760526,1.95025805 L4.91604255,2.41870516 C5.01969916,2.51858767 5.38542388,2.81408132 5.91220341,2.591281 C5.92107747,2.58750472 5.92711939,2.58693828 5.93561583,2.58353963 C6.18862106,2.46288759 6.4476682,2.35545252 6.71389011,2.26595477 C6.71766631,2.26406663 6.71917679,2.26274493 6.72276418,2.26142324 C7.11605513,2.10923929 7.21329221,1.8800193 7.23349487,1.73614316 L7.23349487,0.982209541 C7.23462773,0.954076281 7.23613821,0.931229807 7.23613821,0.898565015 C7.23613821,0.196932824 7.802379,0.0326647925 8.17962112,0 L9.82283341,0 C10.2000755,0.0326647925 10.7665051,0.196932824 10.7665051,0.898565015 L10.7665051,1.60302941 C10.7665051,1.60302941 10.7572534,2.10055385 11.3973189,2.30390635 C11.4371578,2.31655687 11.4626471,2.32731926 11.4754862,2.33675995 C11.727925,2.4302228 11.9756435,2.53463685 12.2158097,2.65604414 L12.2158097,2.65510007 C12.2158097,2.65510007 12.6319466,2.87053665 12.9368746,2.5654135 L12.9368746,2.56503587 L13.6218768,1.88039693 L13.6233872,1.87926405 L13.6622821,1.83980196 C13.7848197,1.72689129 14.1703694,1.44348173 14.6074643,1.88058574 L16.1481528,3.42130659 C16.278998,3.56631561 16.5404997,3.95734905 16.0877337,4.41069106 L15.6287369,4.86931985 C15.6287369,4.86931985 15.6255271,4.87290731 15.6243942,4.87347375 L15.5949399,4.90311753 C15.4920385,5.00885327 15.1874882,5.3819494 15.416137,5.92894306 C15.4185915,5.93517392 15.4176474,5.93876138 15.4195355,5.9444258 C15.5314998,6.18006546 15.6311914,6.42061427 15.7163446,6.66777158 L15.7187992,6.66739395 C15.7187992,6.66739395 15.7204985,6.67683464 15.722953,6.68514245 C15.7320159,6.71252045 15.7425892,6.73895439 15.7512745,6.76595477 C15.8207565,6.92814585 16.029769,7.23459069 16.6284851,7.23459069 L17.3827805,7.23459069 C17.5919819,7.25271682 18,7.38111023 18,8.10124617 L18,9.85702597 C18,10.6823312 17.419032,10.7612554 17.2481591,10.766731 L16.6007301,10.766731 C16.6007301,10.766731 15.9487696,10.7531364 15.7178551,11.3361935 C15.715023,11.3437461 15.712002,11.3475223 15.7086034,11.3545085 C15.6259047,11.5918474 15.5299893,11.8238996 15.4221789,12.0508539 L15.4257663,12.0521756 C15.4257663,12.0521756 15.4208572,12.0580288 15.4150041,12.0674695 C15.3870602,12.1256241 15.3593052,12.1841564 15.329662,12.2423111 C15.2647114,12.433013 15.2418654,12.7449335 15.5671848,13.0702597 L16.2599283,13.7624512 C16.3866197,13.9367264 16.4863113,14.2420384 16.1003839,14.627785 L16.1000063,14.6281626 L14.6061426,16.1224353 C14.6055762,16.1230017 14.6046321,16.1235682 14.6034993,16.1243234 C14.0991881,16.6294004 13.5746743,16.0729661 13.5746743,16.0729661 L13.5742967,16.0729661 L13.0552584,15.5541057 C13.0552584,15.5541057 12.6174083,15.1908278 12.038706,15.4325095 C12.0249229,15.4383628 12.0145384,15.4408174 12.0020769,15.4455377 C11.786456,15.545609 11.567059,15.635862 11.342564,15.7136533 C11.3370886,15.7164855 11.3344452,15.7191289 11.3284033,15.7215835 C10.8614765,15.9141736 10.7784002,16.2742416 10.7666939,16.449272 L10.7666939,17.3502916 C10.7666939,17.3502916 10.7691485,18 10.0543143,18 L7.68814903,18 C7.27937567,17.9197541 7.23632702,17.5464692 7.23387249,17.437146 L7.23387249,16.494965 C7.23387249,16.0359585 6.97652464,15.8424244 6.7979105,15.7618009 C6.74787589,15.7455629 6.69878532,15.7278144 6.64912833,15.7106323 C6.63949902,15.7085554 6.6294921,15.7066672 6.6294921,15.7066672 L6.63194663,15.7040238 C6.43992699,15.6366173 6.25168355,15.5599589 6.06664988,15.4765032 C6.04134936,15.4712164 6.00755239,15.4576218 5.96469255,15.4340201 C5.51230411,15.1866739 5.17395683,15.3584945 4.99628674,15.5025595 L4.36282963,16.1358411 C3.91100762,16.5863509 3.54754862,16.2753745 3.54754862,16.2753745 L3.547171,16.2753745 L1.72874316,14.4569085 L1.72874316,14.4565309 C1.45893385,14.1869047 1.60261816,13.9225654 1.72043552,13.7820879 L2.38523507,13.1172744 C2.38599031,13.1167079 2.38599031,13.1165191 2.38617912,13.1161415 C2.78702247,12.7151009 2.71810687,12.3680611 2.65598842,12.2153107 C2.64333816,12.1907649 2.63125433,12.1660303 2.6191705,12.1409181 C2.61577192,12.1363865 2.6135062,12.1326102 2.6135062,12.1326102 L2.61463906,12.1322326 C2.4718988,11.8408929 2.34879476,11.5403013 2.24683743,11.2298913 C2.24664862,11.2289473 2.24627101,11.2285696 2.2460822,11.2276256 C2.08955881,10.8035497 1.61715652,10.7682415 1.49254201,10.7661646 Z M8.9988707,4.5 C6.51792934,4.5 4.5,6.51879479 4.5,9.00037645 C4.5,11.4809542 6.51792934,13.5 8.9988707,13.5 C11.4805649,13.5 13.5,11.4809542 13.5,9.00037645 C13.5,6.51879479 11.4805649,4.5 8.9988707,4.5 Z" id="Shape" fill="currentColor" fill-rule="nonzero"></path>
    </g>
</svg>