<?xml version="1.0" encoding="UTF-8"?>
<svg width="1em" height="1em" viewBox="0 0 18 18" version="1.1" xmlns="http://www.w3.org/2000/svg" xmlns:xlink="http://www.w3.org/1999/xlink">
    <!-- Generator: Sketch 55 (78076) - https://sketchapp.com -->
    <title>custom-list</title>
    <desc>Created with Sketch.</desc>
    <g id="custom-list" stroke="none" stroke-width="1" fill="none" fill-rule="evenodd">
        <path d="M3.48557692,2.24479167 L2.66826923,4.58854167 C2.77403846,4.58854167 2.99278846,4.59201389 3.32451923,4.59895833 C3.65625,4.60590278 3.91346154,4.609375 4.09615385,4.609375 C4.15705128,4.609375 4.24839744,4.60590278 4.37019231,4.59895833 C4.09134615,3.72048611 3.79647436,2.93576389 3.48557692,2.24479167 Z M0,8 L0.00961538462,7.58854167 C0.0833333333,7.56423611 0.173076923,7.54253472 0.278846154,7.5234375 C0.384615385,7.50434028 0.475961538,7.48611111 0.552884615,7.46875 C0.629807692,7.45138889 0.709134615,7.42621528 0.790865385,7.39322917 C0.872596154,7.36024306 0.943910256,7.30989583 1.00480769,7.2421875 C1.06570513,7.17447917 1.11538462,7.08680556 1.15384615,6.97916667 L2.29326923,3.77083333 L3.63942308,0 L4.25480769,0 C4.28044872,0.0486111111 4.29807692,0.0850694444 4.30769231,0.109375 L5.29326923,2.609375 C5.39903846,2.88020833 5.56891026,3.32725694 5.80288462,3.95052083 C6.03685897,4.57378472 6.21955128,5.05034722 6.35096154,5.38020833 C6.39903846,5.49826389 6.49198718,5.74913194 6.62980769,6.1328125 C6.76762821,6.51649306 6.88301282,6.80902778 6.97596154,7.01041667 C7.0400641,7.16666667 7.09615385,7.265625 7.14423077,7.30729167 C7.20512821,7.359375 7.34615385,7.41059028 7.56730769,7.4609375 C7.78846154,7.51128472 7.92307692,7.546875 7.97115385,7.56770833 C7.99038462,7.69965278 8,7.79861111 8,7.86458333 C8,7.87847222 7.99919872,7.90104167 7.99759615,7.93229167 C7.99599359,7.96354167 7.99519231,7.98611111 7.99519231,8 C7.79326923,8 7.48878205,7.98611111 7.08173077,7.95833333 C6.67467949,7.93055556 6.36858974,7.91666667 6.16346154,7.91666667 C5.91987179,7.91666667 5.57532051,7.92881944 5.12980769,7.953125 C4.68429487,7.97743056 4.39903846,7.99131944 4.27403846,7.99479167 C4.27403846,7.84548611 4.28044872,7.71006944 4.29326923,7.58854167 L4.92307692,7.44270833 C4.92628205,7.44270833 4.9463141,7.43836806 4.98317308,7.4296875 C5.02003205,7.42100694 5.04487179,7.41493056 5.05769231,7.41145833 C5.07051282,7.40798611 5.09375,7.40017361 5.12740385,7.38802083 C5.16105769,7.37586806 5.18509615,7.36458333 5.19951923,7.35416667 C5.21394231,7.34375 5.23157051,7.32986111 5.25240385,7.3125 C5.27323718,7.29513889 5.28766026,7.27604167 5.29567308,7.25520833 C5.3036859,7.234375 5.30769231,7.21006944 5.30769231,7.18229167 C5.30769231,7.12673611 5.25801282,6.95920139 5.15865385,6.6796875 C5.05929487,6.40017361 4.94391026,6.09201389 4.8125,5.75520833 C4.68108974,5.41840278 4.61378205,5.24479167 4.61057692,5.234375 L2.44711538,5.22395833 C2.36378205,5.42534722 2.2411859,5.76475694 2.07932692,6.2421875 C1.91746795,6.71961806 1.83653846,7.00173611 1.83653846,7.08854167 C1.83653846,7.16493056 1.85897436,7.23003472 1.90384615,7.28385417 C1.94871795,7.33767361 2.01842949,7.38020833 2.11298077,7.41145833 C2.20753205,7.44270833 2.28525641,7.46614583 2.34615385,7.48177083 C2.40705128,7.49739583 2.49839744,7.51215278 2.62019231,7.52604167 C2.74198718,7.53993056 2.80769231,7.546875 2.81730769,7.546875 C2.82051282,7.61284722 2.82211538,7.71354167 2.82211538,7.84895833 C2.82211538,7.88020833 2.81891026,7.92708333 2.8125,7.98958333 C2.62660256,7.98958333 2.34695513,7.97222222 1.97355769,7.9375 C1.60016026,7.90277778 1.32051282,7.88541667 1.13461538,7.88541667 C1.10897436,7.88541667 1.06650641,7.89236111 1.00721154,7.90625 C0.947916667,7.92013889 0.913461538,7.92708333 0.903846154,7.92708333 C0.647435897,7.97569444 0.346153846,8 0,8 Z M0.25,11 L6.75,11 C6.88807119,11 7,11.1119288 7,11.25 L7,11.75 C7,11.8880712 6.88807119,12 6.75,12 L0.25,12 C0.111928813,12 1.69088438e-17,11.8880712 0,11.75 L0,11.25 C-1.69088438e-17,11.1119288 0.111928813,11 0.25,11 Z M8.25,11 L12.75,11 C12.8880712,11 13,11.1119288 13,11.25 L13,11.75 C13,11.8880712 12.8880712,12 12.75,12 L8.25,12 C8.11192881,12 8,11.8880712 8,11.75 L8,11.25 C8,11.1119288 8.11192881,11 8.25,11 Z M14.25,11 L17.75,11 C17.8880712,11 18,11.1119288 18,11.25 L18,11.75 C18,11.8880712 17.8880712,12 17.75,12 L14.25,12 C14.1119288,12 14,11.8880712 14,11.75 L14,11.25 C14,11.1119288 14.1119288,11 14.25,11 Z M0.25,13 L3.75,13 C3.88807119,13 4,13.1119288 4,13.25 L4,13.75 C4,13.8880712 3.88807119,14 3.75,14 L0.25,14 C0.111928813,14 1.69088438e-17,13.8880712 0,13.75 L0,13.25 C-1.69088438e-17,13.1119288 0.111928813,13 0.25,13 Z M5.25,13 L9.75,13 C9.88807119,13 10,13.1119288 10,13.25 L10,13.75 C10,13.8880712 9.88807119,14 9.75,14 L5.25,14 C5.11192881,14 5,13.8880712 5,13.75 L5,13.25 C5,13.1119288 5.11192881,13 5.25,13 Z M0.25,17 L2.75,17 C2.88807119,17 3,17.1119288 3,17.25 L3,17.75 C3,17.8880712 2.88807119,18 2.75,18 L0.25,18 C0.111928813,18 1.69088438e-17,17.8880712 0,17.75 L0,17.25 C-1.69088438e-17,17.1119288 0.111928813,17 0.25,17 Z M4.25,17 L4.75,17 C4.88807119,17 5,17.1119288 5,17.25 L5,17.75 C5,17.8880712 4.88807119,18 4.75,18 L4.25,18 C4.11192881,18 4,17.8880712 4,17.75 L4,17.25 C4,17.1119288 4.11192881,17 4.25,17 Z M11.25,13 L14.75,13 C14.8880712,13 15,13.1119288 15,13.25 L15,13.75 C15,13.8880712 14.8880712,14 14.75,14 L11.25,14 C11.1119288,14 11,13.8880712 11,13.75 L11,13.25 C11,13.1119288 11.1119288,13 11.25,13 Z M0.25,15 L5.75,15 C5.88807119,15 6,15.1119288 6,15.25 L6,15.75 C6,15.8880712 5.88807119,16 5.75,16 L0.25,16 C0.111928813,16 1.69088438e-17,15.8880712 0,15.75 L0,15.25 C-1.69088438e-17,15.1119288 0.111928813,15 0.25,15 Z M7.25,15 L14.75,15 C14.8880712,15 15,15.1119288 15,15.25 L15,15.75 C15,15.8880712 14.8880712,16 14.75,16 L7.25,16 C7.11192881,16 7,15.8880712 7,15.75 L7,15.25 C7,15.1119288 7.11192881,15 7.25,15 Z M16.25,15 L17.75,15 C17.8880712,15 18,15.1119288 18,15.25 L18,15.75 C18,15.8880712 17.8880712,16 17.75,16 L16.25,16 C16.1119288,16 16,15.8880712 16,15.75 L16,15.25 C16,15.1119288 16.1119288,15 16.25,15 Z M10.0863202,2 L15.9136806,2 C15.9613535,2 16,2.04533233 16,2.1012526 C16,2.12632414 15.9920701,2.1505041 15.9777454,2.16911177 L13.0543298,5.96660576 C13.0223796,6.00810885 12.967796,6.01137217 12.9324139,5.97389458 C12.9301675,5.97151509 12.9280293,5.96899865 12.9260082,5.96635568 L10.0220635,2.1688617 C9.99023101,2.1272343 9.9931944,2.06321901 10.0286824,2.02587954 C10.0445196,2.00921605 10.0650452,2 10.0863202,2 Z" id="Fill" fill="currentColor" fill-rule="nonzero"></path>
    </g>
</svg>