<?xml version="1.0" encoding="UTF-8"?>
<svg width="1em" height="1em" viewBox="0 0 18 18" version="1.1" xmlns="http://www.w3.org/2000/svg" xmlns:xlink="http://www.w3.org/1999/xlink">
    <!-- Generator: Sketch 53.2 (72643) - https://sketchapp.com -->
    <title>database</title>
    <desc>Created with Sketch.</desc>
    <g id="database" stroke="none" stroke-width="1" fill="none" fill-rule="evenodd">
        <path d="M9,7.71428571 C10.4401042,7.71428571 11.7860243,7.5703125 13.0377604,7.28236607 C14.2894965,6.99441964 15.2769097,6.56919643 16,6.00669643 L16,7.71428571 C16,8.17633929 15.687066,8.60491071 15.0611979,9 C14.4353299,9.39508929 13.5846354,9.70814732 12.5091146,9.93917411 C11.4335937,10.1702009 10.2638889,10.2857143 9,10.2857143 C7.73611111,10.2857143 6.56640625,10.1702009 5.49088542,9.93917411 C4.41536458,9.70814732 3.56467014,9.39508929 2.93880208,9 C2.31293403,8.60491071 2,8.17633929 2,7.71428571 L2,6.00669643 C2.72309028,6.56919643 3.71050347,6.99441964 4.96223958,7.28236607 C6.21397569,7.5703125 7.55989583,7.71428571 9,7.71428571 Z M9,15.4285714 C10.4401042,15.4285714 11.7860243,15.2845982 13.0377604,14.9966518 C14.2894965,14.7087054 15.2769097,14.2834821 16,13.7209821 L16,15.4285714 C16,15.890625 15.687066,16.3191964 15.0611979,16.7142857 C14.4353299,17.109375 13.5846354,17.422433 12.5091146,17.6534598 C11.4335937,17.8844866 10.2638889,18 9,18 C7.73611111,18 6.56640625,17.8844866 5.49088542,17.6534598 C4.41536458,17.422433 3.56467014,17.109375 2.93880208,16.7142857 C2.31293403,16.3191964 2,15.890625 2,15.4285714 L2,13.7209821 C2.72309028,14.2834821 3.71050347,14.7087054 4.96223958,14.9966518 C6.21397569,15.2845982 7.55989583,15.4285714 9,15.4285714 Z M9,11.5714286 C10.4401042,11.5714286 11.7860243,11.4274554 13.0377604,11.1395089 C14.2894965,10.8515625 15.2769097,10.4263393 16,9.86383929 L16,11.5714286 C16,12.0334821 15.687066,12.4620536 15.0611979,12.8571429 C14.4353299,13.2522321 13.5846354,13.5652902 12.5091146,13.796317 C11.4335937,14.0273438 10.2638889,14.1428571 9,14.1428571 C7.73611111,14.1428571 6.56640625,14.0273438 5.49088542,13.796317 C4.41536458,13.5652902 3.56467014,13.2522321 2.93880208,12.8571429 C2.31293403,12.4620536 2,12.0334821 2,11.5714286 L2,9.86383929 C2.72309028,10.4263393 3.71050347,10.8515625 4.96223958,11.1395089 C6.21397569,11.4274554 7.55989583,11.5714286 9,11.5714286 Z M9,0 C10.2638889,0 11.4335937,0.115513393 12.5091146,0.346540179 C13.5846354,0.577566964 14.4353299,0.890625 15.0611979,1.28571429 C15.687066,1.68080357 16,2.109375 16,2.57142857 L16,3.85714286 C16,4.31919643 15.687066,4.74776786 15.0611979,5.14285714 C14.4353299,5.53794643 13.5846354,5.85100446 12.5091146,6.08203125 C11.4335937,6.31305804 10.2638889,6.42857143 9,6.42857143 C7.73611111,6.42857143 6.56640625,6.31305804 5.49088542,6.08203125 C4.41536458,5.85100446 3.56467014,5.53794643 2.93880208,5.14285714 C2.31293403,4.74776786 2,4.31919643 2,3.85714286 L2,2.57142857 C2,2.109375 2.31293403,1.68080357 2.93880208,1.28571429 C3.56467014,0.890625 4.41536458,0.577566964 5.49088542,0.346540179 C6.56640625,0.115513393 7.73611111,0 9,0 Z" id="Shape" fill="currentColor" fill-rule="nonzero"></path>
    </g>
</svg>