<?xml version="1.0" encoding="UTF-8"?>
<svg width="1em" height="1em" viewBox="0 0 18 18" version="1.1" xmlns="http://www.w3.org/2000/svg" xmlns:xlink="http://www.w3.org/1999/xlink">
    <!-- Generator: Sketch 53.2 (72643) - https://sketchapp.com -->
    <title>date</title>
    <desc>Created with Sketch.</desc>
    <g id="date" stroke="none" stroke-width="1" fill="none" fill-rule="evenodd">
        <path d="M4.17857143,0.857142857 L13.8214286,0.857142857 C13.7622552,0.857142857 13.7142857,0.809173366 13.7142857,0.75 L13.7142857,0.107142857 C13.7142857,0.0479694911 13.7622552,0 13.8214286,0 L15.3214286,0 C15.3806019,0 15.4285714,0.0479694911 15.4285714,0.107142857 L15.4285714,0.75 C15.4285714,0.809173366 15.3806019,0.857142857 15.3214286,0.857142857 L17.8928571,0.857142857 C17.9520305,0.857142857 18,0.905112348 18,0.964285714 L18,2.03571429 C18,2.09488765 17.9520305,2.14285714 17.8928571,2.14285714 L0.107142857,2.14285714 C0.0479694911,2.14285714 0,2.09488765 0,2.03571429 L0,0.964285714 C0,0.905112348 0.0479694911,0.857142857 0.107142857,0.857142857 L2.67857143,0.857142857 C2.61939806,0.857142857 2.57142857,0.809173366 2.57142857,0.75 L2.57142857,0.107142857 C2.57142857,0.0479694911 2.61939806,0 2.67857143,0 L4.17857143,0 C4.23774479,0 4.28571429,0.0479694911 4.28571429,0.107142857 L4.28571429,0.75 C4.28571429,0.809173366 4.23774479,0.857142857 4.17857143,0.857142857 Z M0.107142857,2.57142857 L17.8928571,2.57142857 C17.9520305,2.57142857 18,2.61939806 18,2.67857143 L18,17.8928571 C18,17.9520305 17.9520305,18 17.8928571,18 L0.107142857,18 C0.0479694911,18 0,17.9520305 0,17.8928571 L0,2.67857143 C0,2.61939806 0.0479694911,2.57142857 0.107142857,2.57142857 Z M1.39285714,5.14285714 C1.33368378,5.14285714 1.28571429,5.19082663 1.28571429,5.25 L1.28571429,15.3214286 C1.28571429,15.3806019 1.33368378,15.4285714 1.39285714,15.4285714 L16.6071429,15.4285714 C16.6663162,15.4285714 16.7142857,15.3806019 16.7142857,15.3214286 L16.7142857,5.25 C16.7142857,5.19082663 16.6663162,5.14285714 16.6071429,5.14285714 L1.39285714,5.14285714 Z M3.85714286,7.28571429 L6.42857143,7.28571429 L6.42857143,9.85714286 L3.85714286,9.85714286 L3.85714286,7.28571429 Z M3.85714286,10.7142857 L6.42857143,10.7142857 L6.42857143,13.2857143 L3.85714286,13.2857143 L3.85714286,10.7142857 Z M7.71428571,7.28571429 L10.2857143,7.28571429 L10.2857143,9.85714286 L7.71428571,9.85714286 L7.71428571,7.28571429 Z M7.71428571,10.7142857 L10.2857143,10.7142857 L10.2857143,13.2857143 L7.71428571,13.2857143 L7.71428571,10.7142857 Z M11.5714286,7.28571429 L14.1428571,7.28571429 L14.1428571,9.85714286 L11.5714286,9.85714286 L11.5714286,7.28571429 Z M11.5714286,10.7142857 L14.1428571,10.7142857 L14.1428571,13.2857143 L11.5714286,13.2857143 L11.5714286,10.7142857 Z" id="Shape" fill="currentColor" fill-rule="nonzero"></path>
    </g>
</svg>