<?xml version="1.0" encoding="UTF-8"?>
<svg width="1em" height="1em" viewBox="0 0 18 18" version="1.1" xmlns="http://www.w3.org/2000/svg" xmlns:xlink="http://www.w3.org/1999/xlink">
    <!-- Generator: Sketch 53.2 (72643) - https://sketchapp.com -->
    <title>date-time</title>
    <desc>Created with Sketch.</desc>
    <g id="date-time" stroke="none" stroke-width="1" fill="none" fill-rule="evenodd">
        <path d="M4.1785868,0.857142772 L11.2500147,0.857142772 C11.1908413,0.857142772 11.1428718,0.809173286 11.1428718,0.749999925 L11.1428718,0.107142846 C11.1428718,0.0479694863 11.1908413,0 11.2500147,0 L12.7500145,0 C12.8091879,0 12.8571574,0.0479694863 12.8571574,0.107142846 L12.8571574,0.749999925 C12.8571574,0.809173286 12.8091879,0.857142772 12.7500145,0.857142772 L15.3214428,0.857142772 C15.3806162,0.857142772 15.4285857,0.905112258 15.4285857,0.964285618 L15.4285857,2.03571408 C15.4285857,2.09488744 15.3806162,2.14285693 15.3214428,2.14285693 L0.107158637,2.14285693 C0.0479852764,2.14285693 1.57900931e-05,2.09488744 1.57900931e-05,2.03571408 L1.57900931e-05,0.964285618 C1.57900931e-05,0.905112258 0.0479852764,0.857142772 0.107158637,0.857142772 L2.67858695,0.857142772 C2.61941359,0.857142772 2.57144411,0.809173286 2.57144411,0.749999925 L2.57144411,0.107142846 C2.57144411,0.0479694863 2.61941359,0 2.67858695,0 L4.1785868,0 C4.23776016,0 4.28572965,0.0479694863 4.28572965,0.107142846 L4.28572965,0.749999925 C4.28572965,0.809173286 4.23776016,0.857142772 4.1785868,0.857142772 Z M0.107142846,2.57133182 L15.3214428,2.57133182 C15.3806162,2.57133182 15.4285857,2.61930131 15.4285857,2.67847467 L15.4285857,7.28571356 C13.092289,6.47979037 10.3168687,6.80233226 8.57144351,8.57142772 C6.82601835,10.3405232 6.33024339,13.0603379 7.28572935,15.4285699 L0.107142846,15.4285699 C0.0479694863,15.4285699 7.61295713e-16,15.3806004 0,15.321427 L7.61295713e-16,2.67847467 C7.61295713e-16,2.61930131 0.0479694863,2.57133182 0.107142846,2.57133182 Z M12.8571574,17.9999982 C10.0168361,17.9999982 7.71430074,15.6974629 7.71430074,12.8571416 C7.71430074,10.0168203 10.0168361,7.71428495 12.8571574,7.71428495 C15.6974787,7.71428495 18.000014,10.0168203 18.000014,12.8571416 C18.000014,15.6974629 15.6974787,17.9999982 12.8571574,17.9999982 Z M13.2857288,12.4285702 L13.2857288,8.57142772 L12.428586,8.57142772 L12.428586,13.285713 L16.2857285,13.285713 L16.2857285,12.4285702 L13.2857288,12.4285702 Z" id="Shape" fill="currentColor" fill-rule="nonzero"></path>
    </g>
</svg>