<?xml version="1.0" encoding="UTF-8"?>
<svg width="1em" height="1em" viewBox="0 0 18 18" version="1.1" xmlns="http://www.w3.org/2000/svg" xmlns:xlink="http://www.w3.org/1999/xlink">
    <!-- Generator: Sketch 53.2 (72643) - https://sketchapp.com -->
    <title>desktop</title>
    <desc>Created with Sketch.</desc>
    <g id="desktop" stroke="none" stroke-width="1" fill="none" fill-rule="evenodd">
        <path d="M4.25,15 L13.75,15 C13.8880712,15 14,15.1119288 14,15.25 L14,16.75 C14,16.8880712 13.8880712,17 13.75,17 L4.25,17 C4.11192881,17 4,16.8880712 4,16.75 L4,15.25 C4,15.1119288 4.11192881,15 4.25,15 Z M0.25,1 L17.75,1 C17.8880712,1 18,1.11192881 18,1.25 L18,13.75 C18,13.8880712 17.8880712,14 17.75,14 L0.25,14 C0.111928813,14 1.69088438e-17,13.8880712 0,13.75 L0,1.25 C-1.69088438e-17,1.11192881 0.111928813,1 0.25,1 Z M1,2.12890625 L1,4.87109375 C1,4.94792938 1.05489868,5 1.12261963,5 L2,5 L2,3.12510896 C2,3.0576992 2.05601319,3 2.12510896,3 L4,3 L4,2.12261963 C4,2.05376434 3.94228671,2 3.87109375,2 L1.12890625,2 C1.05207062,2 1,2.05771329 1,2.12890625 Z" id="Shape" fill="currentColor" fill-rule="nonzero"></path>
    </g>
</svg>