<?xml version="1.0" encoding="UTF-8"?>
<svg width="1em" height="1em" viewBox="0 0 18 18" version="1.1" xmlns="http://www.w3.org/2000/svg" xmlns:xlink="http://www.w3.org/1999/xlink">
    <!-- Generator: Sketch 53.2 (72643) - https://sketchapp.com -->
    <title>difference</title>
    <desc>Created with Sketch.</desc>
    <g id="difference" stroke="none" stroke-width="1" fill="none" fill-rule="evenodd">
        <path d="M5.14285714,5.1297713 C5.14285714,5.07094442 5.19211905,5.02325581 5.25190871,5.02325581 L12.7480913,5.02325581 C12.8083188,5.02325581 12.8571429,5.0713721 12.8571429,5.1297713 L12.8571429,12.451624 C12.8571429,12.5104509 12.8078809,12.5581395 12.7480913,12.5581395 L5.25190871,12.5581395 C5.19168119,12.5581395 5.14285714,12.5100233 5.14285714,12.451624 L5.14285714,5.1297713 Z M18,10.9884633 L18,12.4554812 C18,12.5121779 17.9505435,12.5581395 17.8927638,12.5581395 L16.3929505,12.5581395 C16.3337256,12.5581395 16.2857143,12.5131275 16.2857143,12.4554812 L16.2857143,11.8235885 C16.2857143,11.7668919 16.3351707,11.7209302 16.3929505,11.7209302 L17.1428571,11.7209302 L17.1428571,10.9884633 C17.1428571,10.9306157 17.1889409,10.8837209 17.2479597,10.8837209 L17.8948975,10.8837209 C17.952944,10.8837209 18,10.9320272 18,10.9884633 Z M0.857142857,5.86046512 L0.857142857,6.59293204 C0.857142857,6.65077966 0.811059134,6.69767442 0.752040318,6.69767442 L0.105102539,6.69767442 C0.0470560096,6.69767442 0,6.64936811 0,6.59293204 L0,5.12591411 C0,5.0692175 0.0494564601,5.02325581 0.107236249,5.02325581 L1.60704947,5.02325581 C1.66627441,5.02325581 1.71428571,5.06826782 1.71428571,5.12591411 L1.71428571,5.75780682 C1.71428571,5.81450343 1.66482925,5.86046512 1.60704947,5.86046512 L0.857142857,5.86046512 Z M12.8571429,16.0117191 L12.8571429,17.8973417 C12.8571429,17.9540383 12.8076864,18 12.7499066,18 L11.2500934,18 C11.1908684,18 11.1428571,17.954988 11.1428571,17.8973417 L11.1428571,17.265449 C11.1428571,17.2087524 11.1923136,17.1627907 11.2500934,17.1627907 L12,17.1627907 L12,16.0117191 C12,15.9538715 12.0460837,15.9069767 12.1051025,15.9069767 L12.7520403,15.9069767 C12.8100868,15.9069767 12.8571429,15.9552831 12.8571429,16.0117191 Z M6,0.837209302 L6,1.56967622 C6,1.62752384 5.95391628,1.6744186 5.89489746,1.6744186 L5.24795968,1.6744186 C5.18991315,1.6744186 5.14285714,1.62611229 5.14285714,1.56967622 L5.14285714,0.102658294 C5.14285714,0.0459616838 5.1923136,0 5.25009339,0 L6.74990661,0 C6.80913155,0 6.85714286,0.0450120083 6.85714286,0.102658294 L6.85714286,0.734551008 C6.85714286,0.791247619 6.8076864,0.837209302 6.74990661,0.837209302 L6,0.837209302 Z M5.14285714,2.61637029 C5.14285714,2.55852267 5.18894087,2.51162791 5.24795968,2.51162791 L5.89489746,2.51162791 C5.95294399,2.51162791 6,2.55993422 6,2.61637029 L6,4.08130413 C6,4.13915175 5.95391628,4.18604651 5.89489746,4.18604651 L5.24795968,4.18604651 C5.18991315,4.18604651 5.14285714,4.1377402 5.14285714,4.08130413 L5.14285714,2.61637029 Z M17.1428571,3.45357959 C17.1428571,3.39573197 17.1889409,3.34883721 17.2479597,3.34883721 L17.8948975,3.34883721 C17.952944,3.34883721 18,3.39714352 18,3.45357959 L18,4.91851343 C18,4.97636105 17.9539163,5.02325581 17.8948975,5.02325581 L17.2479597,5.02325581 C17.1899132,5.02325581 17.1428571,4.9749495 17.1428571,4.91851343 L17.1428571,3.45357959 Z M0,10.151254 C0,10.0934064 0.0460837228,10.0465116 0.105102539,10.0465116 L0.752040318,10.0465116 C0.810086848,10.0465116 0.857142857,10.0948179 0.857142857,10.151254 L0.857142857,11.6161878 C0.857142857,11.6740355 0.811059134,11.7209302 0.752040318,11.7209302 L0.105102539,11.7209302 C0.0470560096,11.7209302 0,11.6726239 0,11.6161878 L0,10.151254 Z M17.1428571,5.9652075 C17.1428571,5.90735988 17.1889409,5.86046512 17.2479597,5.86046512 L17.8948975,5.86046512 C17.952944,5.86046512 18,5.90877143 18,5.9652075 L18,7.43014134 C18,7.48798896 17.9539163,7.53488372 17.8948975,7.53488372 L17.2479597,7.53488372 C17.1899132,7.53488372 17.1428571,7.48657741 17.1428571,7.43014134 L17.1428571,5.9652075 Z M0,12.6628819 C0,12.6050343 0.0460837228,12.5581395 0.105102539,12.5581395 L0.752040318,12.5581395 C0.810086848,12.5581395 0.857142857,12.6064458 0.857142857,12.6628819 L0.857142857,14.1278158 C0.857142857,14.1856634 0.811059134,14.2325581 0.752040318,14.2325581 L0.105102539,14.2325581 C0.0470560096,14.2325581 0,14.1842518 0,14.1278158 L0,12.6628819 Z M17.1428571,8.47683541 C17.1428571,8.41898779 17.1889409,8.37209302 17.2479597,8.37209302 L17.8948975,8.37209302 C17.952944,8.37209302 18,8.42039933 18,8.47683541 L18,9.94176925 C18,9.99961687 17.9539163,10.0465116 17.8948975,10.0465116 L17.2479597,10.0465116 C17.1899132,10.0465116 17.1428571,9.99820532 17.1428571,9.94176925 L17.1428571,8.47683541 Z M0,15.1745098 C0,15.1166622 0.0460837228,15.0697674 0.105102539,15.0697674 L0.752040318,15.0697674 C0.810086848,15.0697674 0.857142857,15.1180738 0.857142857,15.1745098 L0.857142857,16.6394437 C0.857142857,16.6972913 0.811059134,16.744186 0.752040318,16.744186 L0.105102539,16.744186 C0.0470560096,16.744186 0,16.6958797 0,16.6394437 L0,15.1745098 Z M17.1428571,0.941951685 C17.1428571,0.884104064 17.1889409,0.837209302 17.2479597,0.837209302 L17.8948975,0.837209302 C17.952944,0.837209302 18,0.885515612 18,0.941951685 L18,2.40688552 C18,2.46473314 17.9539163,2.51162791 17.8948975,2.51162791 L17.2479597,2.51162791 C17.1899132,2.51162791 17.1428571,2.4633216 17.1428571,2.40688552 L17.1428571,0.941951685 Z M0,7.6396261 C0,7.58177848 0.0460837228,7.53488372 0.105102539,7.53488372 L0.752040318,7.53488372 C0.810086848,7.53488372 0.857142857,7.58319003 0.857142857,7.6396261 L0.857142857,9.10455994 C0.857142857,9.16240756 0.811059134,9.20930233 0.752040318,9.20930233 L0.105102539,9.20930233 C0.0470560096,9.20930233 0,9.16099602 0,9.10455994 L0,7.6396261 Z M12,13.5000912 C12,13.4422436 12.0460837,13.3953488 12.1051025,13.3953488 L12.7520403,13.3953488 C12.8100868,13.3953488 12.8571429,13.4436551 12.8571429,13.5000912 L12.8571429,14.9650251 C12.8571429,15.0228727 12.8110591,15.0697674 12.7520403,15.0697674 L12.1051025,15.0697674 C12.047056,15.0697674 12,15.0214611 12,14.9650251 L12,13.5000912 Z M0.857142857,17.265449 C0.857142857,17.2087524 0.906599317,17.1627907 0.964379106,17.1627907 L2.46419232,17.1627907 C2.52341727,17.1627907 2.57142857,17.2078027 2.57142857,17.265449 L2.57142857,17.8973417 C2.57142857,17.9540383 2.52197211,18 2.46419232,18 L0.964379106,18 C0.905154161,18 0.857142857,17.954988 0.857142857,17.8973417 L0.857142857,17.265449 Z M7.71428571,0.102658294 C7.71428571,0.0459616838 7.76374217,0 7.82152196,0 L9.32133518,0 C9.38056012,0 9.42857143,0.0450120083 9.42857143,0.102658294 L9.42857143,0.734551008 C9.42857143,0.791247619 9.37911497,0.837209302 9.32133518,0.837209302 L7.82152196,0.837209302 C7.76229702,0.837209302 7.71428571,0.792197294 7.71428571,0.734551008 L7.71428571,0.102658294 Z M3.42857143,17.265449 C3.42857143,17.2087524 3.47802789,17.1627907 3.53580768,17.1627907 L5.03562089,17.1627907 C5.09484584,17.1627907 5.14285714,17.2078027 5.14285714,17.265449 L5.14285714,17.8973417 C5.14285714,17.9540383 5.09340068,18 5.03562089,18 L3.53580768,18 C3.47658273,18 3.42857143,17.954988 3.42857143,17.8973417 L3.42857143,17.265449 Z M10.2857143,0.102658294 C10.2857143,0.0459616838 10.3351707,0 10.3929505,0 L11.8927638,0 C11.9519887,0 12,0.0450120083 12,0.102658294 L12,0.734551008 C12,0.791247619 11.9505435,0.837209302 11.8927638,0.837209302 L10.3929505,0.837209302 C10.3337256,0.837209302 10.2857143,0.792197294 10.2857143,0.734551008 L10.2857143,0.102658294 Z M6,17.265449 C6,17.2087524 6.04945646,17.1627907 6.10723625,17.1627907 L7.60704947,17.1627907 C7.66627441,17.1627907 7.71428571,17.2078027 7.71428571,17.265449 L7.71428571,17.8973417 C7.71428571,17.9540383 7.66482925,18 7.60704947,18 L6.10723625,18 C6.0480113,18 6,17.954988 6,17.8973417 L6,17.265449 Z M12.8571429,0.102658294 C12.8571429,0.0459616838 12.9065993,0 12.9643791,0 L14.4641923,0 C14.5234173,0 14.5714286,0.0450120083 14.5714286,0.102658294 L14.5714286,0.734551008 C14.5714286,0.791247619 14.5219721,0.837209302 14.4641923,0.837209302 L12.9643791,0.837209302 C12.9051542,0.837209302 12.8571429,0.792197294 12.8571429,0.734551008 L12.8571429,0.102658294 Z M8.57142857,17.265449 C8.57142857,17.2087524 8.62088503,17.1627907 8.67866482,17.1627907 L10.178478,17.1627907 C10.237703,17.1627907 10.2857143,17.2078027 10.2857143,17.265449 L10.2857143,17.8973417 C10.2857143,17.9540383 10.2362578,18 10.178478,18 L8.67866482,18 C8.61943988,18 8.57142857,17.954988 8.57142857,17.8973417 L8.57142857,17.265449 Z M15.4285714,0.102658294 C15.4285714,0.0459616838 15.4780279,0 15.5358077,0 L17.0356209,0 C17.0948458,0 17.1428571,0.0450120083 17.1428571,0.102658294 L17.1428571,0.734551008 C17.1428571,0.791247619 17.0934007,0.837209302 17.0356209,0.837209302 L15.5358077,0.837209302 C15.4765827,0.837209302 15.4285714,0.792197294 15.4285714,0.734551008 L15.4285714,0.102658294 Z M13.7142857,11.8235885 C13.7142857,11.7668919 13.7637422,11.7209302 13.821522,11.7209302 L15.3213352,11.7209302 C15.3805601,11.7209302 15.4285714,11.7659422 15.4285714,11.8235885 L15.4285714,12.4554812 C15.4285714,12.5121779 15.379115,12.5581395 15.3213352,12.5581395 L13.821522,12.5581395 C13.762297,12.5581395 13.7142857,12.5131275 13.7142857,12.4554812 L13.7142857,11.8235885 Z M2.57142857,5.12591411 C2.57142857,5.0692175 2.62088503,5.02325581 2.67866482,5.02325581 L4.17847804,5.02325581 C4.23770298,5.02325581 4.28571429,5.06826782 4.28571429,5.12591411 L4.28571429,5.75780682 C4.28571429,5.81450343 4.23625783,5.86046512 4.17847804,5.86046512 L2.67866482,5.86046512 C2.61943988,5.86046512 2.57142857,5.81545311 2.57142857,5.75780682 L2.57142857,5.12591411 Z" id="Shape" fill="currentColor" fill-rule="nonzero"></path>
    </g>
</svg>