<?xml version="1.0" encoding="UTF-8"?>
<svg width="1em" height="1em" viewBox="0 0 18 18" version="1.1" xmlns="http://www.w3.org/2000/svg" xmlns:xlink="http://www.w3.org/1999/xlink">
    <!-- Generator: Sketch 53.2 (72643) - https://sketchapp.com -->
    <title>div</title>
    <desc>Created with Sketch.</desc>
    <g id="div" stroke="none" stroke-width="1" fill="none" fill-rule="evenodd">
        <path d="M0.107142857,0 L17.8928571,0 C17.9520305,0 18,0.0479694911 18,0.107142857 L18,17.8928571 C18,17.9520305 17.9520305,18 17.8928571,18 L0.107142857,18 C0.0479694911,18 0,17.9520305 0,17.8928571 L0,0.107142857 C0,0.0479694911 0.0479694911,0 0.107142857,0 Z M9.88971429,7.176 C10.2702857,7.176 10.548,6.888 10.548,6.50742857 C10.548,6.14742857 10.2702857,5.85942857 9.88971429,5.85942857 C9.50914286,5.85942857 9.23142857,6.14742857 9.23142857,6.50742857 C9.23142857,6.888 9.50914286,7.176 9.88971429,7.176 Z M9.40628571,13.2857143 L10.3731429,13.2857143 L10.3731429,8.14285714 L9.40628571,8.14285714 L9.40628571,13.2857143 Z M15.3617143,8.14285714 L13.8394286,11.8765714 L12.3068571,8.14285714 L11.2577143,8.14285714 L13.5308571,13.3062857 L14.148,13.3062857 L16.4005714,8.14285714 L15.3617143,8.14285714 Z M4.26342857,6.08571429 L2.37085714,6.08571429 L2.37085714,13.2857143 L4.26342857,13.2857143 C6.52628571,13.2857143 7.87371429,11.6605714 7.87371429,9.66514286 C7.87371429,7.68 6.52628571,6.08571429 4.26342857,6.08571429 Z M4.27371429,12.3291429 L3.348,12.3291429 L3.348,7.04228571 L4.27371429,7.04228571 C5.91942857,7.04228571 6.88628571,8.19428571 6.88628571,9.66514286 C6.88628571,11.1051429 5.91942857,12.3291429 4.27371429,12.3291429 Z" id="Shape" fill="currentColor" fill-rule="nonzero"></path>
    </g>
</svg>