<?xml version="1.0" encoding="UTF-8"?>
<svg width="1em" height="1em" viewBox="0 0 18 18" version="1.1" xmlns="http://www.w3.org/2000/svg" xmlns:xlink="http://www.w3.org/1999/xlink">
    <!-- Generator: Sketch 53.2 (72643) - https://sketchapp.com -->
    <title>domain</title>
    <desc>Created with Sketch.</desc>
    <g id="domain" stroke="none" stroke-width="1" fill="none" fill-rule="evenodd">
        <path d="M18,3.25 L18,17.75 C18,17.8880712 17.8880712,18 17.75,18 L0.25,18 C0.111928813,18 1.69088438e-17,17.8880712 0,17.75 L0,3.25 C-1.69088438e-17,3.11192881 0.111928813,3 0.25,3 L17.75,3 C17.8880712,3 18,3.11192881 18,3.25 Z M9.00006068,4 C5.69158652,4 3,6.69158652 3,10.0000607 C3,13.3084135 5.69158652,16 9.00006068,16 C12.3085348,16 15,13.3084135 15,10.0000607 C15,6.69158652 12.3085348,4 9.00006068,4 Z M11.62639,14.7860128 L11.2680549,14.6817712 L10.7877129,14.6068476 L9.91709297,14.7941005 L9.67692197,14.9438354 L9.23656844,14.9438354 L8.96625597,14.953271 L8.6761294,14.8315061 L8.49600115,14.6068476 L8.28224896,14.550683 L8.3158729,14.7660182 L8.15579893,15 L7.61541417,14.7379358 L7.44357182,14.8466706 C5.42853712,14.0957495 4,12.2535496 4,10.1041292 C4,9.80814162 4.02858035,9.51855679 4.08045729,9.23616104 L4.5532339,9.38353702 L4.87350193,9.5707899 L4.97353316,9.76837707 L5.15366141,10.1040169 L5.47392944,10.2447655 L4.77347071,10.5255886 L4.75341643,11.4054637 L4.84083868,11.7986161 L5.21382424,12.004628 L5.43394097,12.3040978 L6.01431419,13.2776555 L6.26373178,13.9142254 L6.77493575,14.3821891 L7.21528929,14.550683 L7.33537479,14.3635424 L7.15524654,14.0077957 L7.18887048,13.3899847 L7.29538632,13.0155913 L7.93580229,12.7347682 L7.75567404,12.3040978 C7.75567404,12.3040978 8.01589932,11.8361341 7.99584504,11.7238048 C7.97579076,11.6114756 8.35610154,11.4429817 8.35610154,11.4429817 L8.54163364,11.3641265 L8.67636958,11.0498293 L8.61128323,10.8143871 L8.37615582,10.7502471 L7.7957826,10.1040169 L7.27545212,9.76837707 L5.93445733,9.68311916 L5.67423205,9.90777768 L5.39407258,9.92653666 L5.43406105,9.68311916 L5.39407258,9.51462527 L5.51415808,9.25256111 L5.70065086,9.1415798 L5.59413502,8.99049694 L5.19389005,8.99049694 C5.19389005,8.99049694 4.99370752,8.69091481 4.85368783,8.54117991 C4.71366813,8.391445 5.43406105,7.45529295 5.43406105,7.45529295 L6.15457406,7.43653397 L6.26385186,7.81092739 L6.45478781,7.99818027 L6.73494728,8.09175054 L6.55481903,7.6424335 L6.55481903,7.36161035 L6.78502294,7.02462257 L7.03516103,6.63147017 L7.03516103,6.29448239 L7.27533204,6.18215313 L7.71568557,6.08858285 L7.7866561,5.8749326 C7.7866561,5.8749326 7.6905877,5.67633447 7.73573985,5.63926582 C7.780892,5.60219716 7.79842448,5.33968368 7.9813147,5.20859543 C7.99344333,5.19994608 8.00293009,5.19152139 8.01073564,5.18332135 C8.19758868,5.1351321 8.38816437,5.09570453 8.58246271,5.06627426 L8.47630713,5.24600108 L8.47630713,5.50806524 L8.83656363,5.50806524 L9.01669188,5.30216571 L9.45680525,5.17107746 L9.44671806,5.00011233 C9.44984029,5.00022466 9.45320268,5 9.45656507,5 C9.78812114,5 10.1121118,5.02931794 10.4274563,5.08256201 L10.2070995,5.15726096 L10.5827269,5.29531362 L11.0002642,5.37371945 L11.2179792,5.5082899 L11.2580878,5.88268332 L11.758364,6.18226546 L12.1666547,6.24764109 L11.998535,6.46308861 L11.6583327,6.61282351 L11.4581502,6.80007638 L11.518193,7.04349389 L12.0357615,7.21120147 L12.2987487,7.11841751 L12.6513197,7.00608825 L12.8391335,6.74402408 L13.119413,6.91251797 L13.0192617,7.17458214 L13.5696136,7.24950575 L14,7.51156991 L14,7.62389917 L13.5696136,7.24950575 L12.879242,7.21210011 L12.238706,7.23085909 L11.8184067,7.43675863 L11.3981075,7.6240115 L10.957874,7.96099928 L10.7777458,8.42907531 L10.957874,8.70989845 L11.0738766,9.02116283 L10.8377885,9.27424065 L11.0378509,9.62717919 L11.59829,9.88924335 L12.0185892,10.2074721 L12.6514398,10.2823958 L13.0593703,10.3573194 L13.4196268,10.2823958 L13.599755,10.5632189 L13.6196892,10.8252831 L13.4796695,11.2746001 L13.6097221,11.461853 L13.1594015,12.0234993 L13.1594015,12.3978927 L12.9670245,12.9897556 L12.7391022,13.2965268 L12.9917621,13.5773499 L13.3299229,13.5744294 L13.4575738,13.4650207 L13.5507601,13.4726591 C13.0235848,14.0327327 12.3677979,14.4842964 11.62639,14.7860128 Z M18,0.25 L18,1.75 C18,1.88807119 17.8880712,2 17.75,2 L0.25,2 C0.111928813,2 1.69088438e-17,1.88807119 0,1.75 L0,0.25 C-1.69088438e-17,0.111928813 0.111928813,-4.74859574e-15 0.25,-4.77395901e-15 L17.75,-4.77395901e-15 C17.8880712,-4.79932227e-15 18,0.111928813 18,0.25 Z M1.5,1.5 C1.77614237,1.5 2,1.27614237 2,1 C2,0.723857625 1.77614237,0.5 1.5,0.5 C1.22385763,0.5 1,0.723857625 1,1 C1,1.27614237 1.22385763,1.5 1.5,1.5 Z M3.5,1.5 C3.77614237,1.5 4,1.27614237 4,1 C4,0.723857625 3.77614237,0.5 3.5,0.5 C3.22385763,0.5 3,0.723857625 3,1 C3,1.27614237 3.22385763,1.5 3.5,1.5 Z M5.5,1.5 C5.77614237,1.5 6,1.27614237 6,1 C6,0.723857625 5.77614237,0.5 5.5,0.5 C5.22385763,0.5 5,0.723857625 5,1 C5,1.27614237 5.22385763,1.5 5.5,1.5 Z" id="Shape" fill="currentColor" fill-rule="nonzero"></path>
    </g>
</svg>