<?xml version="1.0" encoding="UTF-8"?>
<svg width="1em" height="1em" viewBox="0 0 18 18" version="1.1" xmlns="http://www.w3.org/2000/svg" xmlns:xlink="http://www.w3.org/1999/xlink">
    <!-- Generator: Sketch 53.2 (72643) - https://sketchapp.com -->
    <title>double-underline</title>
    <desc>Created with Sketch.</desc>
    <g id="double-underline" stroke="none" stroke-width="1" fill="none" fill-rule="evenodd">
        <path d="M17.015625,11.5696093 C17.248678,11.5696093 17.4375,11.7587368 17.4375,11.9918314 C17.4375,12.2249259 17.248678,12.4140205 17.015625,12.4140205 L15.6094299,12.4140205 C15.2956274,12.4140205 15.0188708,12.2635497 14.8384863,12.0339183 C14.3309509,12.2933668 13.8603296,12.4140205 13.3594189,12.4140205 L12.796908,12.4140205 C11.8740564,12.4140205 11.168042,12.0402182 10.8598755,11.387936 C10.5866125,10.8099327 10.6962012,10.1101212 11.1456628,9.56203398 C11.7252136,8.85509808 12.5262488,8.72454928 13.3742505,8.58628234 C13.7816895,8.51975457 14.2008618,8.44728977 14.6250439,8.31199134 L14.6250439,8.05138851 C14.6250439,7.39640165 14.2589355,6.5033727 13.640658,6.5033727 C13.0223804,6.5033727 12.656272,7.39640165 12.656272,8.05138851 C12.656272,8.28448308 12.46745,8.47357764 12.234397,8.47357764 L11.109408,8.47357764 C10.876355,8.47357764 10.687533,8.28448308 10.687533,8.05138851 C10.687533,6.73234433 11.7599194,5.65899444 13.078147,5.65899444 L14.203136,5.65899444 C15.5213306,5.65899444 16.59375,6.73234433 16.59375,8.05138851 L16.59375,11.4288686 C16.59375,11.5063798 16.6568005,11.5696093 16.734386,11.5696093 L17.015625,11.5696093 Z M14.625011,11.1908264 L14.625011,11.1908594 L14.6250439,11.1908594 L14.6250439,9.23368299 C13.9788171,9.43719134 13.2921826,9.69769523 12.9183289,10.112595 C12.6207092,10.4427271 12.616062,10.8797588 12.7433496,11.1664186 C12.8103552,11.3170214 12.9792371,11.5696422 13.359386,11.5696422 C13.7723291,11.5696422 14.1697156,11.4515612 14.625011,11.1908264 Z M9.98438599,11.5696093 C10.217439,11.5696093 10.406261,11.7587368 10.406228,11.9917984 C10.406228,12.224893 10.217406,12.4139875 9.98435303,12.4139875 L7.45310303,12.4139875 C7.22005005,12.4139875 7.03122803,12.224893 7.03122803,11.9917984 C7.03122803,11.7809017 7.18626709,11.6075073 7.38827271,11.57614 L6.57491089,9.59937134 L2.98752319,9.59937134 L2.17419434,11.57614 C2.37619995,11.6075403 2.53123901,11.7809017 2.53123901,11.9917984 C2.53123901,12.224893 2.34241699,12.4139875 2.10936401,12.4139875 L1.55291748,12.4139875 C1.55130249,12.4140205 1.54965454,12.4139875 1.54803955,12.4139875 L0.984375,12.4139875 C0.751322021,12.4139875 0.5625,12.224893 0.5625,11.9917984 C0.5625,11.7587038 0.751322021,11.5696093 0.984375,11.5696093 L1.2642627,11.5696093 L5.09419556,2.26139444 C5.15932251,2.10337037 5.31340576,2 5.48436401,2 C5.65532227,2 5.80943848,2.1033044 5.87453247,2.26139444 L9.70449829,11.5696093 L9.98438599,11.5696093 Z M3.33494385,8.75502606 L6.22752319,8.75502606 L4.78121704,5.24000471 L3.33494385,8.75502606 Z M0,14.3716855 L0,13.3716855 L18,13.3716855 L18,14.3716855 L0,14.3716855 Z M0,15.3716855 L18,15.3716855 L18,16.3716855 L0,16.3716855 L0,15.3716855 Z" id="Shape" fill="currentColor" fill-rule="nonzero"></path>
    </g>
</svg>