<?xml version="1.0" encoding="UTF-8"?>
<svg width="1em" height="1em" viewBox="0 0 18 18" version="1.1" xmlns="http://www.w3.org/2000/svg" xmlns:xlink="http://www.w3.org/1999/xlink">
    <!-- Generator: Sketch 53.2 (72643) - https://sketchapp.com -->
    <title>download</title>
    <desc>Created with Sketch.</desc>
    <g id="download" stroke="none" stroke-width="1" fill="none" fill-rule="evenodd">
        <path d="M11.0115354,7.09122191 L13.7376271,7.09122191 C13.8825317,7.09122191 14,7.20460934 14,7.34447983 C14,7.3972646 13.9829135,7.44873028 13.9511287,7.49168301 L9.21351176,13.8939256 C9.12928772,14.0077429 8.96542273,14.0341049 8.84750907,13.9528069 C8.82394916,13.936563 8.80333712,13.916667 8.78650862,13.8939256 L4.04889166,7.49168301 C3.96466761,7.37786571 3.99197845,7.21969345 4.10989211,7.13839538 C4.15439074,7.10771486 4.2077087,7.09122191 4.26239323,7.09122191 L6.98848497,7.09122191 C7.1333895,7.09122191 7.25085783,6.97783447 7.25085783,6.83796398 L7.25085783,0.253257925 C7.25085783,0.113387435 7.36832616,-1.03839873e-14 7.51323068,-1.0658141e-14 L10.4867897,-1.0658141e-14 C10.6316942,-1.06838348e-14 10.7491626,0.113387435 10.7491626,0.253257925 L10.7491626,6.83796398 C10.7491626,6.97783447 10.8666309,7.09122191 11.0115354,7.09122191 Z M0.28125,16 L17.71875,16 C17.8740801,16 18,16.1259199 18,16.28125 L18,17.71875 C18,17.8740801 17.8740801,18 17.71875,18 L0.28125,18 C0.125919914,18 1.90224492e-17,17.8740801 0,17.71875 L0,16.28125 C-1.90224492e-17,16.1259199 0.125919914,16 0.28125,16 Z" id="Shape" fill="currentColor" fill-rule="nonzero"></path>
    </g>
</svg>