<?xml version="1.0" encoding="UTF-8"?>
<svg width="1em" height="1em" viewBox="0 0 18 18" version="1.1" xmlns="http://www.w3.org/2000/svg" xmlns:xlink="http://www.w3.org/1999/xlink">
    <!-- Generator: Sketch 53.2 (72643) - https://sketchapp.com -->
    <title>duplicate</title>
    <desc>Created with Sketch.</desc>
    <g id="duplicate" stroke="none" stroke-width="1" fill="none" fill-rule="evenodd">
        <path d="M14.171875,0.171875 L17.828125,3.828125 C17.9164543,3.91645432 18,4.1106718 18,4.24719238 L18,13.7528076 C18,13.8876953 17.8879736,14 17.7497821,14 L14.2502179,14 C14.1153984,14 14,14.1120264 14,14.2502179 L14,17.7497821 C14,17.8846016 13.8912069,18 13.7570038,18 L0.242996216,18 C0.121030807,18 1.77635684e-15,17.8912069 1.77635684e-15,17.7570038 L1.77635684e-15,4.24299622 C1.77635684e-15,4.12103081 0.112026376,4 0.250217915,4 L3.74978209,4 C3.88460159,4 4,3.88797362 4,3.74978209 L4,0.250217915 C4,0.115398407 4.1106718,0 4.24719238,0 L13.7528076,0 C13.8876953,0 14.0769511,0.0769510586 14.171875,0.171875 Z M5.90425249,12.9268164 L8.8032693,10.0124278 C8.89761659,9.91758022 8.97791215,9.95216155 8.97791215,10.0943946 L8.97791215,11.8243725 C8.97791215,11.9612046 9.09320306,12.0819082 9.2354216,12.0819082 L9.74087976,12.0819082 C9.88918028,12.0819082 9.9983892,11.9675879 9.9983892,11.8265666 L9.9983892,8.25534164 C9.9983892,8.11776143 9.88406886,8 9.74304756,8 L6.17182263,8 C6.03424242,8 5.91648099,8.11529091 5.91648099,8.25750945 L5.91648099,8.7629676 C5.91648099,8.91126813 6.03178365,9.02047705 6.17401669,9.02047705 L7.90399461,9.02047705 C8.04082671,9.02047705 8.08292545,9.09866119 7.98596143,9.1951062 L5.07157282,12.0938956 C4.97672526,12.1882355 4.97515387,12.3476989 5.07279027,12.4453651 L5.55282331,12.9255449 C5.6526802,13.0254323 5.8077999,13.0237804 5.90425249,12.9268164 Z M14,1.25577831 L14,3.74422169 C14,3.88605976 14.1145159,4 14.2557783,4 L16.7442217,4 C16.8860598,4 16.9200025,3.92000248 16.8213205,3.82132053 L14.1786795,1.17867947 C14.0741577,1.07415771 14,1.11451585 14,1.25577831 Z M1.25063705,17 L12.7493629,17 C12.8962593,17 13,16.8854841 13,16.7442217 L13,14.2557783 C13,14.1139402 12.8837523,14 12.7403536,14 L4.25964642,14 C4.11379325,14 4,13.8837523 4,13.7403536 L4,5.25964642 C4,5.11379325 3.88548415,5 3.74422169,5 L1.25577831,5 C1.11394024,5 1,5.11221403 1,5.25063705 L1,16.7493629 C1,16.8962593 1.11221403,17 1.25063705,17 Z" id="Shape" fill="currentColor" fill-rule="nonzero"></path>
    </g>
</svg>