<?xml version="1.0" encoding="UTF-8"?>
<svg width="1em" height="1em" viewBox="0 0 18 18" version="1.1" xmlns="http://www.w3.org/2000/svg" xmlns:xlink="http://www.w3.org/1999/xlink">
    <!-- Generator: Sketch 53.2 (72643) - https://sketchapp.com -->
    <title>email</title>
    <desc>Created with Sketch.</desc>
    <g id="email" stroke="none" stroke-width="1" fill="none" fill-rule="evenodd">
        <path d="M0.111324951,5.8918384 L8.86132495,0.0421054682 C8.9452998,-0.0140351561 9.0547002,-0.0140351561 9.13867505,0.0421054682 L17.888675,5.8918384 C17.9582247,5.9383352 18,6.01661248 18,6.10043577 L18,17.7492972 C18,17.8877565 17.8880712,18 17.75,18 L0.25,18 C0.111928813,18 1.24118994e-15,17.8877565 1.22428109e-15,17.7492972 L1.6683703e-15,6.10043577 C1.65813369e-15,6.01661248 0.0417752838,5.9383352 0.111324951,5.8918384 Z M9.159992,12.9494737 L16.8933177,7.45473684 C17.0111384,7.3710221 17.0350165,7.21267229 16.946651,7.10105263 C16.8962899,7.03743852 16.8172531,7 16.7333179,7 L1.26666641,7 C1.11939062,7 1,7.11310701 1,7.25263158 C1,7.33214921 1.0395184,7.40702626 1.10666656,7.45473684 L8.83999231,12.9494737 C8.93480703,13.0168421 9.06517727,13.0168421 9.159992,12.9494737 Z" id="Shape" fill="currentColor" fill-rule="nonzero"></path>
    </g>
</svg>