<?xml version="1.0" encoding="UTF-8"?>
<svg width="1em" height="1em" viewBox="0 0 18 18" version="1.1" xmlns="http://www.w3.org/2000/svg" xmlns:xlink="http://www.w3.org/1999/xlink">
    <!-- Generator: Sketch 53.2 (72643) - https://sketchapp.com -->
    <title>emoticon</title>
    <desc>Created with Sketch.</desc>
    <g id="emoticon" stroke="none" stroke-width="1" fill="none" fill-rule="evenodd">
        <path d="M9,0 C4.05,0 0,4.05 0,9 C0,13.95 4.05,18 9,18 C13.95,18 18,13.95 18,9 C18,4.05 13.95,0 9,0 Z M12.15,5.4 C12.87,5.4 13.5,6.03 13.5,6.75 C13.5,7.47 12.87,8.1 12.15,8.1 C11.43,8.1 10.8,7.47 10.8,6.75 C10.8,6.03 11.43,5.4 12.15,5.4 Z M5.85,5.4 C6.57,5.4 7.2,6.03 7.2,6.75 C7.2,7.47 6.57,8.1 5.85,8.1 C5.13,8.1 4.5,7.47 4.5,6.75 C4.5,6.03 5.13,5.4 5.85,5.4 Z M9,14.4 C6.66,14.4 4.68,12.87 3.96,10.8 L14.04,10.8 C13.32,12.87 11.34,14.4 9,14.4 Z" id="Shape" fill="currentColor" fill-rule="nonzero"></path>
    </g>
</svg>