<?xml version="1.0" encoding="UTF-8"?>
<svg width="1em" height="1em" viewBox="0 0 18 18" version="1.1" xmlns="http://www.w3.org/2000/svg" xmlns:xlink="http://www.w3.org/1999/xlink">
    <!-- Generator: Sketch 53.2 (72643) - https://sketchapp.com -->
    <title>expand</title>
    <desc>Created with Sketch.</desc>
    <g id="expand" stroke="none" stroke-width="1" fill="none" fill-rule="evenodd">
        <path d="M0.0406912376,2.20545873 L1.31727355,1.03333786 C1.36816255,0.986613047 1.44735161,0.989330505 1.49488598,1.03943282 L8.96550484,8.91363579 C9.01149839,8.96211404 9.01149839,9.03788596 8.96550484,9.08636421 L1.49488598,16.9605672 C1.44735161,17.0106695 1.36816255,17.013387 1.31727355,16.9666621 L0.0406912376,15.7945413 C-0.0106171292,15.7474314 -0.0138377782,15.667846 0.0334977167,15.6167822 L0.0344957957,15.6157179 L6.22919423,9.08636421 C6.27518777,9.03788596 6.27518777,8.96211404 6.22919423,8.91363579 L0.0344957957,2.38428211 C-0.0134302934,2.33376691 -0.0111352708,2.25414969 0.0396218722,2.20645205 L0.0406912376,2.20545873 Z M9.04069124,2.20545873 L10.3172735,1.03333786 C10.3681626,0.986613047 10.4473516,0.989330505 10.494886,1.03943282 L17.9655048,8.91363579 C18.0114984,8.96211404 18.0114984,9.03788596 17.9655048,9.08636421 L10.494886,16.9605672 C10.4473516,17.0106695 10.3681626,17.013387 10.3172735,16.9666621 L9.04069124,15.7945413 C8.98938287,15.7474314 8.98616222,15.667846 9.03349772,15.6167822 L9.0344958,15.6157179 L15.2291942,9.08636421 C15.2751878,9.03788596 15.2751878,8.96211404 15.2291942,8.91363579 L9.0344958,2.38428211 C8.98656971,2.33376691 8.98886473,2.25414969 9.03962187,2.20645205 L9.04069124,2.20545873 Z" id="Shape" fill="currentColor" fill-rule="nonzero"></path>
    </g>
</svg>