<?xml version="1.0" encoding="UTF-8"?>
<svg width="1em" height="1em" viewBox="0 0 18 18" version="1.1" xmlns="http://www.w3.org/2000/svg" xmlns:xlink="http://www.w3.org/1999/xlink">
    <!-- Generator: Sketch 53.2 (72643) - https://sketchapp.com -->
    <title>eye</title>
    <desc>Created with Sketch.</desc>
    <g id="eye" stroke="none" stroke-width="1" fill="none" fill-rule="evenodd">
        <path d="M9,4 C5.56090825,4 2.44216017,5.75360329 0.140840749,8.60192176 C-0.0469469162,8.83527797 -0.0469469162,9.16129032 0.140840749,9.39464653 C2.44216017,12.2463967 5.56090825,14 9,14 C12.4390917,14 15.5578398,12.2463967 17.8591593,9.39807824 C18.0469469,9.16472203 18.0469469,8.83870968 17.8591593,8.60535347 C15.5578398,5.75360329 12.4390917,4 9,4 Z M9.26067747,12.9918524 C6.84843822,13.1435895 4.85639548,11.1554447 5.00813311,8.73932348 C5.13263578,6.74728798 6.7472798,5.13264984 8.73932253,5.00814762 C11.1515618,4.85641054 13.1436045,6.84455534 12.9918669,9.26067652 C12.8634735,11.2488213 11.2488295,12.8634595 9.26067747,12.9918524 Z M9.19233184,11.9938865 C7.3827872,12.1076812 5.88747487,10.6175115 6.00666643,8.80763263 C6.098769,7.3120441 7.31235583,6.10365192 8.80766816,6.00611354 C10.6172128,5.89231876 12.1125251,7.38248849 11.9933336,9.19236737 C11.8958132,10.6933747 10.6822264,11.9017669 9.19233184,11.9938865 Z" id="Shape" fill="currentColor" fill-rule="nonzero"></path>
    </g>
</svg>