<?xml version="1.0" encoding="UTF-8"?>
<svg width="1em" height="1em" viewBox="0 0 18 18" version="1.1" xmlns="http://www.w3.org/2000/svg" xmlns:xlink="http://www.w3.org/1999/xlink">
    <!-- Generator: Sketch 53.2 (72643) - https://sketchapp.com -->
    <title>files</title>
    <desc>Created with Sketch.</desc>
    <g id="files" stroke="none" stroke-width="1" fill="none" fill-rule="evenodd">
        <path d="M16.875,1.125 L5.625,1.125 L5.625,3.375 L4.78125,3.375 C4.62591991,3.375 4.5,3.24908009 4.5,3.09375 L4.5,0.28125 C4.5,0.125919914 4.62591991,2.85336739e-17 4.78125,0 L17.71875,0 C17.8740801,-2.85336739e-17 18,0.125919914 18,0.28125 L18,16.59375 C18,16.7490801 17.8740801,16.875 17.71875,16.875 L16.875,16.875 L16.875,1.125 Z M0,4.61198223 C0,4.55013615 0.0495853393,4.5 0.102998793,4.5 L9.360817,4.5 C9.41770166,4.5 9.49599311,4.46256924 9.53336761,4.41909277 L10.3613692,3.45590723 C10.3997816,3.4112234 10.4797958,3.375 10.5384985,3.375 L14.6753173,3.375 C14.7347307,3.375 14.8150721,3.41243076 14.8524466,3.45590723 L15.6804482,4.41909277 C15.7188606,4.4637766 15.75,4.54833984 15.75,4.61198223 L15.75,5.625 L0,5.625 L0,4.61198223 Z M0,6.75 L15.75,6.75 L15.75,17.71875 C15.75,17.8740801 15.6240801,18 15.46875,18 L0.102229988,18 C0.0457699246,18 0,17.9529969 0,17.8877805 L0,6.75 Z M10.40625,13.5 C10.2509199,13.5 10.125,13.6259199 10.125,13.78125 L10.125,16.59375 C10.125,16.7490801 10.2509199,16.875 10.40625,16.875 L14.34375,16.875 C14.4990801,16.875 14.625,16.7490801 14.625,16.59375 L14.625,13.78125 C14.625,13.6259199 14.4990801,13.5 14.34375,13.5 L10.40625,13.5 Z" id="Shape" fill="currentColor" fill-rule="nonzero"></path>
    </g>
</svg>