<?xml version="1.0" encoding="UTF-8"?>
<svg width="1em" height="1em" viewBox="0 0 18 18" version="1.1" xmlns="http://www.w3.org/2000/svg" xmlns:xlink="http://www.w3.org/1999/xlink">
    <!-- Generator: Sketch 53.2 (72643) - https://sketchapp.com -->
    <title>filter</title>
    <desc>Created with Sketch.</desc>
    <g id="filter" stroke="none" stroke-width="1" fill="none" fill-rule="evenodd">
        <path d="M0,0.109619277 C0,0.049078222 0.0516357422,0 0.105707198,0 L17.8942928,0 C17.9526733,0 18,0.048831531 18,0.109619277 L18,1.17609501 C18,1.23663606 17.9483643,1.28571429 17.8942928,1.28571429 L0.105707198,1.28571429 C0.0473267248,1.28571429 0,1.23688275 0,1.17609501 L0,0.109619277 Z M0.0533807491,2.23479066 C0.0238993754,2.18401718 0.0516357422,2.14285714 0.105707198,2.14285714 L17.8942928,2.14285714 C17.9526733,2.14285714 17.9778704,2.18096924 17.9466193,2.23479066 L10.339095,15.3366379 C10.3096137,15.3874114 10.2931529,15.4732034 10.3030456,15.5325593 L10.6969544,17.8960121 C10.7065262,17.953443 10.6658184,18 10.6079157,18 L7.39208426,18 C7.33333774,18 7.29315295,17.955368 7.3030456,17.8960121 L7.6969544,15.5325593 C7.70652622,15.4751284 7.69215611,15.3904593 7.66090497,15.3366379 L0.0533807491,2.23479066 Z" id="Shape" fill="currentColor" fill-rule="nonzero"></path>
    </g>
</svg>