<?xml version="1.0" encoding="UTF-8"?>
<svg width="1em" height="1em" viewBox="0 0 18 18" version="1.1" xmlns="http://www.w3.org/2000/svg" xmlns:xlink="http://www.w3.org/1999/xlink">
    <!-- Generator: Sketch 53.2 (72643) - https://sketchapp.com -->
    <title>float</title>
    <desc>Created with Sketch.</desc>
    <g id="float" stroke="none" stroke-width="1" fill="none" fill-rule="evenodd">
        <path d="M0.107142857,0 L17.8928571,0 C17.9520305,0 18,0.0479694911 18,0.107142857 L18,17.8928571 C18,17.9520305 17.9520305,18 17.8928571,18 L0.107142857,18 C0.0479694911,18 0,17.9520305 0,17.8928571 L0,0.107142857 C0,0.0479694911 0.0479694911,0 0.107142857,0 Z M4.22228571,8.65714286 L5.88857143,6.816 L5.88857143,6.08571429 L1.86685714,6.08571429 L1.86685714,7.05257143 L4.47942857,7.05257143 L2.43257143,9.35657143 L2.88514286,9.84 C3.204,9.66514286 3.50228571,9.54171429 3.91371429,9.54171429 C4.74685714,9.54171429 5.38457143,10.1485714 5.38457143,10.9714286 C5.38457143,11.784 4.77771429,12.4217143 3.93428571,12.4217143 C3.14228571,12.4217143 2.59714286,11.8457143 2.42228571,11.1565714 L1.50685714,11.5577143 C1.77428571,12.504 2.57657143,13.3885714 3.93428571,13.3885714 C5.41542857,13.3885714 6.38228571,12.2262857 6.38228571,10.9714286 C6.38228571,9.79885714 5.55942857,8.79085714 4.22228571,8.65714286 Z M7.71942857,13.3577143 C8.07942857,13.3577143 8.36742857,13.0697143 8.36742857,12.7097143 C8.36742857,12.36 8.07942857,12.0617143 7.71942857,12.0617143 C7.35942857,12.0617143 7.08171429,12.36 7.08171429,12.7097143 C7.08171429,13.0697143 7.35942857,13.3577143 7.71942857,13.3577143 Z M10.9902857,5.97257143 L8.72742857,7.392 L9.16971429,8.19428571 L10.1262857,7.608 L10.1262857,13.2857143 L11.0931429,13.2857143 L11.0931429,5.97257143 L10.9902857,5.97257143 Z M16.6885714,11.1051429 L15.9274286,11.1051429 L15.9274286,6.06514286 L14.9194286,6.06514286 L11.9057143,11.3314286 L11.9057143,12.0308571 L14.9605714,12.0308571 L14.9605714,13.2857143 L15.9274286,13.2857143 L15.9274286,12.0308571 L16.6885714,12.0308571 L16.6885714,11.1051429 Z M14.9690603,7.72625233 L14.9690603,11.1428571 L13.0937393,11.1428571 L14.9690603,7.72625233 Z" id="Shape" fill="currentColor" fill-rule="nonzero"></path>
    </g>
</svg>