<?xml version="1.0" encoding="UTF-8"?>
<svg width="1em" height="1em" viewBox="0 0 18 18" version="1.1" xmlns="http://www.w3.org/2000/svg" xmlns:xlink="http://www.w3.org/1999/xlink">
    <!-- Generator: Sketch 53.2 (72643) - https://sketchapp.com -->
    <title>folder</title>
    <desc>Created with Sketch.</desc>
    <g id="folder" stroke="none" stroke-width="1" fill="none" fill-rule="evenodd">
        <path d="M0,2.17807831 C0,2.11917729 0.0512719154,2.07142857 0.106502153,2.07142857 L11.3934978,2.07142857 C11.4523174,2.07142857 11.5332718,2.03578023 11.5719175,1.99437407 L12.4280825,1.0770545 C12.4678014,1.03449848 12.5505371,1 12.6112366,1 L16.8887634,1 C16.9501977,1 17.0332718,1.03564835 17.0719175,1.0770545 L17.9280825,1.99437407 C17.9678014,2.0369301 18,2.11746652 18,2.17807831 L18,3.14285714 L0,3.14285714 L0,2.17807831 Z M0,3.57142857 L18,3.57142857 L18,16.4285714 L0.105707198,16.4285714 C0.0473267248,16.4285714 0,16.3820159 0,16.3174207 L0,3.57142857 Z" id="Shape" fill="currentColor" fill-rule="nonzero"></path>
    </g>
</svg>