<?xml version="1.0" encoding="UTF-8"?>
<svg width="1em" height="1em" viewBox="0 0 18 18" version="1.1" xmlns="http://www.w3.org/2000/svg" xmlns:xlink="http://www.w3.org/1999/xlink">
    <!-- Generator: Sketch 53.2 (72643) - https://sketchapp.com -->
    <title>form</title>
    <desc>Created with Sketch.</desc>
    <g id="form" stroke="none" stroke-width="1" fill="none" fill-rule="evenodd">
        <path d="M17,0.107142857 L17,14.4642857 C17,14.5234591 16.9528721,14.5714286 16.8947368,14.5714286 L15.8421053,14.5714286 C15.78397,14.5714286 15.7368421,14.5234591 15.7368421,14.4642857 L15.7368421,1.28571429 L4.47368421,1.28571429 C4.41554897,1.28571429 4.36842105,1.23774479 4.36842105,1.17857143 L4.36842105,0.107142857 C4.36842105,0.0479694911 4.41554897,0 4.47368421,0 L16.8947368,0 C16.9528721,0 17,0.0479694911 17,0.107142857 Z M2.78947368,1.71428571 L15.2105263,1.71428571 C15.2686616,1.71428571 15.3157895,1.76225521 15.3157895,1.82142857 L15.3157895,16.1785714 C15.3157895,16.2377448 15.2686616,16.2857143 15.2105263,16.2857143 L14.1578947,16.2857143 C14.0997595,16.2857143 14.0526316,16.2377448 14.0526316,16.1785714 L14.0526316,3 L2.78947368,3 C2.73133845,3 2.68421053,2.95203051 2.68421053,2.89285714 L2.68421053,1.82142857 C2.68421053,1.76225521 2.73133845,1.71428571 2.78947368,1.71428571 Z M1,3.5374827 C1,3.47733267 1.04573872,3.42857143 1.10920073,3.42857143 L13.5223782,3.42857143 C13.5826881,3.42857143 13.6315789,3.47569737 13.6315789,3.5374827 L13.6315789,17.8910887 C13.6315789,17.9512388 13.5858402,18 13.5223782,18 L1.10920073,18 C1.04889083,18 1,17.9528741 1,17.8910887 L1,3.5374827 Z M2.26315789,5.25247642 L2.26315789,6.31895215 C2.26315789,6.3797399 2.31040591,6.42857143 2.36868929,6.42857143 L7.21025808,6.42857143 C7.27210918,6.42857143 7.31578947,6.37949321 7.31578947,6.31895215 L7.31578947,5.25247642 C7.31578947,5.19168867 7.26854146,5.14285714 7.21025808,5.14285714 L2.36868929,5.14285714 C2.30683819,5.14285714 2.26315789,5.19193536 2.26315789,5.25247642 Z M2.26315789,7.39081682 L2.26315789,8.0377546 C2.26315789,8.09677342 2.31090648,8.14285714 2.36980734,8.14285714 L12.2617716,8.14285714 C12.3233675,8.14285714 12.3684211,8.09580113 12.3684211,8.0377546 L12.3684211,7.39081682 C12.3684211,7.33179801 12.3206725,7.28571429 12.2617716,7.28571429 L2.36980734,7.28571429 C2.30821148,7.28571429 2.26315789,7.3327703 2.26315789,7.39081682 Z M2.26315789,9.10510254 L2.26315789,9.75204032 C2.26315789,9.81105913 2.30975655,9.85714286 2.3672389,9.85714286 L6.36960321,9.85714286 C6.42639803,9.85714286 6.47368421,9.81008685 6.47368421,9.75204032 L6.47368421,9.10510254 C6.47368421,9.04608372 6.42708556,9 6.36960321,9 L2.3672389,9 C2.31044408,9 2.26315789,9.04705601 2.26315789,9.10510254 Z M7.31578947,9.10510254 L7.31578947,9.75204032 C7.31578947,9.81105913 7.36303749,9.85714286 7.42132087,9.85714286 L12.2628897,9.85714286 C12.3247408,9.85714286 12.3684211,9.81008685 12.3684211,9.75204032 L12.3684211,9.10510254 C12.3684211,9.04608372 12.321173,9 12.2628897,9 L7.42132087,9 C7.35946977,9 7.31578947,9.04705601 7.31578947,9.10510254 Z M2.26315789,11.6810478 L2.26315789,12.7475236 C2.26315789,12.8083113 2.31040591,12.8571429 2.36868929,12.8571429 L7.21025808,12.8571429 C7.27210918,12.8571429 7.31578947,12.8080646 7.31578947,12.7475236 L7.31578947,11.6810478 C7.31578947,11.6202601 7.26854146,11.5714286 7.21025808,11.5714286 L2.36868929,11.5714286 C2.30683819,11.5714286 2.26315789,11.6205068 2.26315789,11.6810478 Z M2.26315789,13.8193883 L2.26315789,14.466326 C2.26315789,14.5253448 2.31090648,14.5714286 2.36980734,14.5714286 L12.2617716,14.5714286 C12.3233675,14.5714286 12.3684211,14.5243726 12.3684211,14.466326 L12.3684211,13.8193883 C12.3684211,13.7603694 12.3206725,13.7142857 12.2617716,13.7142857 L2.36980734,13.7142857 C2.30821148,13.7142857 2.26315789,13.7613417 2.26315789,13.8193883 Z M5.63157895,15.533674 L5.63157895,16.1806117 C5.63157895,16.2396306 5.67895604,16.2857143 5.73739865,16.2857143 L12.2626014,16.2857143 C12.3254009,16.2857143 12.3684211,16.2386583 12.3684211,16.1806117 L12.3684211,15.533674 C12.3684211,15.4746552 12.321044,15.4285714 12.2626014,15.4285714 L5.73739865,15.4285714 C5.6745991,15.4285714 5.63157895,15.4756274 5.63157895,15.533674 Z M2.26315789,15.533674 L2.26315789,16.1806117 C2.26315789,16.2396306 2.31175856,16.2857143 2.37171053,16.2857143 L4.68092105,16.2857143 C4.74562474,16.2857143 4.78947368,16.2386583 4.78947368,16.1806117 L4.78947368,15.533674 C4.78947368,15.4746552 4.74087302,15.4285714 4.68092105,15.4285714 L2.37171053,15.4285714 C2.30700684,15.4285714 2.26315789,15.4756274 2.26315789,15.533674 Z" id="Shape" fill="currentColor" fill-rule="nonzero"></path>
    </g>
</svg>