<?xml version="1.0" encoding="UTF-8"?>
<svg width="1em" height="1em" viewBox="0 0 18 18" version="1.1" xmlns="http://www.w3.org/2000/svg" xmlns:xlink="http://www.w3.org/1999/xlink">
    <!-- Generator: Sketch 53.2 (72643) - https://sketchapp.com -->
    <title>geolocation</title>
    <desc>Created with Sketch.</desc>
    <g id="geolocation" stroke="none" stroke-width="1" fill="none" fill-rule="evenodd">
        <path d="M15,6.23084911 C15,2.79511276 12.3084444,0 9,0 C5.69155556,0 3,2.79511276 3,6.23084911 C3,7.2624008 3.244,8.23510558 3.67311111,9.09265503 C3.67911111,9.10696291 3.68355556,9.12150156 3.69066667,9.13557866 L7.82044444,17.2612982 C7.822,17.2642983 7.824,17.266606 7.82533333,17.269606 C8.05044444,17.7039193 8.49244444,18 9,18 C9.50755556,18 9.94933333,17.7039193 10.1746667,17.269606 C10.1762222,17.266606 10.1782222,17.2642983 10.1795556,17.2612982 L14.3093333,9.13557866 C14.3164444,9.12150156 14.3208889,9.10696291 14.3268889,9.09265503 C14.756,8.23510558 15,7.2624008 15,6.23084911 Z M9,4.15366864 C10.1026667,4.15366864 11,5.08529597 11,6.23061834 C11,7.37594072 10.1026667,8.30756805 9,8.30756805 C7.89733333,8.30756805 7,7.37594072 7,6.23061834 C7,5.08529597 7.89733333,4.15366864 9,4.15366864 Z" id="Shape" fill="currentColor" fill-rule="nonzero"></path>
    </g>
</svg>