<?xml version="1.0" encoding="UTF-8"?>
<svg width="1em" height="1em" viewBox="0 0 18 18" version="1.1" xmlns="http://www.w3.org/2000/svg" xmlns:xlink="http://www.w3.org/1999/xlink">
    <!-- Generator: Sketch 53.2 (72643) - https://sketchapp.com -->
    <title>github</title>
    <desc>Created with Sketch.</desc>
    <g id="github" stroke="none" stroke-width="1" fill="none" fill-rule="evenodd">
        <path d="M9,-1.77635684e-15 C4.02943359,-1.77635684e-15 0,4.02943359 0,9 C0,13.9705664 4.02943359,18 9,18 C13.9705664,18 18,13.9705664 18,9 C18,4.02943359 13.9705664,-1.77635684e-15 9,-1.77635684e-15 Z M14.5684308,14.6069441 C13.8446634,15.3327483 13.002368,15.9024012 12.0647669,16.3001077 C11.8266122,16.401123 11.5847581,16.4897961 11.3394977,16.5662738 L11.3394977,15.156945 C11.3394977,14.4161538 11.0861791,13.8712955 10.5794686,13.5223336 C10.8969593,13.4917351 11.1884076,13.4488679 11.4539599,13.3937686 C11.7195122,13.3386694 12.000375,13.2590693 12.2964017,13.1550052 C12.5925017,13.050941 12.8580541,12.9269677 13.0930587,12.7830852 C13.3281366,12.6392026 13.5539843,12.4524896 13.770675,12.2229093 C13.987439,11.9933291 14.1690035,11.7331504 14.3155151,11.4423365 C14.4620267,11.1515226 14.578064,10.8025606 14.6634802,10.3954505 C14.7489698,9.98834048 14.7916779,9.53986923 14.7916779,9.05011027 C14.7916779,8.10119081 14.4834174,7.29306833 13.8668233,6.62574282 C14.147686,5.89108602 14.1171384,5.09214674 13.7752535,4.228925 L13.5463291,4.20137537 C13.387657,4.18300895 13.1022157,4.25034024 12.6901517,4.40340599 C12.2780878,4.55647173 11.8156605,4.80746723 11.3028698,5.15642921 C10.5764651,4.95439859 9.82251628,4.85338328 9.04113314,4.85338328 C8.25363314,4.85338328 7.50276105,4.95439859 6.78851686,5.15642921 C6.46498256,4.93603217 6.15822384,4.75391075 5.8682407,4.61002821 C5.57825756,4.46614568 5.34629302,4.36821593 5.17231047,4.31616549 C4.99832791,4.26411506 4.83654244,4.23197382 4.6869907,4.21974179 C4.53743895,4.20750975 4.4412907,4.20442419 4.39854593,4.21055858 C4.35580116,4.21669296 4.32529012,4.22279061 4.30697616,4.228925 C3.96512791,5.09828113 3.93458023,5.8972204 4.2154064,6.62574282 C3.59884884,7.29306833 3.29055174,8.10119081 3.29055174,9.05011027 C3.29055174,9.53986923 3.33329651,9.98834048 3.41874942,10.3954505 C3.50420233,10.8025606 3.62020291,11.1515226 3.76671453,11.4423365 C3.91322616,11.7331504 4.09482733,11.9933291 4.31155465,12.2229093 C4.52828198,12.4524896 4.75412965,12.6392026 4.98917093,12.7830852 C5.22421221,12.9269677 5.48976453,13.050941 5.78582791,13.1550052 C6.08189128,13.2590693 6.36271744,13.3386694 6.62826977,13.3937686 C6.89382209,13.4488679 7.18530698,13.4917351 7.50276105,13.5223336 C7.00216744,13.8651612 6.75188895,14.4100561 6.75188895,15.156945 L6.75188895,16.59375 C6.47538488,16.5112113 6.20283663,16.4136856 5.93508663,16.3001077 C4.99752209,15.9024012 4.15519012,15.3327483 3.4314593,14.6069441 C2.70776512,13.8811767 2.13970291,13.0363948 1.74316919,12.0961076 C1.33300988,11.1234954 1.125,10.0893925 1.125,9.02256064 C1.125,7.95572876 1.33300988,6.92162585 1.74324244,5.94894024 C2.13981279,5.00868973 2.70783837,4.1639446 3.43153256,3.43814041 C4.15522674,2.71233622 4.99759535,2.14268334 5.93515988,1.74501361 C6.90506686,1.3336058 7.9362157,1.125 9,1.125 C10.0637843,1.125 11.0949331,1.3336058 12.0648767,1.74501361 C13.0024779,2.14272007 13.8447733,2.71237296 14.5685407,3.43814041 C15.2922349,4.16390787 15.8602605,5.00868973 16.2567942,5.94894024 C16.6669535,6.92162585 16.875,7.95572876 16.875,9.02256064 C16.875,10.0893925 16.6669535,11.1234954 16.2567576,12.096181 C15.8602238,13.0363948 15.292125,13.8812134 14.5684308,14.6069441 Z" id="Shape" fill="currentColor" fill-rule="nonzero"></path>
    </g>
</svg>