<?xml version="1.0" encoding="UTF-8"?>
<svg width="1em" height="1em" viewBox="0 0 18 18" version="1.1" xmlns="http://www.w3.org/2000/svg" xmlns:xlink="http://www.w3.org/1999/xlink">
    <!-- Generator: Sketch 53.2 (72643) - https://sketchapp.com -->
    <title>go-back</title>
    <desc>Created with Sketch.</desc>
    <g id="go-back" stroke="none" stroke-width="1" fill="none" fill-rule="evenodd">
        <path d="M7,7 L13,7 L13,11 L7,11 L7,7 Z M17,7 L18,7 L18,11 L17,11 L17,7 Z M14,7 L16,7 L16,11 L14,11 L14,7 Z M6.84646282,13.8153888 C6.7462724,13.9324495 6.60942294,13.9989003 6.46627238,14 C6.36525546,13.9889597 6.26775646,13.9517522 6.18115692,13.8911944 L0.244906868,9.47201233 C0.0964002141,9.36452025 0.00453193553,9.17928459 0,8.97820221 C0.00824680534,8.77607403 0.0989363152,8.59011584 0.244906868,8.47602243 L6.18115692,4.09450386 C6.34532926,3.97571586 6.55290746,3.96841022 6.7231431,4.07542885 C6.89337874,4.18244748 6.99939452,4.38689397 6.99995003,4.60923813 L6.99995003,13.3764601 C7.00190093,13.5403357 6.94665324,13.698328 6.84646282,13.8153888 Z" id="Shape" fill="currentColor" fill-rule="nonzero"></path>
    </g>
</svg>