<?xml version="1.0" encoding="UTF-8"?>
<svg width="1em" height="1em" viewBox="0 0 18 18" version="1.1" xmlns="http://www.w3.org/2000/svg" xmlns:xlink="http://www.w3.org/1999/xlink">
    <!-- Generator: Sketch 53.2 (72643) - https://sketchapp.com -->
    <title>gradient</title>
    <desc>Created with Sketch.</desc>
    <g id="gradient" stroke="none" stroke-width="1" fill="none" fill-rule="evenodd">
        <path d="M0.857142857,17.1428571 L17.1428571,17.1428571 L17.1428571,0.857142857 L0.857142857,0.857142857 L0.857142857,17.1428571 Z M17.8928571,18 L0.107142857,18 C0.0479694911,18 0,17.9520305 0,17.8928571 L0,0.107142857 C0,0.0479694911 0.0479694911,0 0.107142857,0 L17.8928571,0 C17.9520305,0 18,0.0479694911 18,0.107142857 L18,17.8928571 C18,17.9520305 17.9520305,18 17.8928571,18 Z M12.3916568,8.57142857 C12.5856383,7.59332558 13.4305164,6.85714286 14.4433876,6.85714286 C15.4650094,6.85714286 16.5,7.83097371 16.5,9 C16.5,10.1690263 15.4650094,11.1428571 14.4433876,11.1428571 C13.4305164,11.1428571 12.5856383,10.4066744 12.3916568,9.42857143 L5.60834324,9.42857143 C5.4143617,10.4066744 4.56948362,11.1428571 3.55661244,11.1428571 C2.53499058,11.1428571 1.5,10.1775155 1.5,9 C1.5,7.82248449 2.53499058,6.85714286 3.55661244,6.85714286 C4.56948362,6.85714286 5.4143617,7.59332558 5.60834324,8.57142857 L12.3916568,8.57142857 Z" id="Shape" fill="currentColor" fill-rule="nonzero"></path>
    </g>
</svg>