<?xml version="1.0" encoding="UTF-8"?>
<svg width="1em" height="1em" viewBox="0 0 18 18" version="1.1" xmlns="http://www.w3.org/2000/svg" xmlns:xlink="http://www.w3.org/1999/xlink">
    <!-- Generator: Sketch 53.2 (72643) - https://sketchapp.com -->
    <title>graphic</title>
    <desc>Created with Sketch.</desc>
    <g id="graphic" stroke="none" stroke-width="1" fill="none" fill-rule="evenodd">
        <path d="M13,7 C12.7212499,6.95323459 12.28832,6.95354176 12,7 C9.26803392,7.44021341 7.39627714,9.26492297 7,12 C6.95812458,12.2890212 6.95323459,12.7212499 7,13 L0.28125,13 C0.125919914,13 1.90224492e-17,12.8740801 0,12.71875 L0,0.28125 C-1.90224492e-17,0.125919914 0.125919914,9.0983719e-17 0.28125,6.24500451e-17 L12.71875,0 C12.8740801,-2.85336739e-17 13,0.125919914 13,0.28125 L13,7 Z M13,17.9958351 C10.2385763,17.9958351 8,15.7581912 8,12.9979176 C8,10.2376439 10.2385763,8 13,8 C15.7614237,8 18,10.2376439 18,12.9979176 C18,15.7581912 15.7614237,17.9958351 13,17.9958351 Z" id="Shape" fill="currentColor" fill-rule="nonzero"></path>
    </g>
</svg>