<?xml version="1.0" encoding="UTF-8"?>
<svg width="1em" height="1em" viewBox="0 0 18 18" version="1.1" xmlns="http://www.w3.org/2000/svg" xmlns:xlink="http://www.w3.org/1999/xlink">
    <!-- Generator: Sketch 53.2 (72643) - https://sketchapp.com -->
    <title>group</title>
    <desc>Created with Sketch.</desc>
    <g id="group" stroke="none" stroke-width="1" fill="none" fill-rule="evenodd">
        <path d="M0.107142857,0.857142857 C0.0479694911,0.857142857 0,0.809173366 0,0.75 L0,0.107142857 C0,0.0479694911 0.0479694911,0 0.107142857,0 L1.60714286,0 C1.66631622,0 1.71428571,0.0479694911 1.71428571,0.107142857 L1.71428571,0.75 C1.71428571,0.809173366 1.66631622,0.857142857 1.60714286,0.857142857 L0.75,0.857142857 C0.809173366,0.857142857 0.857142857,0.905112348 0.857142857,0.964285714 L0.857142857,2.46428571 C0.857142857,2.52345908 0.809173366,2.57142857 0.75,2.57142857 L0.107142857,2.57142857 C0.0479694911,2.57142857 0,2.52345908 0,2.46428571 L0,0.964285714 C0,0.905112348 0.0479694911,0.857142857 0.107142857,0.857142857 Z M0.857142857,17.25 C0.857142857,17.1908266 0.905112348,17.1428571 0.964285714,17.1428571 L2.46428571,17.1428571 C2.52345908,17.1428571 2.57142857,17.1908266 2.57142857,17.25 L2.57142857,17.8928571 C2.57142857,17.9520305 2.52345908,18 2.46428571,18 L0.964285714,18 C0.905112348,18 0.857142857,17.9520305 0.857142857,17.8928571 C0.857142857,17.9520305 0.809173366,18 0.75,18 L0.107142857,18 C0.0479694911,18 0,17.9520305 0,17.8928571 L0,16.3928571 C0,16.3336838 0.0479694911,16.2857143 0.107142857,16.2857143 L0.75,16.2857143 C0.809173366,16.2857143 0.857142857,16.3336838 0.857142857,16.3928571 L0.857142857,17.25 Z M17.8928571,17.1428571 C17.9520305,17.1428571 18,17.1908266 18,17.25 L18,17.8928571 C18,17.9520305 17.9520305,18 17.8928571,18 L16.3928571,18 C16.3336838,18 16.2857143,17.9520305 16.2857143,17.8928571 L16.2857143,17.25 C16.2857143,17.1908266 16.3336838,17.1428571 16.3928571,17.1428571 L17.25,17.1428571 C17.1908266,17.1428571 17.1428571,17.0948877 17.1428571,17.0357143 L17.1428571,15.5357143 C17.1428571,15.4765409 17.1908266,15.4285714 17.25,15.4285714 L17.8928571,15.4285714 C17.9520305,15.4285714 18,15.4765409 18,15.5357143 L18,17.0357143 C18,17.0948877 17.9520305,17.1428571 17.8928571,17.1428571 L17.8928571,17.1428571 Z M17.1428571,0.107142857 C17.1428571,0.0479694911 17.1908266,0 17.25,0 L17.8928571,0 C17.9520305,0 18,0.0479694911 18,0.107142857 L18,1.60714286 C18,1.66631622 17.9520305,1.71428571 17.8928571,1.71428571 L17.25,1.71428571 C17.1908266,1.71428571 17.1428571,1.66631622 17.1428571,1.60714286 L17.1428571,0.75 C17.1428571,0.809173366 17.0948877,0.857142857 17.0357143,0.857142857 L15.5357143,0.857142857 C15.4765409,0.857142857 15.4285714,0.809173366 15.4285714,0.75 L15.4285714,0.107142857 C15.4285714,0.0479694911 15.4765409,0 15.5357143,0 L17.0357143,0 C17.0948877,0 17.1428571,0.0479694911 17.1428571,0.107142857 Z M2.67857143,0 L4.17857143,0 C4.23774479,0 4.28571429,0.0479694911 4.28571429,0.107142857 L4.28571429,0.75 C4.28571429,0.809173366 4.23774479,0.857142857 4.17857143,0.857142857 L2.67857143,0.857142857 C2.61939806,0.857142857 2.57142857,0.809173366 2.57142857,0.75 L2.57142857,0.107142857 C2.57142857,0.0479694911 2.61939806,0 2.67857143,0 Z M5.25,0 L6.75,0 C6.80917337,0 6.85714286,0.0479694911 6.85714286,0.107142857 L6.85714286,0.75 C6.85714286,0.809173366 6.80917337,0.857142857 6.75,0.857142857 L5.25,0.857142857 C5.19082663,0.857142857 5.14285714,0.809173366 5.14285714,0.75 L5.14285714,0.107142857 C5.14285714,0.0479694911 5.19082663,0 5.25,0 Z M7.82142857,0 L9.32142857,0 C9.38060194,0 9.42857143,0.0479694911 9.42857143,0.107142857 L9.42857143,0.75 C9.42857143,0.809173366 9.38060194,0.857142857 9.32142857,0.857142857 L7.82142857,0.857142857 C7.76225521,0.857142857 7.71428571,0.809173366 7.71428571,0.75 L7.71428571,0.107142857 C7.71428571,0.0479694911 7.76225521,0 7.82142857,0 Z M10.3928571,0 L11.8928571,0 C11.9520305,0 12,0.0479694911 12,0.107142857 L12,0.75 C12,0.809173366 11.9520305,0.857142857 11.8928571,0.857142857 L10.3928571,0.857142857 C10.3336838,0.857142857 10.2857143,0.809173366 10.2857143,0.75 L10.2857143,0.107142857 C10.2857143,0.0479694911 10.3336838,0 10.3928571,0 Z M12.9642857,0 L14.4642857,0 C14.5234591,0 14.5714286,0.0479694911 14.5714286,0.107142857 L14.5714286,0.75 C14.5714286,0.809173366 14.5234591,0.857142857 14.4642857,0.857142857 L12.9642857,0.857142857 C12.9051123,0.857142857 12.8571429,0.809173366 12.8571429,0.75 L12.8571429,0.107142857 C12.8571429,0.0479694911 12.9051123,0 12.9642857,0 Z M17.25,2.57142857 L17.8928571,2.57142857 C17.9520305,2.57142857 18,2.61939806 18,2.67857143 L18,4.17857143 C18,4.23774479 17.9520305,4.28571429 17.8928571,4.28571429 L17.25,4.28571429 C17.1908266,4.28571429 17.1428571,4.23774479 17.1428571,4.17857143 L17.1428571,2.67857143 C17.1428571,2.61939806 17.1908266,2.57142857 17.25,2.57142857 Z M0.107142857,3.42857143 L0.75,3.42857143 C0.809173366,3.42857143 0.857142857,3.47654092 0.857142857,3.53571429 L0.857142857,5.03571429 C0.857142857,5.09488765 0.809173366,5.14285714 0.75,5.14285714 L0.107142857,5.14285714 C0.0479694911,5.14285714 0,5.09488765 0,5.03571429 L0,3.53571429 C0,3.47654092 0.0479694911,3.42857143 0.107142857,3.42857143 Z M17.25,5.14285714 L17.8928571,5.14285714 C17.9520305,5.14285714 18,5.19082663 18,5.25 L18,6.75 C18,6.80917337 17.9520305,6.85714286 17.8928571,6.85714286 L17.25,6.85714286 C17.1908266,6.85714286 17.1428571,6.80917337 17.1428571,6.75 L17.1428571,5.25 C17.1428571,5.19082663 17.1908266,5.14285714 17.25,5.14285714 Z M0.107142857,6 L0.75,6 C0.809173366,6 0.857142857,6.04796949 0.857142857,6.10714286 L0.857142857,7.60714286 C0.857142857,7.66631622 0.809173366,7.71428571 0.75,7.71428571 L0.107142857,7.71428571 C0.0479694911,7.71428571 0,7.66631622 0,7.60714286 L0,6.10714286 C0,6.04796949 0.0479694911,6 0.107142857,6 Z M17.25,7.71428571 L17.8928571,7.71428571 C17.9520305,7.71428571 18,7.76225521 18,7.82142857 L18,9.32142857 C18,9.38060194 17.9520305,9.42857143 17.8928571,9.42857143 L17.25,9.42857143 C17.1908266,9.42857143 17.1428571,9.38060194 17.1428571,9.32142857 L17.1428571,7.82142857 C17.1428571,7.76225521 17.1908266,7.71428571 17.25,7.71428571 Z M0.107142857,8.57142857 L0.75,8.57142857 C0.809173366,8.57142857 0.857142857,8.61939806 0.857142857,8.67857143 L0.857142857,10.1785714 C0.857142857,10.2377448 0.809173366,10.2857143 0.75,10.2857143 L0.107142857,10.2857143 C0.0479694911,10.2857143 0,10.2377448 0,10.1785714 L0,8.67857143 C0,8.61939806 0.0479694911,8.57142857 0.107142857,8.57142857 Z M17.25,10.2857143 L17.8928571,10.2857143 C17.9520305,10.2857143 18,10.3336838 18,10.3928571 L18,11.8928571 C18,11.9520305 17.9520305,12 17.8928571,12 L17.25,12 C17.1908266,12 17.1428571,11.9520305 17.1428571,11.8928571 L17.1428571,10.3928571 C17.1428571,10.3336838 17.1908266,10.2857143 17.25,10.2857143 Z M0.107142857,11.1428571 L0.75,11.1428571 C0.809173366,11.1428571 0.857142857,11.1908266 0.857142857,11.25 L0.857142857,12.75 C0.857142857,12.8091734 0.809173366,12.8571429 0.75,12.8571429 L0.107142857,12.8571429 C0.0479694911,12.8571429 0,12.8091734 0,12.75 L0,11.25 C0,11.1908266 0.0479694911,11.1428571 0.107142857,11.1428571 Z M17.25,12.8571429 L17.8928571,12.8571429 C17.9520305,12.8571429 18,12.9051123 18,12.9642857 L18,14.4642857 C18,14.5234591 17.9520305,14.5714286 17.8928571,14.5714286 L17.25,14.5714286 C17.1908266,14.5714286 17.1428571,14.5234591 17.1428571,14.4642857 L17.1428571,12.9642857 C17.1428571,12.9051123 17.1908266,12.8571429 17.25,12.8571429 Z M0.107142857,13.7142857 L0.75,13.7142857 C0.809173366,13.7142857 0.857142857,13.7622552 0.857142857,13.8214286 L0.857142857,15.3214286 C0.857142857,15.3806019 0.809173366,15.4285714 0.75,15.4285714 L0.107142857,15.4285714 C0.0479694911,15.4285714 0,15.3806019 0,15.3214286 L0,13.8214286 C0,13.7622552 0.0479694911,13.7142857 0.107142857,13.7142857 Z M13.8214286,17.1428571 L15.3214286,17.1428571 C15.3806019,17.1428571 15.4285714,17.1908266 15.4285714,17.25 L15.4285714,17.8928571 C15.4285714,17.9520305 15.3806019,18 15.3214286,18 L13.8214286,18 C13.7622552,18 13.7142857,17.9520305 13.7142857,17.8928571 L13.7142857,17.25 C13.7142857,17.1908266 13.7622552,17.1428571 13.8214286,17.1428571 Z M11.25,17.1428571 L12.75,17.1428571 C12.8091734,17.1428571 12.8571429,17.1908266 12.8571429,17.25 L12.8571429,17.8928571 C12.8571429,17.9520305 12.8091734,18 12.75,18 L11.25,18 C11.1908266,18 11.1428571,17.9520305 11.1428571,17.8928571 L11.1428571,17.25 C11.1428571,17.1908266 11.1908266,17.1428571 11.25,17.1428571 Z M8.67857143,17.1428571 L10.1785714,17.1428571 C10.2377448,17.1428571 10.2857143,17.1908266 10.2857143,17.25 L10.2857143,17.8928571 C10.2857143,17.9520305 10.2377448,18 10.1785714,18 L8.67857143,18 C8.61939806,18 8.57142857,17.9520305 8.57142857,17.8928571 L8.57142857,17.25 C8.57142857,17.1908266 8.61939806,17.1428571 8.67857143,17.1428571 Z M6.10714286,17.1428571 L7.60714286,17.1428571 C7.66631622,17.1428571 7.71428571,17.1908266 7.71428571,17.25 L7.71428571,17.8928571 C7.71428571,17.9520305 7.66631622,18 7.60714286,18 L6.10714286,18 C6.04796949,18 6,17.9520305 6,17.8928571 L6,17.25 C6,17.1908266 6.04796949,17.1428571 6.10714286,17.1428571 Z M3.53571429,17.1428571 L5.03571429,17.1428571 C5.09488765,17.1428571 5.14285714,17.1908266 5.14285714,17.25 L5.14285714,17.8928571 C5.14285714,17.9520305 5.09488765,18 5.03571429,18 L3.53571429,18 C3.47654092,18 3.42857143,17.9520305 3.42857143,17.8928571 L3.42857143,17.25 C3.42857143,17.1908266 3.47654092,17.1428571 3.53571429,17.1428571 Z M9.53571429,3.42857143 L14.4642857,3.42857143 C14.5234591,3.42857143 14.5714286,3.47654092 14.5714286,3.53571429 L14.5714286,8.46428571 C14.5714286,8.52345908 14.5234591,8.57142857 14.4642857,8.57142857 L9.53571429,8.57142857 C9.47654092,8.57142857 9.42857143,8.52345908 9.42857143,8.46428571 L9.42857143,3.53571429 C9.42857143,3.47654092 9.47654092,3.42857143 9.53571429,3.42857143 Z M9.53571429,9.42857143 L14.4642857,9.42857143 C14.5234591,9.42857143 14.5714286,9.47654092 14.5714286,9.53571429 L14.5714286,14.4642857 C14.5714286,14.5234591 14.5234591,14.5714286 14.4642857,14.5714286 L9.53571429,14.5714286 C9.47654092,14.5714286 9.42857143,14.5234591 9.42857143,14.4642857 L9.42857143,9.53571429 C9.42857143,9.47654092 9.47654092,9.42857143 9.53571429,9.42857143 Z M3.53571429,3.42857143 L8.46428571,3.42857143 C8.52345908,3.42857143 8.57142857,3.47654092 8.57142857,3.53571429 L8.57142857,8.46428571 C8.57142857,8.52345908 8.52345908,8.57142857 8.46428571,8.57142857 L3.53571429,8.57142857 C3.47654092,8.57142857 3.42857143,8.52345908 3.42857143,8.46428571 L3.42857143,3.53571429 C3.42857143,3.47654092 3.47654092,3.42857143 3.53571429,3.42857143 Z M3.53571429,9.42857143 L8.46428571,9.42857143 C8.52345908,9.42857143 8.57142857,9.47654092 8.57142857,9.53571429 L8.57142857,14.4642857 C8.57142857,14.5234591 8.52345908,14.5714286 8.46428571,14.5714286 L3.53571429,14.5714286 C3.47654092,14.5714286 3.42857143,14.5234591 3.42857143,14.4642857 L3.42857143,9.53571429 C3.42857143,9.47654092 3.47654092,9.42857143 3.53571429,9.42857143 Z" id="Shape" fill="currentColor" fill-rule="nonzero"></path>
    </g>
</svg>