<?xml version="1.0" encoding="UTF-8"?>
<svg width="1em" height="1em" viewBox="0 0 18 18" version="1.1" xmlns="http://www.w3.org/2000/svg" xmlns:xlink="http://www.w3.org/1999/xlink">
    <!-- Generator: Sketch 53.2 (72643) - https://sketchapp.com -->
    <title>h1</title>
    <desc>Created with Sketch.</desc>
    <g id="h1" stroke="none" stroke-width="1" fill="none" fill-rule="evenodd">
        <path d="M0.107142857,0 L17.8928571,0 C17.9520305,0 18,0.0479694911 18,0.107142857 L18,17.8928571 C18,17.9520305 17.9520305,18 17.8928571,18 L0.107142857,18 C0.0479694911,18 0,17.9520305 0,17.8928571 L0,0.107142857 C0,0.0479694911 0.0479694911,0 0.107142857,0 Z M9.05657143,6.08571429 L9.05657143,9.18171429 L5.49771429,9.18171429 L5.49771429,6.08571429 L4.52057143,6.08571429 L4.52057143,13.2857143 L5.49771429,13.2857143 L5.49771429,10.128 L9.05657143,10.128 L9.05657143,13.2857143 L10.0337143,13.2857143 L10.0337143,6.08571429 L9.05657143,6.08571429 Z M13.4588571,5.97257143 L11.196,7.392 L11.6382857,8.19428571 L12.5948571,7.608 L12.5948571,13.2857143 L13.5617143,13.2857143 L13.5617143,5.97257143 L13.4588571,5.97257143 Z" id="Shape" fill="currentColor" fill-rule="nonzero"></path>
    </g>
</svg>