<?xml version="1.0" encoding="UTF-8"?>
<svg width="1em" height="1em" viewBox="0 0 18 18" version="1.1" xmlns="http://www.w3.org/2000/svg" xmlns:xlink="http://www.w3.org/1999/xlink">
    <!-- Generator: Sketch 53.2 (72643) - https://sketchapp.com -->
    <title>h2</title>
    <desc>Created with Sketch.</desc>
    <g id="h2" stroke="none" stroke-width="1" fill="none" fill-rule="evenodd">
        <path d="M0.107142857,0 L17.8928571,0 C17.9520305,0 18,0.0479694911 18,0.107142857 L18,17.8928571 C18,17.9520305 17.9520305,18 17.8928571,18 L0.107142857,18 C0.0479694911,18 0,17.9520305 0,17.8928571 L0,0.107142857 C0,0.0479694911 0.0479694911,0 0.107142857,0 Z M8.08457143,6.08571429 L8.08457143,9.18171429 L4.52571429,9.18171429 L4.52571429,6.08571429 L3.54857143,6.08571429 L3.54857143,13.2857143 L4.52571429,13.2857143 L4.52571429,10.128 L8.08457143,10.128 L8.08457143,13.2857143 L9.06171429,13.2857143 L9.06171429,6.08571429 L8.08457143,6.08571429 Z M10.4297143,13.2857143 L14.8731429,13.2857143 L14.8731429,12.3394286 L12.24,12.3394286 C12.7337143,11.7222857 13.2377143,11.1051429 13.7211429,10.488 C14.2971429,9.75771429 14.7908571,9.048 14.7908571,8.14285714 C14.7908571,7.01142857 13.896,5.952 12.5177143,5.952 C11.1291429,5.952 10.2754286,7.02171429 10.2034286,8.17371429 L11.1085714,8.43085714 C11.16,7.56685714 11.7154286,6.91885714 12.5177143,6.91885714 C13.3097143,6.91885714 13.8034286,7.54628571 13.8034286,8.17371429 C13.8034286,8.94514286 13.2994286,9.552 12.7542857,10.2308571 C11.9622857,11.2388571 11.2114286,12.2057143 10.4297143,13.1725714 L10.4297143,13.2857143 Z" id="Shape" fill="currentColor" fill-rule="nonzero"></path>
    </g>
</svg>