<?xml version="1.0" encoding="UTF-8"?>
<svg width="1em" height="1em" viewBox="0 0 18 18" version="1.1" xmlns="http://www.w3.org/2000/svg" xmlns:xlink="http://www.w3.org/1999/xlink">
    <!-- Generator: Sketch 53.2 (72643) - https://sketchapp.com -->
    <title>h3</title>
    <desc>Created with Sketch.</desc>
    <g id="h3" stroke="none" stroke-width="1" fill="none" fill-rule="evenodd">
        <path d="M0.107142857,0 L17.8928571,0 C17.9520305,0 18,0.0479694911 18,0.107142857 L18,17.8928571 C18,17.9520305 17.9520305,18 17.8928571,18 L0.107142857,18 C0.0479694911,18 0,17.9520305 0,17.8928571 L0,0.107142857 C0,0.0479694911 0.0479694911,0 0.107142857,0 Z M7.89942857,6.08571429 L7.89942857,9.18171429 L4.34057143,9.18171429 L4.34057143,6.08571429 L3.36342857,6.08571429 L3.36342857,13.2857143 L4.34057143,13.2857143 L4.34057143,10.128 L7.89942857,10.128 L7.89942857,13.2857143 L8.87657143,13.2857143 L8.87657143,6.08571429 L7.89942857,6.08571429 Z M12.888,8.65714286 L14.5542857,6.816 L14.5542857,6.08571429 L10.5325714,6.08571429 L10.5325714,7.05257143 L13.1451429,7.05257143 L11.0982857,9.35657143 L11.5508571,9.84 C11.8697143,9.66514286 12.168,9.54171429 12.5794286,9.54171429 C13.4125714,9.54171429 14.0502857,10.1485714 14.0502857,10.9714286 C14.0502857,11.784 13.4434286,12.4217143 12.6,12.4217143 C11.808,12.4217143 11.2628571,11.8457143 11.088,11.1565714 L10.1725714,11.5577143 C10.44,12.504 11.2422857,13.3885714 12.6,13.3885714 C14.0811429,13.3885714 15.048,12.2262857 15.048,10.9714286 C15.048,9.79885714 14.2251429,8.79085714 12.888,8.65714286 Z" id="Shape" fill="currentColor" fill-rule="nonzero"></path>
    </g>
</svg>