<?xml version="1.0" encoding="UTF-8"?>
<svg width="1em" height="1em" viewBox="0 0 18 18" version="1.1" xmlns="http://www.w3.org/2000/svg" xmlns:xlink="http://www.w3.org/1999/xlink">
    <!-- Generator: Sketch 53.2 (72643) - https://sketchapp.com -->
    <title>h4</title>
    <desc>Created with Sketch.</desc>
    <g id="h4" stroke="none" stroke-width="1" fill="none" fill-rule="evenodd">
        <path d="M0.107142857,0 L17.8928571,0 C17.9520305,0 18,0.0479694911 18,0.107142857 L18,17.8928571 C18,17.9520305 17.9520305,18 17.8928571,18 L0.107142857,18 C0.0479694911,18 0,17.9520305 0,17.8928571 L0,0.107142857 C0,0.0479694911 0.0479694911,0 0.107142857,0 Z M8.244,6.08571429 L8.244,9.18171429 L4.68514286,9.18171429 L4.68514286,6.08571429 L3.708,6.08571429 L3.708,13.2857143 L4.68514286,13.2857143 L4.68514286,10.128 L8.244,10.128 L8.244,13.2857143 L9.22114286,13.2857143 L9.22114286,6.08571429 L8.244,6.08571429 Z M14.8988571,11.1051429 L14.1377143,11.1051429 L14.1377143,6.06514286 L13.1297143,6.06514286 L10.116,11.3314286 L10.116,12.0308571 L13.1708571,12.0308571 L13.1708571,13.2857143 L14.1377143,13.2857143 L14.1377143,12.0308571 L14.8988571,12.0308571 L14.8988571,11.1051429 Z M11.2988571,11.1051429 L13.1708571,7.69028571 L13.1708571,11.1051429 L11.2988571,11.1051429 Z" id="Shape" fill="currentColor" fill-rule="nonzero"></path>
    </g>
</svg>