<?xml version="1.0" encoding="UTF-8"?>
<svg width="1em" height="1em" viewBox="0 0 18 18" version="1.1" xmlns="http://www.w3.org/2000/svg" xmlns:xlink="http://www.w3.org/1999/xlink">
    <!-- Generator: Sketch 53.2 (72643) - https://sketchapp.com -->
    <title>h5</title>
    <desc>Created with Sketch.</desc>
    <g id="h5" stroke="none" stroke-width="1" fill="none" fill-rule="evenodd">
        <path d="M0.107142857,0 L17.8928571,0 C17.9520305,0 18,0.0479694911 18,0.107142857 L18,17.8928571 C18,17.9520305 17.9520305,18 17.8928571,18 L0.107142857,18 C0.0479694911,18 0,17.9520305 0,17.8928571 L0,0.107142857 C0,0.0479694911 0.0479694911,0 0.107142857,0 Z M7.93028571,6.08571429 L7.93028571,9.18171429 L4.37142857,9.18171429 L4.37142857,6.08571429 L3.39428571,6.08571429 L3.39428571,13.2857143 L4.37142857,13.2857143 L4.37142857,10.128 L7.93028571,10.128 L7.93028571,13.2857143 L8.90742857,13.2857143 L8.90742857,6.08571429 L7.93028571,6.08571429 Z M12.5794286,8.544 C12.2914286,8.544 12.0548571,8.59542857 11.8388571,8.66742857 L12.168,7.032 L14.3794286,7.032 L14.3794286,6.08571429 L11.4274286,6.08571429 L10.5634286,10.056 L11.1394286,10.1691429 C11.448,9.78857143 11.9108571,9.49028571 12.5074286,9.49028571 C13.4125714,9.49028571 14.0194286,10.1382857 14.0194286,10.9714286 C14.0194286,11.7942857 13.4228571,12.4217143 12.5794286,12.4217143 C11.8285714,12.4217143 11.2628571,11.8662857 11.0982857,11.1565714 L10.2034286,11.5577143 C10.4605714,12.5965714 11.3657143,13.3885714 12.5794286,13.3885714 C14.0708571,13.3885714 15.0171429,12.2468571 15.0171429,10.9714286 C15.0171429,9.72685714 14.0605714,8.544 12.5794286,8.544 Z" id="Shape" fill="currentColor" fill-rule="nonzero"></path>
    </g>
</svg>