<?xml version="1.0" encoding="UTF-8"?>
<svg width="1em" height="1em" viewBox="0 0 18 18" version="1.1" xmlns="http://www.w3.org/2000/svg" xmlns:xlink="http://www.w3.org/1999/xlink">
    <!-- Generator: Sketch 53.2 (72643) - https://sketchapp.com -->
    <title>h6</title>
    <desc>Created with Sketch.</desc>
    <g id="h6" stroke="none" stroke-width="1" fill="none" fill-rule="evenodd">
        <path d="M0.107142857,0 L17.8928571,0 C17.9520305,0 18,0.0479694911 18,0.107142857 L18,17.8928571 C18,17.9520305 17.9520305,18 17.8928571,18 L0.107142857,18 C0.0479694911,18 0,17.9520305 0,17.8928571 L0,0.107142857 C0,0.0479694911 0.0479694911,0 0.107142857,0 Z M7.97657143,6.08571429 L7.97657143,9.18171429 L4.41771429,9.18171429 L4.41771429,6.08571429 L3.44057143,6.08571429 L3.44057143,13.2857143 L4.41771429,13.2857143 L4.41771429,10.128 L7.97657143,10.128 L7.97657143,13.2857143 L8.95371429,13.2857143 L8.95371429,6.08571429 L7.97657143,6.08571429 Z M12.5537143,8.57485714 C12.3685714,8.57485714 12.1937143,8.59542857 12.0291429,8.62628571 L13.4177143,6.08571429 L12.3171429,6.08571429 C11.9057143,6.888 11.5457143,7.52571429 11.124,8.34857143 C10.7125714,9.12 10.1571429,10.0148571 10.1468571,10.9508571 L10.1468571,10.9714286 C10.1468571,12.3188571 11.124,13.3885714 12.5537143,13.3885714 C14.004,13.3885714 14.9708571,12.3188571 14.9708571,10.9714286 C14.9708571,9.63428571 13.9937143,8.57485714 12.5537143,8.57485714 Z M12.5537143,12.4217143 C11.7205714,12.4217143 11.124,11.7634286 11.124,10.9817143 C11.124,10.1897143 11.7102857,9.52114286 12.5537143,9.52114286 C13.4074286,9.52114286 13.9937143,10.1897143 13.9937143,10.9817143 C13.9937143,11.7634286 13.3971429,12.4217143 12.5537143,12.4217143 Z" id="Shape" fill="currentColor" fill-rule="nonzero"></path>
    </g>
</svg>