<?xml version="1.0" encoding="UTF-8"?>
<svg width="1em" height="1em" viewBox="0 0 18 18" version="1.1" xmlns="http://www.w3.org/2000/svg" xmlns:xlink="http://www.w3.org/1999/xlink">
    <!-- Generator: Sketch 55 (78076) - https://sketchapp.com -->
    <title>hamburger</title>
    <desc>Created with Sketch.</desc>
    <g id="hamburger" stroke="none" stroke-width="1" fill="none" fill-rule="evenodd">
        <path d="M0.25,3 L17.75,3 C17.8880712,3 18,3.11192881 18,3.25 L18,4.75 C18,4.88807119 17.8880712,5 17.75,5 L0.25,5 C0.111928813,5 1.69088438e-17,4.88807119 0,4.75 L0,3.25 C-1.69088438e-17,3.11192881 0.111928813,3 0.25,3 Z M0.25,8 L17.75,8 C17.8880712,8 18,8.11192881 18,8.25 L18,9.75 C18,9.88807119 17.8880712,10 17.75,10 L0.25,10 C0.111928813,10 1.69088438e-17,9.88807119 0,9.75 L0,8.25 C-1.69088438e-17,8.11192881 0.111928813,8 0.25,8 Z M6.25,13 L17.75,13 C17.8880712,13 18,13.1119288 18,13.25 L18,14.75 C18,14.8880712 17.8880712,15 17.75,15 L6.25,15 C6.11192881,15 6,14.8880712 6,14.75 L6,13.25 C6,13.1119288 6.11192881,13 6.25,13 Z" id="Fill" fill="currentColor" fill-rule="nonzero"></path>
    </g>
</svg>