<?xml version="1.0" encoding="UTF-8"?>
<svg width="1em" height="1em" viewBox="0 0 18 18" version="1.1" xmlns="http://www.w3.org/2000/svg" xmlns:xlink="http://www.w3.org/1999/xlink">
    <!-- Generator: Sketch 53.2 (72643) - https://sketchapp.com -->
    <title>hide</title>
    <desc>Created with Sketch.</desc>
    <g id="hide" stroke="none" stroke-width="1" fill="none" fill-rule="evenodd">
        <path d="M0.857142857,9 C0.857142857,12.5680082 3.67179868,15.7269412 6.85714272,16.2192317 L6.85714272,1.78076869 C3.67179736,2.27306028 0.857142857,5.43199266 0.857142857,9 Z M7.71428571,0.857142857 L7.71428571,17.1428571 C3.85714286,17.1428571 0,13.4971758 0,9 C0,4.50282418 3.85714286,0.857142857 7.71428571,0.857142857 Z M10.2857143,17.1428571 L10.2857143,0.857142857 C14.1428571,0.857142857 18,4.50282418 18,9 C18,13.4971758 14.1428571,17.1428571 10.2857143,17.1428571 Z M8.57142857,0 L9.42857143,0 L9.42857143,18 L8.57142857,18 L8.57142857,0 Z" id="Shape" fill="currentColor" fill-rule="nonzero"></path>
    </g>
</svg>