<?xml version="1.0" encoding="UTF-8"?>
<svg width="1em" height="1em" viewBox="0 0 18 18" version="1.1" xmlns="http://www.w3.org/2000/svg" xmlns:xlink="http://www.w3.org/1999/xlink">
    <!-- Generator: Sketch 53.2 (72643) - https://sketchapp.com -->
    <title>hierarchy</title>
    <desc>Created with Sketch.</desc>
    <g id="hierarchy" stroke="none" stroke-width="1" fill="none" fill-rule="evenodd">
        <path d="M8.9570149,0.00867211422 C8.98446422,-0.00289070474 9.0155355,-0.00289070474 9.04298482,0.00867211422 L17.932154,3.75316838 C17.9579082,3.76401716 17.9784297,3.78418774 17.9894673,3.80950156 C18.0132072,3.86394748 17.9875472,3.92700054 17.932154,3.9503345 L9.04298482,7.69483077 C9.0155355,7.70639359 8.98446422,7.70639359 8.9570149,7.69483077 L0.0678457479,3.9503345 C0.042091514,3.93948573 0.0215699988,3.91931514 0.01053247,3.89400133 C-0.013207467,3.8395554 0.0124525615,3.77650234 0.0678457479,3.75316838 L8.9570149,0.00867211422 L8.9570149,0.00867211422 Z M4.81057233,6.87319579 C4.83792027,6.86150872 4.86894299,6.86133179 4.89642707,6.87270614 L8.9576546,8.5534546 C8.98473354,8.56466129 9.01526618,8.56466129 9.04234512,8.5534546 L13.1035727,6.87270614 C13.1310567,6.86133179 13.1620795,6.86150872 13.1894274,6.87319579 L17.9343603,8.90093105 C17.9598753,8.91183483 17.9801893,8.93190624 17.991149,8.95704168 C18.014889,9.0114876 17.9892289,9.07454066 17.9338357,9.09787463 L9.04298482,12.8430793 C9.0155355,12.8546421 8.98446422,12.8546421 8.9570149,12.8430793 L0.0661639733,9.09787463 C0.0405912246,9.0871023 0.0201706053,9.0671357 0.00907711913,9.04205701 C-0.0149525052,8.98773399 0.010371312,8.92454975 0.065639448,8.90093105 L4.81057233,6.87319579 Z M4.81057233,12.0214443 C4.83792027,12.0097573 4.86894299,12.0095803 4.89642707,12.0209547 L8.9576546,13.7017032 C8.98473354,13.7129098 9.01526618,13.7129098 9.04234512,13.7017032 L13.1035727,12.0209547 C13.1310567,12.0095803 13.1620795,12.0097573 13.1894274,12.0214443 L17.9343603,14.0491796 C17.9598753,14.0600834 17.9801893,14.0801548 17.991149,14.1052902 C18.014889,14.1597362 17.9892289,14.2227892 17.9338357,14.2461232 L9.04298482,17.9913279 C9.0155355,18.0028907 8.98446422,18.0028907 8.9570149,17.9913279 L0.0661639733,14.2461232 C0.0405912246,14.2353509 0.0201706053,14.2153843 0.00907711913,14.1903056 C-0.0149525052,14.1359826 0.010371312,14.0727983 0.065639448,14.0491796 L4.81057233,12.0214443 Z" id="Shape" fill="currentColor" fill-rule="nonzero"></path>
    </g>
</svg>