<?xml version="1.0" encoding="UTF-8"?>
<svg width="1em" height="1em" viewBox="0 0 18 18" version="1.1" xmlns="http://www.w3.org/2000/svg" xmlns:xlink="http://www.w3.org/1999/xlink">
    <!-- Generator: Sketch 53.2 (72643) - https://sketchapp.com -->
    <title>history</title>
    <desc>Created with Sketch.</desc>
    <g id="history" stroke="none" stroke-width="1" fill="none" fill-rule="evenodd">
        <path d="M9.90761298,2.2724466 L10.5,2.84858263 L9.80964406,3.52 L8,1.76 L9.80964406,0 L10.5,0.671417366 L9.78062217,1.37106047 C14.3981467,1.87166638 18,5.99164901 18,11 L17.1666667,11 C17.1666667,6.52429526 14.0025532,2.82899385 9.90761298,2.2724466 L9.90761298,2.2724466 Z M7,12 L7,6 L6,6 L6,12 L7,12 Z M6.5,18 C2.91014913,18 1.24344979e-14,15.0898509 1.24344979e-14,11.5 C1.24344979e-14,7.91014913 2.91014913,5 6.5,5 C10.0898509,5 13,7.91014913 13,11.5 C13,15.0898509 10.0898509,18 6.5,18 Z M7,11 L7,12 L11,12 L11,11 L7,11 Z" id="Shape" fill="currentColor" fill-rule="nonzero"></path>
    </g>
</svg>