<?xml version="1.0" encoding="UTF-8"?>
<svg width="1em" height="1em" viewBox="0 0 18 18" version="1.1" xmlns="http://www.w3.org/2000/svg" xmlns:xlink="http://www.w3.org/1999/xlink">
    <!-- Generator: Sketch 53.2 (72643) - https://sketchapp.com -->
    <title>horizontal-split</title>
    <desc>Created with Sketch.</desc>
    <g id="horizontal-split" stroke="none" stroke-width="1" fill="none" fill-rule="evenodd">
        <path d="M1.39285714,0 L16.6071429,0 C16.6663162,0 16.7142857,0.0479694911 16.7142857,0.107142857 L16.7142857,7.60714286 C16.7142857,7.66631622 16.6663162,7.71428571 16.6071429,7.71428571 L1.39285714,7.71428571 C1.33368378,7.71428571 1.28571429,7.66631622 1.28571429,7.60714286 L1.28571429,0.107142857 C1.28571429,0.0479694911 1.33368378,0 1.39285714,0 Z M0.107142857,8.57142857 L17.8928571,8.57142857 C17.9520305,8.57142857 18,8.61939806 18,8.67857143 L18,9.32142857 C18,9.38060194 17.9520305,9.42857143 17.8928571,9.42857143 L0.107142857,9.42857143 C0.0479694911,9.42857143 0,9.38060194 0,9.32142857 L0,8.67857143 C0,8.61939806 0.0479694911,8.57142857 0.107142857,8.57142857 Z M1.39285714,10.2857143 L16.6071429,10.2857143 C16.6663162,10.2857143 16.7142857,10.3336838 16.7142857,10.3928571 L16.7142857,17.8928571 C16.7142857,17.9520305 16.6663162,18 16.6071429,18 L1.39285714,18 C1.33368378,18 1.28571429,17.9520305 1.28571429,17.8928571 L1.28571429,10.3928571 C1.28571429,10.3336838 1.33368378,10.2857143 1.39285714,10.2857143 Z" id="Shape" fill="currentColor" fill-rule="nonzero"></path>
    </g>
</svg>