<?xml version="1.0" encoding="UTF-8"?>
<svg width="1em" height="1em" viewBox="0 0 18 18" version="1.1" xmlns="http://www.w3.org/2000/svg" xmlns:xlink="http://www.w3.org/1999/xlink">
    <!-- Generator: Sketch 53.2 (72643) - https://sketchapp.com -->
    <title>image</title>
    <desc>Created with Sketch.</desc>
    <g id="image" stroke="none" stroke-width="1" fill="none" fill-rule="evenodd">
        <path d="M0.107142857,0 L17.8928571,0 C17.9520305,0 18,0.0479694911 18,0.107142857 L18,17.8928571 C18,17.9520305 17.9520305,18 17.8928571,18 L0.107142857,18 C0.0479694911,18 0,17.9520305 0,17.8928571 L0,0.107142857 C0,0.0479694911 0.0479694911,0 0.107142857,0 Z M4.5,6.42857143 C5.56512059,6.42857143 6.42857143,5.56512059 6.42857143,4.5 C6.42857143,3.43487941 5.56512059,2.57142857 4.5,2.57142857 C3.43487941,2.57142857 2.57142857,3.43487941 2.57142857,4.5 C2.57142857,5.56512059 3.43487941,6.42857143 4.5,6.42857143 Z M1.28571429,16.7142857 L16.7142202,16.7142857 L11.1412189,5.57142857 L6.42857143,13.2857143 L4.71428571,10.7142857 L1.28571429,16.7142857 Z" id="Shape" fill="currentColor" fill-rule="nonzero"></path>
    </g>
</svg>