<?xml version="1.0" encoding="UTF-8"?>
<svg width="1em" height="1em" viewBox="0 0 18 18" version="1.1" xmlns="http://www.w3.org/2000/svg" xmlns:xlink="http://www.w3.org/1999/xlink">
    <!-- Generator: Sketch 53.2 (72643) - https://sketchapp.com -->
    <title>insert-left</title>
    <desc>Created with Sketch.</desc>
    <g id="insert-left" stroke="none" stroke-width="1" fill="none" fill-rule="evenodd">
        <path d="M6.12878256,10.3105863 L17.8888493,10.3105863 C17.9502361,10.3105863 18,10.3601623 18,10.4180818 L18,11.9215217 C18,11.9808899 17.9534445,12.0290173 17.8888493,12.0290173 L6.12878256,12.0290173 L10.6398718,16.8181349 C10.6804966,16.8612635 10.6785512,16.9292386 10.6355266,16.9699617 L10.6346202,16.9708097 L9.55251846,17.971537 C9.50938213,18.0114294 9.44225711,18.0091093 9.40196435,17.9663333 L3.06945492,11.2435374 C3.03046825,11.2021479 3.03046825,11.1374557 3.06945492,11.0960662 L9.40196435,4.3732703 C9.44225711,4.33049421 9.50938213,4.32817411 9.55251846,4.36806658 L10.6346202,5.36879382 C10.678112,5.40901502 10.680842,5.47696308 10.6407178,5.52056006 L10.6398718,5.5214687 L6.12878256,10.3105863 Z M1.71428571,1.71843104 L1.71428571,0.107675624 C1.71428571,0.0482080188 1.76374217,0 1.82152196,0 L3.32133518,0 C3.38056012,0 3.42857143,0.0445678064 3.42857143,0.107675624 L3.42857143,1.71843104 L5.03544126,1.71843104 C5.09476542,1.71843104 5.14285714,1.76800709 5.14285714,1.8259266 L5.14285714,3.32936653 C5.14285714,3.38873468 5.09839685,3.43686209 5.03544126,3.43686209 L3.42857143,3.43686209 L3.42857143,5.0476175 C3.42857143,5.10708511 3.37911497,5.15529313 3.32133518,5.15529313 L1.82152196,5.15529313 C1.76229702,5.15529313 1.71428571,5.11072532 1.71428571,5.0476175 L1.71428571,3.43686209 L0.10741588,3.43686209 C0.0480917278,3.43686209 0,3.38728603 0,3.32936653 L0,1.8259266 C0,1.76655844 0.0444602966,1.71843104 0.10741588,1.71843104 L1.71428571,1.71843104 Z" id="Shape" fill="currentColor" fill-rule="nonzero"></path>
    </g>
</svg>