<?xml version="1.0" encoding="UTF-8"?>
<svg width="1em" height="1em" viewBox="0 0 18 18" version="1.1" xmlns="http://www.w3.org/2000/svg" xmlns:xlink="http://www.w3.org/1999/xlink">
    <!-- Generator: Sketch 53.2 (72643) - https://sketchapp.com -->
    <title>insert-right</title>
    <desc>Created with Sketch.</desc>
    <g id="insert-right" stroke="none" stroke-width="1" fill="none" fill-rule="evenodd">
        <path d="M11.8712174,10.3105863 L7.36012822,5.5214687 C7.31950342,5.47834011 7.32144881,5.41036493 7.36447337,5.36964189 L8.44748154,4.36806658 C8.49061787,4.32817411 8.55774289,4.33049421 8.59803565,4.3732703 L14.9305451,11.0960662 C14.9695317,11.1374557 14.9695317,11.2021479 14.9305451,11.2435374 L8.59803565,17.9663333 C8.55774289,18.0091093 8.49061787,18.0114294 8.44748154,17.971537 L7.36537982,16.9708097 C7.32188801,16.9305885 7.31915801,16.8626405 7.3592822,16.8190435 L11.8712174,12.0290173 L0.111150742,12.0290173 C0.0497638821,12.0290173 0,11.9794412 0,11.9215217 L0,10.4180818 C0,10.3587137 0.046555485,10.3105863 0.111150742,10.3105863 L11.8712174,10.3105863 Z M14.5714286,1.71843104 L14.5714286,0.107675624 C14.5714286,0.0482080188 14.620885,0 14.6786648,0 L16.178478,0 C16.237703,0 16.2857143,0.0445678064 16.2857143,0.107675624 L16.2857143,1.71843104 L17.8925841,1.71843104 C17.9519083,1.71843104 18,1.76800709 18,1.8259266 L18,3.32936653 C18,3.38873468 17.9555397,3.43686209 17.8925841,3.43686209 L16.2857143,3.43686209 L16.2857143,5.0476175 C16.2857143,5.10708511 16.2362578,5.15529313 16.178478,5.15529313 L14.6786648,5.15529313 C14.6194399,5.15529313 14.5714286,5.11072532 14.5714286,5.0476175 L14.5714286,3.43686209 L12.9645587,3.43686209 C12.9052346,3.43686209 12.8571429,3.38728603 12.8571429,3.32936653 L12.8571429,1.8259266 C12.8571429,1.76655844 12.9016032,1.71843104 12.9645587,1.71843104 L14.5714286,1.71843104 Z" id="Shape" fill="currentColor" fill-rule="nonzero"></path>
    </g>
</svg>