<?xml version="1.0" encoding="UTF-8"?>
<svg width="1em" height="1em" viewBox="0 0 18 18" version="1.1" xmlns="http://www.w3.org/2000/svg" xmlns:xlink="http://www.w3.org/1999/xlink">
    <!-- Generator: Sketch 53.2 (72643) - https://sketchapp.com -->
    <title>inside-stroke</title>
    <desc>Created with Sketch.</desc>
    <g id="inside-stroke" stroke="none" stroke-width="1" fill="none" fill-rule="evenodd">
        <path d="M0.899999995,17.0999999 L1.68749999,17.0999999 C1.74963203,17.0999999 1.79999999,17.1503679 1.79999999,17.2124999 L1.79999999,17.8874999 C1.79999999,17.949632 1.74963203,17.9999999 1.68749999,17.9999999 L0.112499999,17.9999999 C0.0503679654,17.9999999 0,17.949632 0,17.8874999 L0,16.3124999 C0,16.2503679 0.0503679654,16.1999999 0.112499999,16.1999999 L0.787499996,16.1999999 C0.84963203,16.1999999 0.899999995,16.2503679 0.899999995,16.3124999 L0.899999995,17.0999999 Z M17.9999999,11.8125 L17.9999999,13.3874999 C17.9999999,13.449632 17.9496319,13.4999999 17.8874999,13.4999999 L17.2124999,13.4999999 C17.1503679,13.4999999 17.0999999,13.449632 17.0999999,13.3874999 L17.0999999,12.5999999 L16.3124999,12.5999999 C16.2503679,12.5999999 16.1999999,12.549632 16.1999999,12.4875 L16.1999999,11.8125 C16.1999999,11.7503679 16.2503679,11.7 16.3124999,11.7 L17.8874999,11.7 C17.9496319,11.7 17.9999999,11.7503679 17.9999999,11.8125 Z M6.29999997,11.7 L7.08749996,11.7 C7.149632,11.7 7.19999996,11.7503679 7.19999996,11.8125 L7.19999996,12.4875 C7.19999996,12.549632 7.149632,12.5999999 7.08749996,12.5999999 L5.51249997,12.5999999 C5.45036794,12.5999999 5.39999997,12.549632 5.39999997,12.4875 L5.39999997,10.9125 C5.39999997,10.8503679 5.45036794,10.8 5.51249997,10.8 L6.18749997,10.8 C6.249632,10.8 6.29999997,10.8503679 6.29999997,10.9125 L6.29999997,11.7 L6.29999997,11.7 Z M6.29999997,0.112500013 L6.29999997,1.6875 C6.29999997,1.74963204 6.249632,1.8 6.18749997,1.8 L5.51249997,1.8 C5.45036794,1.8 5.39999997,1.74963204 5.39999997,1.6875 L5.39999997,0.900000009 L4.61249998,0.900000009 C4.55036794,0.900000009 4.49999998,0.849632044 4.49999998,0.78750001 L4.49999998,0.112500013 C4.49999998,0.0503679789 4.55036794,1.35641355e-08 4.61249998,1.35641355e-08 L6.18749997,1.35641355e-08 C6.249632,1.35641355e-08 6.29999997,0.0503679789 6.29999997,0.112500013 Z M8.88749998,1.21520224e-08 C8.94963201,1.91680118e-08 8.99999997,0.0503679902 8.99999996,0.112500024 L9.00005751,8.88281593 C9.00005751,8.94492511 9.0503898,8.9952836 9.11249896,8.99531593 L17.8874999,9 C17.9496091,9.00003233 17.9999414,9.05039081 17.9999414,9.11249998 L18,10.6891282 C18,10.7512602 17.949632,10.8016282 17.8875,10.8016282 L7.31249996,10.8016282 C7.25036792,10.8016282 7.19999996,10.7512602 7.19999996,10.6891282 L7.19999995,0.112500011 C7.19999996,0.0503679767 7.25036792,1.17135212e-08 7.31249996,1.21520208e-08 L8.88749997,2.40616197e-08 L8.88749998,1.21520224e-08 Z M0.112499999,2.7 L0.787499996,2.7 C0.84963203,2.7 0.899999995,2.75036797 0.899999995,2.8125 L0.899999995,4.38749999 C0.899999995,4.44963203 0.84963203,4.49999999 0.787499996,4.49999999 L0.112499999,4.49999999 C0.0503679654,4.49999999 0,4.44963203 0,4.38749999 L0,2.8125 C0,2.75036797 0.0503679654,2.7 0.112499999,2.7 Z M0.112499999,1.35641355e-08 L0.787499996,1.35641355e-08 C0.84963203,1.35641355e-08 0.899999995,0.0503679789 0.899999995,0.112500013 L0.899999995,1.6875 C0.899999995,1.74963204 0.84963203,1.8 0.787499996,1.8 L0.112499999,1.8 C0.0503679654,1.8 0,1.74963204 0,1.6875 L0,0.112500013 C0,0.0503679789 0.0503679654,1.35641355e-08 0.112499999,1.35641355e-08 Z M0.112499999,5.39999999 L0.787499996,5.39999999 C0.84963203,5.39999999 0.899999995,5.45036795 0.899999995,5.51249999 L0.899999995,7.08749998 C0.899999995,7.14963201 0.84963203,7.19999998 0.787499996,7.19999998 L0.112499999,7.19999998 C0.0503679654,7.19999998 0,7.14963201 0,7.08749998 L0,5.51249999 C0,5.45036795 0.0503679654,5.39999999 0.112499999,5.39999999 Z M0.112499999,8.09999997 L0.787499996,8.09999997 C0.84963203,8.09999997 0.899999995,8.15036794 0.899999995,8.21249997 L0.899999995,9.78749996 C0.899999995,9.849632 0.84963203,9.89999996 0.787499996,9.89999996 L0.112499999,9.89999996 C0.0503679654,9.89999996 0,9.849632 0,9.78749996 L0,8.21249997 C0,8.15036794 0.0503679654,8.09999997 0.112499999,8.09999997 Z M0.112499999,10.8 L0.787499996,10.8 C0.84963203,10.8 0.899999995,10.8503679 0.899999995,10.9125 L0.899999995,12.4875 C0.899999995,12.549632 0.84963203,12.5999999 0.787499996,12.5999999 L0.112499999,12.5999999 C0.0503679654,12.5999999 0,12.549632 0,12.4875 L0,10.9125 C0,10.8503679 0.0503679654,10.8 0.112499999,10.8 Z M0.112499999,13.4999999 L0.787499996,13.4999999 C0.84963203,13.4999999 0.899999995,13.5503679 0.899999995,13.6124999 L0.899999995,15.1874999 C0.899999995,15.249632 0.84963203,15.2999999 0.787499996,15.2999999 L0.112499999,15.2999999 C0.0503679654,15.2999999 0,15.249632 0,15.1874999 L0,13.6124999 C0,13.5503679 0.0503679654,13.4999999 0.112499999,13.4999999 Z M1.91249999,1.35641355e-08 L3.48749998,1.35641355e-08 C3.54963202,1.35641355e-08 3.59999998,0.0503679789 3.59999998,0.112500013 L3.59999998,0.78750001 C3.59999998,0.849632044 3.54963202,0.900000009 3.48749998,0.900000009 L1.91249999,0.900000009 C1.85036796,0.900000009 1.79999999,0.849632044 1.79999999,0.78750001 L1.79999999,0.112500013 C1.79999999,0.0503679789 1.85036796,1.35641355e-08 1.91249999,1.35641355e-08 Z M5.51249997,2.7 L6.18749997,2.7 C6.249632,2.7 6.29999997,2.75036797 6.29999997,2.8125 L6.29999997,4.38749999 C6.29999997,4.44963203 6.249632,4.49999999 6.18749997,4.49999999 L5.51249997,4.49999999 C5.45036794,4.49999999 5.39999997,4.44963203 5.39999997,4.38749999 L5.39999997,2.8125 C5.39999997,2.75036797 5.45036794,2.7 5.51249997,2.7 Z M5.51249997,5.39999999 L6.18749997,5.39999999 C6.249632,5.39999999 6.29999997,5.45036795 6.29999997,5.51249999 L6.29999997,7.08749998 C6.29999997,7.14963201 6.249632,7.19999998 6.18749997,7.19999998 L5.51249997,7.19999998 C5.45036794,7.19999998 5.39999997,7.14963201 5.39999997,7.08749998 L5.39999997,5.51249999 C5.39999997,5.45036795 5.45036794,5.39999999 5.51249997,5.39999999 Z M5.51249997,8.09999997 L6.18749997,8.09999997 C6.249632,8.09999997 6.29999997,8.15036794 6.29999997,8.21249997 L6.29999997,9.78749996 C6.29999997,9.849632 6.249632,9.89999996 6.18749997,9.89999996 L5.51249997,9.89999996 C5.45036794,9.89999996 5.39999997,9.849632 5.39999997,9.78749996 L5.39999997,8.21249997 C5.39999997,8.15036794 5.45036794,8.09999997 5.51249997,8.09999997 Z M8.21249996,11.7 L9.78749995,11.7 C9.84963198,11.7 9.89999995,11.7503679 9.89999995,11.8125 L9.89999995,12.4875 C9.89999995,12.549632 9.84963198,12.5999999 9.78749995,12.5999999 L8.21249996,12.5999999 C8.15036792,12.5999999 8.09999996,12.549632 8.09999996,12.4875 L8.09999996,11.8125 C8.09999996,11.7503679 8.15036792,11.7 8.21249996,11.7 Z M10.9124999,11.7 L12.4874999,11.7 C12.549632,11.7 12.5999999,11.7503679 12.5999999,11.8125 L12.5999999,12.4875 C12.5999999,12.549632 12.549632,12.5999999 12.4874999,12.5999999 L10.9124999,12.5999999 C10.8503679,12.5999999 10.7999999,12.549632 10.7999999,12.4875 L10.7999999,11.8125 C10.7999999,11.7503679 10.8503679,11.7 10.9124999,11.7 Z M13.6124999,11.7 L15.1874999,11.7 C15.249632,11.7 15.2999999,11.7503679 15.2999999,11.8125 L15.2999999,12.4875 C15.2999999,12.549632 15.249632,12.5999999 15.1874999,12.5999999 L13.6124999,12.5999999 C13.5503679,12.5999999 13.4999999,12.549632 13.4999999,12.4875 L13.4999999,11.8125 C13.4999999,11.7503679 13.5503679,11.7 13.6124999,11.7 Z M17.2124999,14.3999999 L17.8874999,14.3999999 C17.9496319,14.3999999 17.9999999,14.4503679 17.9999999,14.5124999 L17.9999999,16.0874999 C17.9999999,16.149632 17.9496319,16.1999999 17.8874999,16.1999999 L17.2124999,16.1999999 C17.1503679,16.1999999 17.0999999,16.149632 17.0999999,16.0874999 L17.0999999,14.5124999 C17.0999999,14.4503679 17.1503679,14.3999999 17.2124999,14.3999999 Z M16.3124999,17.0999999 L17.8874999,17.0999999 C17.9496319,17.0999999 17.9999999,17.1503679 17.9999999,17.2124999 L17.9999999,17.8874999 C17.9999999,17.949632 17.9496319,17.9999999 17.8874999,17.9999999 L16.3124999,17.9999999 C16.2503679,17.9999999 16.1999999,17.949632 16.1999999,17.8874999 L16.1999999,17.2124999 C16.1999999,17.1503679 16.2503679,17.0999999 16.3124999,17.0999999 Z M13.6124999,17.0999999 L15.1874999,17.0999999 C15.249632,17.0999999 15.2999999,17.1503679 15.2999999,17.2124999 L15.2999999,17.8874999 C15.2999999,17.949632 15.249632,17.9999999 15.1874999,17.9999999 L13.6124999,17.9999999 C13.5503679,17.9999999 13.4999999,17.949632 13.4999999,17.8874999 L13.4999999,17.2124999 C13.4999999,17.1503679 13.5503679,17.0999999 13.6124999,17.0999999 Z M10.9124999,17.0999999 L12.4874999,17.0999999 C12.549632,17.0999999 12.5999999,17.1503679 12.5999999,17.2124999 L12.5999999,17.8874999 C12.5999999,17.949632 12.549632,17.9999999 12.4874999,17.9999999 L10.9124999,17.9999999 C10.8503679,17.9999999 10.7999999,17.949632 10.7999999,17.8874999 L10.7999999,17.2124999 C10.7999999,17.1503679 10.8503679,17.0999999 10.9124999,17.0999999 Z M8.21249996,17.0999999 L9.78749995,17.0999999 C9.84963198,17.0999999 9.89999995,17.1503679 9.89999995,17.2124999 L9.89999995,17.8874999 C9.89999995,17.949632 9.84963198,17.9999999 9.78749995,17.9999999 L8.21249996,17.9999999 C8.15036792,17.9999999 8.09999996,17.949632 8.09999996,17.8874999 L8.09999996,17.2124999 C8.09999996,17.1503679 8.15036792,17.0999999 8.21249996,17.0999999 Z M5.51249997,17.0999999 L7.08749996,17.0999999 C7.149632,17.0999999 7.19999996,17.1503679 7.19999996,17.2124999 L7.19999996,17.8874999 C7.19999996,17.949632 7.149632,17.9999999 7.08749996,17.9999999 L5.51249997,17.9999999 C5.45036794,17.9999999 5.39999997,17.949632 5.39999997,17.8874999 L5.39999997,17.2124999 C5.39999997,17.1503679 5.45036794,17.0999999 5.51249997,17.0999999 Z M2.81249999,17.0999999 L4.38749998,17.0999999 C4.44963201,17.0999999 4.49999998,17.1503679 4.49999998,17.2124999 L4.49999998,17.8874999 C4.49999998,17.949632 4.44963201,17.9999999 4.38749998,17.9999999 L2.81249999,17.9999999 C2.75036795,17.9999999 2.69999999,17.949632 2.69999999,17.8874999 L2.69999999,17.2124999 C2.69999999,17.1503679 2.75036795,17.0999999 2.81249999,17.0999999 Z" id="Shape" fill="currentColor" fill-rule="nonzero"></path>
    </g>
</svg>