<?xml version="1.0" encoding="UTF-8"?>
<svg width="1em" height="1em" viewBox="0 0 18 18" version="1.1" xmlns="http://www.w3.org/2000/svg" xmlns:xlink="http://www.w3.org/1999/xlink">
    <!-- Generator: Sketch 53.2 (72643) - https://sketchapp.com -->
    <title>intersect</title>
    <desc>Created with Sketch.</desc>
    <g id="intersect" stroke="none" stroke-width="1" fill="none" fill-rule="evenodd">
        <path d="M6.42857143,6.42857143 L6.42857143,7.17857143 C6.42857143,7.23774479 6.38060194,7.28571429 6.32142857,7.28571429 L5.67857143,7.28571429 C5.61939806,7.28571429 5.57142857,7.23774479 5.57142857,7.17857143 L5.57142857,5.67857143 C5.57142857,5.61939806 5.61939806,5.57142857 5.67857143,5.57142857 L7.17857143,5.57142857 C7.23774479,5.57142857 7.28571429,5.61939806 7.28571429,5.67857143 L7.28571429,6.32142857 C7.28571429,6.38060194 7.23774479,6.42857143 7.17857143,6.42857143 L6.42857143,6.42857143 Z M6.42857143,11.5714286 L7.17857143,11.5714286 C7.23774479,11.5714286 7.28571429,11.6193981 7.28571429,11.6785714 L7.28571429,12.3214286 C7.28571429,12.3806019 7.23774479,12.4285714 7.17857143,12.4285714 L5.67857143,12.4285714 C5.61939806,12.4285714 5.57142857,12.3806019 5.57142857,12.3214286 L5.57142857,10.8214286 C5.57142857,10.7622552 5.61939806,10.7142857 5.67857143,10.7142857 L6.32142857,10.7142857 C6.38060194,10.7142857 6.42857143,10.7622552 6.42857143,10.8214286 L6.42857143,11.5714286 Z M12.39719,12.39719 C12.377801,12.4165791 12.3510153,12.4285714 12.3214286,12.4285714 L10.8214286,12.4285714 C10.7622552,12.4285714 10.7142857,12.3806019 10.7142857,12.3214286 L10.7142857,11.6785714 C10.7142857,11.6193981 10.7622552,11.5714286 10.8214286,11.5714286 L11.5714286,11.5714286 L11.5714286,10.8214286 C11.5714286,10.7622552 11.6193981,10.7142857 11.6785714,10.7142857 L12.3214286,10.7142857 C12.3806019,10.7142857 12.4285714,10.7622552 12.4285714,10.8214286 L12.4285714,12.3214286 C12.4285714,12.3510153 12.4165791,12.377801 12.39719,12.39719 L12.39719,12.39719 Z M12.39719,5.60280999 C12.4165791,5.62219903 12.4285714,5.64898475 12.4285714,5.67857143 L12.4285714,7.17857143 C12.4285714,7.23774479 12.3806019,7.28571429 12.3214286,7.28571429 L11.6785714,7.28571429 C11.6193981,7.28571429 11.5714286,7.23774479 11.5714286,7.17857143 L11.5714286,6.42857143 L10.8214286,6.42857143 C10.7622552,6.42857143 10.7142857,6.38060194 10.7142857,6.32142857 L10.7142857,5.67857143 C10.7142857,5.61939806 10.7622552,5.57142857 10.8214286,5.57142857 L12.3214286,5.57142857 C12.3510153,5.57142857 12.377801,5.58342094 12.39719,5.60280999 L12.39719,5.60280999 Z M4.81724152,5.14285714 C4.7662844,5.14285714 4.71428571,5.18895203 4.71428571,5.24581294 L4.71428571,13.1827585 C4.71428571,13.2337156 4.7603806,13.2857143 4.81724152,13.2857143 L12.7541871,13.2857143 C12.8051442,13.2857143 12.8571429,13.2396194 12.8571429,13.1827585 L12.8571429,17.8888493 C12.8571429,17.9502361 12.8105874,18 12.7459921,18 L0.111150742,18 C0.0497638821,18 0,17.9534445 0,17.8888493 L0,5.25400788 C0,5.19262102 0.046555485,5.14285714 0.111150742,5.14285714 L4.81724152,5.14285714 Z M13.1827585,12.8571429 C13.2337156,12.8571429 13.2857143,12.811048 13.2857143,12.7541871 L13.2857143,4.81724152 C13.2857143,4.7662844 13.2396194,4.71428571 13.1827585,4.71428571 L5.24581294,4.71428571 C5.19485583,4.71428571 5.14285714,4.7603806 5.14285714,4.81724152 L5.14285714,0.111150742 C5.14285714,0.0497638821 5.18941263,0 5.25400788,0 L17.8888493,0 C17.9502361,0 18,0.046555485 18,0.111150742 L18,12.7459921 C18,12.807379 17.9534445,12.8571429 17.8888493,12.8571429 L13.1827585,12.8571429 Z M8.25,5.57142857 L9.75,5.57142857 C9.80917337,5.57142857 9.85714286,5.61939806 9.85714286,5.67857143 L9.85714286,6.32142857 C9.85714286,6.38060194 9.80917337,6.42857143 9.75,6.42857143 L8.25,6.42857143 C8.19082663,6.42857143 8.14285714,6.38060194 8.14285714,6.32142857 L8.14285714,5.67857143 C8.14285714,5.61939806 8.19082663,5.57142857 8.25,5.57142857 Z M11.6785714,8.14285714 L12.3214286,8.14285714 C12.3806019,8.14285714 12.4285714,8.19082663 12.4285714,8.25 L12.4285714,9.75 C12.4285714,9.80917337 12.3806019,9.85714286 12.3214286,9.85714286 L11.6785714,9.85714286 C11.6193981,9.85714286 11.5714286,9.80917337 11.5714286,9.75 L11.5714286,8.25 C11.5714286,8.19082663 11.6193981,8.14285714 11.6785714,8.14285714 Z M8.25,11.5714286 L9.75,11.5714286 C9.80917337,11.5714286 9.85714286,11.6193981 9.85714286,11.6785714 L9.85714286,12.3214286 C9.85714286,12.3806019 9.80917337,12.4285714 9.75,12.4285714 L8.25,12.4285714 C8.19082663,12.4285714 8.14285714,12.3806019 8.14285714,12.3214286 L8.14285714,11.6785714 C8.14285714,11.6193981 8.19082663,11.5714286 8.25,11.5714286 Z M5.67857143,8.14285714 L6.32142857,8.14285714 C6.38060194,8.14285714 6.42857143,8.19082663 6.42857143,8.25 L6.42857143,9.75 C6.42857143,9.80917337 6.38060194,9.85714286 6.32142857,9.85714286 L5.67857143,9.85714286 C5.61939806,9.85714286 5.57142857,9.80917337 5.57142857,9.75 L5.57142857,8.25 C5.57142857,8.19082663 5.61939806,8.14285714 5.67857143,8.14285714 Z" id="Shape" fill="currentColor" fill-rule="nonzero"></path>
    </g>
</svg>