<?xml version="1.0" encoding="UTF-8"?>
<svg width="1em" height="1em" viewBox="0 0 18 18" version="1.1" xmlns="http://www.w3.org/2000/svg" xmlns:xlink="http://www.w3.org/1999/xlink">
    <!-- Generator: Sketch 53.2 (72643) - https://sketchapp.com -->
    <title>integration</title>
    <desc>Created with Sketch.</desc>
    <g id="integration" stroke="none" stroke-width="1" fill="none" fill-rule="evenodd">
        <path d="M1.43246073,13.18125 C0.885863874,13.66875 0.0376963351,13.40625 0,12.525 C0.0376963351,11.64375 0.885863874,11.38125 1.43246073,11.86875 C1.77172775,12.16875 2.24293194,12.0375 2.24293194,11.45625 L2.24293194,10.06875 C2.24293194,9.65625 2.58219895,9.31875 2.99685864,9.31875 L4.37277487,9.31875 C4.95706806,9.31875 5.07015707,8.83125 4.78743455,8.5125 C4.2973822,7.96875 4.56125654,7.125 5.44712042,7.0875 C6.33298429,7.125 6.59685864,7.96875 6.10680628,8.5125 C5.8052356,8.85 5.93717277,9.31875 6.52146597,9.31875 L7.91623037,9.31875 C8.33089005,9.31875 8.67015707,9.65625 8.67015707,10.06875 L8.67015707,10.0875 L8.67015707,10.0875 L8.67015707,11.1 C8.44397906,10.9875 8.19895288,10.93125 7.9539267,10.93125 C7.10575916,10.93125 6.4460733,11.5875 6.40837696,12.50625 L6.40837696,12.54375 L6.40837696,12.58125 C6.4460733,13.5 7.08691099,14.15625 7.9539267,14.15625 C8.19895288,14.15625 8.44397906,14.1 8.67015707,13.9875 L8.67015707,14.94375 C8.67015707,15.35625 8.33089005,15.69375 7.91623037,15.69375 L6.54031414,15.69375 C5.95602094,15.69375 5.84293194,16.1625 6.12565445,16.5 C6.61570681,17.04375 6.35183246,17.8875 5.46596859,17.90625 C4.58010471,17.86875 4.31623037,17.025 4.80628272,16.48125 C5.1078534,16.14375 4.97591623,15.675 4.39162304,15.675 L3.01570681,15.675 C2.60104712,15.675 2.2617801,15.3375 2.2617801,14.925 L2.2617801,13.55625 C2.2617801,13.0125 1.77172775,12.88125 1.43246073,13.18125 Z M4.37277487,2.2875 L2.99685864,2.2875 C2.58219895,2.2875 2.24293194,2.625 2.24293194,3.0375 L2.24293194,4.40625 C2.24293194,4.9875 1.77172775,5.1 1.43246073,4.81875 C0.904712042,4.3125 0.0565445026,4.575 0.0188481675,5.4375 C0.0565445026,6.31875 0.885863874,6.58125 1.43246073,6.09375 C1.77172775,5.79375 2.24293194,5.925 2.24293194,6.50625 L2.24293194,7.875 C2.24293194,8.2875 2.58219895,8.625 2.99685864,8.625 L3.95811518,8.625 C3.84502618,8.4 3.78848168,8.15625 3.78848168,7.9125 C3.78848168,7.06875 4.44816754,6.4125 5.37172775,6.375 L5.40942408,6.375 L5.44712042,6.375 C6.37068063,6.4125 7.03036649,7.05 7.03036649,7.9125 C7.03036649,8.15625 6.97382199,8.4 6.86073298,8.625 L7.87853403,8.625 L7.87853403,8.625 L7.8973822,8.625 C8.31204188,8.625 8.6513089,8.2875 8.6513089,7.875 L8.6513089,6.4875 C8.6513089,5.90625 9.12251309,5.79375 9.4617801,6.075 C10.008377,6.5625 10.8565445,6.3 10.8942408,5.41875 C10.8565445,4.5375 10.0272251,4.275 9.4617801,4.7625 C9.12251309,5.0625 8.6513089,4.93125 8.6513089,4.35 L8.6513089,2.98125 C8.6513089,2.56875 8.31204188,2.23125 7.8973822,2.23125 L6.5026178,2.23125 C5.91832461,2.23125 5.8052356,1.74375 6.08795812,1.425 C6.57801047,0.88125 6.31413613,0.0375 5.42827225,0 C4.54240838,0.0375 4.27853403,0.88125 4.76858639,1.425 C5.08900524,1.8 4.95706806,2.2875 4.37277487,2.2875 Z M9.32984293,3.0375 L9.32984293,3.99375 C9.55602094,3.88125 9.80104712,3.825 10.0460733,3.825 C10.8942408,3.825 11.5539267,4.48125 11.591623,5.4 L11.591623,5.4375 L11.591623,5.475 C11.5539267,6.39375 10.913089,7.05 10.0460733,7.05 C9.80104712,7.05 9.55602094,6.99375 9.32984293,6.88125 L9.32984293,7.875 L9.32984293,7.875 L9.32984293,7.89375 C9.32984293,8.30625 9.66910995,8.64375 10.0837696,8.64375 L11.478534,8.64375 C12.0628272,8.64375 12.1759162,9.1125 11.8931937,9.45 C11.4031414,9.99375 11.6670157,10.8375 12.5528796,10.875 C13.4387435,10.8375 13.7026178,10.0125 13.2125654,9.45 C12.9109948,9.1125 13.0429319,8.64375 13.6272251,8.64375 L15.0031414,8.64375 C15.417801,8.64375 15.7570681,8.30625 15.7570681,7.89375 L15.7570681,6.50625 C15.7570681,5.925 16.2471204,5.8125 16.5675393,6.09375 C17.1141361,6.58125 17.9623037,6.31875 18,5.4375 C17.9623037,4.55625 17.1141361,4.29375 16.5675393,4.78125 C16.2282723,5.08125 15.7570681,4.95 15.7570681,4.36875 L15.7570681,3 C15.7570681,2.5875 15.417801,2.25 15.0031414,2.25 L13.6272251,2.25 C13.0429319,2.25 12.9298429,1.78125 13.2125654,1.44375 C13.7026178,0.9 13.4387435,0.05625 12.5528796,0.01875 C11.6670157,0.05625 11.4031414,0.88125 11.8931937,1.425 C12.1947644,1.7625 12.0628272,2.23125 11.478534,2.23125 L10.1026178,2.23125 C9.66910995,2.26875 9.32984293,2.60625 9.32984293,3.0375 Z M13.608377,15.7125 L14.9842932,15.7125 C15.3989529,15.7125 15.7382199,15.375 15.7382199,14.9625 L15.7382199,13.59375 C15.7382199,13.0125 16.2094241,12.9 16.5486911,13.18125 C17.095288,13.66875 17.9434555,13.40625 17.9811518,12.525 C17.9434555,11.64375 17.1141361,11.38125 16.5675393,11.86875 C16.2282723,12.16875 15.7570681,12.0375 15.7570681,11.45625 L15.7570681,10.125 C15.7570681,9.7125 15.417801,9.375 15.0031414,9.375 L14.0418848,9.375 C14.1549738,9.6 14.2115183,9.84375 14.2115183,10.0875 C14.2115183,10.93125 13.5518325,11.5875 12.6282723,11.625 L12.5905759,11.625 L12.5528796,11.625 C11.6293194,11.5875 10.9696335,10.95 10.9696335,10.0875 C10.9696335,9.84375 11.026178,9.6 11.139267,9.375 L10.121466,9.375 L10.121466,9.375 L10.1026178,9.375 C9.68795812,9.375 9.3486911,9.7125 9.3486911,10.125 L9.3486911,11.5125 C9.3486911,12.09375 8.87748691,12.20625 8.5382199,11.925 C7.99162304,11.4375 7.1434555,11.7 7.10575916,12.58125 C7.1434555,13.4625 7.97277487,13.725 8.5382199,13.2375 C8.87748691,12.9375 9.3486911,13.06875 9.3486911,13.65 L9.3486911,15.01875 C9.3486911,15.43125 9.68795812,15.76875 10.1026178,15.76875 L11.4973822,15.76875 C12.0816754,15.76875 12.1947644,16.25625 11.9120419,16.575 C11.4219895,17.11875 11.6858639,17.9625 12.5717277,18 C13.4575916,17.9625 13.721466,17.11875 13.2314136,16.575 C12.9109948,16.2 13.0429319,15.7125 13.608377,15.7125 Z" id="Shape" fill="currentColor" fill-rule="nonzero"></path>
    </g>
</svg>