<?xml version="1.0" encoding="UTF-8"?>
<svg width="1em" height="1em" viewBox="0 0 18 18" version="1.1" xmlns="http://www.w3.org/2000/svg" xmlns:xlink="http://www.w3.org/1999/xlink">
    <!-- Generator: Sketch 53.2 (72643) - https://sketchapp.com -->
    <title>integer</title>
    <desc>Created with Sketch.</desc>
    <g id="integer" stroke="none" stroke-width="1" fill="none" fill-rule="evenodd">
        <path d="M0,0 L18,0 L18,18 L0,18 L0,0 Z M4.30971429,5.97257143 L2.04685714,7.392 L2.48914286,8.19428571 L3.44571429,7.608 L3.44571429,13.2857143 L4.41257143,13.2857143 L4.41257143,5.97257143 L4.30971429,5.97257143 Z M5.69828571,13.2857143 L10.1417143,13.2857143 L10.1417143,12.3394286 L7.50857143,12.3394286 C8.00228571,11.7222857 8.50628571,11.1051429 8.98971429,10.488 C9.56571429,9.75771429 10.0594286,9.048 10.0594286,8.14285714 C10.0594286,7.01142857 9.16457143,5.952 7.78628571,5.952 C6.39771429,5.952 5.544,7.02171429 5.472,8.17371429 L6.37714286,8.43085714 C6.42857143,7.56685714 6.984,6.91885714 7.78628571,6.91885714 C8.57828571,6.91885714 9.072,7.54628571 9.072,8.17371429 C9.072,8.94514286 8.568,9.552 8.02285714,10.2308571 C7.23085714,11.2388571 6.48,12.2057143 5.69828571,13.1725714 L5.69828571,13.2857143 Z M13.6594286,8.65714286 L15.3257143,6.816 L15.3257143,6.08571429 L11.304,6.08571429 L11.304,7.05257143 L13.9165714,7.05257143 L11.8697143,9.35657143 L12.3222857,9.84 C12.6411429,9.66514286 12.9394286,9.54171429 13.3508571,9.54171429 C14.184,9.54171429 14.8217143,10.1485714 14.8217143,10.9714286 C14.8217143,11.784 14.2148571,12.4217143 13.3714286,12.4217143 C12.5794286,12.4217143 12.0342857,11.8457143 11.8594286,11.1565714 L10.944,11.5577143 C11.2114286,12.504 12.0137143,13.3885714 13.3714286,13.3885714 C14.8525714,13.3885714 15.8194286,12.2262857 15.8194286,10.9714286 C15.8194286,9.79885714 14.9965714,8.79085714 13.6594286,8.65714286 Z" id="Shape" fill="currentColor" fill-rule="nonzero"></path>
    </g>
</svg>