<?xml version="1.0" encoding="UTF-8"?>
<svg width="1em" height="1em" viewBox="0 0 18 18" version="1.1" xmlns="http://www.w3.org/2000/svg" xmlns:xlink="http://www.w3.org/1999/xlink">
    <!-- Generator: Sketch 53.2 (72643) - https://sketchapp.com -->
    <title>js</title>
    <desc>Created with Sketch.</desc>
    <g id="js" stroke="none" stroke-width="1" fill="none" fill-rule="evenodd">
        <path d="M0.107142857,0 L17.8928571,0 C17.9520305,0 18,0.0479694911 18,0.107142857 L18,17.8928571 C18,17.9520305 17.9520305,18 17.8928571,18 L0.107142857,18 C0.0479694911,18 0,17.9520305 0,17.8928571 L0,0.107142857 C0,0.0479694911 0.0479694911,0 0.107142857,0 Z M6.312,12.9702857 C7.68,12.9702857 8.256,12.096 8.256,10.8411429 L8.256,5.65714286 L7.28914286,5.65714286 L7.28914286,10.8514286 C7.28914286,11.5508571 7.032,12.024 6.30171429,12.024 C5.94171429,12.024 5.56114286,11.8182857 5.25257143,11.4891429 L4.64571429,12.2194286 C5.05714286,12.6617143 5.67428571,12.9702857 6.312,12.9702857 Z M11.6708571,12.96 C13.0697143,12.96 13.9028571,12.0857143 13.9131429,11.0057143 C13.944,8.57828571 10.5497143,8.97942857 10.56,7.416 C10.56,6.88114286 11.0125714,6.49028571 11.6708571,6.49028571 C12.2365714,6.49028571 12.7508571,6.85028571 13.1005714,7.24114286 L13.7382857,6.58285714 C13.296,6.048 12.5657143,5.55428571 11.6502857,5.55428571 C10.4468571,5.55428571 9.57257143,6.36685714 9.56228571,7.40571429 C9.56228571,9.76114286 12.9257143,9.26742857 12.9257143,10.9954286 C12.9257143,11.5714286 12.4525714,12.0137143 11.7325714,12.0137143 C11.0845714,12.0137143 10.4777143,11.6125714 10.0765714,11.0365714 L9.36685714,11.7051429 C9.82971429,12.4148571 10.6937143,12.96 11.6708571,12.96 Z" id="Shape" fill="currentColor" fill-rule="nonzero"></path>
    </g>
</svg>