<?xml version="1.0" encoding="UTF-8"?>
<svg width="1em" height="1em" viewBox="0 0 18 18" version="1.1" xmlns="http://www.w3.org/2000/svg" xmlns:xlink="http://www.w3.org/1999/xlink">
    <!-- Generator: Sketch 53.2 (72643) - https://sketchapp.com -->
    <title>justify-left</title>
    <desc>Created with Sketch.</desc>
    <g id="justify-left" stroke="none" stroke-width="1" fill="none" fill-rule="evenodd">
        <path d="M0.25,0 L17.75,0 C17.8880712,-2.53632657e-17 18,0.111928813 18,0.25 L18,3.75 C18,3.88807119 17.8880712,4 17.75,4 L0.25,4 C0.111928813,4 1.69088438e-17,3.88807119 0,3.75 L0,0.25 C-1.69088438e-17,0.111928813 0.111928813,2.53632657e-17 0.25,0 Z M0.25,7 L17.75,7 C17.8880712,7 18,7.11192881 18,7.25 L18,10.75 C18,10.8880712 17.8880712,11 17.75,11 L0.25,11 C0.111928813,11 1.69088438e-17,10.8880712 0,10.75 L0,7.25 C-1.69088438e-17,7.11192881 0.111928813,7 0.25,7 Z M0.25,14 L9.75,14 C9.88807119,14 10,14.1119288 10,14.25 L10,17.75 C10,17.8880712 9.88807119,18 9.75,18 L0.25,18 C0.111928813,18 -2.48689958e-14,17.8880712 -2.48689958e-14,17.75 L-2.48689958e-14,14.25 C-2.48689958e-14,14.1119288 0.111928813,14 0.25,14 Z" id="Shape" fill="currentColor" fill-rule="nonzero"></path>
    </g>
</svg>