<?xml version="1.0" encoding="UTF-8"?>
<svg width="1em" height="1em" viewBox="0 0 18 18" version="1.1" xmlns="http://www.w3.org/2000/svg" xmlns:xlink="http://www.w3.org/1999/xlink">
    <!-- Generator: Sketch 55 (78076) - https://sketchapp.com -->
    <title>keybinding</title>
    <desc>Created with Sketch.</desc>
    <g id="keybinding" stroke="none" stroke-width="1" fill="none" fill-rule="evenodd">
        <path d="M0.25,3 L17.75,3 C17.8880712,3 18,3.11192881 18,3.25 L18,14.75 C18,14.8880712 17.8880712,15 17.75,15 L0.25,15 C0.111928813,15 1.69088438e-17,14.8880712 0,14.75 L0,3.25 C-1.69088438e-17,3.11192881 0.111928813,3 0.25,3 Z M2.25,5 C2.11192881,5 2,5.11192881 2,5.25 L2,6.75 C2,6.88807119 2.11192881,7 2.25,7 L3.75,7 C3.88807119,7 4,6.88807119 4,6.75 L4,5.25 C4,5.11192881 3.88807119,5 3.75,5 L2.25,5 Z M2.25,8 C2.11192881,8 2,8.11192881 2,8.25 L2,9.75 C2,9.88807119 2.11192881,10 2.25,10 L3.75,10 C3.88807119,10 4,9.88807119 4,9.75 L4,8.25 C4,8.11192881 3.88807119,8 3.75,8 L2.25,8 Z M5.25,5 C5.11192881,5 5,5.11192881 5,5.25 L5,6.75 C5,6.88807119 5.11192881,7 5.25,7 L6.75,7 C6.88807119,7 7,6.88807119 7,6.75 L7,5.25 C7,5.11192881 6.88807119,5 6.75,5 L5.25,5 Z M5.25,8 C5.11192881,8 5,8.11192881 5,8.25 L5,9.75 C5,9.88807119 5.11192881,10 5.25,10 L6.75,10 C6.88807119,10 7,9.88807119 7,9.75 L7,8.25 C7,8.11192881 6.88807119,8 6.75,8 L5.25,8 Z M8.25,5 C8.11192881,5 8,5.11192881 8,5.25 L8,6.75 C8,6.88807119 8.11192881,7 8.25,7 L9.75,7 C9.88807119,7 10,6.88807119 10,6.75 L10,5.25 C10,5.11192881 9.88807119,5 9.75,5 L8.25,5 Z M8.25,8 C8.11192881,8 8,8.11192881 8,8.25 L8,9.75 C8,9.88807119 8.11192881,10 8.25,10 L9.75,10 C9.88807119,10 10,9.88807119 10,9.75 L10,8.25 C10,8.11192881 9.88807119,8 9.75,8 L8.25,8 Z M11.25,5 C11.1119288,5 11,5.11192881 11,5.25 L11,6.75 C11,6.88807119 11.1119288,7 11.25,7 L12.75,7 C12.8880712,7 13,6.88807119 13,6.75 L13,5.25 C13,5.11192881 12.8880712,5 12.75,5 L11.25,5 Z M11.25,8 C11.1119288,8 11,8.11192881 11,8.25 L11,9.75 C11,9.88807119 11.1119288,10 11.25,10 L12.75,10 C12.8880712,10 13,9.88807119 13,9.75 L13,8.25 C13,8.11192881 12.8880712,8 12.75,8 L11.25,8 Z M14.25,5 C14.1119288,5 14,5.11192881 14,5.25 L14,6.75 C14,6.88807119 14.1119288,7 14.25,7 L15.75,7 C15.8880712,7 16,6.88807119 16,6.75 L16,5.25 C16,5.11192881 15.8880712,5 15.75,5 L14.25,5 Z M14.25,8 C14.1119288,8 14,8.11192881 14,8.25 L14,9.75 C14,9.88807119 14.1119288,10 14.25,10 L15.75,10 C15.8880712,10 16,9.88807119 16,9.75 L16,8.25 C16,8.11192881 15.8880712,8 15.75,8 L14.25,8 Z M2.25,11 C2.11192881,11 2,11.1119288 2,11.25 L2,12.75 C2,12.8880712 2.11192881,13 2.25,13 L3.75,13 C3.88807119,13 4,12.8880712 4,12.75 L4,11.25 C4,11.1119288 3.88807119,11 3.75,11 L2.25,11 Z M5.25,11 C5.11192881,11 5,11.1119288 5,11.25 L5,12.75 C5,12.8880712 5.11192881,13 5.25,13 L12.75,13 C12.8880712,13 13,12.8880712 13,12.75 L13,11.25 C13,11.1119288 12.8880712,11 12.75,11 L5.25,11 Z M14.25,11 C14.1119288,11 14,11.1119288 14,11.25 L14,12.75 C14,12.8880712 14.1119288,13 14.25,13 L15.75,13 C15.8880712,13 16,12.8880712 16,12.75 L16,11.25 C16,11.1119288 15.8880712,11 15.75,11 L14.25,11 Z" id="Fill" fill="currentColor" fill-rule="nonzero"></path>
    </g>
</svg>