<?xml version="1.0" encoding="UTF-8"?>
<svg width="1em" height="1em" viewBox="0 0 18 18" version="1.1" xmlns="http://www.w3.org/2000/svg" xmlns:xlink="http://www.w3.org/1999/xlink">
    <!-- Generator: Sketch 53.2 (72643) - https://sketchapp.com -->
    <title>layout</title>
    <desc>Created with Sketch.</desc>
    <g id="layout" stroke="none" stroke-width="1" fill="none" fill-rule="evenodd">
        <path d="M0.28125,0 L17.71875,0 C17.8740801,-1.13222032e-15 18,0.125919914 18,0.28125 L18,3.71875 C18,3.87408009 17.8740801,4 17.71875,4 L0.28125,4 C0.125919914,4 1.90224492e-17,3.87408009 0,3.71875 L0,0.28125 C-1.90224492e-17,0.125919914 0.125919914,2.85336739e-17 0.28125,0 Z M0.28125,5 L4.71875,5 C4.87408009,5 5,5.12591991 5,5.28125 L5,17.71875 C5,17.8740801 4.87408009,18 4.71875,18 L0.28125,18 C0.125919914,18 1.90224492e-17,17.8740801 0,17.71875 L0,5.28125 C-1.90224492e-17,5.12591991 0.125919914,5 0.28125,5 Z M6.28125,5 L17.71875,5 C17.8740801,5 18,5.12591991 18,5.28125 L18,17.71875 C18,17.8740801 17.8740801,18 17.71875,18 L6.28125,18 C6.12591991,18 6,17.8740801 6,17.71875 L6,5.28125 C6,5.12591991 6.12591991,5 6.28125,5 Z" id="Shape" fill="currentColor" fill-rule="nonzero"></path>
    </g>
</svg>