<?xml version="1.0" encoding="UTF-8"?>
<svg width="1em" height="1em" viewBox="0 0 18 18" version="1.1" xmlns="http://www.w3.org/2000/svg" xmlns:xlink="http://www.w3.org/1999/xlink">
    <!-- Generator: Sketch 53.2 (72643) - https://sketchapp.com -->
    <title>library</title>
    <desc>Created with Sketch.</desc>
    <g id="library" stroke="none" stroke-width="1" fill="none" fill-rule="evenodd">
        <path d="M0.09375,6.75 L4.40625,6.75 C4.4580267,6.75 4.5,6.79843074 4.5,6.85817308 L4.5,17.8918269 C4.5,17.9515693 4.4580267,18 4.40625,18 L0.09375,18 C0.0419733047,18 0,17.9515693 0,17.8918269 L0,6.85817308 C0,6.79843074 0.0419733047,6.75 0.09375,6.75 Z M1.21875,15.75 C1.1669733,15.75 1.125,15.81296 1.125,15.890625 L1.125,16.734375 C1.125,16.81204 1.1669733,16.875 1.21875,16.875 L3.28125,16.875 C3.3330267,16.875 3.375,16.81204 3.375,16.734375 L3.375,15.890625 C3.375,15.81296 3.3330267,15.75 3.28125,15.75 L1.21875,15.75 Z M1.21875,13.5 C1.1669733,13.5 1.125,13.56296 1.125,13.640625 L1.125,14.484375 C1.125,14.56204 1.1669733,14.625 1.21875,14.625 L3.28125,14.625 C3.3330267,14.625 3.375,14.56204 3.375,14.484375 L3.375,13.640625 C3.375,13.56296 3.3330267,13.5 3.28125,13.5 L1.21875,13.5 Z M0.09375,2.25 L4.40625,2.25 C4.4580267,2.25 4.5,2.31295996 4.5,2.390625 L4.5,5.484375 C4.5,5.56204004 4.4580267,5.625 4.40625,5.625 L0.09375,5.625 C0.0419733047,5.625 0,5.56204004 0,5.484375 L0,2.390625 C0,2.31295996 0.0419733047,2.25 0.09375,2.25 Z M6.84375,4.5 L11.15625,4.5 C11.2080267,4.5 11.25,4.54578906 11.25,4.60227273 L11.25,17.8977273 C11.25,17.9542109 11.2080267,18 11.15625,18 L6.84375,18 C6.7919733,18 6.75,17.9542109 6.75,17.8977273 L6.75,4.60227273 C6.75,4.54578906 6.7919733,4.5 6.84375,4.5 Z M7.96875,13.5 C7.9169733,13.5 7.875,13.5419733 7.875,13.59375 L7.875,15.65625 C7.875,15.7080267 7.9169733,15.75 7.96875,15.75 L10.03125,15.75 C10.0830267,15.75 10.125,15.7080267 10.125,15.65625 L10.125,13.59375 C10.125,13.5419733 10.0830267,13.5 10.03125,13.5 L7.96875,13.5 Z M6.84375,0 L11.15625,0 C11.2080267,0 11.25,0.0629599571 11.25,0.140625 L11.25,3.234375 C11.25,3.31204004 11.2080267,3.375 11.15625,3.375 L6.84375,3.375 C6.7919733,3.375 6.75,3.31204004 6.75,3.234375 L6.75,0.140625 C6.75,0.0629599571 6.7919733,0 6.84375,0 Z M13.59375,7.875 L17.90625,7.875 C17.9580267,7.875 18,7.92427301 18,7.98505435 L18,17.8899457 C18,17.950727 17.9580267,18 17.90625,18 L13.59375,18 C13.5419733,18 13.5,17.950727 13.5,17.8899457 L13.5,7.98505435 C13.5,7.92427301 13.5419733,7.875 13.59375,7.875 Z M13.59375,3.375 L17.90625,3.375 C17.9580267,3.375 18,3.43795996 18,3.515625 L18,6.609375 C18,6.68704004 17.9580267,6.75 17.90625,6.75 L13.59375,6.75 C13.5419733,6.75 13.5,6.68704004 13.5,6.609375 L13.5,3.515625 C13.5,3.43795996 13.5419733,3.375 13.59375,3.375 Z" id="Shape" fill="currentColor" fill-rule="nonzero"></path>
    </g>
</svg>