<?xml version="1.0" encoding="UTF-8"?>
<svg width="1em" height="1em" viewBox="0 0 18 18" version="1.1" xmlns="http://www.w3.org/2000/svg" xmlns:xlink="http://www.w3.org/1999/xlink">
    <!-- Generator: Sketch 53.2 (72643) - https://sketchapp.com -->
    <title>list-view</title>
    <desc>Created with Sketch.</desc>
    <g id="list-view" stroke="none" stroke-width="1" fill="none" fill-rule="evenodd">
        <path d="M0.25,15 L17.75,15 C17.8880712,15 18,15.1119288 18,15.25 L18,17.75 C18,17.8880712 17.8880712,18 17.75,18 L0.25,18 C0.111928813,18 2.62172542e-16,17.8880712 0,17.75 L0,15.25 C-1.69088438e-17,15.1119288 0.111928813,15 0.25,15 Z M0.25,10 L17.75,10 C17.8880712,10 18,10.1119288 18,10.25 L18,12.75 C18,12.8880712 17.8880712,13 17.75,13 L0.25,13 C0.111928813,13 2.62172542e-16,12.8880712 0,12.75 L0,10.25 C-1.69088438e-17,10.1119288 0.111928813,10 0.25,10 Z M0.25,5 L17.75,5 C17.8880712,5 18,5.11192881 18,5.25 L18,7.75 C18,7.88807119 17.8880712,8 17.75,8 L0.25,8 C0.111928813,8 2.62172542e-16,7.88807119 0,7.75 L0,5.25 C-1.69088438e-17,5.11192881 0.111928813,5 0.25,5 Z M0.25,2.13162821e-14 L17.75,2.13162821e-14 C17.8880712,2.13162821e-14 18,0.111928813 18,0.25 L18,2.75 C18,2.88807119 17.8880712,3 17.75,3 L0.25,3 C0.111928813,3 2.62172542e-16,2.88807119 0,2.75 L0,0.25 C-1.69088438e-17,0.111928813 0.111928813,2.13162821e-14 0.25,2.13162821e-14 Z" id="Shape" fill="currentColor" fill-rule="nonzero"></path>
    </g>
</svg>