<?xml version="1.0" encoding="UTF-8"?>
<svg width="1em" height="1em" viewBox="0 0 18 18" version="1.1" xmlns="http://www.w3.org/2000/svg" xmlns:xlink="http://www.w3.org/1999/xlink">
    <!-- Generator: Sketch 53.2 (72643) - https://sketchapp.com -->
    <title>map-o</title>
    <desc>Created with Sketch.</desc>
    <g id="map-o" stroke="none" stroke-width="1" fill="none" fill-rule="evenodd">
        <path d="M5,0.250035517 L5,14.9896804 C5,15.0766468 4.95480542,15.1573643 4.88066246,15.2028173 L0.380662464,17.9615193 C0.262950228,18.0336822 0.109026028,17.9967572 0.0368631416,17.8790449 C0.0127581867,17.8397249 7.44328837e-16,17.7945031 8.32667268e-17,17.7483825 L0,3.00873757 C1.4383299e-16,2.92177121 0.0451945838,2.84105367 0.119337536,2.79560072 L4.61933754,0.0368986589 C4.73704977,-0.0352642275 4.89097397,0.00166081642 4.96313686,0.119373053 C4.98724181,0.158693101 5,0.20391486 5,0.250035517 Z M12,3.05240246 L12,17.7456331 C12,17.8861161 11.8880712,18 11.75,18 C11.7111887,18 11.6729105,17.9908059 11.6381966,17.9731458 L6.1381966,15.1751102 C6.05350059,15.1320225 6,15.0439446 6,14.9475975 L6,0.254366871 C6,0.113883927 6.11192881,-1.81562153e-14 6.25,-1.81844557e-14 C6.28881127,-1.81844557e-14 6.32708954,0.00919411391 6.3618034,0.0268542251 L11.8618034,2.82488981 C11.9464994,2.86797753 12,2.95605539 12,3.05240246 Z M18,0.255471806 L18,14.9858495 C18,15.0755737 17.9539253,15.158719 17.8786239,15.2048817 L13.3786239,17.9635604 C13.2602289,18.0361412 13.1066638,17.9969156 13.0356268,17.8759475 C13.0123145,17.8362492 13,17.7908239 13,17.7445282 L13,3.01429917 C13,2.92457714 13.0460725,2.84143356 13.121371,2.79527013 L17.621371,0.0364427622 C17.7397643,-0.0361409909 17.8933303,0.0030808945 17.9643702,0.124047295 C17.9876844,0.163746752 18,0.209174021 18,0.255471806 Z" id="Shape" fill="currentColor" fill-rule="nonzero"></path>
    </g>
</svg>