<?xml version="1.0" encoding="UTF-8"?>
<svg width="1em" height="1em" viewBox="0 0 18 18" version="1.1" xmlns="http://www.w3.org/2000/svg" xmlns:xlink="http://www.w3.org/1999/xlink">
    <!-- Generator: Sketch 53.2 (72643) - https://sketchapp.com -->
    <title>math</title>
    <desc>Created with Sketch.</desc>
    <g id="math" stroke="none" stroke-width="1" fill="none" fill-rule="evenodd">
        <path d="M0.0675168792,0.0257142857 C0.0945236309,0.00857142857 2.81770443,0 8.23705926,0 L16.3660915,0 L17.1492873,1.73571429 C17.6804201,2.91857143 17.963991,3.54428571 18,3.61285714 L17.459865,3.61285714 L17.3653413,3.43285714 C17.1762941,3.08142857 16.9242311,2.74714286 16.6091523,2.43 C16.1590398,2.01857143 15.6594149,1.68857143 15.1102776,1.44 C14.5611403,1.19142857 13.9264816,1.00714286 13.2063016,0.887142857 C12.4861215,0.767142857 11.8064516,0.694285714 11.1672918,0.668571429 C10.528132,0.642857143 9.70442611,0.625714286 8.69617404,0.617142857 L2.64666167,0.617142857 L2.75468867,0.758571429 C6.92273068,6.18428571 9.01575394,8.92285714 9.03375844,8.97428571 C9.04276069,8.99142857 9.04276069,9.01714286 9.03375844,9.05142857 C9.00675169,9.07714286 7.81845461,10.3714286 5.46886722,12.9342857 L1.90397599,16.7914286 C1.90397599,16.8 2.85371343,16.8042857 4.7531883,16.8042857 L6.65716429,16.8042857 C7.45836459,16.8042857 8.03450863,16.8085714 8.3855964,16.8171429 C9.60990248,16.8171429 10.60015,16.7957143 11.3563391,16.7528571 C12.1125281,16.71 12.8642161,16.62 13.6114029,16.4828571 C14.3585896,16.3457143 14.9932483,16.1357143 15.5153788,15.8528571 C16.0375094,15.57 16.5011253,15.1971429 16.9062266,14.7342857 C17.0952738,14.5114286 17.27982,14.2028571 17.459865,13.8085714 L18,13.8085714 C18,13.8171429 17.9684921,13.9071429 17.9054764,14.0785714 C17.8424606,14.25 17.7299325,14.5285714 17.567892,14.9142857 C17.4058515,15.3 17.2663166,15.66 17.1492873,15.9942857 L16.3660915,17.9871429 L8.25056264,18 C2.8312078,18 0.108027007,17.9914286 0.0810202551,17.9742857 C0.0270067517,17.9571429 3.55271368e-15,17.9185714 3.55271368e-15,17.8585714 C3.55271368e-15,17.8414286 0.00900225056,17.8157143 0.0270067517,17.7814286 L7.22430608,9.93857143 C7.22430608,9.93 7.07576894,9.73714286 6.77869467,9.36 C6.48162041,8.98285714 6.00900225,8.36571429 5.36084021,7.50857143 C4.71267817,6.65142857 4.12753188,5.88857143 3.60540135,5.22 L0.0135033758,0.527142857 L3.55271368e-15,0.334285714 C3.55271368e-15,0.154285714 0.0225056264,0.0514285714 0.0675168792,0.0257142857 Z" id="Shape" fill="currentColor" fill-rule="nonzero"></path>
    </g>
</svg>