<?xml version="1.0" encoding="UTF-8"?>
<svg width="1em" height="1em" viewBox="0 0 18 18" version="1.1" xmlns="http://www.w3.org/2000/svg" xmlns:xlink="http://www.w3.org/1999/xlink">
    <!-- Generator: Sketch 53.2 (72643) - https://sketchapp.com -->
    <title>max</title>
    <desc>Created with Sketch.</desc>
    <g id="max" stroke="none" stroke-width="1" fill="none" fill-rule="evenodd">
        <path d="M6,5.75 L6,0.25 C6,0.111928813 6.11192881,2.53632657e-17 6.25,0 L11.75,0 C11.8880712,-2.53632657e-17 12,0.111928813 12,0.25 L12,5.75 C12,5.88807119 12.1119288,6 12.25,6 L17.75,6 C17.8880712,6 18,6.11192881 18,6.25 L18,11.75 C18,11.8880712 17.8880712,12 17.75,12 L12.25,12 C12.1119288,12 12,12.1119288 12,12.25 L12,17.75 C12,17.8880712 11.8880712,18 11.75,18 L6.25,18 C6.11192881,18 6,17.8880712 6,17.75 L6,12.25 C6,12.1119288 5.88807119,12 5.75,12 L0.25,12 C0.111928813,12 1.69088438e-17,11.8880712 0,11.75 L1.66533454e-16,6.25 C1.4962461e-16,6.11192881 0.111928813,6 0.25,6 L5.75,6 C5.88807119,6 6,5.88807119 6,5.75 Z" id="Shape" fill="currentColor" fill-rule="nonzero"></path>
    </g>
</svg>