<?xml version="1.0" encoding="UTF-8"?>
<svg width="1em" height="1em" viewBox="0 0 18 18" version="1.1" xmlns="http://www.w3.org/2000/svg" xmlns:xlink="http://www.w3.org/1999/xlink">
    <!-- Generator: Sketch 53.2 (72643) - https://sketchapp.com -->
    <title>media</title>
    <desc>Created with Sketch.</desc>
    <g id="media" stroke="none" stroke-width="1" fill="none" fill-rule="evenodd">
        <path d="M5.38373392,4.03347232 L12.8943706,8.78875937 C13.011026,8.86261858 13.0457191,9.01706114 12.9718599,9.13371649 C12.9520788,9.16495922 12.9256133,9.19142473 12.8943706,9.21120576 L5.38373392,13.9664928 C5.26707858,14.040352 5.11263601,14.0056589 5.03877681,13.8890035 C5.01344725,13.8489973 5,13.8026203 5,13.7552696 L5,4.24469552 C5,4.10662433 5.11192881,3.99469552 5.25,3.99469552 C5.29735066,3.99469552 5.34372769,4.00814276 5.38373392,4.03347232 Z M18,12.25 L18,13.75 C18,13.8880712 17.8880712,14 17.75,14 L15.25,14 C15.1119288,14 15,13.8880712 15,13.75 L15,12.25 C15,12.1119288 15.1119288,12 15.25,12 L17.75,12 C17.8880712,12 18,12.1119288 18,12.25 Z M18,8.25 L18,9.75 C18,9.88807119 17.8880712,10 17.75,10 L15.25,10 C15.1119288,10 15,9.88807119 15,9.75 L15,8.25 C15,8.11192881 15.1119288,8 15.25,8 L17.75,8 C17.8880712,8 18,8.11192881 18,8.25 Z M18,4.25 L18,5.75 C18,5.88807119 17.8880712,6 17.75,6 L15.25,6 C15.1119288,6 15,5.88807119 15,5.75 L15,4.25 C15,4.11192881 15.1119288,4 15.25,4 L17.75,4 C17.8880712,4 18,4.11192881 18,4.25 Z M3,12.25 L3,13.75 C3,13.8880712 2.88807119,14 2.75,14 L0.25,14 C0.111928813,14 1.69088438e-17,13.8880712 0,13.75 L0,12.25 C-1.69088438e-17,12.1119288 0.111928813,12 0.25,12 L2.75,12 C2.88807119,12 3,12.1119288 3,12.25 Z M3,8.25 L3,9.75 C3,9.88807119 2.88807119,10 2.75,10 L0.25,10 C0.111928813,10 1.69088438e-17,9.88807119 0,9.75 L0,8.25 C-1.69088438e-17,8.11192881 0.111928813,8 0.25,8 L2.75,8 C2.88807119,8 3,8.11192881 3,8.25 Z M3,4.25 L3,5.75 C3,5.88807119 2.88807119,6 2.75,6 L0.25,6 C0.111928813,6 1.69088438e-17,5.88807119 0,5.75 L0,4.25 C-1.69088438e-17,4.11192881 0.111928813,4 0.25,4 L2.75,4 C2.88807119,4 3,4.11192881 3,4.25 Z M18,16.25 L18,17.75 C18,17.8880712 17.8880712,18 17.75,18 L0.25,18 C0.111928813,18 1.69088438e-17,17.8880712 0,17.75 L0,16.25 C-1.69088438e-17,16.1119288 0.111928813,16 0.25,16 L17.75,16 C17.8880712,16 18,16.1119288 18,16.25 Z M18,0.25 L18,1.75 C18,1.88807119 17.8880712,2 17.75,2 L0.25,2 C0.111928813,2 1.69088438e-17,1.88807119 0,1.75 L0,0.25 C-1.69088438e-17,0.111928813 0.111928813,9.76996262e-15 0.25,9.76996262e-15 L17.75,9.76996262e-15 C17.8880712,9.76996262e-15 18,0.111928813 18,0.25 Z" id="Shape" fill="currentColor" fill-rule="nonzero"></path>
    </g>
</svg>