<?xml version="1.0" encoding="UTF-8"?>
<svg width="1em" height="1em" viewBox="0 0 18 18" version="1.1" xmlns="http://www.w3.org/2000/svg" xmlns:xlink="http://www.w3.org/1999/xlink">
    <!-- Generator: Sketch 53.2 (72643) - https://sketchapp.com -->
    <title>menu</title>
    <desc>Created with Sketch.</desc>
    <g id="menu" stroke="none" stroke-width="1" fill="none" fill-rule="evenodd">
        <path d="M3.609375,2 L14.390625,2 C14.5200667,2 14.625,2.12591991 14.625,2.28125 L14.625,3.96875 C14.625,4.12408009 14.5200667,4.25 14.390625,4.25 L3.609375,4.25 C3.47993326,4.25 3.375,4.12408009 3.375,3.96875 L3.375,2.28125 C3.375,2.12591991 3.47993326,2 3.609375,2 Z M0.25,7.625 L17.75,7.625 C17.8880712,7.625 18,7.75091991 18,7.90625 L18,9.59375 C18,9.74908009 17.8880712,9.875 17.75,9.875 L0.25,9.875 C0.111928813,9.875 1.69088438e-17,9.74908009 0,9.59375 L0,7.90625 C-1.69088438e-17,7.75091991 0.111928813,7.625 0.25,7.625 Z M3.609375,13.25 L14.390625,13.25 C14.5200667,13.25 14.625,13.3759199 14.625,13.53125 L14.625,15.21875 C14.625,15.3740801 14.5200667,15.5 14.390625,15.5 L3.609375,15.5 C3.47993326,15.5 3.375,15.3740801 3.375,15.21875 L3.375,13.53125 C3.375,13.3759199 3.47993326,13.25 3.609375,13.25 Z" id="Shape" fill="currentColor" fill-rule="nonzero"></path>
    </g>
</svg>