<?xml version="1.0" encoding="UTF-8"?>
<svg width="1em" height="1em" viewBox="0 0 18 18" version="1.1" xmlns="http://www.w3.org/2000/svg" xmlns:xlink="http://www.w3.org/1999/xlink">
    <!-- Generator: Sketch 53.2 (72643) - https://sketchapp.com -->
    <title>mobile-landscape</title>
    <desc>Created with Sketch.</desc>
    <g id="mobile-landscape" stroke="none" stroke-width="1" fill="none" fill-rule="evenodd">
        <path d="M16,13.75 L16,4.25 C16,4.11192881 16.1279346,4 16.2857499,4 L17.7142501,4 C17.8720654,4 18,4.11192881 18,4.25 L18,13.75 C18,13.8880712 17.8720654,14 17.7142501,14 L16.2857499,14 C16.1279346,14 16,13.8880712 16,13.75 Z M17.5,9 C17.5,8.72385763 17.2761424,8.5 17,8.5 C16.7238576,8.5 16.5,8.72385763 16.5,9 C16.5,9.27614237 16.7238576,9.5 17,9.5 C17.2761424,9.5 17.5,9.27614237 17.5,9 Z M0,13.75 L0,4.25 C-1.69088438e-17,4.11192881 0.111928813,4 0.25,4 L14.75,4 C14.8880712,4 15,4.11192881 15,4.25 L15,13.75 C15,13.8880712 14.8880712,14 14.75,14 L0.25,14 C0.111928813,14 1.69088438e-17,13.8880712 0,13.75 Z M1.12890625,13 L3.87109375,13 C3.94792938,13 4,12.9451013 4,12.8773804 L4,12 L2.12510896,12 C2.0576992,12 2,11.9439868 2,11.874891 L2,10 L1.12261963,10 C1.05376434,10 1,10.0577133 1,10.1289062 L1,12.8710937 C1,12.9479294 1.05771329,13 1.12890625,13 Z" id="Shape" fill="currentColor" fill-rule="nonzero"></path>
    </g>
</svg>