<?xml version="1.0" encoding="UTF-8"?>
<svg width="1em" height="1em" viewBox="0 0 18 18" version="1.1" xmlns="http://www.w3.org/2000/svg" xmlns:xlink="http://www.w3.org/1999/xlink">
    <!-- Generator: Sketch 53.2 (72643) - https://sketchapp.com -->
    <title>mobile-portrait</title>
    <desc>Created with Sketch.</desc>
    <g id="mobile-portrait" stroke="none" stroke-width="1" fill="none" fill-rule="evenodd">
        <path d="M4.25,16 L13.75,16 C13.8880712,16 14,16.1119288 14,16.25 L14,17.75 C14,17.8880712 13.8880712,18 13.75,18 L4.25,18 C4.11192881,18 4,17.8880712 4,17.75 L4,16.25 C4,16.1119288 4.11192881,16 4.25,16 Z M9,17.5 C9.27614237,17.5 9.5,17.2761424 9.5,17 C9.5,16.7238576 9.27614237,16.5 9,16.5 C8.72385763,16.5 8.5,16.7238576 8.5,17 C8.5,17.2761424 8.72385763,17.5 9,17.5 Z M4.25,0 L13.75,0 C13.8880712,-2.53632657e-17 14,0.111928813 14,0.25 L14,14.75 C14,14.8880712 13.8880712,15 13.75,15 L4.25,15 C4.11192881,15 4,14.8880712 4,14.75 L4,0.25 C4,0.111928813 4.11192881,2.53632657e-17 4.25,0 Z M5,1.12890625 L5,3.87109375 C5,3.94792938 5.05489868,4 5.12261963,4 L6,4 L6,2.12510896 C6,2.0576992 6.05601319,2 6.12510896,2 L8,2 L8,1.12261963 C8,1.05376434 7.94228671,1 7.87109375,1 L5.12890625,1 C5.05207062,1 5,1.05771329 5,1.12890625 Z" id="Shape" fill="currentColor" fill-rule="nonzero"></path>
    </g>
</svg>