<?xml version="1.0" encoding="UTF-8"?>
<svg width="1em" height="1em" viewBox="0 0 18 18" version="1.1" xmlns="http://www.w3.org/2000/svg" xmlns:xlink="http://www.w3.org/1999/xlink">
    <!-- Generator: Sketch 53.2 (72643) - https://sketchapp.com -->
    <title>multi-select</title>
    <desc>Created with Sketch.</desc>
    <g id="multi-select" stroke="none" stroke-width="1" fill="none" fill-rule="evenodd">
        <path d="M11.1428571,17.2479597 C11.1428571,17.1899132 11.1923136,17.1428571 11.2500934,17.1428571 L12.7499066,17.1428571 C12.8091316,17.1428571 12.8571429,17.1889409 12.8571429,17.2479597 L12.8571429,17.8948975 C12.8571429,17.952944 12.8076864,18 12.7499066,18 L11.2500934,18 C11.1908684,18 11.1428571,17.9539163 11.1428571,17.8948975 L11.1428571,17.2479597 Z M17.1428571,11.2500934 C17.1428571,11.1908684 17.1889409,11.1428571 17.2479597,11.1428571 L17.8948975,11.1428571 C17.952944,11.1428571 18,11.1923136 18,11.2500934 L18,12.7499066 C18,12.8091316 17.9539163,12.8571429 17.8948975,12.8571429 L17.2479597,12.8571429 C17.1899132,12.8571429 17.1428571,12.8076864 17.1428571,12.7499066 L17.1428571,11.2500934 Z M18,16.3929505 L18,17.8948975 C18,17.952944 17.9505435,18 17.8927638,18 L16.3929505,18 C16.3337256,18 16.2857143,17.9539163 16.2857143,17.8948975 L16.2857143,17.2479597 C16.2857143,17.1899132 16.3351707,17.1428571 16.3929505,17.1428571 L17.1428571,17.1428571 L17.1428571,16.3929505 C17.1428571,16.3337256 17.1889409,16.2857143 17.2479597,16.2857143 L17.8948975,16.2857143 C17.952944,16.2857143 18,16.3351707 18,16.3929505 Z M17.1428571,13.821522 C17.1428571,13.762297 17.1889409,13.7142857 17.2479597,13.7142857 L17.8948975,13.7142857 C17.952944,13.7142857 18,13.7637422 18,13.821522 L18,15.3213352 C18,15.3805601 17.9539163,15.4285714 17.8948975,15.4285714 L17.2479597,15.4285714 C17.1899132,15.4285714 17.1428571,15.379115 17.1428571,15.3213352 L17.1428571,13.821522 Z M10.2857143,12.9643791 C10.2857143,12.9051542 10.331798,12.8571429 10.3908168,12.8571429 L11.0377546,12.8571429 C11.0958011,12.8571429 11.1428571,12.9065993 11.1428571,12.9643791 L11.1428571,14.4641923 C11.1428571,14.5234173 11.0967734,14.5714286 11.0377546,14.5714286 L10.3908168,14.5714286 C10.3327703,14.5714286 10.2857143,14.5219721 10.2857143,14.4641923 L10.2857143,12.9643791 Z M10.2857143,15.5358077 C10.2857143,15.4765827 10.331798,15.4285714 10.3908168,15.4285714 L11.0377546,15.4285714 C11.0958011,15.4285714 11.1428571,15.4780279 11.1428571,15.5358077 L11.1428571,17.0356209 C11.1428571,17.0948458 11.0967734,17.1428571 11.0377546,17.1428571 L10.3908168,17.1428571 C10.3327703,17.1428571 10.2857143,17.0934007 10.2857143,17.0356209 L10.2857143,15.5358077 Z M12.8571429,10.3908168 C12.8571429,10.3327703 12.9065993,10.2857143 12.9643791,10.2857143 L14.4641923,10.2857143 C14.5234173,10.2857143 14.5714286,10.331798 14.5714286,10.3908168 L14.5714286,11.0377546 C14.5714286,11.0958011 14.5219721,11.1428571 14.4641923,11.1428571 L12.9643791,11.1428571 C12.9051542,11.1428571 12.8571429,11.0967734 12.8571429,11.0377546 L12.8571429,10.3908168 Z M13.7142857,17.2479597 C13.7142857,17.1899132 13.7637422,17.1428571 13.821522,17.1428571 L15.3213352,17.1428571 C15.3805601,17.1428571 15.4285714,17.1889409 15.4285714,17.2479597 L15.4285714,17.8948975 C15.4285714,17.952944 15.379115,18 15.3213352,18 L13.821522,18 C13.762297,18 13.7142857,17.9539163 13.7142857,17.8948975 L13.7142857,17.2479597 Z M11.1428571,11.1428571 L11.1428571,11.8927638 C11.1428571,11.9519887 11.0967734,12 11.0377546,12 L10.3908168,12 C10.3327703,12 10.2857143,11.9505435 10.2857143,11.8927638 L10.2857143,10.3908168 C10.2857143,10.3327703 10.3351707,10.2857143 10.3929505,10.2857143 L11.8927638,10.2857143 C11.9519887,10.2857143 12,10.331798 12,10.3908168 L12,11.0377546 C12,11.0958011 11.9505435,11.1428571 11.8927638,11.1428571 L11.1428571,11.1428571 Z M15.4285714,10.3908168 C15.4285714,10.3327703 15.4780279,10.2857143 15.5358077,10.2857143 L17.0356209,10.2857143 C17.0948458,10.2857143 17.1428571,10.331798 17.1428571,10.3908168 L17.1428571,11.0377546 C17.1428571,11.0958011 17.0934007,11.1428571 17.0356209,11.1428571 L15.5358077,11.1428571 C15.4765827,11.1428571 15.4285714,11.0967734 15.4285714,11.0377546 L15.4285714,10.3908168 Z M10.2857143,0.109051568 C10.2857143,0.0488240501 10.3349762,0 10.3947659,0 L17.8909484,0 C17.9511759,0 18,0.0492619106 18,0.109051568 L18,7.60523415 C18,7.66546166 17.9507381,7.71428571 17.8909484,7.71428571 L10.3947659,7.71428571 C10.3345383,7.71428571 10.2857143,7.6650238 10.2857143,7.60523415 L10.2857143,0.109051568 Z M0,0.109051568 C0,0.0488240501 0.0492619106,0 0.109051568,0 L7.60523415,0 C7.66546166,0 7.71428571,0.0492619106 7.71428571,0.109051568 L7.71428571,7.60523415 C7.71428571,7.66546166 7.6650238,7.71428571 7.60523415,7.71428571 L0.109051568,7.71428571 C0.0488240501,7.71428571 0,7.6650238 0,7.60523415 L0,0.109051568 Z M0,10.3947659 C0,10.3345383 0.0492619106,10.2857143 0.109051568,10.2857143 L7.60523415,10.2857143 C7.66546166,10.2857143 7.71428571,10.3349762 7.71428571,10.3947659 L7.71428571,17.8909484 C7.71428571,17.9511759 7.6650238,18 7.60523415,18 L0.109051568,18 C0.0488240501,18 0,17.9507381 0,17.8909484 L0,10.3947659 Z" id="Shape" fill="currentColor" fill-rule="nonzero"></path>
    </g>
</svg>