<?xml version="1.0" encoding="UTF-8"?>
<svg width="1em" height="1em" viewBox="0 0 18 18" version="1.1" xmlns="http://www.w3.org/2000/svg" xmlns:xlink="http://www.w3.org/1999/xlink">
    <!-- Generator: Sketch 53.2 (72643) - https://sketchapp.com -->
    <title>network-view</title>
    <desc>Created with Sketch.</desc>
    <g id="network-view" stroke="none" stroke-width="1" fill="none" fill-rule="evenodd">
        <path d="M4.22318656,14.5714286 L13.7768134,14.5714286 L9,5.01780169 L4.22318656,14.5714286 Z M12.8926965,15.8571429 L5.10730353,15.8571429 C4.90327006,17.0733057 3.84556984,18 2.57142857,18 C1.15126779,18 0,16.8487322 0,15.4285714 C0,14.0084106 1.15126779,12.8571429 2.57142857,12.8571429 C2.9167768,12.8571429 3.24622423,12.9252223 3.54708231,13.0486925 L7.6816163,4.77962454 C6.93106658,4.3305503 6.42857143,3.50967145 6.42857143,2.57142857 C6.42857143,1.15126779 7.57983921,0 9,0 C10.4201608,0 11.5714286,1.15126779 11.5714286,2.57142857 C11.5714286,3.50967145 11.0689334,4.3305503 10.3183837,4.77962454 L14.4529177,13.0486925 C14.7537758,12.9252223 15.0832232,12.8571429 15.4285714,12.8571429 C16.8487322,12.8571429 18,14.0084106 18,15.4285714 C18,16.8487322 16.8487322,18 15.4285714,18 C14.1544302,18 13.0967299,17.0733057 12.8926965,15.8571429 L12.8926965,15.8571429 Z" id="Shape" fill="currentColor" fill-rule="nonzero"></path>
    </g>
</svg>