<?xml version="1.0" encoding="UTF-8"?>
<svg width="1em" height="1em" viewBox="0 0 18 18" version="1.1" xmlns="http://www.w3.org/2000/svg" xmlns:xlink="http://www.w3.org/1999/xlink">
    <!-- Generator: Sketch 53.2 (72643) - https://sketchapp.com -->
    <title>node-path</title>
    <desc>Created with Sketch.</desc>
    <g id="node-path" stroke="none" stroke-width="1" fill="none" fill-rule="evenodd">
        <path d="M5.14285714,1.82895617 C5.01678284,1.75602612 4.87040878,1.71428571 4.71428571,1.71428571 C4.24089879,1.71428571 3.85714286,2.09804164 3.85714286,2.57142857 C3.85714286,3.0448155 4.24089879,3.42857143 4.71428571,3.42857143 C4.87040878,3.42857143 5.01678284,3.38683102 5.14285714,3.31390098 L5.14285714,5.14285714 L0,5.14285714 L0,0 L5.14285714,0 L5.14285714,1.82895617 L5.14285714,1.82895617 Z M12.8571429,14.1428571 C13.3305298,14.1428571 13.7142857,13.7591012 13.7142857,13.2857143 C13.7142857,12.8123274 13.3305298,12.4285714 12.8571429,12.4285714 L12.8571429,10.7142857 L18,10.7142857 L18,15.8571429 L12.8571429,15.8571429 L12.8571429,14.1428571 Z M0.428571429,6 L4.71428571,6 L4.71428571,7.28571429 L0.428571429,7.28571429 L0.428571429,6 Z M13.2857143,16.7142857 L17.5714286,16.7142857 L17.5714286,18 L13.2857143,18 L13.2857143,16.7142857 Z M4.71428571,3 C4.47759225,3 4.28571429,2.80812204 4.28571429,2.57142857 C4.28571429,2.33473511 4.47759225,2.14285714 4.71428571,2.14285714 C5.96388954,2.14285714 6.90973776,2.79500306 7.65378233,4.00774084 C8.18886731,4.87988989 8.51342382,5.7360085 9.16175334,7.76139456 L9.17344319,7.79791377 C10.3942899,11.6117887 11.1623751,12.8571429 12.8571429,12.8571429 C13.0938363,12.8571429 13.2857143,13.0490208 13.2857143,13.2857143 C13.2857143,13.5224077 13.0938363,13.7142857 12.8571429,13.7142857 C11.5908919,13.7142857 10.6322798,13.0576941 9.87914755,11.8365842 C9.33693036,10.9574468 9.00699749,10.0894667 8.35710491,8.05922909 L8.34541389,8.02270621 C7.13123134,4.22959127 6.37684673,3 4.71428571,3 Z" id="Shape" fill="currentColor" fill-rule="nonzero"></path>
    </g>
</svg>