<?xml version="1.0" encoding="UTF-8"?>
<svg width="1em" height="1em" viewBox="0 0 18 18" version="1.1" xmlns="http://www.w3.org/2000/svg" xmlns:xlink="http://www.w3.org/1999/xlink">
    <!-- Generator: Sketch 55 (78076) - https://sketchapp.com -->
    <title>notifications</title>
    <desc>Created with Sketch.</desc>
    <g id="notifications" stroke="none" stroke-width="1" fill="none" fill-rule="evenodd">
        <path d="M3.64705882,7.98464285 C3.76335081,7.99480956 3.88106926,8 4,8 C6.209139,8 8,6.209139 8,4 C8,3.23372638 7.78453162,2.5177781 7.41087726,1.90943754 C7.52707701,1.87324263 7.64506475,1.8406436 7.76470588,1.81176471 L7.76470588,1.23529412 C7.76470588,0.576470588 8.34117647,5.32907052e-15 9,5.32907052e-15 C9.65882353,5.32907052e-15 10.2352941,0.576470588 10.2352941,1.23529412 L10.2352941,1.81176471 C12.6235294,2.38823529 14.3529412,4.44705882 14.3529412,7 L14.3529412,12.5294118 L15.9267767,14.1032473 C15.9736608,14.1501314 16,14.2137199 16,14.280024 L16,14.75 C16,14.8880712 15.8880712,15 15.75,15 L2.25,15 C2.11192881,15 2,14.8880712 2,14.75 L2,14.280024 C2,14.2137199 2.02633921,14.1501314 2.0732233,14.1032473 L3.64705882,12.5294118 L3.64705882,7.98464285 L3.64705882,7.98464285 Z M6.99117647,16 L10.9911765,16 C10.9911765,17.1045695 10.095746,18 8.99117647,18 C7.88660697,18 6.99117647,17.1045695 6.99117647,16 Z M4,7 C2.34314575,7 1,5.65685425 1,4 C1,2.34314575 2.34314575,1 4,1 C5.65685425,1 7,2.34314575 7,4 C7,5.65685425 5.65685425,7 4,7 Z" id="Fill" fill="currentColor" fill-rule="nonzero"></path>
    </g>
</svg>