<?xml version="1.0" encoding="UTF-8"?>
<svg width="1em" height="1em" viewBox="0 0 18 18" version="1.1" xmlns="http://www.w3.org/2000/svg" xmlns:xlink="http://www.w3.org/1999/xlink">
    <!-- Generator: Sketch 53.2 (72643) - https://sketchapp.com -->
    <title>object</title>
    <desc>Created with Sketch.</desc>
    <g id="object" stroke="none" stroke-width="1" fill="none" fill-rule="evenodd">
        <path d="M8.95548803,0.0279324217 C8.98375168,0.0147726783 9.01631632,0.0146234603 9.04469827,0.027523642 L17.794906,4.00467478 C17.8173261,4.01486521 17.8355718,4.03249904 17.8465766,4.05461284 C17.8730398,4.10778946 17.8515871,4.17245171 17.7986609,4.19904001 L9.04849865,8.59481579 C9.01800739,8.61013353 8.98208087,8.60995831 8.95173906,8.59434387 L0.409871332,4.19854613 C0.388585323,4.18759196 0.371558943,4.16979735 0.361503324,4.14799575 C0.336623231,4.09405317 0.359977158,4.03005937 0.413665781,4.00506159 L8.95548803,0.0279324217 Z M8.90805924,1.92407686 L14.0509164,4.37848935 C14.1578163,4.42950701 14.2856391,4.38379556 14.3364166,4.27638997 C14.3871941,4.16898438 14.3416978,4.04055697 14.2347979,3.9895393 L9.09194076,1.53512682 C8.98504082,1.48410916 8.85721802,1.52982061 8.80644054,1.6372262 C8.75566306,1.74463179 8.80115931,1.8730592 8.90805924,1.92407686 Z M7.19377353,2.78527411 L12.3366307,5.23968659 C12.4435306,5.29070425 12.5713534,5.24499281 12.6221309,5.13758722 C12.6729084,5.03018163 12.6274121,4.90175421 12.5205122,4.85073655 L7.37765504,2.39632407 C7.2707551,2.34530641 7.1429323,2.39101786 7.09215483,2.49842344 C7.04137735,2.60582903 7.08687359,2.73425645 7.19377353,2.78527411 Z M5.47948782,3.64647136 L10.622345,6.10088384 C10.7292449,6.1519015 10.8570677,6.10619005 10.9078452,5.99878446 C10.9586227,5.89137888 10.9131264,5.76295146 10.8062265,5.7119338 L5.66336933,3.25752132 C5.55646939,3.20650366 5.42864659,3.2522151 5.37786911,3.35962069 C5.32709163,3.46702628 5.37258788,3.5954537 5.47948782,3.64647136 Z M3.7652021,4.5076686 L8.90805924,6.96208108 C9.01495918,7.01309874 9.14278198,6.9673873 9.19355946,6.85998171 C9.24433694,6.75257612 9.19884069,6.6241487 9.09194076,6.57313104 L3.94908361,4.11871856 C3.84218367,4.0677009 3.71436087,4.11341235 3.6635834,4.22081794 C3.61280592,4.32822352 3.65830216,4.45665094 3.7652021,4.5076686 Z M0,5.13327232 C0,5.11656024 0.0038726884,5.10007767 0.0113113724,5.08512993 C0.0377745062,5.03195332 0.102132332,5.01039923 0.1550586,5.03698754 L8.51220146,9.23532412 C8.54849975,9.25355911 8.57142857,9.29083421 8.57142857,9.3316089 L8.57142857,17.9102848 C8.57142857,17.928424 8.5668665,17.9462692 8.55816599,17.9621631 C8.52964924,18.014257 8.46450021,18.0332607 8.41265156,18.0046091 L0.0555087054,13.3864389 C0.0212713921,13.3675193 0,13.3313734 0,13.2921145 L0,5.13327232 Z M1.1898828,7.5199535 L6.76131137,10.3188446 C6.86716391,10.3720212 6.99587956,10.328913 7.04880583,10.2225598 C7.10173209,10.1162065 7.05882688,9.98688205 6.95297434,9.93370544 L1.38154577,7.13481439 C1.27569324,7.08163777 1.14697758,7.12474594 1.09405132,7.23109917 C1.04112505,7.3374524 1.08403027,7.46677689 1.1898828,7.5199535 Z M1.1898828,9.242348 L6.76131137,12.041239 C6.86716391,12.0944157 6.99587956,12.0513075 7.04880583,11.9449543 C7.10173209,11.838601 7.05882688,11.7092765 6.95297434,11.6560999 L1.38154577,8.85720888 C1.27569324,8.80403226 1.14697758,8.84714043 1.09405132,8.95349366 C1.04112505,9.05984689 1.08403027,9.18917138 1.1898828,9.242348 Z M1.1898828,10.9647425 L3.76131137,12.2565384 C3.86716391,12.309715 3.99587956,12.2666068 4.04880583,12.1602536 C4.10173209,12.0539003 4.05882688,11.9245759 3.95297434,11.8713992 L1.38154577,10.5796034 C1.27569324,10.5264268 1.14697758,10.5695349 1.09405132,10.6758882 C1.04112505,10.7822414 1.08403027,10.9115659 1.1898828,10.9647425 Z M9.42857143,9.3316089 C9.42857143,9.29083421 9.45150025,9.25355911 9.48779854,9.23532412 L17.8449414,5.03698754 C17.8598188,5.02951367 17.8762237,5.02562266 17.8928571,5.02562266 C17.9520305,5.02562266 18,5.07381906 18,5.13327232 L18,13.2921145 C18,13.3313734 17.9787286,13.3675193 17.9444913,13.3864389 L9.58734844,18.0046091 C9.57152933,18.0133508 9.55376818,18.0179344 9.53571429,18.0179344 C9.47654092,18.0179344 9.42857143,17.969738 9.42857143,17.9102848 L9.42857143,9.3316089 Z M11.2386608,10.3188585 L16.81211,7.51996747 C16.9179703,7.46680628 16.9608941,7.33748804 16.9079832,7.2311271 C16.8550723,7.12476615 16.7263629,7.08163923 16.6205027,7.13480042 L11.0470535,9.93369148 C10.9411932,9.98685267 10.8982694,10.1161709 10.9511803,10.2225318 C11.0040912,10.3288928 11.1328006,10.3720197 11.2386608,10.3188585 Z M11.2386886,12.041239 L15.0958315,10.1035452 C15.201684,10.0503686 15.2445892,9.92104414 15.191663,9.81469091 C15.1387367,9.70833767 15.0100211,9.66522951 14.9041685,9.71840613 L11.0470257,11.6560999 C10.9411731,11.7092765 10.8982679,11.838601 10.9511942,11.9449543 C11.0041204,12.0513075 11.1328361,12.0944157 11.2386886,12.041239 Z" id="Shape" fill="currentColor" fill-rule="nonzero"></path>
    </g>
</svg>