<?xml version="1.0" encoding="UTF-8"?>
<svg width="1em" height="1em" viewBox="0 0 18 18" version="1.1" xmlns="http://www.w3.org/2000/svg" xmlns:xlink="http://www.w3.org/1999/xlink">
    <!-- Generator: Sketch 53.2 (72643) - https://sketchapp.com -->
    <title>ordered-menu</title>
    <desc>Created with Sketch.</desc>
    <g id="ordered-menu" stroke="none" stroke-width="1" fill="none" fill-rule="evenodd">
        <path d="M0,0 L18,0 L18,18 L0,18 L0,0 Z M5.14285714,2.14285714 L5.14285714,3.85714286 L15.4285714,3.85714286 L15.4285714,2.14285714 L5.14285714,2.14285714 Z M2.57142857,2.14285714 L2.57142857,3.85714286 L4.28571429,3.85714286 L4.28571429,2.14285714 L2.57142857,2.14285714 Z M2.57142857,5.14285714 L2.57142857,6.85714286 L4.28571429,6.85714286 L4.28571429,5.14285714 L2.57142857,5.14285714 Z M2.57142857,8.14285714 L2.57142857,9.85714286 L4.28571429,9.85714286 L4.28571429,8.14285714 L2.57142857,8.14285714 Z M2.57142857,11.1428571 L2.57142857,12.8571429 L4.28571429,12.8571429 L4.28571429,11.1428571 L2.57142857,11.1428571 Z M2.57142857,14.1428571 L2.57142857,15.8571429 L4.28571429,15.8571429 L4.28571429,14.1428571 L2.57142857,14.1428571 Z M5.14285714,5.14285714 L5.14285714,6.85714286 L15.4285714,6.85714286 L15.4285714,5.14285714 L5.14285714,5.14285714 Z M5.14285714,8.14285714 L5.14285714,9.85714286 L15.4285714,9.85714286 L15.4285714,8.14285714 L5.14285714,8.14285714 Z M5.14285714,11.1428571 L5.14285714,12.8571429 L15.4285714,12.8571429 L15.4285714,11.1428571 L5.14285714,11.1428571 Z M5.14285714,14.1428571 L5.14285714,15.8571429 L15.4285714,15.8571429 L15.4285714,14.1428571 L5.14285714,14.1428571 Z" id="Shape" fill="currentColor" fill-rule="nonzero"></path>
    </g>
</svg>