<?xml version="1.0" encoding="UTF-8"?>
<svg width="1em" height="1em" viewBox="0 0 18 18" version="1.1" xmlns="http://www.w3.org/2000/svg" xmlns:xlink="http://www.w3.org/1999/xlink">
    <!-- Generator: Sketch 55 (78076) - https://sketchapp.com -->
    <title>organization-profile</title>
    <desc>Created with Sketch.</desc>
    <g id="organization-profile" stroke="none" stroke-width="1" fill="none" fill-rule="evenodd">
        <path d="M14,9.58159689 C13.1598781,9.24824563 12.2809524,9.05149642 11.375,9.00881986 L11.375,7.875 L10.5,7.875 L10.5,9.01569453 C10.2052628,9.03423417 9.91345981,9.06908469 9.625,9.11963629 L9.625,4.59375 C9.625,4.47293771 9.72293771,4.375 9.84375,4.375 L13.78125,4.375 C13.9020623,4.375 14,4.47293771 14,4.59375 L14,9.58159689 L14,9.58159689 Z M6.125,10.5920151 L6.125,10 L2.625,10 L2.625,14 L0.21875,14 C0.097937711,14 -9.03138658e-16,13.9020623 -1.77635684e-15,13.78125 L-1.77635684e-15,1.09375 C-1.79115208e-15,0.972937711 0.097937711,0.875 0.21875,0.875 L0.875,0.875 L0.875,0.21875 C0.875,0.097937711 0.972937711,8.01579863e-15 1.09375,7.99360578e-15 L7.65625,7.99360578e-15 C7.77706229,8.82983586e-15 7.875,0.097937711 7.875,0.21875 L7.875,0.875 L8.53125,0.875 C8.65206229,0.875 8.75,0.972937711 8.75,1.09375 L8.75,9.32361112 C7.82995001,9.59211786 6.95017489,10.0220398 6.125,10.5920151 Z M10.5,5.25 L10.5,7 L11.375,7 L11.375,5.25 L10.5,5.25 Z M2,4 L2,6 L4,6 L4,4 L2,4 Z M2,1 L2,3 L4,3 L4,1 L2,1 Z M2,7 L2,9 L4,9 L4,7 L2,7 Z M5,4 L5,6 L7,6 L7,4 L5,4 Z M5,7 L5,9 L7,9 L7,7 L5,7 Z M5,1 L5,3 L7,3 L7,1 L5,1 Z M11,10 C13.6748491,10 16.1005421,11.4028826 17.8904572,13.6842828 C18.0365143,13.8709677 18.0365143,14.1317776 17.8904572,14.3184626 C16.1005421,16.5971174 13.6748491,18 11,18 C8.32515086,18 5.89945791,16.5971174 4.1095428,14.3157172 C3.96348573,14.1290323 3.96348573,13.8682224 4.1095428,13.6815374 C5.89945791,11.4028826 8.32515086,10 11,10 Z M11.1955081,16.9938893 C12.6866221,16.8975946 13.8976051,15.686616 13.9939002,14.1955074 C14.1077034,12.3834165 12.6136713,10.8923079 10.8044919,11.0061107 C9.31045985,11.0994874 8.09947684,12.310466 8.00609984,13.8044926 C7.89229661,15.6165835 9.38632866,17.1076921 11.1955081,16.9938893 Z M11.1282212,15.9959243 C9.92185814,16.0717875 8.92498325,15.078341 9.00444429,13.8717551 C9.065846,12.8746961 9.87490388,12.0691013 10.8717788,12.0040757 C12.0781419,11.9282125 13.0750168,12.921659 12.9955557,14.1282449 C12.9305421,15.1289165 12.1214843,15.9345113 11.1282212,15.9959243 Z" id="Fill" fill="currentColor" fill-rule="nonzero"></path>
    </g>
</svg>