<?xml version="1.0" encoding="UTF-8"?>
<svg width="1em" height="1em" viewBox="0 0 18 18" version="1.1" xmlns="http://www.w3.org/2000/svg" xmlns:xlink="http://www.w3.org/1999/xlink">
    <!-- Generator: Sketch 53.2 (72643) - https://sketchapp.com -->
    <title>organization</title>
    <desc>Created with Sketch.</desc>
    <g id="organization" stroke="none" stroke-width="1" fill="none" fill-rule="evenodd">
        <path d="M12.65625,5.625 L17.71875,5.625 C17.8740801,5.625 18,5.75091991 18,5.90625 L18,17.71875 C18,17.8740801 17.8740801,18 17.71875,18 L12.65625,18 C12.5009199,18 12.375,17.8740801 12.375,17.71875 L12.375,5.90625 C12.375,5.75091991 12.5009199,5.625 12.65625,5.625 Z M13.5,6.75 L13.5,9 L14.625,9 L14.625,6.75 L13.5,6.75 Z M13.5,10.125 L13.5,12.375 L14.625,12.375 L14.625,10.125 L13.5,10.125 Z M13.5,13.5 L13.5,15.75 L14.625,15.75 L14.625,13.5 L13.5,13.5 Z M0.28125,1.125 L1.125,1.125 L1.125,0.28125 C1.125,0.125919914 1.25091991,9.16712094e-16 1.40625,8.8817842e-16 L9.84375,8.8817842e-16 C9.99908009,1.96333139e-15 10.125,0.125919914 10.125,0.28125 L10.125,1.125 L10.96875,1.125 C11.1240801,1.125 11.25,1.25091991 11.25,1.40625 L11.25,17.71875 C11.25,17.8740801 11.1240801,18 10.96875,18 L7.875,18 L7.875,13.5 L3.375,13.5 L3.375,18 L0.28125,18 C0.125919914,18 1.12270909e-15,17.8740801 0,17.71875 L0,1.40625 C-1.90224492e-17,1.25091991 0.125919914,1.125 0.28125,1.125 Z M2.25,6.75 L2.25,9 L4.5,9 L4.5,6.75 L2.25,6.75 Z M2.25,3.375 L2.25,5.625 L4.5,5.625 L4.5,3.375 L2.25,3.375 Z M2.25,10.125 L2.25,12.375 L4.5,12.375 L4.5,10.125 L2.25,10.125 Z M6.75,6.75 L6.75,9 L9,9 L9,6.75 L6.75,6.75 Z M6.75,10.125 L6.75,12.375 L9,12.375 L9,10.125 L6.75,10.125 Z M6.75,3.375 L6.75,5.625 L9,5.625 L9,3.375 L6.75,3.375 Z" id="Shape" fill="currentColor" fill-rule="nonzero"></path>
    </g>
</svg>