<?xml version="1.0" encoding="UTF-8"?>
<svg width="1em" height="1em" viewBox="0 0 18 18" version="1.1" xmlns="http://www.w3.org/2000/svg" xmlns:xlink="http://www.w3.org/1999/xlink">
    <!-- Generator: Sketch 53.2 (72643) - https://sketchapp.com -->
    <title>outside-stroke</title>
    <desc>Created with Sketch.</desc>
    <g id="outside-stroke" stroke="none" stroke-width="1" fill="none" fill-rule="evenodd">
        <path d="M3.59996376,14.399855 L4.38745583,14.399855 C4.44958724,14.399855 4.4999547,14.4502225 4.4999547,14.5123539 L4.4999547,15.1873471 C4.4999547,15.2494785 4.44958724,15.2998459 4.38745583,15.2998459 L2.81247169,15.2998459 C2.75034028,15.2998459 2.69997282,15.2494785 2.69997282,15.1873471 L2.69997282,13.6123629 C2.69997282,13.5502315 2.75034028,13.4998641 2.81247169,13.4998641 L3.48746489,13.4998641 C3.5495963,13.4998641 3.59996376,13.5502315 3.59996376,13.6123629 L3.59996376,14.399855 L3.59996376,14.399855 Z M17.9998188,13.1623675 L17.9998188,15.1873471 C17.9998188,15.2494785 17.9494513,15.2998459 17.8873199,15.2998459 L16.3123358,15.2998459 C16.2502043,15.2998459 16.1998369,15.2494785 16.1998369,15.1873471 L16.1998369,14.5123539 C16.1998369,14.4502225 16.2502043,14.399855 16.3123358,14.399855 L17.0998278,14.399855 L17.0998278,13.1623675 C17.0998278,13.1002361 17.1501953,13.0498686 17.2123267,13.0498686 L17.8873199,13.0498686 C17.9494513,13.0498686 17.9998188,13.1002361 17.9998188,13.1623675 Z M9.89990032,0.112498867 L9.89990032,1.68748301 C9.89990032,1.74961442 9.84953286,1.79998188 9.78740146,1.79998188 L9.11240825,1.79998188 C9.05027684,1.79998188 8.99990939,1.74961442 8.99990939,1.68748301 L8.99990939,0.899990938 L8.21241731,0.899990938 C8.15028591,0.899990938 8.09991845,0.84962348 8.09991845,0.787492071 L8.09991845,0.112498867 C8.09991845,0.0503674585 8.15028591,0 8.21241731,0 L9.78740146,0 C9.84953286,0 9.89990032,0.0503674585 9.89990032,0.112498867 Z M2.81247169,0 L4.38745583,0 C4.44958724,0 4.4999547,0.0503674585 4.4999547,0.112498867 L4.4999547,0.787492071 C4.4999547,0.84962348 4.44958724,0.899990938 4.38745583,0.899990938 L3.59996376,0.899990938 L3.59996376,1.68748301 C3.59996376,1.74961442 3.5495963,1.79998188 3.48746489,1.79998188 L2.81247169,1.79998188 C2.75034028,1.79998188 2.69997282,1.74961442 2.69997282,1.68748301 L2.69997282,0.112498867 C2.69997282,0.0503674585 2.75034028,0 2.81247169,0 Z M1.68748303,7.99352529e-16 C1.74961444,3.89683159e-09 1.7999819,0.0503674656 1.79998189,0.112498874 L1.80001341,16.082654 C1.80001341,16.1447727 1.85036104,16.1951349 1.91247975,16.1951529 L17.8873199,16.1998369 C17.9494386,16.1998549 17.9997862,16.2502171 17.9997862,16.3123358 L17.9998189,17.8889481 C17.9998189,17.9510795 17.9494514,18.001447 17.88732,18.001447 L0.112498868,18.001447 C0.0503674589,18.001447 4.40990001e-10,17.9510795 4.40990001e-10,17.8889481 L0,0.112498867 C2.43552324e-10,0.0503674581 0.0503674589,-2.43552324e-10 0.112498868,0 L1.68748303,6.61484681e-09 L1.68748303,7.99352529e-16 Z M2.81247169,2.69997281 L3.48746489,2.69997281 C3.5495963,2.69997281 3.59996376,2.75034027 3.59996376,2.81247168 L3.59996376,4.38745582 C3.59996376,4.44958723 3.5495963,4.49995469 3.48746489,4.49995469 L2.81247169,4.49995469 C2.75034028,4.49995469 2.69997282,4.44958723 2.69997282,4.38745582 L2.69997282,2.81247168 C2.69997282,2.75034027 2.75034028,2.69997281 2.81247169,2.69997281 Z M2.81247169,5.39994563 L3.48746489,5.39994563 C3.5495963,5.39994563 3.59996376,5.45031309 3.59996376,5.5124445 L3.59996376,7.08742864 C3.59996376,7.14956005 3.5495963,7.1999275 3.48746489,7.1999275 L2.81247169,7.1999275 C2.75034028,7.1999275 2.69997282,7.14956005 2.69997282,7.08742864 L2.69997282,5.5124445 C2.69997282,5.45031309 2.75034028,5.39994563 2.81247169,5.39994563 Z M2.81247169,8.09991844 L3.48746489,8.09991844 C3.5495963,8.09991844 3.59996376,8.1502859 3.59996376,8.21241731 L3.59996376,9.78740145 C3.59996376,9.84953286 3.5495963,9.89990032 3.48746489,9.89990032 L2.81247169,9.89990032 C2.75034028,9.89990032 2.69997282,9.84953286 2.69997282,9.78740145 L2.69997282,8.21241731 C2.69997282,8.1502859 2.75034028,8.09991844 2.81247169,8.09991844 Z M2.81247169,10.7998913 L3.48746489,10.7998913 C3.5495963,10.7998913 3.59996376,10.8502587 3.59996376,10.9123901 L3.59996376,12.4873743 C3.59996376,12.5495057 3.5495963,12.5998731 3.48746489,12.5998731 L2.81247169,12.5998731 C2.75034028,12.5998731 2.69997282,12.5495057 2.69997282,12.4873743 L2.69997282,10.9123901 C2.69997282,10.8502587 2.75034028,10.7998913 2.81247169,10.7998913 Z M5.5124445,0 L7.08742864,0 C7.14956005,0 7.19992751,0.0503674585 7.19992751,0.112498867 L7.19992751,0.787492071 C7.19992751,0.84962348 7.14956005,0.899990938 7.08742864,0.899990938 L5.5124445,0.899990938 C5.45031309,0.899990938 5.39994563,0.84962348 5.39994563,0.787492071 L5.39994563,0.112498867 C5.39994563,0.0503674585 5.45031309,0 5.5124445,0 Z M9.11240825,2.69997281 L9.78740146,2.69997281 C9.84953286,2.69997281 9.89990032,2.75034027 9.89990032,2.81247168 L9.89990032,4.38745582 C9.89990032,4.44958723 9.84953286,4.49995469 9.78740146,4.49995469 L9.11240825,4.49995469 C9.05027684,4.49995469 8.99990939,4.44958723 8.99990939,4.38745582 L8.99990939,2.81247168 C8.99990939,2.75034027 9.05027684,2.69997281 9.11240825,2.69997281 Z M9.11240825,5.39994563 L9.78740146,5.39994563 C9.84953286,5.39994563 9.89990032,5.45031309 9.89990032,5.5124445 L9.89990032,7.08742864 C9.89990032,7.14956005 9.84953286,7.1999275 9.78740146,7.1999275 L9.11240825,7.1999275 C9.05027684,7.1999275 8.99990939,7.14956005 8.99990939,7.08742864 L8.99990939,5.5124445 C8.99990939,5.45031309 9.05027684,5.39994563 9.11240825,5.39994563 Z M9.11240825,8.09991844 L9.78740146,8.09991844 C9.84953286,8.09991844 9.89990032,8.1502859 9.89990032,8.21241731 L9.89990032,9.33740598 C9.89990032,9.39953739 9.84953286,9.44990485 9.78740146,9.44990485 L9.11240825,9.44990485 C9.05027684,9.44990485 8.99990939,9.39953739 8.99990939,9.33740598 L8.99990939,8.21241731 C8.99990939,8.1502859 9.05027684,8.09991844 9.11240825,8.09991844 Z M10.9123901,8.54991391 L12.4873743,8.54991391 C12.5495057,8.54991391 12.5998731,8.60028137 12.5998731,8.66241278 L12.5998731,9.33740598 C12.5998731,9.39953739 12.5495057,9.44990485 12.4873743,9.44990485 L10.9123901,9.44990485 C10.8502587,9.44990485 10.7998913,9.39953739 10.7998913,9.33740598 L10.7998913,8.66241278 C10.7998913,8.60028137 10.8502587,8.54991391 10.9123901,8.54991391 Z M13.6123629,8.54991391 L15.1873471,8.54991391 C15.2494785,8.54991391 15.299846,8.60028137 15.299846,8.66241278 L15.299846,9.33740598 C15.299846,9.39953739 15.2494785,9.44990485 15.1873471,9.44990485 L13.6123629,9.44990485 C13.5502315,9.44990485 13.4998641,9.39953739 13.4998641,9.33740598 L13.4998641,8.66241278 C13.4998641,8.60028137 13.5502315,8.54991391 13.6123629,8.54991391 Z M16.3123358,8.54991391 L17.8873199,8.54991391 C17.9494513,8.54991391 17.9998188,8.60028137 17.9998188,8.66241278 L17.9998188,9.33740598 C17.9998188,9.39953739 17.9494513,9.44990485 17.8873199,9.44990485 L16.3123358,9.44990485 C16.2502043,9.44990485 16.1998369,9.39953739 16.1998369,9.33740598 L16.1998369,8.66241278 C16.1998369,8.60028137 16.2502043,8.54991391 16.3123358,8.54991391 Z M17.2123267,10.3498958 L17.8873199,10.3498958 C17.9494513,10.3498958 17.9998188,10.4002632 17.9998188,10.4623947 L17.9998188,12.0373788 C17.9998188,12.0995102 17.9494513,12.1498777 17.8873199,12.1498777 L17.2123267,12.1498777 C17.1501953,12.1498777 17.0998278,12.0995102 17.0998278,12.0373788 L17.0998278,10.4623947 C17.0998278,10.4002632 17.1501953,10.3498958 17.2123267,10.3498958 Z M13.6123629,14.399855 L15.1873471,14.399855 C15.2494785,14.399855 15.299846,14.4502225 15.299846,14.5123539 L15.299846,15.1873471 C15.299846,15.2494785 15.2494785,15.2998459 15.1873471,15.2998459 L13.6123629,15.2998459 C13.5502315,15.2998459 13.4998641,15.2494785 13.4998641,15.1873471 L13.4998641,14.5123539 C13.4998641,14.4502225 13.5502315,14.399855 13.6123629,14.399855 Z M10.9123901,14.399855 L12.4873743,14.399855 C12.5495057,14.399855 12.5998731,14.4502225 12.5998731,14.5123539 L12.5998731,15.1873471 C12.5998731,15.2494785 12.5495057,15.2998459 12.4873743,15.2998459 L10.9123901,15.2998459 C10.8502587,15.2998459 10.7998913,15.2494785 10.7998913,15.1873471 L10.7998913,14.5123539 C10.7998913,14.4502225 10.8502587,14.399855 10.9123901,14.399855 Z M8.21241731,14.399855 L9.78740146,14.399855 C9.84953286,14.399855 9.89990032,14.4502225 9.89990032,14.5123539 L9.89990032,15.1873471 C9.89990032,15.2494785 9.84953286,15.2998459 9.78740146,15.2998459 L8.21241731,15.2998459 C8.15028591,15.2998459 8.09991845,15.2494785 8.09991845,15.1873471 L8.09991845,14.5123539 C8.09991845,14.4502225 8.15028591,14.399855 8.21241731,14.399855 Z M5.5124445,14.399855 L7.08742864,14.399855 C7.14956005,14.399855 7.19992751,14.4502225 7.19992751,14.5123539 L7.19992751,15.1873471 C7.19992751,15.2494785 7.14956005,15.2998459 7.08742864,15.2998459 L5.5124445,15.2998459 C5.45031309,15.2998459 5.39994563,15.2494785 5.39994563,15.1873471 L5.39994563,14.5123539 C5.39994563,14.4502225 5.45031309,14.399855 5.5124445,14.399855 Z" id="Shape" fill="currentColor" fill-rule="nonzero"></path>
    </g>
</svg>