<?xml version="1.0" encoding="UTF-8"?>
<svg width="1em" height="1em" viewBox="0 0 18 18" version="1.1" xmlns="http://www.w3.org/2000/svg" xmlns:xlink="http://www.w3.org/1999/xlink">
    <!-- Generator: Sketch 53.2 (72643) - https://sketchapp.com -->
    <title>package</title>
    <desc>Created with Sketch.</desc>
    <g id="package" stroke="none" stroke-width="1" fill="none" fill-rule="evenodd">
        <path d="M0.107142857,5.14285714 L17.8928571,5.14285714 C17.9520305,5.14285714 18,5.19082663 18,5.25 L18,17.8928571 C18,17.9520305 17.9520305,18 17.8928571,18 L0.107142857,18 C0.0479694911,18 0,17.9520305 0,17.8928571 L0,5.25 C0,5.19082663 0.0479694911,5.14285714 0.107142857,5.14285714 Z M2.63209183,0 L15.3679082,0 C15.4055435,0 15.4404192,0.0197463036 15.4597824,0.0520183119 L17.9026396,4.12344688 C17.933084,4.17418763 17.9166306,4.24000122 17.8658899,4.27044567 C17.8492382,4.28043666 17.8301843,4.28571429 17.8107653,4.28571429 L0.189234683,4.28571429 C0.130061317,4.28571429 0.0820918263,4.23774479 0.0820918263,4.17857143 C0.0820918263,4.15915243 0.0873694513,4.14009853 0.0973604414,4.12344688 L2.54021758,0.0520183119 C2.55958079,0.0197463036 2.59445652,0 2.63209183,0 Z M5.25,7.71428571 C5.19082663,7.71428571 5.14285714,7.76225521 5.14285714,7.82142857 L5.14285714,8.89285714 C5.14285714,8.95203051 5.19082663,9 5.25,9 L12.75,9 C12.8091734,9 12.8571429,8.95203051 12.8571429,8.89285714 L12.8571429,7.82142857 C12.8571429,7.76225521 12.8091734,7.71428571 12.75,7.71428571 L5.25,7.71428571 Z M8.21710719,0.428571429 C8.17244528,0.428571429 8.13246806,0.456275661 8.11678621,0.498093917 L6.91142907,3.71237963 C6.90691794,3.72440932 6.90460719,3.73715229 6.90460719,3.75 C6.90460719,3.80917337 6.95257668,3.85714286 7.01175005,3.85714286 L10.9882499,3.85714286 C11.0010977,3.85714286 11.0138406,3.85483212 11.0258703,3.85032098 C11.0812761,3.82954383 11.1093481,3.76778538 11.0885709,3.71237963 L9.88321379,0.498093917 C9.86753194,0.456275661 9.82755472,0.428571429 9.78289281,0.428571429 L8.21710719,0.428571429 Z" id="Shape" fill="currentColor" fill-rule="nonzero"></path>
    </g>
</svg>