<?xml version="1.0" encoding="UTF-8"?>
<svg width="1em" height="1em" viewBox="0 0 18 18" version="1.1" xmlns="http://www.w3.org/2000/svg" xmlns:xlink="http://www.w3.org/1999/xlink">
    <!-- Generator: Sketch 53.2 (72643) - https://sketchapp.com -->
    <title>pane-container</title>
    <desc>Created with Sketch.</desc>
    <g id="pane-container" stroke="none" stroke-width="1" fill="none" fill-rule="evenodd">
        <path d="M0,0.105707198 C0,0.0473267248 0.0516357422,0 0.105707198,0 L17.8942928,0 C17.9526733,0 18,0.0516357422 18,0.105707198 L18,17.8942928 C18,17.9526733 17.9483643,18 17.8942928,18 L0.105707198,18 C0.0473267248,18 0,17.9483643 0,17.8942928 L0,0.105707198 Z M1.24999997,16.9999996 L7.7499998,16.9999996 C7.88807098,16.9999996 7.99999979,16.8880708 7.99999979,16.7499996 L7.99999979,1.24999997 C7.99999979,1.11192878 7.88807098,0.999999974 7.7499998,0.999999974 L1.24999997,0.999999974 C1.11192878,0.999999974 0.999999974,1.11192878 0.999999974,1.24999997 L0.999999974,16.7499996 C0.999999974,16.8880708 1.11192878,16.9999996 1.24999997,16.9999996 Z M9.24999976,9.99999974 L16.7499996,9.99999974 C16.8880708,9.99999974 16.9999996,9.88807093 16.9999996,9.74999975 L16.9999996,1.24999997 C16.9999996,1.11192878 16.8880708,0.999999974 16.7499996,0.999999974 L9.24999976,0.999999974 C9.11192858,0.999999974 8.99999977,1.11192878 8.99999977,1.24999997 L8.99999977,9.74999975 C8.99999977,9.88807093 9.11192858,9.99999974 9.24999976,9.99999974 Z M9.24999976,16.9999995 L16.7499996,16.9999995 C16.8880708,16.9999995 16.9999996,16.8880707 16.9999996,16.7499995 L16.9999996,11.2499997 C16.9999996,11.1119285 16.8880708,10.9999997 16.7499996,10.9999997 L9.24999976,10.9999997 C9.11192858,10.9999997 8.99999977,11.1119285 8.99999977,11.2499997 L8.99999977,16.7499995 C8.99999977,16.8880707 9.11192858,16.9999995 9.24999976,16.9999995 Z" id="Shape" fill="currentColor" fill-rule="nonzero"></path>
    </g>
</svg>