<?xml version="1.0" encoding="UTF-8"?>
<svg width="1em" height="1em" viewBox="0 0 18 18" version="1.1" xmlns="http://www.w3.org/2000/svg" xmlns:xlink="http://www.w3.org/1999/xlink">
    <!-- Generator: Sketch 53.2 (72643) - https://sketchapp.com -->
    <title>paragraph</title>
    <desc>Created with Sketch.</desc>
    <g id="paragraph" stroke="none" stroke-width="1" fill="none" fill-rule="evenodd">
        <path d="M0.107142857,0 L17.8928571,0 C17.9520305,0 18,0.0479694911 18,0.107142857 L18,17.8928571 C18,17.9520305 17.9520305,18 17.8928571,18 L0.107142857,18 C0.0479694911,18 0,17.9520305 0,17.8928571 L0,0.107142857 C0,0.0479694911 0.0479694911,0 0.107142857,0 Z M9.00514286,6.08571429 L7.236,6.08571429 L7.236,13.2857143 L8.21314286,13.2857143 L8.21314286,10.6525714 L9.00514286,10.6525714 C10.5891429,10.6525714 11.4531429,9.63428571 11.4531429,8.36914286 C11.4531429,7.23771429 10.5891429,6.08571429 9.00514286,6.08571429 Z M8.964,9.696 L8.21314286,9.696 L8.21314286,7.04228571 L8.964,7.04228571 C9.86914286,7.04228571 10.4554286,7.61828571 10.4554286,8.36914286 C10.4554286,9.18171429 9.86914286,9.696 8.964,9.696 Z" id="Shape" fill="currentColor" fill-rule="nonzero"></path>
    </g>
</svg>