<?xml version="1.0" encoding="UTF-8"?>
<svg width="1em" height="1em" viewBox="0 0 18 18" version="1.1" xmlns="http://www.w3.org/2000/svg" xmlns:xlink="http://www.w3.org/1999/xlink">
    <!-- Generator: Sketch 55 (78076) - https://sketchapp.com -->
    <title>password</title>
    <desc>Created with Sketch.</desc>
    <g id="password" stroke="none" stroke-width="1" fill="none" fill-rule="evenodd">
        <path d="M16.3036373,1.69634014 C18.5654542,3.95815043 18.5654542,7.63826793 16.3036373,9.90004307 C14.7586929,11.4460377 12.5213096,11.9422325 10.4562275,11.2727527 L9.10386934,12.6072123 C9.00500978,12.7061067 8.87109936,12.7617239 8.73103658,12.7617239 L7.76698001,12.7617239 L7.76698001,13.7436018 C7.76698001,13.8939649 7.70260879,14.0371562 7.59035467,14.1375624 C7.4775732,14.2374412 7.32770181,14.2873982 7.17888512,14.267324 L6.37756714,14.1741248 L6.27301225,15.2844284 C6.24931689,15.5367797 6.05001572,15.7360803 5.79766367,15.7597756 L4.68735681,15.8643302 L4.78006402,16.6656458 C4.7985914,16.8258176 4.74297411,16.9854619 4.6291731,17.0992626 L3.88347243,17.8454884 C3.78461286,17.9443829 3.65070244,18 3.51063967,18 L0.52734478,18 C0.235863742,18 0,17.7641369 0,17.4726568 L0,14.4893706 C0,14.3492731 0.0556172961,14.2153982 0.154512021,14.1165038 L6.68732947,7.58367033 C6.01837504,5.51806688 6.55500108,3.24131519 8.09994551,1.6963753 C10.3617624,-0.565434995 14.0418204,-0.565470151 16.3036373,1.69634014 Z M14.5610735,5.56106285 C15.1462922,4.97581331 15.1463255,4.02418669 14.5610735,3.43893715 C13.9758215,2.85368762 13.024191,2.85368762 12.438939,3.43893715 C11.853687,4.02418669 11.853687,4.97581331 12.438939,5.56106285 C13.024191,6.14631238 13.9758215,6.14631238 14.5610735,5.56106285 Z" id="Fill" fill="currentColor" fill-rule="nonzero"></path>
    </g>
</svg>