<?xml version="1.0" encoding="UTF-8"?>
<svg width="1em" height="1em" viewBox="0 0 18 18" version="1.1" xmlns="http://www.w3.org/2000/svg" xmlns:xlink="http://www.w3.org/1999/xlink">
    <!-- Generator: Sketch 53.2 (72643) - https://sketchapp.com -->
    <title>pdf-file</title>
    <desc>Created with Sketch.</desc>
    <g id="pdf-file" stroke="none" stroke-width="1" fill="none" fill-rule="evenodd">
        <path d="M2,0.25 C2,0.111928813 2.11192881,2.53632657e-17 2.25,0 L11.75,0 C11.8880712,-2.53632657e-17 12,0.111928813 12,0.25 L12,3.75 C12,3.88807119 12.1119288,4 12.25,4 L15.75,4 C15.8880712,4 16,4.11192881 16,4.25 L16,8 L2,8 L2,0.25 Z M13,0.603553391 C13,0.537249268 13.0263392,0.47366079 13.0732233,0.426776695 C13.1708544,0.329145622 13.3291456,0.329145622 13.4267767,0.426776695 L15.5732233,2.5732233 C15.6201074,2.6201074 15.6464466,2.68369588 15.6464466,2.75 C15.6464466,2.88807119 15.5345178,3 15.3964466,3 L13.25,3 C13.1119288,3 13,2.88807119 13,2.75 L13,0.603553391 Z M3.51098901,10.5809563 L3.51098901,13.7864545 L4.33516484,13.7864545 L4.33516484,12.7354173 L4.85054945,12.7354173 C5.08351648,12.7354173 5.27857143,12.7139113 5.43461538,12.6493932 C5.59175824,12.5848752 5.71923077,12.4828595 5.8467033,12.3565807 C5.93956044,12.263388 6.01978022,12.1481378 6.06978022,12.0119331 C6.11978022,11.874074 6.13846154,11.7417294 6.13846154,11.598356 C6.13846154,11.4130734 6.10384615,11.248194 6.03516484,11.1158494 C5.96813187,10.9835047 5.87197802,10.8732175 5.74340659,10.7882963 C5.63626374,10.7177125 5.52307692,10.6675318 5.38296703,10.6333428 C5.24395604,10.5974994 5.07087912,10.5815078 4.86758242,10.5815078 L3.51098901,10.5815078 L3.51098901,10.5809563 Z M6.72197802,10.5809563 L6.72197802,13.7864545 L7.85549451,13.7864545 C8.11043956,13.7864545 8.32197802,13.7721172 8.50824176,13.7346195 C8.69450549,13.6971219 8.86758242,13.622678 9.02362637,13.527831 C9.23131868,13.4015521 9.40274725,13.2289526 9.53901099,12.9934894 C9.67472527,12.7563718 9.74505495,12.4823081 9.74505495,12.1834297 C9.74505495,11.8735226 9.68351648,11.6016646 9.55604396,11.37337 C9.43021978,11.1434212 9.26153846,10.9570358 9.04065934,10.8219339 C8.91208791,10.7414242 8.7489011,10.6928979 8.55989011,10.6493344 C8.37087912,10.6046681 8.15054945,10.5804049 7.89010989,10.5804049 L6.72252747,10.5804049 L6.72197802,10.5809563 Z M10.3791209,10.5809563 L10.3791209,13.7864545 L11.2032967,13.7864545 L11.2032967,12.4078642 L12.5598901,12.4078642 L12.5598901,11.7874986 L11.2032967,11.7874986 L11.2032967,11.201322 L12.6626374,11.201322 L12.6626374,10.5809563 L10.3791209,10.5809563 Z M4.33516484,11.1842275 L4.47252747,11.1842275 C4.60824176,11.1842275 4.71703297,11.179816 4.7989011,11.1842275 C4.88021978,11.1869846 4.97032967,11.201322 5.05659341,11.2360625 C5.12087912,11.2619799 5.17967033,11.3077491 5.22857143,11.3739215 C5.27747253,11.4384395 5.29725275,11.5244635 5.29725275,11.6154505 C5.29725275,11.7075403 5.28736264,11.7748155 5.26263736,11.8393336 C5.23956044,11.9027487 5.1956044,11.9656124 5.14230769,12.0119331 C5.08076923,12.0637681 5.01043956,12.0979571 4.91923077,12.1156031 C4.82912088,12.1326976 4.71593407,12.1326976 4.57582418,12.1326976 L4.33516484,12.1326976 L4.33516484,11.1847789 L4.33516484,11.1842275 Z M7.54615385,11.1842275 L7.7521978,11.1842275 C7.92967033,11.1842275 8.05989011,11.1858818 8.14725275,11.201322 C8.23571429,11.2156593 8.33736264,11.2459883 8.42197802,11.287346 C8.58791209,11.3722672 8.70659341,11.4814515 8.78241758,11.6319936 C8.85989011,11.7814328 8.90274725,11.9722297 8.90274725,12.1834297 C8.90274725,12.3957326 8.85274725,12.5727436 8.78241758,12.7177713 C8.71208791,12.8611447 8.60659341,12.9763949 8.45604396,13.0624189 C8.36868132,13.1098424 8.27307692,13.1473401 8.18131868,13.1660889 C8.08956044,13.1831834 7.94835165,13.1831834 7.7521978,13.1831834 L7.54615385,13.1831834 L7.54615385,11.1842275 L7.54615385,11.1842275 Z M2,16 L16,16 L16,17.75 C16,17.8880712 15.8880712,18 15.75,18 L2.25,18 C2.11192881,18 2,17.8880712 2,17.75 L2,16 Z" id="Shape" fill="currentColor" fill-rule="nonzero"></path>
    </g>
</svg>