<?xml version="1.0" encoding="UTF-8"?>
<svg width="1em" height="1em" viewBox="0 0 18 18" version="1.1" xmlns="http://www.w3.org/2000/svg" xmlns:xlink="http://www.w3.org/1999/xlink">
    <!-- Generator: Sketch 53.2 (72643) - https://sketchapp.com -->
    <title>phone-number</title>
    <desc>Created with Sketch.</desc>
    <g id="phone-number" stroke="none" stroke-width="1" fill="none" fill-rule="evenodd">
        <path d="M13,1.71875 L13,0.28125 C13,0.125919914 13.1259199,2.85336739e-17 13.28125,0 L13.71875,0 C13.8740801,-2.85336739e-17 14,0.125919914 14,0.28125 L14,17.71875 C14,17.8740801 13.8740801,18 13.71875,18 L4.28125,18 C4.12591991,18 4,17.8740801 4,17.71875 L4,2.28125 C4,2.12591991 4.12591991,2 4.28125,2 L12.71875,2 C12.8740801,2 13,1.87408009 13,1.71875 Z M5,3.11382639 L5,7.88617361 C5,7.95051324 5.05063235,8 5.11309052,8 L12.8869095,8 C12.9489136,8 13,7.94903819 13,7.88617361 L13,3.11382639 C13,3.04948676 12.9493677,3 12.8869095,3 L5.11309052,3 C5.05108643,3 5,3.05096181 5,3.11382639 Z M5,9.12510896 L5,10.874891 C5,10.9423008 5.05601319,11 5.12510896,11 L6.87489104,11 C6.9423008,11 7,10.9439868 7,10.874891 L7,9.12510896 C7,9.0576992 6.94398681,9 6.87489104,9 L5.12510896,9 C5.0576992,9 5,9.05601319 5,9.12510896 Z M8,12.125109 L8,13.874891 C8,13.9423008 8.05601319,14 8.12510896,14 L9.87489104,14 C9.9423008,14 10,13.9439868 10,13.874891 L10,12.125109 C10,12.0576992 9.94398681,12 9.87489104,12 L8.12510896,12 C8.0576992,12 8,12.0560132 8,12.125109 Z M8,15.125109 L8,16.874891 C8,16.9423008 8.05601319,17 8.12510896,17 L9.87489104,17 C9.9423008,17 10,16.9439868 10,16.874891 L10,15.125109 C10,15.0576992 9.94398681,15 9.87489104,15 L8.12510896,15 C8.0576992,15 8,15.0560132 8,15.125109 Z M8,9.12510896 L8,10.874891 C8,10.9423008 8.05601319,11 8.12510896,11 L9.87489104,11 C9.9423008,11 10,10.9439868 10,10.874891 L10,9.12510896 C10,9.0576992 9.94398681,9 9.87489104,9 L8.12510896,9 C8.0576992,9 8,9.05601319 8,9.12510896 Z M11,12.125109 L11,13.874891 C11,13.9423008 11.0560132,14 11.125109,14 L12.874891,14 C12.9423008,14 13,13.9439868 13,13.874891 L13,12.125109 C13,12.0576992 12.9439868,12 12.874891,12 L11.125109,12 C11.0576992,12 11,12.0560132 11,12.125109 Z M11,15.125109 L11,16.874891 C11,16.9423008 11.0560132,17 11.125109,17 L12.874891,17 C12.9423008,17 13,16.9439868 13,16.874891 L13,15.125109 C13,15.0576992 12.9439868,15 12.874891,15 L11.125109,15 C11.0576992,15 11,15.0560132 11,15.125109 Z M11,9.12510896 L11,10.874891 C11,10.9423008 11.0560132,11 11.125109,11 L12.874891,11 C12.9423008,11 13,10.9439868 13,10.874891 L13,9.12510896 C13,9.0576992 12.9439868,9 12.874891,9 L11.125109,9 C11.0576992,9 11,9.05601319 11,9.12510896 Z M5,12.125109 L5,13.874891 C5,13.9423008 5.05601319,14 5.12510896,14 L6.87489104,14 C6.9423008,14 7,13.9439868 7,13.874891 L7,12.125109 C7,12.0576992 6.94398681,12 6.87489104,12 L5.12510896,12 C5.0576992,12 5,12.0560132 5,12.125109 Z M5,15.125109 L5,16.874891 C5,16.9423008 5.05601319,17 5.12510896,17 L6.87489104,17 C6.9423008,17 7,16.9439868 7,16.874891 L7,15.125109 C7,15.0576992 6.94398681,15 6.87489104,15 L5.12510896,15 C5.0576992,15 5,15.0560132 5,15.125109 Z" id="Shape" fill="currentColor" fill-rule="nonzero"></path>
    </g>
</svg>