<?xml version="1.0" encoding="UTF-8"?>
<svg width="1em" height="1em" viewBox="0 0 18 18" version="1.1" xmlns="http://www.w3.org/2000/svg" xmlns:xlink="http://www.w3.org/1999/xlink">
    <!-- Generator: Sketch 53.2 (72643) - https://sketchapp.com -->
    <title>plans</title>
    <desc>Created with Sketch.</desc>
    <g id="plans" stroke="none" stroke-width="1" fill="none" fill-rule="evenodd">
        <path d="M5.83,9.06375 C3.32875,9.06375 1.3,7.03125 1.3,4.53 C1.3,2.02875 3.32875,0 5.83,0 C8.33125,0 10.36,2.0325 10.36,4.53375 C10.36,7.035 8.33125,9.06375 5.83,9.06375 Z M4.2475,6.3225 C4.195,6.52125 4.21375,6.57 4.3975,6.65625 C4.64125,6.77625 4.9,6.83625 5.16625,6.8775 C5.37625,6.91125 5.38,6.9225 5.38375,7.13625 C5.3875,7.23375 5.3875,7.33125 5.3875,7.42875 C5.3875,7.5525 5.4475,7.62375 5.575,7.6275 C5.7175,7.63125 5.86375,7.63125 6.00625,7.6275 C6.12625,7.62375 6.18625,7.56 6.18625,7.44 C6.18625,7.305 6.19375,7.17375 6.18625,7.03875 C6.17875,6.90375 6.23875,6.83625 6.37,6.79875 C6.67375,6.71625 6.92875,6.555 7.1275,6.315 C7.675,5.65125 7.465,4.67625 6.68875,4.245 C6.44125,4.11 6.1825,4.005 5.9275,3.9 C5.7775,3.84 5.635,3.76875 5.51125,3.6675 C5.26375,3.46875 5.3125,3.15 5.60125,3.0225 C5.68375,2.985 5.76625,2.97375 5.85625,2.97 C6.19375,2.95125 6.5125,3.015 6.81625,3.16125 C6.96625,3.2325 7.015,3.21 7.0675,3.0525 C7.12375,2.8875 7.16875,2.71875 7.2175,2.55 C7.2475,2.4375 7.21,2.3625 7.10125,2.31375 C6.90625,2.2275 6.7075,2.1675 6.4975,2.13375 C6.22375,2.0925 6.22375,2.08875 6.22375,1.815 C6.22375,1.425 6.22375,1.425 5.83375,1.425 L5.665,1.425 C5.485,1.4325 5.45125,1.4625 5.4475,1.64625 L5.4475,1.89375 C5.44375,2.1375 5.44375,2.13375 5.21125,2.22 C4.64875,2.4225 4.3,2.80875 4.2625,3.42375 C4.22875,3.9675 4.51375,4.33875 4.96,4.605 C5.2375,4.77 5.54125,4.8675 5.83375,4.995 C5.94625,5.04375 6.055,5.10375 6.1525,5.1825 C6.43375,5.415 6.38125,5.80125 6.0475,5.9475 C5.87125,6.02625 5.68,6.045 5.48875,6.0225 C5.18875,5.985 4.90375,5.90625 4.63375,5.7675 C4.47625,5.685 4.4275,5.70375 4.375,5.87625 C4.33,6.02625 4.28875,6.1725 4.2475,6.3225 Z M15.9925,9.4425 C16.39,9.4425 16.7125,9.765 16.72,10.1625 L16.72,11.93625 C16.72,12.33375 16.3975,12.65625 16,12.65625 L15.50125,12.65625 C15.19,13.66875 14.58625,14.57625 13.76875,15.30375 C13.76125,15.31125 13.75375,15.315 13.74625,15.3225 L13.6675,15.39 C12.9325,16.05375 12.865,16.83 12.86125,17.025 L12.86125,17.61 C12.86125,17.8275 12.685,18 12.47125,18 L10.09375,18 C9.87625,18 9.70375,17.82375 9.70375,17.61 L9.70375,17.05125 C9.43,17.08125 9.15625,17.09625 8.875,17.09625 C8.51875,17.09625 8.16625,17.07 7.82125,17.025 L7.82125,17.61 C7.82125,17.8275 7.645,18 7.43125,18 L5.06125,18 C4.855,18 4.68625,17.83875 4.67125,17.63625 L4.67125,17.43375 C4.6525,17.02125 4.525,16.06875 3.77875,15.3 C3.26125,14.77125 2.88625,14.11875 2.6275,13.56 C2.4325,13.18125 2.27875,12.78 2.1775,12.36375 C2.17375,12.3525 2.17375,12.345 2.17375,12.345 C2.07625,11.94375 2.02375,11.5275 2.02375,11.1 C2.02375,10.30875 2.19625,9.555 2.515,8.865 C3.43375,9.57 4.58125,9.99 5.83,9.99 C8.39875,9.99 10.555,8.20875 11.1325,5.81625 C11.215,5.475 11.4025,5.1675 11.665,4.93875 C12.0475,4.605 12.6025,4.30875 13.40875,4.2075 C13.76875,4.1625 14.01625,4.55625 13.825,4.86375 C13.55125,5.3025 13.315,5.91375 13.50625,6.585 C13.51375,6.61875 13.52125,6.65625 13.52125,6.69 C14.4325,7.425 15.115,8.37375 15.46375,9.4425 L15.9925,9.4425 Z M13.02625,9.57 C13.3525,9.57 13.615,9.3075 13.615,8.98125 C13.615,8.655 13.3525,8.3925 13.02625,8.3925 C12.7,8.3925 12.4375,8.655 12.4375,8.98125 C12.4375,9.3075 12.7,9.57 13.02625,9.57 Z" id="Shape" fill="currentColor" fill-rule="nonzero"></path>
    </g>
</svg>