<?xml version="1.0" encoding="UTF-8"?>
<svg width="1em" height="1em" viewBox="0 0 18 18" version="1.1" xmlns="http://www.w3.org/2000/svg" xmlns:xlink="http://www.w3.org/1999/xlink">
    <!-- Generator: Sketch 53.2 (72643) - https://sketchapp.com -->
    <title>play-circle-o</title>
    <desc>Created with Sketch.</desc>
    <g id="play-circle-o" stroke="none" stroke-width="1" fill="none" fill-rule="evenodd">
        <path d="M9,18 C4.02943725,18 0,13.9705627 0,9 C0,4.02943725 4.02943725,0 9,0 C13.9705627,0 18,4.02943725 18,9 C18,13.9705627 13.9705627,18 9,18 Z M5.57148364,13.5162122 C5.57209584,13.7449091 5.68892955,13.9551969 5.87653617,14.0652732 C6.0641428,14.1753495 6.29290245,14.1678351 6.47382706,14.0456532 L13.8729598,9.53894836 C14.0338253,9.42159513 14.1337688,9.23032385 14.1428571,9.02242058 C14.1378628,8.81559299 14.0366202,8.62506489 13.8729598,8.51450161 L6.47382706,3.96905721 C6.37839084,3.90676915 6.27094296,3.86849856 6.15961819,3.85714286 C6.00186044,3.85827396 5.85104674,3.92662333 5.74063281,4.0470287 C5.63021888,4.16743408 5.56933367,4.32994041 5.57148364,4.49849817 L5.57148364,13.5162122 Z" id="Shape" fill="currentColor" fill-rule="nonzero"></path>
    </g>
</svg>