<?xml version="1.0" encoding="UTF-8"?>
<svg width="1em" height="1em" viewBox="0 0 18 18" version="1.1" xmlns="http://www.w3.org/2000/svg" xmlns:xlink="http://www.w3.org/1999/xlink">
    <!-- Generator: Sketch 53.2 (72643) - https://sketchapp.com -->
    <title>pluck</title>
    <desc>Created with Sketch.</desc>
    <g id="pluck" stroke="none" stroke-width="1" fill="none" fill-rule="evenodd">
        <path d="M10.9677422,5.79977474 C10.4801805,6.3325456 9.77910933,6.66666667 9,6.66666667 C8.22089067,6.66666667 7.5198195,6.3325456 7.03225776,5.79977474 L2.7985529,7.85371918 L4.06766936,11.5488319 L2.67236695,12 L1,7.13079797 L6.38378833,4.51890071 C6.35068614,4.35105572 6.33333333,4.17755434 6.33333333,4 C6.33333333,3.01295686 6.86959817,2.15116508 7.66666667,1.69008585 L7.66666667,0 L10.3333333,0 L10.3333333,1.69008585 C11.1304018,2.15116508 11.6666667,3.01295686 11.6666667,4 C11.6666667,4.17755434 11.6493139,4.35105572 11.6162117,4.51890071 L17,7.13079797 L15.3276331,12 L13.9323306,11.5488319 L15.2014471,7.85371918 L10.9677422,5.79977474 Z M6,12 L12,12 L12,18 L6,18 L6,12 Z" id="Shape" fill="currentColor" fill-rule="nonzero"></path>
    </g>
</svg>