<?xml version="1.0" encoding="UTF-8"?>
<svg width="1em" height="1em" viewBox="0 0 18 18" version="1.1" xmlns="http://www.w3.org/2000/svg" xmlns:xlink="http://www.w3.org/1999/xlink">
    <!-- Generator: Sketch 55 (78076) - https://sketchapp.com -->
    <title>post</title>
    <desc>Created with Sketch.</desc>
    <g id="post" stroke="none" stroke-width="1" fill="none" fill-rule="evenodd">
        <path d="M18,5.25 L18,17.75 C18,17.8880712 17.8880712,18 17.75,18 L0.25,18 C0.111928813,18 1.69088438e-17,17.8880712 0,17.75 L0,4.25 C-1.69088438e-17,4.11192881 0.111928813,4 0.25,4 L8.75,4 C8.88807119,4 9,4.11192881 9,4.25 L9,4.75 C9,4.88807119 8.88807119,5 8.75,5 L1,5 L1,17 L17,17 L17,5.25 C17,5.11192881 17.1119288,5 17.25,5 L17.75,5 C17.8880712,5 18,5.11192881 18,5.25 Z M15.25,7 L15.75,7 C15.8880712,7 16,7.11192881 16,7.25 L16,7.75 C16,7.88807119 15.8880712,8 15.75,8 L15.25,8 C15.1119288,8 15,7.88807119 15,7.75 L15,7.25 C15,7.11192881 15.1119288,7 15.25,7 Z M2.25,6 L5.75,6 C5.88807119,6 6,6.11192881 6,6.25 L6,9.75 C6,9.88807119 5.88807119,10 5.75,10 L2.25,10 C2.11192881,10 2,9.88807119 2,9.75 L2,6.25 C2,6.11192881 2.11192881,6 2.25,6 Z M13.25,9 L15.75,9 C15.8880712,9 16,9.11192881 16,9.25 L16,9.75 C16,9.88807119 15.8880712,10 15.75,10 L13.25,10 C13.1119288,10 13,9.88807119 13,9.75 L13,9.25 C13,9.11192881 13.1119288,9 13.25,9 Z M2.25,11 L8.75,11 C8.88807119,11 9,11.1119288 9,11.25 L9,11.75 C9,11.8880712 8.88807119,12 8.75,12 L2.25,12 C2.11192881,12 2,11.8880712 2,11.75 L2,11.25 C2,11.1119288 2.11192881,11 2.25,11 Z M10.25,11 L15.75,11 C15.8880712,11 16,11.1119288 16,11.25 L16,11.75 C16,11.8880712 15.8880712,12 15.75,12 L10.25,12 C10.1119288,12 10,11.8880712 10,11.75 L10,11.25 C10,11.1119288 10.1119288,11 10.25,11 Z M2.25,13 L5.75,13 C5.88807119,13 6,13.1119288 6,13.25 L6,13.75 C6,13.8880712 5.88807119,14 5.75,14 L2.25,14 C2.11192881,14 2,13.8880712 2,13.75 L2,13.25 C2,13.1119288 2.11192881,13 2.25,13 Z M7.25,13 L10.75,13 C10.8880712,13 11,13.1119288 11,13.25 L11,13.75 C11,13.8880712 10.8880712,14 10.75,14 L7.25,14 C7.11192881,14 7,13.8880712 7,13.75 L7,13.25 C7,13.1119288 7.11192881,13 7.25,13 Z M12.25,13 L15.75,13 C15.8880712,13 16,13.1119288 16,13.25 L16,13.75 C16,13.8880712 15.8880712,14 15.75,14 L12.25,14 C12.1119288,14 12,13.8880712 12,13.75 L12,13.25 C12,13.1119288 12.1119288,13 12.25,13 Z M2.25,15 L7.75,15 C7.88807119,15 8,15.1119288 8,15.25 L8,15.75 C8,15.8880712 7.88807119,16 7.75,16 L2.25,16 C2.11192881,16 2,15.8880712 2,15.75 L2,15.25 C2,15.1119288 2.11192881,15 2.25,15 Z M15.417853,0.0222363325 C15.4469286,-0.00683930713 15.4926418,-0.00826706314 15.5239958,0.0230869123 L17.9783164,2.47740752 C18.0078618,2.50695292 18.0063083,2.556409 17.979167,2.58355031 L11.0408457,9.52187153 C11.0117701,9.55094717 10.9546408,9.57931175 10.9143336,9.58506992 L8.32998316,9.95426284 C8.19329966,9.97378905 8.06666667,9.87881431 8.04714045,9.7421308 C8.04379028,9.71867962 8.04379028,9.69487131 8.04714045,9.67142013 L8.41633337,7.08706967 C8.42216124,7.0462746 8.45239046,6.98769886 8.47953176,6.96055755 L15.417853,0.0222363325 Z" id="Fill" fill="currentColor" fill-rule="nonzero"></path>
    </g>
</svg>