<?xml version="1.0" encoding="UTF-8"?>
<svg width="1em" height="1em" viewBox="0 0 18 18" version="1.1" xmlns="http://www.w3.org/2000/svg" xmlns:xlink="http://www.w3.org/1999/xlink">
    <!-- Generator: Sketch 55 (78076) - https://sketchapp.com -->
    <title>power-button</title>
    <desc>Created with Sketch.</desc>
    <g id="power-button" stroke="none" stroke-width="1" fill="none" fill-rule="evenodd">
        <path d="M12,2.58151705 C14.9318303,3.7682918 17,6.64262245 17,10 C17,14.418278 13.418278,18 9,18 C4.581722,18 1,14.418278 1,10 C1,6.64262245 3.06816966,3.7682918 6,2.58151705 L6,3.67363116 C3.63505267,4.7970951 2,7.20760404 2,10 C2,13.8659932 5.13400675,17 9,17 C12.8659932,17 16,13.8659932 16,10 C16,7.20760404 14.3649473,4.7970951 12,3.67363116 L12,2.58151705 Z M8.75,0 L9.25,0 C9.38807119,-2.53632657e-17 9.5,0.111928813 9.5,0.25 L9.5,7.75 C9.5,7.88807119 9.38807119,8 9.25,8 L8.75,8 C8.61192881,8 8.5,7.88807119 8.5,7.75 L8.5,0.25 C8.5,0.111928813 8.61192881,2.53632657e-17 8.75,0 Z" id="Fill" fill="currentColor" fill-rule="nonzero"></path>
    </g>
</svg>