<?xml version="1.0" encoding="UTF-8"?>
<svg width="1em" height="1em" viewBox="0 0 18 18" version="1.1" xmlns="http://www.w3.org/2000/svg" xmlns:xlink="http://www.w3.org/1999/xlink">
    <!-- Generator: Sketch 53.2 (72643) - https://sketchapp.com -->
    <title>press</title>
    <desc>Created with Sketch.</desc>
    <g id="press" stroke="none" stroke-width="1" fill="none" fill-rule="evenodd">
        <path d="M11.5714286,2.57142857 L16.7142857,2.57142857 L16.7142857,3.85714286 L15.4285714,3.85714286 L15.4285714,12.8571429 L14.1428571,12.8571429 L14.1428571,11.5714286 L3.85714286,11.5714286 L3.85714286,12.8571429 L2.57142857,12.8571429 L2.57142857,3.85714286 L1.28571429,3.85714286 L1.28571429,2.57142857 L6.42857143,2.57142857 L6.42857143,0 L11.5714286,0 L11.5714286,2.57142857 Z M3.85714286,3.85714286 L3.85714286,10.2857143 L7.71428571,10.2857143 L7.71428571,6.42857143 L5.14285714,6.42857143 L5.14285714,3.85714286 L3.85714286,3.85714286 Z M12.8571429,3.85714286 L12.8571429,6.42857143 L10.2857143,6.42857143 L10.2857143,10.2857143 L14.1428571,10.2857143 L14.1428571,3.85714286 L12.8571429,3.85714286 Z M16.7142857,16.7142857 L1.28571429,16.7142857 L1.28571429,18 L0,18 L0,15.4285714 L18,15.4285714 L18,18 L16.7142857,18 L16.7142857,16.7142857 Z" id="Shape" fill="currentColor" fill-rule="nonzero"></path>
    </g>
</svg>