<?xml version="1.0" encoding="UTF-8"?>
<svg width="1em" height="1em" viewBox="0 0 18 18" version="1.1" xmlns="http://www.w3.org/2000/svg" xmlns:xlink="http://www.w3.org/1999/xlink">
    <!-- Generator: Sketch 53.2 (72643) - https://sketchapp.com -->
    <title>printer</title>
    <desc>Created with Sketch.</desc>
    <g id="printer" stroke="none" stroke-width="1" fill="none" fill-rule="evenodd">
        <path d="M0,5.25190871 C0,5.19168119 0.0516357422,5.14285714 0.105707198,5.14285714 L17.8942928,5.14285714 C17.9526733,5.14285714 18,5.19211905 18,5.25190871 L18,12.7480913 C18,12.8083188 17.9483643,12.8571429 17.8942928,12.8571429 L0.105707198,12.8571429 C0.0473267248,12.8571429 0,12.8078809 0,12.7480913 L0,5.25190871 Z M2.14285714,7.71428571 C2.61624407,7.71428571 3,7.33052979 3,6.85714286 C3,6.38375593 2.61624407,6 2.14285714,6 C1.66947021,6 1.28571429,6.38375593 1.28571429,6.85714286 C1.28571429,7.33052979 1.66947021,7.71428571 2.14285714,7.71428571 Z M4.71428571,7.71428571 C5.18767264,7.71428571 5.57142857,7.33052979 5.57142857,6.85714286 C5.57142857,6.38375593 5.18767264,6 4.71428571,6 C4.24089879,6 3.85714286,6.38375593 3.85714286,6.85714286 C3.85714286,7.33052979 4.24089879,7.71428571 4.71428571,7.71428571 Z M2.67857143,13.7142857 L15.3214286,13.7142857 C15.3806019,13.7142857 15.4285714,13.7622552 15.4285714,13.8214286 L15.4285714,17.8928571 C15.4285714,17.9520305 15.3806019,18 15.3214286,18 L2.67857143,18 C2.61939806,18 2.57142857,17.9520305 2.57142857,17.8928571 L2.57142857,13.8214286 C2.57142857,13.7622552 2.61939806,13.7142857 2.67857143,13.7142857 Z M3.42857143,0.857142857 L3.42857143,3.85714286 L2.57142857,3.85714286 L2.57142857,0.428571429 C2.57142857,0.191877964 2.76330654,0 3,0 L15,0 C15.2366935,0 15.4285714,0.191877964 15.4285714,0.428571429 L15.4285714,3.85714286 L14.5714286,3.85714286 L14.5714286,0.857142857 L3.42857143,0.857142857 Z" id="Shape" fill="currentColor" fill-rule="nonzero"></path>
    </g>
</svg>