<?xml version="1.0" encoding="UTF-8"?>
<svg width="1em" height="1em" viewBox="0 0 18 18" version="1.1" xmlns="http://www.w3.org/2000/svg" xmlns:xlink="http://www.w3.org/1999/xlink">
    <!-- Generator: Sketch 53.2 (72643) - https://sketchapp.com -->
    <title>properties</title>
    <desc>Created with Sketch.</desc>
    <g id="properties" stroke="none" stroke-width="1" fill="none" fill-rule="evenodd">
        <path d="M12.2142857,12.96 C13.8519485,12.96 15.3370666,13.8438161 16.432933,15.2810981 C16.5223557,15.3987097 16.5223557,15.5630199 16.432933,15.6806314 C15.3370666,17.1161839 13.8519485,18 12.2142857,18 C10.576623,18 9.09150484,17.1161839 7.99563845,15.6789019 C7.90621575,15.5612903 7.90621575,15.3969801 7.99563845,15.2793686 C9.09150484,13.8438161 10.576623,12.96 12.2142857,12.96 Z M12.3306596,17.2763336 C13.2182275,17.2185568 13.9390507,16.4919696 13.9963691,15.5973044 C14.0641092,14.5100499 13.1748044,13.6153847 12.0979118,13.6836664 C11.2086071,13.7396924 10.4877838,14.4662796 10.4322023,15.3626956 C10.3644623,16.4499501 11.2537671,17.3446153 12.3306596,17.2763336 Z M15.0714286,0.09 L15.0714286,10.71 C15.0714286,10.7597056 15.031454,10.8 14.9821429,10.8 L14.0892857,10.8 C14.0399746,10.8 14,10.7597056 14,10.71 L14,1.08 L4.44642857,1.08 C4.39711743,1.08 4.35714286,1.03970563 4.35714286,0.99 L4.35714286,0.09 C4.35714286,0.0402943725 4.39711743,0 4.44642857,0 L14.9821429,0 C15.031454,0 15.0714286,0.0402943725 15.0714286,0.09 Z M3.01785714,1.44 L13.5535714,1.44 C13.6028826,1.44 13.6428571,1.48029437 13.6428571,1.53 L13.6428571,12.15 C13.6428571,12.1997056 13.6028826,12.24 13.5535714,12.24 L12.6607143,12.24 C12.6114031,12.24 12.5714286,12.1997056 12.5714286,12.15 L12.5714286,2.52 L3.01785714,2.52 C2.968546,2.52 2.92857143,2.47970563 2.92857143,2.43 L2.92857143,1.53 C2.92857143,1.48029437 2.968546,1.44 3.01785714,1.44 Z M12.2829757,16.5577991 C11.6367097,16.5987652 11.1026696,16.0623041 11.145238,15.4107477 C11.1781318,14.8723359 11.6115557,14.4373147 12.1455958,14.4022009 C12.7918617,14.3612348 13.3259018,14.8976959 13.2833334,15.5492523 C13.2485047,16.0896149 12.8150808,16.5246361 12.2829757,16.5577991 Z M1.5,2.97148547 C1.5,2.92095944 1.53879624,2.88 1.59262562,2.88 L12.1216601,2.88 C12.1728158,2.88 12.2142857,2.92333591 12.2142857,2.97001747 L12.2142857,12.6 C10.1707952,12.4824547 8.49650562,13.5597622 7.57142857,15.12 L1.58582762,15.12 C1.53842634,15.12 1.5,15.0804142 1.5,15.0285145 L1.5,2.97148547 Z M2.57142857,4.76828613 L2.57142857,5.31171387 C2.57142857,5.36128967 2.61150501,5.4 2.66094181,5.4 L6.76762962,5.4 C6.82009261,5.4 6.85714286,5.36047295 6.85714286,5.31171387 L6.85714286,4.76828613 C6.85714286,4.71871033 6.81706642,4.68 6.76762962,4.68 L2.66094181,4.68 C2.60847882,4.68 2.57142857,4.71952705 2.57142857,4.76828613 Z M2.57142857,6.20828613 L2.57142857,6.75171387 C2.57142857,6.80128967 2.6119296,6.84 2.66189016,6.84 L11.0523956,6.84 C11.1046421,6.84 11.1428571,6.80047295 11.1428571,6.75171387 L11.1428571,6.20828613 C11.1428571,6.15871033 11.1023561,6.12 11.0523956,6.12 L2.66189016,6.12 C2.60964366,6.12 2.57142857,6.15952705 2.57142857,6.20828613 Z M2.57142857,7.64828613 L2.57142857,8.19171387 C2.57142857,8.24128967 2.61095421,8.28 2.65971157,8.28 L6.05457415,8.28 C6.10274833,8.28 6.14285714,8.24047295 6.14285714,8.19171387 L6.14285714,7.64828613 C6.14285714,7.59871033 6.1033315,7.56 6.05457415,7.56 L2.65971157,7.56 C2.61153739,7.56 2.57142857,7.59952705 2.57142857,7.64828613 Z M6.85714286,7.64828613 L6.85714286,8.19171387 C6.85714286,8.24128967 6.8972193,8.28 6.94665609,8.28 L11.0533439,8.28 C11.1058069,8.28 11.1428571,8.24047295 11.1428571,8.19171387 L11.1428571,7.64828613 C11.1428571,7.59871033 11.1027807,7.56 11.0533439,7.56 L6.94665609,7.56 C6.8941931,7.56 6.85714286,7.59952705 6.85714286,7.64828613 Z M2.57142857,9.08828613 L2.57142857,9.63171387 C2.57142857,9.68128967 2.61150501,9.72 2.66094181,9.72 L6.76762962,9.72 C6.82009261,9.72 6.85714286,9.68047295 6.85714286,9.63171387 L6.85714286,9.08828613 C6.85714286,9.03871033 6.81706642,9 6.76762962,9 L2.66094181,9 C2.60847882,9 2.57142857,9.03952705 2.57142857,9.08828613 Z M2.57142857,10.5282861 L2.57142857,11.0717139 C2.57142857,11.1212897 2.61105747,11.16 2.65994219,11.16 L7.84005781,11.16 C7.88853052,11.16 7.92857143,11.120473 7.92857143,11.0717139 L7.92857143,10.5282861 C7.92857143,10.4787103 7.88894253,10.44 7.84005781,10.44 L2.65994219,10.44 C2.61146948,10.44 2.57142857,10.479527 2.57142857,10.5282861 Z M8.64285714,10.5282861 L8.64285714,11.0717139 C8.64285714,11.1212897 8.6826932,11.16 8.73183347,11.16 L11.0538808,11.16 C11.099465,11.16 11.1428571,11.120473 11.1428571,11.0717139 L11.1428571,10.5282861 C11.1428571,10.4787103 11.1030211,10.44 11.0538808,10.44 L8.73183347,10.44 C8.68624932,10.44 8.64285714,10.479527 8.64285714,10.5282861 Z M2.57142857,11.9682861 L2.57142857,12.5117139 C2.57142857,12.5612897 2.61111479,12.6 2.66007021,12.6 L5.33992979,12.6 C5.38818196,12.6 5.42857143,12.560473 5.42857143,12.5117139 L5.42857143,11.9682861 C5.42857143,11.9187103 5.38888521,11.88 5.33992979,11.88 L2.66007021,11.88 C2.61181804,11.88 2.57142857,11.919527 2.57142857,11.9682861 Z M6.14285714,11.9682861 L6.14285714,12.5117139 C6.14285714,12.5612897 6.18286656,12.6 6.23222068,12.6 L7.48206503,12.6 C7.53021485,12.6 7.57142857,12.560473 7.57142857,12.5117139 L7.57142857,11.9682861 C7.57142857,11.9187103 7.53141915,11.88 7.48206503,11.88 L6.23222068,11.88 C6.18407086,11.88 6.14285714,11.919527 6.14285714,11.9682861 Z" id="Shape" fill="currentColor" fill-rule="nonzero"></path>
    </g>
</svg>