<?xml version="1.0" encoding="UTF-8"?>
<svg width="1em" height="1em" viewBox="0 0 18 18" version="1.1" xmlns="http://www.w3.org/2000/svg" xmlns:xlink="http://www.w3.org/1999/xlink">
    <!-- Generator: Sketch 53.2 (72643) - https://sketchapp.com -->
    <title>property</title>
    <desc>Created with Sketch.</desc>
    <g id="property" stroke="none" stroke-width="1" fill="none" fill-rule="evenodd">
        <path d="M12.8571429,12 C14.8223381,12 16.6044799,13.052162 17.9195196,14.7632121 C18.0268268,14.9032258 18.0268268,15.0988332 17.9195196,15.2388469 C16.6044799,16.947838 14.8223381,18 12.8571429,18 C10.8919476,18 9.10980581,16.947838 7.79476614,15.2367879 C7.68745891,15.0967742 7.68745891,14.9011668 7.79476614,14.7611531 C9.10980581,13.052162 10.8919476,12 12.8571429,12 Z M12.9967915,17.1384923 C14.0618729,17.0697104 14.9268608,16.2047257 14.995643,15.1396481 C15.076931,13.8452975 14.0097652,12.7802199 12.7174942,12.8615077 C11.6503285,12.9282053 10.7853406,13.79319 10.7186427,14.8603519 C10.6373547,16.1547025 11.7045205,17.2197801 12.9967915,17.1384923 Z M12.9395708,16.2830942 C12.1640517,16.3318634 11.5232035,15.6932192 11.5742856,14.9175568 C11.6137581,14.2765903 12.1338668,13.758708 12.7747149,13.7169058 C13.5502341,13.6681366 14.1910822,14.3067808 14.1400001,15.0824432 C14.0982057,15.725732 13.578097,16.2436144 12.9395708,16.2830942 Z M0,0.108911276 C0,0.0487612391 0.046555485,0 0.111150742,0 L12.7459921,0 C12.807379,0 12.8571429,0.0515903745 12.8571429,0.107163657 L12.8571429,11.5714286 C10.4049542,11.4314937 8.39580675,12.7140026 7.28571429,14.5714286 L0.102993148,14.5714286 C0.0461116029,14.5714286 0,14.5243026 0,14.4625173 L0,0.108911276 Z M1.28571429,2.24795968 L1.28571429,2.89489746 C1.28571429,2.95391628 1.33380601,3 1.39313017,3 L6.32115555,3 C6.38411113,3 6.42857143,2.95294399 6.42857143,2.89489746 L6.42857143,2.24795968 C6.42857143,2.18894087 6.3804797,2.14285714 6.32115555,2.14285714 L1.39313017,2.14285714 C1.33017458,2.14285714 1.28571429,2.18991315 1.28571429,2.24795968 Z M1.28571429,3.9622454 L1.28571429,4.60918318 C1.28571429,4.66820199 1.33431552,4.71428571 1.39426819,4.71428571 L11.4628747,4.71428571 C11.5255705,4.71428571 11.5714286,4.6672297 11.5714286,4.60918318 L11.5714286,3.9622454 C11.5714286,3.90322658 11.5228273,3.85714286 11.4628747,3.85714286 L1.39426819,3.85714286 C1.3315724,3.85714286 1.28571429,3.90419887 1.28571429,3.9622454 Z M1.28571429,5.67653111 L1.28571429,6.32346889 C1.28571429,6.38248771 1.33314506,6.42857143 1.39165388,6.42857143 L5.46548898,6.42857143 C5.52329799,6.42857143 5.57142857,6.38151542 5.57142857,6.32346889 L5.57142857,5.67653111 C5.57142857,5.61751229 5.5239978,5.57142857 5.46548898,5.57142857 L1.39165388,5.57142857 C1.33384487,5.57142857 1.28571429,5.61848458 1.28571429,5.67653111 Z M6.42857143,5.67653111 L6.42857143,6.32346889 C6.42857143,6.38248771 6.47666316,6.42857143 6.53598731,6.42857143 L11.4640127,6.42857143 C11.5269683,6.42857143 11.5714286,6.38151542 11.5714286,6.32346889 L11.5714286,5.67653111 C11.5714286,5.61751229 11.5233368,5.57142857 11.4640127,5.57142857 L6.53598731,5.57142857 C6.47303173,5.57142857 6.42857143,5.61848458 6.42857143,5.67653111 Z M1.28571429,7.39081682 L1.28571429,8.0377546 C1.28571429,8.09677342 1.33380601,8.14285714 1.39313017,8.14285714 L6.32115555,8.14285714 C6.38411113,8.14285714 6.42857143,8.09580113 6.42857143,8.0377546 L6.42857143,7.39081682 C6.42857143,7.33179801 6.3804797,7.28571429 6.32115555,7.28571429 L1.39313017,7.28571429 C1.33017458,7.28571429 1.28571429,7.3327703 1.28571429,7.39081682 Z M1.28571429,9.10510254 L1.28571429,9.75204032 C1.28571429,9.81105913 1.33326896,9.85714286 1.39193062,9.85714286 L7.60806938,9.85714286 C7.66623662,9.85714286 7.71428571,9.81008685 7.71428571,9.75204032 L7.71428571,9.10510254 C7.71428571,9.04608372 7.66673104,9 7.60806938,9 L1.39193062,9 C1.33376338,9 1.28571429,9.04705601 1.28571429,9.10510254 Z M8.57142857,9.10510254 L8.57142857,9.75204032 C8.57142857,9.81105913 8.61923184,9.85714286 8.67820016,9.85714286 L11.464657,9.85714286 C11.519358,9.85714286 11.5714286,9.81008685 11.5714286,9.75204032 L11.5714286,9.10510254 C11.5714286,9.04608372 11.5236253,9 11.464657,9 L8.67820016,9 C8.62349919,9 8.57142857,9.04705601 8.57142857,9.10510254 Z M1.28571429,10.8193883 L1.28571429,11.466326 C1.28571429,11.5253448 1.33333774,11.5714286 1.39208426,11.5714286 L4.60791574,11.5714286 C4.66581835,11.5714286 4.71428571,11.5243726 4.71428571,11.466326 L4.71428571,10.8193883 C4.71428571,10.7603694 4.66666226,10.7142857 4.60791574,10.7142857 L1.39208426,10.7142857 C1.33418165,10.7142857 1.28571429,10.7613417 1.28571429,10.8193883 Z M5.57142857,10.8193883 L5.57142857,11.466326 C5.57142857,11.5253448 5.61943988,11.5714286 5.67866482,11.5714286 L7.17847804,11.5714286 C7.23625783,11.5714286 7.28571429,11.5243726 7.28571429,11.466326 L7.28571429,10.8193883 C7.28571429,10.7603694 7.23770298,10.7142857 7.17847804,10.7142857 L5.67866482,10.7142857 C5.62088503,10.7142857 5.57142857,10.7613417 5.57142857,10.8193883 Z" id="Shape" fill="currentColor" fill-rule="nonzero"></path>
    </g>
</svg>