<?xml version="1.0" encoding="UTF-8"?>
<svg width="1em" height="1em" viewBox="0 0 18 18" version="1.1" xmlns="http://www.w3.org/2000/svg" xmlns:xlink="http://www.w3.org/1999/xlink">
    <!-- Generator: Sketch 55 (78076) - https://sketchapp.com -->
    <title>public-profile</title>
    <desc>Created with Sketch.</desc>
    <g id="public-profile" stroke="none" stroke-width="1" fill="none" fill-rule="evenodd">
        <path d="M10.9078216,9.20053181 C8.18505366,9.23195904 5.69257416,10.6545157 3.74436141,13 L1.77635684e-15,13 L0.303665823,11.1780051 C0.705489131,8.76706521 2.79143968,7 5.23563544,7 L6.76436456,7 C8.47029848,7 10.0017174,7.86080546 10.9078216,9.20053181 L10.9078216,9.20053181 Z M6,6 C4.34314575,6 3,4.65685425 3,3 C3,1.34314575 4.34314575,0 6,0 C7.65685425,0 9,1.34314575 9,3 C9,4.65685425 7.65685425,6 6,6 Z M11,10 C13.6748491,10 16.1005421,11.4028826 17.8904572,13.6842828 C18.0365143,13.8709677 18.0365143,14.1317776 17.8904572,14.3184626 C16.1005421,16.5971174 13.6748491,18 11,18 C8.32515086,18 5.89945791,16.5971174 4.1095428,14.3157172 C3.96348573,14.1290323 3.96348573,13.8682224 4.1095428,13.6815374 C5.89945791,11.4028826 8.32515086,10 11,10 Z M11.1955081,16.9938893 C12.6866221,16.8975946 13.8976051,15.686616 13.9939002,14.1955074 C14.1077034,12.3834165 12.6136713,10.8923079 10.8044919,11.0061107 C9.31045985,11.0994874 8.09947684,12.310466 8.00609984,13.8044926 C7.89229661,15.6165835 9.38632866,17.1076921 11.1955081,16.9938893 Z M11.1282212,15.9959243 C9.92185814,16.0717875 8.92498325,15.078341 9.00444429,13.8717551 C9.065846,12.8746961 9.87490388,12.0691013 10.8717788,12.0040757 C12.0781419,11.9282125 13.0750168,12.921659 12.9955557,14.1282449 C12.9305421,15.1289165 12.1214843,15.9345113 11.1282212,15.9959243 Z" id="Fill" fill="currentColor" fill-rule="nonzero"></path>
    </g>
</svg>