<?xml version="1.0" encoding="UTF-8"?>
<svg width="1em" height="1em" viewBox="0 0 18 18" version="1.1" xmlns="http://www.w3.org/2000/svg" xmlns:xlink="http://www.w3.org/1999/xlink">
    <!-- Generator: Sketch 53.2 (72643) - https://sketchapp.com -->
    <title>publish</title>
    <desc>Created with Sketch.</desc>
    <g id="publish" stroke="none" stroke-width="1" fill="none" fill-rule="evenodd">
        <path d="M18,0 L18,16 L17,16 L17,2 L2,2 L2,0 L18,0 Z M0,6 L16,6 L16,18 L0,18 L0,6 Z M4.24214968,12.0934911 C4.27391438,12.1252558 4.31189968,12.1513293 4.35425262,12.1699911 L5.95082615,12.8698734 C5.95837027,13.2953881 6.08701733,13.6598881 6.35092909,13.9237999 C6.61735556,14.1902264 6.98635556,14.3190058 7.41742909,14.3241675 L8.12684086,15.9425793 C8.14550262,15.9849323 8.17157615,16.0229175 8.20334086,16.0546823 C8.25482615,16.1061675 8.32126733,16.1419028 8.39485556,16.1556675 C8.51397321,16.1780352 8.63626733,16.1403146 8.72189968,16.0545499 L10.1824144,14.5940352 C10.591385,14.1850646 10.6205026,13.5386528 10.2713556,13.0950058 C10.4955614,12.9144764 10.7175173,12.7158146 10.9340467,12.4992852 C12.565032,10.8682999 12.4046203,8.11734402 12.3969438,8.00113814 L12.3893997,7.88532931 L12.2735909,7.8777852 C12.1572526,7.87010872 9.40629674,7.70969696 7.7754438,9.34068225 C7.55772321,9.55840284 7.35813497,9.7815499 7.17681144,10.0070793 C6.73409086,9.6780499 6.10422321,9.71285872 5.70279674,10.1142852 L4.24214968,11.5747999 C4.15651733,11.6604323 4.11866438,11.7828587 4.14103203,11.901844 C4.15506144,11.9755646 4.19066438,12.0420058 4.24214968,12.0934911 Z M4.71107615,15.5856234 C4.7517085,15.6262558 4.81351733,15.6359175 4.86460556,15.6101087 C4.93131144,15.5762264 5.10178203,15.4981381 5.24922321,15.4576381 C5.27754674,15.5431381 5.31897321,15.6159323 5.33101733,15.6361823 C5.35497321,15.6765499 5.39825262,15.7009028 5.4447085,15.7009028 C5.44775262,15.7009028 5.45106144,15.7007705 5.45410556,15.7006381 C5.49447321,15.6977264 6.44781144,15.6242705 6.92362027,15.148594 C7.03281144,15.0392705 7.12717909,14.9177705 7.2039438,14.7872705 C7.22697321,14.7479617 7.22829674,14.6995205 7.20712027,14.6591528 C7.1862085,14.6186528 7.1457085,14.5919175 7.10031144,14.588344 C6.69054674,14.5555205 6.35714968,14.4131087 6.10925262,14.1652117 C5.86863497,13.924594 5.72741438,13.6017852 5.68956144,13.2056528 C5.68532615,13.1602558 5.65792909,13.1202852 5.61716438,13.0999028 C5.57639968,13.0795205 5.52809086,13.0815058 5.48904674,13.105197 C5.36556144,13.1801087 5.25081144,13.2703734 5.14797321,13.3732117 C4.67229674,13.8488881 4.59897321,14.8022264 4.59606144,14.842594 C4.59248791,14.8924911 4.61737027,14.9402705 4.66038497,14.9658146 C4.68050262,14.9778587 4.75329674,15.0194175 4.83879674,15.0476087 C4.79829674,15.1949175 4.7202085,15.3655205 4.6864585,15.4323587 C4.66064968,15.4831823 4.6707085,15.5452558 4.71107615,15.5856234 Z M0,3 L16,3 L16,5 L0,5 L0,3 Z M1.5,4.5 C1.77614237,4.5 2,4.27614237 2,4 C2,3.72385763 1.77614237,3.5 1.5,3.5 C1.22385763,3.5 1,3.72385763 1,4 C1,4.27614237 1.22385763,4.5 1.5,4.5 Z M3.5,4.5 C3.77614237,4.5 4,4.27614237 4,4 C4,3.72385763 3.77614237,3.5 3.5,3.5 C3.22385763,3.5 3,3.72385763 3,4 C3,4.27614237 3.22385763,4.5 3.5,4.5 Z M5.5,4.5 C5.77614237,4.5 6,4.27614237 6,4 C6,3.72385763 5.77614237,3.5 5.5,3.5 C5.22385763,3.5 5,3.72385763 5,4 C5,4.27614237 5.22385763,4.5 5.5,4.5 Z M10.5,10.4285714 C10.1449598,10.4285714 9.85714286,10.1407545 9.85714286,9.78571429 C9.85714286,9.43067409 10.1449598,9.14285714 10.5,9.14285714 C10.8550402,9.14285714 11.1428571,9.43067409 11.1428571,9.78571429 C11.1428571,10.1407545 10.8550402,10.4285714 10.5,10.4285714 Z" id="Shape" fill="currentColor" fill-rule="nonzero"></path>
    </g>
</svg>