<?xml version="1.0" encoding="UTF-8"?>
<svg width="1em" height="1em" viewBox="0 0 18 18" version="1.1" xmlns="http://www.w3.org/2000/svg" xmlns:xlink="http://www.w3.org/1999/xlink">
    <!-- Generator: Sketch 53.2 (72643) - https://sketchapp.com -->
    <title>radio-button</title>
    <desc>Created with Sketch.</desc>
    <g id="radio-button" stroke="none" stroke-width="1" fill="none" fill-rule="evenodd">
        <path d="M9,16.5 C13.1421356,16.5 16.5,13.1421356 16.5,9 C16.5,4.85786438 13.1421356,1.5 9,1.5 C4.85786438,1.5 1.5,4.85786438 1.5,9 C1.5,13.1421356 4.85786438,16.5 9,16.5 Z M9,18 C4.02943725,18 0,13.9705627 0,9 C0,4.02943725 4.02943725,0 9,0 C13.9705627,0 18,4.02943725 18,9 C18,13.9705627 13.9705627,18 9,18 Z M9,15 C12.3137085,15 15,12.3137085 15,9 C15,5.6862915 12.3137085,3 9,3 C5.6862915,3 3,5.6862915 3,9 C3,12.3137085 5.6862915,15 9,15 Z" id="Shape" fill="currentColor" fill-rule="nonzero"></path>
    </g>
</svg>