<?xml version="1.0" encoding="UTF-8"?>
<svg width="1em" height="1em" viewBox="0 0 18 18" version="1.1" xmlns="http://www.w3.org/2000/svg" xmlns:xlink="http://www.w3.org/1999/xlink">
    <!-- Generator: Sketch 53.2 (72643) - https://sketchapp.com -->
    <title>rename</title>
    <desc>Created with Sketch.</desc>
    <g id="rename" stroke="none" stroke-width="1" fill="none" fill-rule="evenodd">
        <path d="M12.8636193,0.0314778796 C12.9055795,-0.0103231329 12.9736284,-0.0103051741 13.0145055,0.0304169283 L15.895142,2.90012744 C15.9365139,2.9413425 15.9382302,3.00645559 15.894077,3.05044134 L7.25770101,11.6540605 C7.21574085,11.6958615 7.13031802,11.7382834 7.07681242,11.7471671 L3.54517626,12.3335406 L4.13378229,8.81529956 C4.14343926,8.75757748 4.18309016,8.67908281 4.22724338,8.63509706 L12.8636193,0.0314778796 Z M0.25,15 L17.75,15 C17.8880712,15 18,15.1119288 18,15.25 L18,15.75 C18,15.8880712 17.8880712,16 17.75,16 L0.25,16 C0.111928813,16 1.38777878e-17,15.8880712 0,15.75 L0,15.25 C-1.38777878e-17,15.1119288 0.111928813,15 0.25,15 Z M3.25,17 L14.75,17 C14.8880712,17 15,17.1119288 15,17.25 L15,17.75 C15,17.8880712 14.8880712,18 14.75,18 L3.25,18 C3.11192881,18 3,17.8880712 3,17.75 L3,17.25 C3,17.1119288 3.11192881,17 3.25,17 Z" id="Shape" fill="currentColor" fill-rule="nonzero"></path>
    </g>
</svg>