<?xml version="1.0" encoding="UTF-8"?>
<svg width="1em" height="1em" viewBox="0 0 18 18" version="1.1" xmlns="http://www.w3.org/2000/svg" xmlns:xlink="http://www.w3.org/1999/xlink">
    <!-- Generator: Sketch 53.2 (72643) - https://sketchapp.com -->
    <title>responsive</title>
    <desc>Created with Sketch.</desc>
    <g id="responsive" stroke="none" stroke-width="1" fill="none" fill-rule="evenodd">
        <path d="M16.1320636,17 L1.86793641,17 L1.86793641,18 L0.101901613,16.7 C-0.0106392426,16.6171573 -0.03344734,16.4604569 0.0509583019,16.35 C0.0654400206,16.3310486 0.082592655,16.3142136 0.101901613,16.3 L1.86793641,15 L1.86793641,16 L16.1320636,16 L16.1320636,15 L17.8980984,16.3 C18.0106392,16.3828427 18.0334473,16.5395431 17.9490417,16.65 C17.93456,16.6689514 17.9174073,16.6857864 17.8980984,16.7 L16.1320636,18 L16.1320636,17 Z M3.28125,11 L9.71875,11 C9.87408009,11 10,11.1259199 10,11.28125 L10,11.71875 C10,11.8740801 9.87408009,12 9.71875,12 L3.28125,12 C3.12591991,12 3,11.8740801 3,11.71875 L3,11.28125 C3,11.1259199 3.12591991,11 3.28125,11 Z M0.28125,-2.48689958e-14 L13.71875,-2.48689958e-14 C13.8740801,-2.37938428e-14 14,0.125919914 14,0.28125 L14,3.71875 C14,3.87408009 13.8740801,4 13.71875,4 L12.28125,4 C12.1259199,4 12,4.12591991 12,4.28125 L12,9.71875 C12,9.87408009 11.8740801,10 11.71875,10 L0.28125,10 C0.125919914,10 1.90224492e-17,9.87408009 0,9.71875 L0,0.28125 C-1.90224492e-17,0.125919914 0.125919914,-2.48404621e-14 0.28125,-2.48689958e-14 Z M18,5.28125 L18,13.71875 C18,13.8740801 17.8740801,14 17.71875,14 L13.28125,14 C13.1259199,14 13,13.8740801 13,13.71875 L13,5.28125 C13,5.12591991 13.1259199,5 13.28125,5 L17.71875,5 C17.8740801,5 18,5.12591991 18,5.28125 Z M15.5,13 C15.7761424,13 16,12.7761424 16,12.5 C16,12.2238576 15.7761424,12 15.5,12 C15.2238576,12 15,12.2238576 15,12.5 C15,12.7761424 15.2238576,13 15.5,13 Z" id="Shape" fill="currentColor" fill-rule="nonzero"></path>
    </g>
</svg>