<?xml version="1.0" encoding="UTF-8"?>
<svg width="1em" height="1em" viewBox="0 0 18 18" version="1.1" xmlns="http://www.w3.org/2000/svg" xmlns:xlink="http://www.w3.org/1999/xlink">
    <!-- Generator: Sketch 53.2 (72643) - https://sketchapp.com -->
    <title>root</title>
    <desc>Created with Sketch.</desc>
    <g id="root" stroke="none" stroke-width="1" fill="none" fill-rule="evenodd">
        <path d="M9.00009102,0 C13.9628023,0 18,4.03737977 18,9.00009102 C18,13.9626202 13.9628023,18 9.00009102,18 C4.03737977,18 0,13.9626202 0,9.00009102 C0,4.03737977 4.03737977,0 9.00009102,0 Z M12.2894505,16.5876999 C13.4133924,16.0987287 14.4075366,15.3669104 15.2067114,14.4592372 L15.0654449,14.4468582 L14.8719318,14.6241694 L14.3592949,14.6289026 L13.9762736,14.1737917 L14.3217937,13.6766285 L14.6134288,12.7174368 L14.6134288,12.110683 L15.2960951,11.2004612 L15.0989411,10.8969932 L15.3112048,10.1688158 L15.2809855,9.74410631 L15.0079189,9.28899542 L14.4617859,9.41041901 L13.8433812,9.28899542 L12.8840074,9.16757183 L12.2468521,8.65184017 L11.3972511,8.22713068 L11.0939652,7.6551473 L11.4518644,7.24500137 L11.2760096,6.74055645 L11.0029431,6.28544555 L11.2760096,5.52686671 L11.9433842,4.98073364 L12.5805395,4.67726569 L13.2176947,4.34357839 L14.1887193,4.31317698 L15.2352923,4.37379775 L15.8877393,4.98055159 L15.8877393,4.79850724 L15.2352923,4.37379775 L14.400983,4.25237416 L14.552808,3.82766467 L14.1279165,3.55459814 L13.8431991,3.97930762 L13.3087169,4.16135198 L12.9100397,4.31172062 L12.1254286,4.0399284 L12.0344064,3.64543827 L12.3378743,3.34197033 L12.853606,3.0993052 L13.1084681,2.75014412 L12.4895173,2.6441943 L11.7311205,2.158682 L11.6703177,1.55192815 L11.3402712,1.33383901 L10.707303,1.20677205 L10.1378683,0.983039534 L10.4719197,0.861980036 C9.99387117,0.77569101 9.5027155,0.728177433 9.00009102,0.728177433 C8.99499378,0.728177433 8.98989654,0.728541521 8.98516338,0.728359477 L9.00045511,1.00543099 L8.33326254,1.21787676 L8.060196,1.55156406 L7.51406293,1.55156406 L7.51406293,1.12685458 L7.67499014,0.835583604 C7.38044237,0.883279226 7.09153797,0.947176795 6.80827695,1.02527383 C6.79644407,1.03856306 6.78206256,1.05221639 6.76367608,1.06623381 C6.48642252,1.27867957 6.45984405,1.70411724 6.39139537,1.76419187 C6.32294669,1.82426651 6.46858218,2.14612094 6.46858218,2.14612094 L6.36099396,2.49236931 L5.6934373,2.64401226 L5.32934858,2.82605662 L5.32934858,3.37218969 L4.95015019,4.00934494 L4.60117115,4.55547802 L4.60117115,5.01058891 L4.87423769,5.73876635 L4.4495282,5.5871234 L4.16007767,5.28365545 L3.99441731,4.67690161 L2.90215116,4.70730301 C2.90215116,4.70730301 1.81006705,6.22446069 2.02233077,6.46712582 C2.2345945,6.70979095 2.53806244,7.19530326 2.53806244,7.19530326 L3.14481629,7.19530326 L3.30628963,7.44015292 L3.02357474,7.62001274 L2.84153039,8.04472223 L2.90215116,8.31778877 L2.84153039,8.71227889 L3.26623987,8.68187748 L3.66073,8.31778877 L5.69361935,8.45596044 L6.48241755,8.99990898 L7.36223793,10.0472102 L7.71868079,10.1511575 L7.81734883,10.5327225 L7.61309506,11.0420826 L7.33183652,11.1698777 C7.33183652,11.1698777 6.75530204,11.4429443 6.78570345,11.6249886 C6.81610486,11.807033 6.42161473,12.5654298 6.42161473,12.5654298 L6.69468127,13.2633878 L5.72383871,13.7184987 L5.56236536,14.3252526 L5.51139294,15.3264966 L5.78445948,15.903031 L5.60241512,16.2063169 L4.93485846,15.9332504 L4.15989563,15.1748536 L3.7817895,14.1432082 L2.90196911,12.5654298 L2.5682818,12.0800995 L2.00285203,11.7462302 L1.87032374,11.1090749 L1.90072514,9.68312145 L2.96258988,9.22801056 L2.47707758,8.99990898 L2.20401104,8.45596044 L2.05236809,8.13574441 L1.56685579,7.83227646 L0.850147153,7.59343427 C0.77150399,8.05109378 0.728177433,8.52040414 0.728177433,9.00009102 C0.728177433,12.4835098 2.89377712,15.4690373 5.94848145,16.6860038 L6.20898692,16.5097849 L7.02818653,16.9344944 L7.27085166,16.555296 L7.21987924,16.2063169 L7.5439182,16.2973391 L7.81698474,16.6614278 L8.25680391,16.8587639 L8.66658576,16.8434722 L9.33414242,16.8434722 L9.69823114,16.6008071 L11.0180527,16.2973391 L11.7462302,16.4187627 L12.2894505,16.5876999 Z" id="Shape" fill="currentColor" fill-rule="nonzero"></path>
    </g>
</svg>