<?xml version="1.0" encoding="UTF-8"?>
<svg width="1em" height="1em" viewBox="0 0 18 18" version="1.1" xmlns="http://www.w3.org/2000/svg" xmlns:xlink="http://www.w3.org/1999/xlink">
    <!-- Generator: Sketch 53.2 (72643) - https://sketchapp.com -->
    <title>round-corner</title>
    <desc>Created with Sketch.</desc>
    <g id="round-corner" stroke="none" stroke-width="1" fill="none" fill-rule="evenodd">
        <path d="M5.87489919,4.38224013e-08 C5.94393359,5.03181709e-08 5.99989703,0.0559635006 5.99989703,0.124997909 L5.9998959,11.8695916 C5.9998959,11.938626 6.05585934,11.9945895 6.12489375,11.9945895 L17.8746931,11.9945895 C17.9437276,11.9945895 17.999691,12.0505529 17.999691,12.1195873 L17.999691,17.876429 C17.999691,17.9454634 17.9437276,18.0014269 17.8746931,18.0014269 L3.99993138,18.0014269 C1.46407372,18.0014269 8.30421767e-08,16.5366223 8.30422016e-08,13.9997596 L0,0.124997852 C6.31132297e-10,0.0559634439 0.0559634462,-6.31144732e-10 0.124997854,-1.24344979e-14 L5.87489917,5.44412659e-08 L5.87489919,4.38224013e-08 Z" id="Shape" fill="currentColor" fill-rule="nonzero"></path>
    </g>
</svg>