<?xml version="1.0" encoding="UTF-8"?>
<svg width="1em" height="1em" viewBox="0 0 18 18" version="1.1" xmlns="http://www.w3.org/2000/svg" xmlns:xlink="http://www.w3.org/1999/xlink">
    <!-- Generator: Sketch 53.2 (72643) - https://sketchapp.com -->
    <title>save</title>
    <desc>Created with Sketch.</desc>
    <g id="save" stroke="none" stroke-width="1" fill="none" fill-rule="evenodd">
        <path d="M0.25,0 L13.8962811,1.44328993e-15 C13.9625834,1.4311104e-15 14.0261703,0.0263377641 14.0730541,0.0732195804 L17.926773,3.92677606 C17.9736593,3.97366045 18,4.03725053 18,4.10355648 L18,17.75 C18,17.8880712 17.8880712,18 17.75,18 L0.25,18 C0.111928813,18 1.69088438e-17,17.8880712 -3.08148791e-33,17.75 L-2.77555756e-17,0.25 C-4.46644194e-17,0.111928813 0.111928813,2.53632657e-17 0.25,0 Z M5.25,1 C5.11192881,1 5,1.11192881 5,1.25 L5,5.75 C5,5.88807119 5.11192881,6 5.25,6 L12.75,6 C12.8880712,6 13,5.88807119 13,5.75 L13,1.25 C13,1.11192881 12.8880712,1 12.75,1 L5.25,1 Z M3.25,9 C3.11192881,9 3,9.11192881 3,9.25 L3,15.75 C3,15.8880712 3.11192881,16 3.25,16 L14.75,16 C14.8880712,16 15,15.8880712 15,15.75 L15,9.25 C15,9.11192881 14.8880712,9 14.75,9 L3.25,9 Z M4,11 L7,11 L7,12 L4,12 L4,11 Z M11,13 L12,13 L12,14 L11,14 L11,13 Z M4,13 L10,13 L10,14 L4,14 L4,13 Z M10,2 L12,2 L12,5 L10,5 L10,2 Z" id="Shape" fill="currentColor" fill-rule="nonzero"></path>
    </g>
</svg>