<?xml version="1.0" encoding="UTF-8"?>
<svg width="1em" height="1em" viewBox="0 0 18 18" version="1.1" xmlns="http://www.w3.org/2000/svg" xmlns:xlink="http://www.w3.org/1999/xlink">
    <!-- Generator: Sketch 53.2 (72643) - https://sketchapp.com -->
    <title>schema-builder</title>
    <desc>Created with Sketch.</desc>
    <g id="schema-builder" stroke="none" stroke-width="1" fill="none" fill-rule="evenodd">
        <path d="M7,2 L6,2 L6,6 L7,6 L7,5 L18,5 L18,8 L7,8 L7,7 L6,7 L6,11 L7,11 L7,10 L18,10 L18,13 L7,13 L7,12 L6,12 L6,16 L7,16 L7,15 L18,15 L18,18 L7,18 L7,17 L5.25,17 C5.11192881,17 5,16.8880712 5,16.75 L5,9.5 L4,9.5 L4,11 L0,11 L0,7 L4,7 L4,8.5 L5,8.5 L5,1.25 C5,1.11192881 5.11192881,1 5.25,1 L7,1 L7,0 L18,0 L18,3 L7,3 L7,2 L7,2 Z" id="Shape" fill="currentColor" fill-rule="nonzero"></path>
    </g>
</svg>