<?xml version="1.0" encoding="UTF-8"?>
<svg width="1em" height="1em" viewBox="0 0 18 18" version="1.1" xmlns="http://www.w3.org/2000/svg" xmlns:xlink="http://www.w3.org/1999/xlink">
    <!-- Generator: Sketch 53.2 (72643) - https://sketchapp.com -->
    <title>scss</title>
    <desc>Created with Sketch.</desc>
    <g id="scss" stroke="none" stroke-width="1" fill="none" fill-rule="evenodd">
        <path d="M0.107142857,0 L17.8928571,0 C17.9520305,0 18,0.0479694911 18,0.107142857 L18,17.8928571 C18,17.9520305 17.9520305,18 17.8928571,18 L0.107142857,18 C0.0479694911,18 0,17.9520305 0,17.8928571 L0,0.107142857 C0,0.0479694911 0.0479694911,0 0.107142857,0 Z M5.38285714,8.24571429 C6.78171429,8.24571429 7.61485714,7.37142857 7.62514286,6.29142857 C7.656,3.864 4.26171429,4.26514286 4.272,2.70171429 C4.272,2.16685714 4.72457143,1.776 5.38285714,1.776 C5.94857143,1.776 6.46285714,2.136 6.81257143,2.52685714 L7.45028571,1.86857143 C7.008,1.33371429 6.27771429,0.84 5.36228571,0.84 C4.15885714,0.84 3.28457143,1.65257143 3.27428571,2.69142857 C3.27428571,5.04685714 6.63771429,4.55314286 6.63771429,6.28114286 C6.63771429,6.85714286 6.16457143,7.29942857 5.44457143,7.29942857 C4.79657143,7.29942857 4.18971429,6.89828571 3.78857143,6.32228571 L3.07885714,6.99085714 C3.54171429,7.70057143 4.40571429,8.24571429 5.38285714,8.24571429 Z M5.38285714,16.8171429 C6.78171429,16.8171429 7.61485714,15.9428571 7.62514286,14.8628571 C7.656,12.4354286 4.26171429,12.8365714 4.272,11.2731429 C4.272,10.7382857 4.72457143,10.3474286 5.38285714,10.3474286 C5.94857143,10.3474286 6.46285714,10.7074286 6.81257143,11.0982857 L7.45028571,10.44 C7.008,9.90514286 6.27771429,9.41142857 5.36228571,9.41142857 C4.15885714,9.41142857 3.28457143,10.224 3.27428571,11.2628571 C3.27428571,13.6182857 6.63771429,13.1245714 6.63771429,14.8525714 C6.63771429,15.4285714 6.16457143,15.8708571 5.44457143,15.8708571 C4.79657143,15.8708571 4.18971429,15.4697143 3.78857143,14.8937143 L3.07885714,15.5622857 C3.54171429,16.272 4.40571429,16.8171429 5.38285714,16.8171429 Z M13.2891429,8.26628571 C13.9474286,8.26628571 14.5028571,8.13257143 14.9862857,7.88571429 L14.9862857,6.78514286 C14.5748571,7.11428571 14.0297143,7.32 13.2994286,7.32 C11.6845714,7.32 10.6045714,6.024 10.6045714,4.54285714 C10.6045714,3.06171429 11.6845714,1.76571429 13.2994286,1.76571429 C14.0297143,1.76571429 14.5748571,1.97142857 14.9862857,2.30057143 L14.9862857,1.2 C14.5028571,0.953142857 13.9474286,0.819428571 13.2891429,0.819428571 C11.0468571,0.819428571 9.60685714,2.54742857 9.60685714,4.54285714 C9.60685714,6.53828571 11.0468571,8.26628571 13.2891429,8.26628571 Z M12.24,16.8171429 C13.6388571,16.8171429 14.472,15.9428571 14.4822857,14.8628571 C14.5131429,12.4354286 11.1188571,12.8365714 11.1291429,11.2731429 C11.1291429,10.7382857 11.5817143,10.3474286 12.24,10.3474286 C12.8057143,10.3474286 13.32,10.7074286 13.6697143,11.0982857 L14.3074286,10.44 C13.8651429,9.90514286 13.1348571,9.41142857 12.2194286,9.41142857 C11.016,9.41142857 10.1417143,10.224 10.1314286,11.2628571 C10.1314286,13.6182857 13.4948571,13.1245714 13.4948571,14.8525714 C13.4948571,15.4285714 13.0217143,15.8708571 12.3017143,15.8708571 C11.6537143,15.8708571 11.0468571,15.4697143 10.6457143,14.8937143 L9.936,15.5622857 C10.3988571,16.272 11.2628571,16.8171429 12.24,16.8171429 Z" id="Shape" fill="currentColor" fill-rule="nonzero"></path>
    </g>
</svg>