<?xml version="1.0" encoding="UTF-8"?>
<svg width="1em" height="1em" viewBox="0 0 18 18" version="1.1" xmlns="http://www.w3.org/2000/svg" xmlns:xlink="http://www.w3.org/1999/xlink">
    <!-- Generator: Sketch 53.2 (72643) - https://sketchapp.com -->
    <title>search</title>
    <desc>Created with Sketch.</desc>
    <g id="search" stroke="none" stroke-width="1" fill="none" fill-rule="evenodd">
        <path d="M5.56364714,10.3579236 C4.96851579,9.33295209 4.62668545,8.13535128 4.62668545,6.85589106 C4.62668545,3.06948698 7.62040389,0 11.3133427,0 C15.0062816,0 18,3.06948698 18,6.85589106 C18,10.6422951 15.0062816,13.7117821 11.3133427,13.7117821 C9.83566081,13.7117821 8.46993087,13.2203274 7.36315186,12.3881374 L1.92406573,17.9648824 C1.8797687,18.0103005 1.8110323,18.0134618 1.76259326,17.9637968 L0.033852196,16.1913027 C-0.0110295588,16.1452851 -0.0111815319,16.0708315 0.0327934489,16.0257435 L5.54619657,10.3728007 C5.5516686,10.3671902 5.55751357,10.3622245 5.56364714,10.3579236 L5.56364714,10.3579236 Z M11.9040432,1.30627645 C8.77781813,1.30627645 6.24351195,3.84058263 6.24351195,6.96680773 L7.11436292,6.96680773 C7.11436292,4.32154034 9.25877584,2.17712742 11.9040432,2.17712742 L11.9040432,1.30627645 Z" id="Shape" fill="currentColor" fill-rule="nonzero"></path>
    </g>
</svg>