<?xml version="1.0" encoding="UTF-8"?>
<svg width="1em" height="1em" viewBox="0 0 18 18" version="1.1" xmlns="http://www.w3.org/2000/svg" xmlns:xlink="http://www.w3.org/1999/xlink">
    <!-- Generator: Sketch 55 (78076) - https://sketchapp.com -->
    <title>security</title>
    <desc>Created with Sketch.</desc>
    <g id="security" stroke="none" stroke-width="1" fill="none" fill-rule="evenodd">
        <path d="M17,3 C17,8.03866127 17.5078387,15.0687557 8.99966679,18 C0.492119403,15.068704 1,8.03860954 1,3 C4.08983554,3 6.99809911,1.93479916 8.99971883,0 C11.0015467,1.93479916 13.9099042,3 17,3 Z M8.99422211,14 C11.7556459,14 13.9942221,11.7614237 13.9942221,9 C13.9942221,6.23857625 11.7556459,4 8.99422211,4 C6.23279836,4 3.99422211,6.23857625 3.99422211,9 C3.99422211,11.7614237 6.23279836,14 8.99422211,14 Z M9,13 C6.790861,13 5,11.209139 5,9 C5,6.790861 6.790861,5 9,5 C11.209139,5 13,6.790861 13,9 C13,11.209139 11.209139,13 9,13 Z M8.32295945,10.8159874 C8.32451989,10.8175904 8.32610177,10.8191723 8.32770467,10.8207329 C8.42663482,10.9170473 8.58491186,10.9149269 8.68122634,10.8159968 L11.3302145,8.09506828 C11.4247108,7.99800574 11.4247092,7.84333951 11.3302109,7.74627895 L10.7827598,7.18398396 C10.7812041,7.18238613 10.7796272,7.18080918 10.7780293,7.17925354 C10.6791002,7.08293797 10.5208232,7.08505666 10.4245076,7.18398575 L8.50208809,9.1585702 L7.57552965,8.20667201 C7.57396951,8.2050692 7.57238792,8.20348739 7.57078533,8.20192703 C7.47185945,8.10560817 7.31358231,8.10772157 7.21726345,8.20664745 L6.66978829,8.76894085 C6.5752897,8.86599719 6.57528223,9.02065953 6.66977144,9.117725 L8.32295945,10.8159874 Z" id="Fill" fill="currentColor" fill-rule="nonzero"></path>
    </g>
</svg>