<?xml version="1.0" encoding="UTF-8"?>
<svg width="1em" height="1em" viewBox="0 0 18 18" version="1.1" xmlns="http://www.w3.org/2000/svg" xmlns:xlink="http://www.w3.org/1999/xlink">
    <!-- Generator: Sketch 53.2 (72643) - https://sketchapp.com -->
    <title>send</title>
    <desc>Created with Sketch.</desc>
    <g id="send" stroke="none" stroke-width="1" fill="none" fill-rule="evenodd">
        <path d="M8.25,-2.48689958e-14 L17.75,-2.48689958e-14 C17.8880712,-2.4894359e-14 18,0.111928813 18,0.25 L18,3.75 C18,3.88807119 17.8880712,4 17.75,4 L8.25,4 C8.11192881,4 8,3.88807119 8,3.75 L8,0.25 C8,0.111928813 8.11192881,-2.48436325e-14 8.25,-2.48689958e-14 Z M0.25,7 L11.75,7 C11.8880712,7 12,7.11192881 12,7.25 L12,10.75 C12,10.8880712 11.8880712,11 11.75,11 L0.25,11 C0.111928813,11 1.69088438e-17,10.8880712 0,10.75 L0,7.25 C-1.69088438e-17,7.11192881 0.111928813,7 0.25,7 Z M3.25,14 L6.75,14 C6.88807119,14 7,14.1119288 7,14.25 L7,17.75 C7,17.8880712 6.88807119,18 6.75,18 L3.25,18 C3.11192881,18 3,17.8880712 3,17.75 L3,14.25 C3,14.1119288 3.11192881,14 3.25,14 Z M8.25,14 L15.75,14 C15.8880712,14 16,14.1119288 16,14.25 L16,17.75 C16,17.8880712 15.8880712,18 15.75,18 L8.25,18 C8.11192881,18 8,17.8880712 8,17.75 L8,14.25 C8,14.1119288 8.11192881,14 8.25,14 Z" id="Shape" fill="currentColor" fill-rule="nonzero"></path>
    </g>
</svg>