<?xml version="1.0" encoding="UTF-8"?>
<svg width="1em" height="1em" viewBox="0 0 18 18" version="1.1" xmlns="http://www.w3.org/2000/svg" xmlns:xlink="http://www.w3.org/1999/xlink">
    <!-- Generator: Sketch 55 (78076) - https://sketchapp.com -->
    <title>session</title>
    <desc>Created with Sketch.</desc>
    <g id="session" stroke="none" stroke-width="1" fill="none" fill-rule="evenodd">
        <path d="M6.17393184,11 C6.06018869,11.4815193 6,11.9837308 6,12.5 C6,12.668236 6.00639146,12.8349792 6.01894482,13 L3.2,13 C3.08954305,13 3,12.8880712 3,12.75 L3,11.25 C3,11.1119288 3.08954305,11 3.2,11 L6.17393184,11 L6.17393184,11 Z M14,6.17393184 C13.5184807,6.06018869 13.0162692,6 12.5,6 C9.79605001,6 7.47772297,7.65104815 6.49816335,10 L0.194444444,10 C0.0870557431,10 -3.53956236e-15,9.91390091 -3.55271368e-15,9.80769231 L-3.55271368e-15,0.192307692 C-3.565865e-15,0.0860990866 0.0870557431,-3.90798505e-14 0.194444444,-3.90798505e-14 L13.8055556,-3.90798505e-14 C13.9129443,-3.90798505e-14 14,0.0860990866 14,0.192307692 L14,6.17393184 L14,6.17393184 Z M12.5,18 C9.46243388,18 7,15.5375661 7,12.5 C7,9.46243388 9.46243388,7 12.5,7 C15.5375661,7 18,9.46243388 18,12.5 C18,15.5375661 15.5375661,18 12.5,18 Z M13,13 L13,8.25 C13,8.11192881 12.8880712,8 12.75,8 L12.25,8 C12.1119288,8 12,8.11192881 12,8.25 L12,12.75 C12,12.8880712 12.1119288,13 12.25,13 L13,13 Z M13,12 L13,13 L16.75,13 C16.8880712,13 17,12.8880712 17,12.75 L17,12.25 C17,12.1119288 16.8880712,12 16.75,12 L13,12 Z" id="Fill" fill="currentColor" fill-rule="nonzero"></path>
    </g>
</svg>