<?xml version="1.0" encoding="UTF-8"?>
<svg width="1em" height="1em" viewBox="0 0 18 18" version="1.1" xmlns="http://www.w3.org/2000/svg" xmlns:xlink="http://www.w3.org/1999/xlink">
    <!-- Generator: Sketch 53.2 (72643) - https://sketchapp.com -->
    <title>share</title>
    <desc>Created with Sketch.</desc>
    <g id="share" stroke="none" stroke-width="1" fill="none" fill-rule="evenodd">
        <path d="M15.75,13.5 C16.9926407,13.5 18,14.5073593 18,15.75 C18,16.9926407 16.9926407,18 15.75,18 C14.5073593,18 13.5,16.9926407 13.5,15.75 C13.5,15.4596799 13.5549854,15.1822024 13.6551103,14.9274133 L4.24688167,10.0378105 C3.87175697,10.7581271 3.11832002,11.25 2.25,11.25 C1.00735931,11.25 0,10.2426407 0,9 C0,7.75735931 1.00735931,6.75 2.25,6.75 C3.11832002,6.75 3.87175697,7.2418729 4.24688167,7.96218953 L13.6551103,3.07258672 C13.5549854,2.81779761 13.5,2.54032007 13.5,2.25 C13.5,1.00735931 14.5073593,0 15.75,0 C16.9926407,0 18,1.00735931 18,2.25 C18,3.49264069 16.9926407,4.5 15.75,4.5 C15.2315369,4.5 14.7540312,4.32464064 14.373559,4.02999805 L4.81063199,9 L14.373559,13.970002 C14.7540312,13.6753594 15.2315369,13.5 15.75,13.5 Z" id="Shape" fill="currentColor" fill-rule="nonzero"></path>
    </g>
</svg>