<?xml version="1.0" encoding="UTF-8"?>
<svg width="1em" height="1em" viewBox="0 0 18 18" version="1.1" xmlns="http://www.w3.org/2000/svg" xmlns:xlink="http://www.w3.org/1999/xlink">
    <!-- Generator: Sketch 53.2 (72643) - https://sketchapp.com -->
    <title>shopping-cart</title>
    <desc>Created with Sketch.</desc>
    <g id="shopping-cart" stroke="none" stroke-width="1" fill="none" fill-rule="evenodd">
        <path d="M4.22651878,3.93548387 L17.8975936,3.93548387 C17.9541511,3.93548387 18,3.98242176 18,4.04032258 C18,4.04750669 17.9992787,4.05467178 17.9978475,4.06170488 L15.992388,13.9165436 C15.9824947,13.9651593 15.9406416,14 15.8921341,14 L5.4084054,14 C5.35989796,14 5.3180448,13.9651593 5.3081515,13.9165436 L3.30269205,4.06170488 C3.29310391,4.01458872 3.31603646,3.96827354 3.35584902,3.94719897 L2.6084279,1.90673706 C2.5934393,1.86581812 2.55522933,1.83870968 2.51254176,1.83870968 L0.10240644,1.83870968 C0.0458489249,1.83870968 0,1.79177179 0,1.73387097 L0,1.10483871 C0,1.04693789 0.0458489249,1 0.10240644,1 L3.08028345,1 C3.12297102,1 3.16118098,1.02710844 3.17616959,1.06802738 L4.22651878,3.93548387 Z M8,17 C7.44771525,17 7,16.5522847 7,16 C7,15.4477153 7.44771525,15 8,15 C8.55228475,15 9,15.4477153 9,16 C9,16.5522847 8.55228475,17 8,17 Z M13,17 C12.4477153,17 12,16.5522847 12,16 C12,15.4477153 12.4477153,15 13,15 C13.5522847,15 14,15.4477153 14,16 C14,16.5522847 13.5522847,17 13,17 Z" id="Shape" fill="currentColor" fill-rule="nonzero"></path>
    </g>
</svg>