<?xml version="1.0" encoding="UTF-8"?>
<svg width="1em" height="1em" viewBox="0 0 18 18" version="1.1" xmlns="http://www.w3.org/2000/svg" xmlns:xlink="http://www.w3.org/1999/xlink">
    <!-- Generator: Sketch 53.2 (72643) - https://sketchapp.com -->
    <title>single-select</title>
    <desc>Created with Sketch.</desc>
    <g id="single-select" stroke="none" stroke-width="1" fill="none" fill-rule="evenodd">
        <path d="M0.105464786,2.13162821e-14 L12.5503095,2.13162821e-14 C12.6085561,2.13162821e-14 12.6557743,0.0477584627 12.6557743,0.106671512 L12.6557743,8.53372096 L7.78177919,5.2472121 C7.7333151,5.21453302 7.66783525,5.22777883 7.63552585,5.27679745 C7.62176141,5.29768035 7.61571785,5.32280345 7.61845812,5.34774806 L8.43718289,12.8005814 L0.105464786,12.8005814 C0.0472181931,12.8005814 0,12.752823 0,12.6939099 L0,0.106671512 C0,0.0477584627 0.0472181931,2.13162821e-14 0.105464786,2.13162821e-14 Z M10.0885496,17.9099441 L8.33274153,6.64965753 C8.32366742,6.59146378 8.36295308,6.53684823 8.42048852,6.5276703 C8.44760635,6.52334452 8.47532312,6.5298843 8.49774934,6.54590001 L17.9553572,13.3000625 C18.0029386,13.3340428 18.014276,13.4006029 17.9806802,13.4487286 C17.9646358,13.4717121 17.9402637,13.4873536 17.9128709,13.4922474 L13.3374155,14.3096617 C13.3130195,14.3140201 13.290919,14.3269259 13.2749892,14.346116 L10.2734975,17.9619172 C10.2360441,18.0070361 10.1695199,18.0129028 10.1249115,17.9750209 C10.1054272,17.9584747 10.0925131,17.9353623 10.0885496,17.9099441 L10.0885496,17.9099441 Z M15.292394,14.9340117 L17.6126193,14.9340117 C17.6708659,14.9340117 17.7180841,14.9817701 17.7180841,15.0406832 L17.7180841,17.3874565 C17.7180841,17.4463695 17.6708659,17.494128 17.6126193,17.494128 L15.292394,17.494128 C15.2341474,17.494128 15.1869292,17.4463695 15.1869292,17.3874565 L15.1869292,15.0406832 C15.1869292,14.9817701 15.2341474,14.9340117 15.292394,14.9340117 Z" id="Shape" fill="currentColor" fill-rule="nonzero"></path>
    </g>
</svg>