<?xml version="1.0" encoding="UTF-8"?>
<svg width="1em" height="1em" viewBox="0 0 18 18" version="1.1" xmlns="http://www.w3.org/2000/svg" xmlns:xlink="http://www.w3.org/1999/xlink">
    <!-- Generator: Sketch 53.2 (72643) - https://sketchapp.com -->
    <title>snapshot</title>
    <desc>Created with Sketch.</desc>
    <g id="snapshot" stroke="none" stroke-width="1" fill="none" fill-rule="evenodd">
        <path d="M18,2.25 L18,13.75 C18,13.8880712 17.8880712,14 17.75,14 L0.25,14 C0.111928813,14 8.91257083e-15,13.8880712 8.89566198e-15,13.75 L8.89566198e-15,2.25 C8.87875314e-15,2.11192881 0.111928813,2 0.25,2 L1.75,2 C1.88807119,2 2,1.88807119 2,1.75 L2,1.25 C2,1.11192881 2.11192881,1 2.25,1 L2.75,1 C2.88807119,1 3,1.11192881 3,1.25 L3,1.75 C3,1.88807119 3.11192881,2 3.25,2 L4.875,2 C4.95368933,2 5.0277864,1.96295146 5.075,1.9 L6.425,0.1 C6.4722136,0.0370485393 6.54631067,1.42998935e-15 6.625,1.41553436e-15 L11.375,0 C11.4536893,-1.44549947e-17 11.5277864,0.0370485393 11.575,0.1 L12.925,1.9 C12.9722136,1.96295146 13.0463107,2 13.125,2 L17.75,2 C17.8880712,2 18,2.11192881 18,2.25 Z M10,16.25 L10,17.75 C10,17.8880712 9.88807119,18 9.75,18 L8.25,18 C8.11192881,18 8,17.8880712 8,17.75 L8,16.25 C8,16.1119288 7.88807119,16 7.75,16 L3.25,16 C3.11192881,16 3,15.8880712 3,15.75 L3,15.25 C3,15.1119288 3.11192881,15 3.25,15 L14.75,15 C14.8880712,15 15,15.1119288 15,15.25 L15,15.75 C15,15.8880712 14.8880712,16 14.75,16 L10.25,16 C10.1119288,16 10,16.1119288 10,16.25 Z M11.5,8.25 L11.5,7.75 C11.5,7.61192881 11.3880712,7.5 11.25,7.5 L9.75,7.5 C9.61192881,7.5 9.5,7.38807119 9.5,7.25 L9.5,5.25 C9.5,5.11192881 9.38807119,5 9.25,5 L8.75,5 C8.61192881,5 8.5,5.11192881 8.5,5.25 L8.5,8.25 C8.5,8.38807119 8.61192881,8.5 8.75,8.5 L11.25,8.5 C11.3880712,8.5 11.5,8.38807119 11.5,8.25 Z M9,12 C6.790861,12 5,10.209139 5,8 C5,5.790861 6.790861,4 9,4 C11.209139,4 13,5.790861 13,8 C13,10.209139 11.209139,12 9,12 Z M9,13 C11.7614237,13 14,10.7614237 14,8 C14,5.23857625 11.7614237,3 9,3 C6.23857625,3 4,5.23857625 4,8 C4,10.7614237 6.23857625,13 9,13 Z" id="Shape" fill="currentColor" fill-rule="nonzero"></path>
    </g>
</svg>