<?xml version="1.0" encoding="UTF-8"?>
<svg width="1em" height="1em" viewBox="0 0 18 18" version="1.1" xmlns="http://www.w3.org/2000/svg" xmlns:xlink="http://www.w3.org/1999/xlink">
    <!-- Generator: Sketch 53.2 (72643) - https://sketchapp.com -->
    <title>split</title>
    <desc>Created with Sketch.</desc>
    <g id="split" stroke="none" stroke-width="1" fill="none" fill-rule="evenodd">
        <path d="M9.42857143,8.57142857 L17.8942928,8.57142857 C17.9526733,8.57142857 18,8.61751229 18,8.67653111 L18,9.32346889 C18,9.38151542 17.9483643,9.42857143 17.8942928,9.42857143 L9.42857143,9.42857143 L9.42857143,17.8942928 C9.42857143,17.9526733 9.38248771,18 9.32346889,18 L8.67653111,18 C8.61848458,18 8.57142857,17.9483643 8.57142857,17.8942928 L8.57142857,9.42857143 L0.105707198,9.42857143 C0.0473267248,9.42857143 0,9.38248771 0,9.32346889 L0,8.67653111 C0,8.61848458 0.0516357422,8.57142857 0.105707198,8.57142857 L8.57142857,8.57142857 L8.57142857,0.105707198 C8.57142857,0.0473267248 8.61751229,0 8.67653111,0 L9.32346889,0 C9.38151542,0 9.42857143,0.0516357422 9.42857143,0.105707198 L9.42857143,8.57142857 Z M0.857142857,0.964852197 C0.857142857,0.905365971 0.900931222,0.857142857 0.964852197,0.857142857 L7.60657637,0.857142857 C7.6660626,0.857142857 7.71428571,0.900931222 7.71428571,0.964852197 L7.71428571,7.60657637 C7.71428571,7.6660626 7.67049735,7.71428571 7.60657637,7.71428571 L0.964852197,7.71428571 C0.905365971,7.71428571 0.857142857,7.67049735 0.857142857,7.60657637 L0.857142857,0.964852197 Z M0.857142857,10.3934236 C0.857142857,10.3339374 0.900931222,10.2857143 0.964852197,10.2857143 L7.60657637,10.2857143 C7.6660626,10.2857143 7.71428571,10.3295027 7.71428571,10.3934236 L7.71428571,17.0351478 C7.71428571,17.094634 7.67049735,17.1428571 7.60657637,17.1428571 L0.964852197,17.1428571 C0.905365971,17.1428571 0.857142857,17.0990688 0.857142857,17.0351478 L0.857142857,10.3934236 Z M10.2857143,0.964852197 C10.2857143,0.905365971 10.3295027,0.857142857 10.3934236,0.857142857 L17.0351478,0.857142857 C17.094634,0.857142857 17.1428571,0.900931222 17.1428571,0.964852197 L17.1428571,7.60657637 C17.1428571,7.6660626 17.0990688,7.71428571 17.0351478,7.71428571 L10.3934236,7.71428571 C10.3339374,7.71428571 10.2857143,7.67049735 10.2857143,7.60657637 L10.2857143,0.964852197 Z M10.2857143,10.3934236 C10.2857143,10.3339374 10.3295027,10.2857143 10.3934236,10.2857143 L17.0351478,10.2857143 C17.094634,10.2857143 17.1428571,10.3295027 17.1428571,10.3934236 L17.1428571,17.0351478 C17.1428571,17.094634 17.0990688,17.1428571 17.0351478,17.1428571 L10.3934236,17.1428571 C10.3339374,17.1428571 10.2857143,17.0990688 10.2857143,17.0351478 L10.2857143,10.3934236 Z" id="Shape" fill="currentColor" fill-rule="nonzero"></path>
    </g>
</svg>