<?xml version="1.0" encoding="UTF-8"?>
<svg width="1em" height="1em" viewBox="0 0 18 18" version="1.1" xmlns="http://www.w3.org/2000/svg" xmlns:xlink="http://www.w3.org/1999/xlink">
    <!-- Generator: Sketch 53.2 (72643) - https://sketchapp.com -->
    <title>stamp </title>
    <desc>Created with Sketch.</desc>
    <g id="stamp-" stroke="none" stroke-width="1" fill="none" fill-rule="evenodd">
        <path d="M4.425466,8.2883622 L4.65989104,7.02309022 L6.87570848,7.3949262 L6.19703805,1.19285484 C6.19703805,1.19285484 7.00550787,-0.410957043 10.0549127,0.100763102 C13.1043175,0.612483248 13.2876539,2.38272998 13.2876539,2.38272998 L10.4210164,7.98986377 L12.6368338,8.36169975 L12.4024088,9.62697173 L15.0613897,10.0731749 L14.5925397,12.6037189 L1.29763499,10.372703 L1.76648507,7.84215903 L4.425466,8.2883622 L4.425466,8.2883622 Z M9,18 C4.02943725,18 0,17.0412992 0,15.8586819 C0,14.6760646 4.02943725,13.7173639 9,13.7173639 C13.9705627,13.7173639 18,14.6760646 18,15.8586819 C18,17.0412992 13.9705627,18 9,18 Z" id="Shape" fill="currentColor" fill-rule="nonzero"></path>
    </g>
</svg>