<?xml version="1.0" encoding="UTF-8"?>
<svg width="1em" height="1em" viewBox="0 0 18 18" version="1.1" xmlns="http://www.w3.org/2000/svg" xmlns:xlink="http://www.w3.org/1999/xlink">
    <!-- Generator: Sketch 53.2 (72643) - https://sketchapp.com -->
    <title>star</title>
    <desc>Created with Sketch.</desc>
    <g id="star" stroke="none" stroke-width="1" fill="none" fill-rule="evenodd">
        <path d="M4.12229341,11.5378936 L3.1950296,17.1943218 C3.15320956,17.4522719 3.25506647,17.7147213 3.4571782,17.868768 C3.65875128,18.022265 3.92875839,18.0428518 4.14980515,17.9211827 L9.00004445,15.2500173 L13.8502976,17.9211827 C13.9458842,17.973959 14.0507934,18 14.1556887,18 C14.292032,18 14.4283752,17.9556146 14.5429245,17.8687681 C14.7450362,17.7147213 14.8463545,17.4522719 14.8043549,17.1943218 L13.8776297,11.5375175 L17.8020416,7.53150715 C17.9802048,7.34862731 18.0450618,7.0742135 17.9680511,6.82543559 C17.8912061,6.57648405 17.683929,6.39340167 17.4371246,6.35633673 L12.0148845,5.53047675 L9.59011012,0.383756885 C9.47931744,0.149026588 9.24985973,0 9.00004445,0 C8.75022917,0 8.52042618,0.149026588 8.40999258,0.383756885 L5.98539775,5.5308529 L0.562784795,6.35633671 C0.315828423,6.39340167 0.108882812,6.57648405 0.0320516258,6.82543557 C-0.0451524492,7.07421348 0.0197183073,7.34862729 0.198599737,7.53150713 L4.12229341,11.5378936 Z" id="Shape" fill="currentColor" fill-rule="nonzero"></path>
    </g>
</svg>