<?xml version="1.0" encoding="UTF-8"?>
<svg width="1em" height="1em" viewBox="0 0 18 18" version="1.1" xmlns="http://www.w3.org/2000/svg" xmlns:xlink="http://www.w3.org/1999/xlink">
    <!-- Generator: Sketch 53.2 (72643) - https://sketchapp.com -->
    <title>string</title>
    <desc>Created with Sketch.</desc>
    <g id="string" stroke="none" stroke-width="1" fill="none" fill-rule="evenodd">
        <path d="M0.107142857,0 L17.8928571,0 C17.9520305,0 18,0.0479694911 18,0.107142857 L18,17.8928571 C18,17.9520305 17.9520305,18 17.8928571,18 L0.107142857,18 C0.0479694911,18 0,17.9520305 0,17.8928571 L0,0.107142857 C0,0.0479694911 0.0479694911,0 0.107142857,0 Z M8.00742857,13.2857143 L9.07714286,13.2857143 L5.88857143,5.98285714 L5.74457143,5.98285714 L2.56628571,13.2857143 L3.64628571,13.2857143 L4.284,11.7531429 L7.36971429,11.7531429 L8.00742857,13.2857143 Z M12.6257143,8.07085714 C11.8645714,8.07085714 11.2577143,8.44114286 10.8565714,8.976 L10.8565714,5.05714286 L9.88971429,5.05714286 L9.88971429,13.2857143 L10.8565714,13.2857143 L10.8565714,12.4422857 C11.2577143,12.9874286 11.8645714,13.3577143 12.6257143,13.3577143 C14.0554286,13.3577143 15.0325714,12.1954286 15.0325714,10.7142857 C15.0325714,9.23314286 14.0554286,8.07085714 12.6257143,8.07085714 Z M4.67485714,10.8068571 L5.82685714,8.02971429 L6.97885714,10.8068571 L4.67485714,10.8068571 Z M12.4611429,12.4114286 C11.5354286,12.4114286 10.8668571,11.6194286 10.8668571,10.7142857 C10.8668571,9.80914286 11.5354286,9.00685714 12.4611429,9.00685714 C13.3868571,9.00685714 14.0348571,9.768 14.0348571,10.7142857 C14.0348571,11.6502857 13.3868571,12.4114286 12.4611429,12.4114286 Z" id="Shape" fill="currentColor" fill-rule="nonzero"></path>
    </g>
</svg>