<?xml version="1.0" encoding="UTF-8"?>
<svg width="1em" height="1em" viewBox="0 0 18 18" version="1.1" xmlns="http://www.w3.org/2000/svg" xmlns:xlink="http://www.w3.org/1999/xlink">
    <!-- Generator: Sketch 53.2 (72643) - https://sketchapp.com -->
    <title>strike-through</title>
    <desc>Created with Sketch.</desc>
    <g id="strike-through" stroke="none" stroke-width="1" fill="none" fill-rule="evenodd">
        <path d="M11.1343335,11.5759703 L9.84372803,11.5759703 L9.84372803,10.7188275 L12.6527958,10.7188275 C12.8864979,10.6658055 13.1284004,10.6263683 13.3742505,10.5862823 C13.7816895,10.5197546 14.2008618,10.4472898 14.6250439,10.3119913 L14.6250439,10.0513885 C14.6250439,9.39640165 14.2589355,8.5033727 13.640658,8.5033727 C13.0223804,8.5033727 12.656272,9.39640165 12.656272,10.0513885 C12.656272,10.2844831 12.46745,10.4735776 12.234397,10.4735776 L11.109408,10.4735776 C10.876355,10.4735776 10.687533,10.2844831 10.687533,10.0513885 C10.687533,8.73234433 11.7599194,7.65899444 13.078147,7.65899444 L14.203136,7.65899444 C15.5213306,7.65899444 16.59375,8.73234433 16.59375,10.0513885 L16.59375,10.7188275 L18,10.7188275 L18,11.5759703 L16.59375,11.5759703 L16.59375,13.4288686 C16.59375,13.5063798 16.6568005,13.5696093 16.734386,13.5696093 L17.015625,13.5696093 C17.248678,13.5696093 17.4375,13.7587368 17.4375,13.9918314 C17.4375,14.2249259 17.248678,14.4140205 17.015625,14.4140205 L15.6094299,14.4140205 C15.2956274,14.4140205 15.0188708,14.2635497 14.8384863,14.0339183 C14.3309509,14.2933668 13.8603296,14.4140205 13.3594189,14.4140205 L12.796908,14.4140205 C11.8740564,14.4140205 11.168042,14.0402182 10.8598755,13.387936 C10.5889233,12.8148203 10.6943752,12.1219478 11.1343338,11.5759703 L11.1343335,11.5759703 Z M13.7076125,11.5759703 C13.3929009,11.7221072 13.1131467,11.8963878 12.9183289,12.112595 C12.6207092,12.4427271 12.616062,12.8797588 12.7433496,13.1664186 C12.8103552,13.3170214 12.9792371,13.5696422 13.359386,13.5696422 C13.7723291,13.5696422 14.1697156,13.4515612 14.625011,13.1908264 L14.625011,13.1908594 L14.6250439,13.1908594 L14.6250439,11.5759703 L13.7076125,11.5759703 Z M2.08455997,11.5759703 L0,11.5759703 L0,10.7188275 L2.43723765,10.7188275 L5.09419556,4.26139444 C5.15932251,4.10337037 5.31340576,4 5.48436401,4 C5.65532227,4 5.80943848,4.1033044 5.87453247,4.26139444 L8.53151325,10.7188275 L9.84372803,10.7188275 L9.84372803,11.5759703 L8.88419396,11.5759703 L9.70449829,13.5696093 L9.98438599,13.5696093 C10.217439,13.5696093 10.406261,13.7587368 10.406228,13.9917984 C10.406228,14.224893 10.217406,14.4139875 9.98435303,14.4139875 L7.45310303,14.4139875 C7.22005005,14.4139875 7.03122803,14.224893 7.03122803,13.9917984 C7.03122803,13.7809017 7.18626709,13.6075073 7.38827271,13.57614 L6.57491089,11.5993713 L2.98752319,11.5993713 L2.17419434,13.57614 C2.37619995,13.6075403 2.53123901,13.7809017 2.53123901,13.9917984 C2.53123901,14.224893 2.34241699,14.4139875 2.10936401,14.4139875 L1.55291748,14.4139875 C1.55130249,14.4140205 1.54965454,14.4139875 1.54803955,14.4139875 L0.984375,14.4139875 C0.751322021,14.4139875 0.5625,14.224893 0.5625,13.9917984 C0.5625,13.7587038 0.751322021,13.5696093 0.984375,13.5696093 L1.2642627,13.5696093 L2.08455997,11.5759703 Z M3.34983794,10.7188275 L6.21262876,10.7188275 L4.78121704,7.24000471 L3.34983794,10.7188275 Z" id="Shape" fill="currentColor" fill-rule="nonzero"></path>
    </g>
</svg>