<?xml version="1.0" encoding="UTF-8"?>
<svg width="1em" height="1em" viewBox="0 0 18 18" version="1.1" xmlns="http://www.w3.org/2000/svg" xmlns:xlink="http://www.w3.org/1999/xlink">
    <!-- Generator: Sketch 53.2 (72643) - https://sketchapp.com -->
    <title>style</title>
    <desc>Created with Sketch.</desc>
    <g id="style" stroke="none" stroke-width="1" fill="none" fill-rule="evenodd">
        <path d="M5.67773669,9.58593537 L2.55895566,6.53287572 C2.4037928,6.37424462 2.34752351,6.13621639 2.4144908,5.92042489 C2.48113465,5.70448282 2.66064054,5.54567603 2.87485202,5.51352565 L7.57845994,4.7974959 L9.68156844,0.332873088 C9.77735922,0.129266581 9.97669176,0 10.1933831,0 C10.4100744,0 10.6091074,0.129266581 10.7052097,0.332873088 L12.8084739,4.79716963 L17.5117584,5.51352567 C17.7258381,5.54567603 17.9056315,5.70448282 17.9722873,5.92042491 C18.0390869,6.13621641 17.9828296,6.37424464 17.8282897,6.53287574 L14.4242306,10.0077138 L15.2280778,14.9144607 C15.2645085,15.1382083 15.1766244,15.3658585 15.0013114,15.4994796 C14.9019506,15.5748108 14.7836857,15.613311 14.6654207,15.613311 C14.5744338,15.613311 14.483435,15.5907229 14.4005225,15.5449444 L10.1933831,13.227959 L5.98625559,15.5449444 C5.79451828,15.6504809 5.56031244,15.6326238 5.38546671,15.4994796 C5.21015375,15.3658585 9.94995649,10.8242571 9.98623145,10.6005095 C9.98623145,10.6005095 8.09175843,8.59563113 7.4040936,7.93816438 C7.35579963,7.89199119 5.67773669,9.58593537 5.67773669,9.58593537 Z M7.39194255,8.9213483 L9.0786517,10.6080574 C9.1209946,10.6504003 9.1209946,10.7190517 9.0786517,10.7613946 L1.87180352,17.9682428 C1.82946062,18.0105857 1.76080922,18.0105857 1.71846632,17.9682428 L0.031757173,16.2815337 C-0.0105857243,16.2391908 -0.0105857243,16.1705394 0.031757173,16.1281965 L7.23860536,8.9213483 C7.28094825,8.8790054 7.34959965,8.8790054 7.39194255,8.9213483 Z" id="Shape" fill="currentColor" fill-rule="nonzero"></path>
    </g>
</svg>