<?xml version="1.0" encoding="UTF-8"?>
<svg width="1em" height="1em" viewBox="0 0 18 18" version="1.1" xmlns="http://www.w3.org/2000/svg" xmlns:xlink="http://www.w3.org/1999/xlink">
    <!-- Generator: Sketch 53.2 (72643) - https://sketchapp.com -->
    <title>stylesheet</title>
    <desc>Created with Sketch.</desc>
    <g id="stylesheet" stroke="none" stroke-width="1" fill="none" fill-rule="evenodd">
        <path d="M0.107142857,0 L17.8928571,0 C17.9520305,0 18,0.0479694911 18,0.107142857 L18,17.8928571 C18,17.9520305 17.9520305,18 17.8928571,18 L0.107142857,18 C0.0479694911,18 0,17.9520305 0,17.8928571 L0,0.107142857 C0,0.0479694911 0.0479694911,0 0.107142857,0 Z M12.0883835,5.13167882 L11.7792956,7.01715488 C11.7653556,7.10313825 11.7993079,7.19062139 11.8666784,7.2419703 C11.9338695,7.29313595 12.0238718,7.29999822 12.0975541,7.25944185 L13.7143005,6.36905337 L15.3310516,7.25944186 C15.3629138,7.27703397 15.3978835,7.28571429 15.4328486,7.28571429 C15.4782964,7.28571429 15.5237441,7.27091916 15.5619272,7.2419703 C15.6292978,7.1906214 15.6630705,7.10313826 15.6490707,7.01715489 L15.3401623,5.13155344 L16.6482996,3.79621667 C16.7076873,3.73525672 16.7293063,3.64378545 16.7036361,3.56085948 C16.6780211,3.47787564 16.6089287,3.41684818 16.5266606,3.4044932 L14.7192472,3.12920654 L13.9109891,1.41363325 C13.8740582,1.33538982 13.7975723,1.28571429 13.7143005,1.28571429 C13.6310288,1.28571429 13.5544278,1.33538982 13.5176166,1.41363325 L12.7094183,3.12933192 L10.9018806,3.40449319 C10.8195619,3.41684818 10.75058,3.47787564 10.7249696,3.56085948 C10.6992349,3.64378545 10.7208585,3.73525672 10.7804856,3.79621666 L12.0883835,5.13167882 Z M9.23174474,7.10150356 C9.18990285,7.05966167 9.12206375,7.05966167 9.08022186,7.10150356 L1.95864642,14.223079 C1.91680453,14.2649209 1.91680453,14.33276 1.95864642,14.3746019 L3.62539812,16.0413536 C3.66724001,16.0831955 3.73507911,16.0831955 3.776921,16.0413536 L10.8984964,8.91977814 C10.9403383,8.87793625 10.9403383,8.81009715 10.8984964,8.76825526 L9.23174474,7.10150356 Z" id="Shape" fill="currentColor" fill-rule="nonzero"></path>
    </g>
</svg>