<?xml version="1.0" encoding="UTF-8"?>
<svg width="1em" height="1em" viewBox="0 0 18 18" version="1.1" xmlns="http://www.w3.org/2000/svg" xmlns:xlink="http://www.w3.org/1999/xlink">
    <!-- Generator: Sketch 53.2 (72643) - https://sketchapp.com -->
    <title>style-rule</title>
    <desc>Created with Sketch.</desc>
    <g id="style-rule" stroke="none" stroke-width="1" fill="none" fill-rule="evenodd">
        <path d="M2.1038961,6.75719217 C2.1038961,7.49021864 1.9987013,8.07364787 1.50278293,8.49252014 C1.9987013,8.91139241 2.1038961,9.50978136 2.1038961,10.2278481 L2.1038961,12.1426928 C2.1038961,12.9205984 2.49461967,13.593786 3.42634508,13.6386651 L3.42634508,15 C1.72820037,15 0.691280148,13.8780207 0.691280148,12.0080552 L0.691280148,9.88377445 C0.691280148,9.3452244 0.465862709,8.85155351 0,8.53739931 L0,8.44764097 C0.465862709,8.13348677 0.691280148,7.63981588 0.691280148,7.11622555 L0.691280148,4.99194476 C0.691280148,3.12197929 1.72820037,2 3.42634508,2 L3.42634508,3.36133487 C2.49461967,3.40621404 2.1038961,4.07940161 2.1038961,4.85730725 L2.1038961,6.75719217 Z M17.3087199,7.11622555 C17.3087199,7.63981588 17.5341373,8.13348677 18,8.44764097 L18,8.53739931 C17.5341373,8.85155351 17.3087199,9.3452244 17.3087199,9.88377445 L17.3087199,12.0080552 C17.3087199,13.8780207 16.2717996,15 14.5736549,15 L14.5736549,13.6386651 C15.5053803,13.593786 15.8961039,12.9205984 15.8961039,12.1426928 L15.8961039,10.2278481 C15.8961039,9.50978136 16.0012987,8.91139241 16.4972171,8.49252014 C16.0012987,8.07364787 15.8961039,7.49021864 15.8961039,6.75719217 L15.8961039,4.85730725 C15.8961039,4.07940161 15.5053803,3.40621404 14.5736549,3.36133487 L14.5736549,2 C16.2717996,2 17.3087199,3.12197929 17.3087199,4.99194476 L17.3087199,7.11622555 Z M6.96385161,9.63190822 L5.32594609,7.9670628 C5.25127388,7.89106747 5.22419425,7.77703539 5.25642229,7.67365626 C5.28849468,7.57020498 5.37488199,7.49412549 5.47797139,7.47872322 L7.74158533,7.13569517 L8.75370748,4.99683031 C8.79980685,4.89928863 8.89573574,4.83736095 9.00001856,4.83736095 C9.10430137,4.83736095 9.20008613,4.89928863 9.24633539,4.99683031 L10.2585325,7.13553886 L12.5219908,7.47872323 C12.6250168,7.49412549 12.7115424,7.57020498 12.7436206,7.67365627 C12.7757679,7.7770354 12.748694,7.89106748 12.6743216,7.96706281 L11.0361163,9.63175192 L11.4229682,11.982425 C11.4405005,12.0896156 11.3982062,12.1986759 11.3138368,12.2626897 C11.2660193,12.2987786 11.2091043,12.3172229 11.1521892,12.3172229 C11.1084017,12.3172229 11.0646084,12.3064016 11.0247068,12.2844705 L9.00001856,11.1744734 L6.9753361,12.2844705 C6.88306241,12.3350298 6.77035072,12.326475 6.68620611,12.2626897 C6.60183665,12.1986759 6.55931754,12.0896156 6.57677488,11.982425 L6.96385161,9.63190822 Z" id="Shape" fill="currentColor" fill-rule="nonzero"></path>
    </g>
</svg>