<?xml version="1.0" encoding="UTF-8"?>
<svg width="1em" height="1em" viewBox="0 0 18 18" version="1.1" xmlns="http://www.w3.org/2000/svg" xmlns:xlink="http://www.w3.org/1999/xlink">
    <!-- Generator: Sketch 53.2 (72643) - https://sketchapp.com -->
    <title>subgraph</title>
    <desc>Created with Sketch.</desc>
    <g id="subgraph" stroke="none" stroke-width="1" fill="none" fill-rule="evenodd">
        <path d="M3,9.42857143 L3,12.3214286 C3,12.3806019 2.95203051,12.4285714 2.89285714,12.4285714 L2.25,12.4285714 C2.19082663,12.4285714 2.14285714,12.3806019 2.14285714,12.3214286 L2.14285714,8.67857143 C2.14285714,8.61939806 2.19082663,8.57142857 2.25,8.57142857 L8.57142857,8.57142857 L8.57142857,5.67857143 C8.57142857,5.61939806 8.61939806,5.57142857 8.67857143,5.57142857 L9.32142857,5.57142857 C9.38060194,5.57142857 9.42857143,5.61939806 9.42857143,5.67857143 L9.42857143,8.57142857 L15.75,8.57142857 C15.8091734,8.57142857 15.8571429,8.61939806 15.8571429,8.67857143 L15.8571429,12.3214286 C15.8571429,12.3806019 15.8091734,12.4285714 15.75,12.4285714 L15.1071429,12.4285714 C15.0479695,12.4285714 15,12.3806019 15,12.3214286 L15,9.42857143 L9.42857143,9.42857143 L9.42857143,12.3214286 C9.42857143,12.3806019 9.38060194,12.4285714 9.32142857,12.4285714 L8.67857143,12.4285714 C8.61939806,12.4285714 8.57142857,12.3806019 8.57142857,12.3214286 L8.57142857,9.42857143 L3,9.42857143 Z M0.107142857,12.8571429 L5.03571429,12.8571429 C5.09488765,12.8571429 5.14285714,12.9051123 5.14285714,12.9642857 L5.14285714,17.8928571 C5.14285714,17.9520305 5.09488765,18 5.03571429,18 L0.107142857,18 C0.0479694911,18 1.11022302e-14,17.9520305 1.11022302e-14,17.8928571 L1.11022302e-14,12.9642857 C1.11022302e-14,12.9051123 0.0479694911,12.8571429 0.107142857,12.8571429 Z M6.53571429,12.8571429 L11.4642857,12.8571429 C11.5234591,12.8571429 11.5714286,12.9051123 11.5714286,12.9642857 L11.5714286,17.8928571 C11.5714286,17.9520305 11.5234591,18 11.4642857,18 L6.53571429,18 C6.47654092,18 6.42857143,17.9520305 6.42857143,17.8928571 L6.42857143,12.9642857 C6.42857143,12.9051123 6.47654092,12.8571429 6.53571429,12.8571429 Z M9,5.14285714 C7.57983921,5.14285714 6.42857143,3.99158936 6.42857143,2.57142857 C6.42857143,1.15126779 7.57983921,1.11022302e-14 9,1.11022302e-14 C10.4201608,1.11022302e-14 11.5714286,1.15126779 11.5714286,2.57142857 C11.5714286,3.99158936 10.4201608,5.14285714 9,5.14285714 Z M12.9642857,12.8571429 L17.8928571,12.8571429 C17.9520305,12.8571429 18,12.9051123 18,12.9642857 L18,17.8928571 C18,17.9520305 17.9520305,18 17.8928571,18 L12.9642857,18 C12.9051123,18 12.8571429,17.9520305 12.8571429,17.8928571 L12.8571429,12.9642857 C12.8571429,12.9051123 12.9051123,12.8571429 12.9642857,12.8571429 Z" id="Shape" fill="currentColor" fill-rule="nonzero"></path>
    </g>
</svg>