<?xml version="1.0" encoding="UTF-8"?>
<svg width="1em" height="1em" viewBox="0 0 18 18" version="1.1" xmlns="http://www.w3.org/2000/svg" xmlns:xlink="http://www.w3.org/1999/xlink">
    <!-- Generator: Sketch 53.2 (72643) - https://sketchapp.com -->
    <title>subtract</title>
    <desc>Created with Sketch.</desc>
    <g id="subtract" stroke="none" stroke-width="1" fill="none" fill-rule="evenodd">
        <path d="M5.14285714,5.14285714 L5.14285714,12.6447102 C5.14285714,12.7610447 5.23796649,12.8571429 5.35528982,12.8571429 L12.8571429,12.8571429 L12.8571429,17.8888493 C12.8571429,17.9502361 12.8105874,18 12.7459921,18 L0.111150742,18 C0.0497638821,18 1.11022302e-14,17.9534445 1.11022302e-14,17.8888493 L1.11022302e-14,5.25400788 C1.11022302e-14,5.19262102 0.046555485,5.14285714 0.111150742,5.14285714 L5.14285714,5.14285714 Z M16.3929505,1.11022302e-14 L17.8948975,1.11022302e-14 C17.952944,1.11022302e-14 18,0.0494564601 18,0.107236249 L18,1.60704947 C18,1.66627441 17.9539163,1.71428571 17.8948975,1.71428571 L17.2479597,1.71428571 C17.1899132,1.71428571 17.1428571,1.66482925 17.1428571,1.60704947 L17.1428571,0.857142857 L16.3929505,0.857142857 C16.3337256,0.857142857 16.2857143,0.811059134 16.2857143,0.752040318 L16.2857143,0.105102539 C16.2857143,0.0470560096 16.3351707,1.11022302e-14 16.3929505,1.11022302e-14 Z M6.85714286,0.857142857 L6.85714286,1.60704947 C6.85714286,1.66627441 6.81105913,1.71428571 6.75204032,1.71428571 L6.10510254,1.71428571 C6.04705601,1.71428571 6,1.66482925 6,1.60704947 L6,0.105102539 C6,0.0470560096 6.04945646,1.11022302e-14 6.10723625,1.11022302e-14 L7.60704947,1.11022302e-14 C7.66627441,1.11022302e-14 7.71428571,0.0460837228 7.71428571,0.105102539 L7.71428571,0.752040318 C7.71428571,0.810086848 7.66482925,0.857142857 7.60704947,0.857142857 L6.85714286,0.857142857 Z M17.1428571,2.67866482 C17.1428571,2.61943988 17.1889409,2.57142857 17.2479597,2.57142857 L17.8948975,2.57142857 C17.952944,2.57142857 18,2.62088503 18,2.67866482 L18,4.17847804 C18,4.23770298 17.9539163,4.28571429 17.8948975,4.28571429 L17.2479597,4.28571429 C17.1899132,4.28571429 17.1428571,4.23625783 17.1428571,4.17847804 L17.1428571,2.67866482 Z M6,2.67866482 C6,2.61943988 6.04608372,2.57142857 6.10510254,2.57142857 L6.75204032,2.57142857 C6.81008685,2.57142857 6.85714286,2.62088503 6.85714286,2.67866482 L6.85714286,4.17847804 C6.85714286,4.23770298 6.81105913,4.28571429 6.75204032,4.28571429 L6.10510254,4.28571429 C6.04705601,4.28571429 6,4.23625783 6,4.17847804 L6,2.67866482 Z M17.1428571,5.25009339 C17.1428571,5.19086845 17.1889409,5.14285714 17.2479597,5.14285714 L17.8948975,5.14285714 C17.952944,5.14285714 18,5.1923136 18,5.25009339 L18,6.74990661 C18,6.80913155 17.9539163,6.85714286 17.8948975,6.85714286 L17.2479597,6.85714286 C17.1899132,6.85714286 17.1428571,6.8076864 17.1428571,6.74990661 L17.1428571,5.25009339 Z M6,5.25009339 C6,5.19086845 6.04608372,5.14285714 6.10510254,5.14285714 L6.75204032,5.14285714 C6.81008685,5.14285714 6.85714286,5.1923136 6.85714286,5.25009339 L6.85714286,6.74990661 C6.85714286,6.80913155 6.81105913,6.85714286 6.75204032,6.85714286 L6.10510254,6.85714286 C6.04705601,6.85714286 6,6.8076864 6,6.74990661 L6,5.25009339 Z M17.1428571,7.82152196 C17.1428571,7.76229702 17.1889409,7.71428571 17.2479597,7.71428571 L17.8948975,7.71428571 C17.952944,7.71428571 18,7.76374217 18,7.82152196 L18,9.32133518 C18,9.38056012 17.9539163,9.42857143 17.8948975,9.42857143 L17.2479597,9.42857143 C17.1899132,9.42857143 17.1428571,9.37911497 17.1428571,9.32133518 L17.1428571,7.82152196 Z M6,7.82152196 C6,7.76229702 6.04608372,7.71428571 6.10510254,7.71428571 L6.75204032,7.71428571 C6.81008685,7.71428571 6.85714286,7.76374217 6.85714286,7.82152196 L6.85714286,9.32133518 C6.85714286,9.38056012 6.81105913,9.42857143 6.75204032,9.42857143 L6.10510254,9.42857143 C6.04705601,9.42857143 6,9.37911497 6,9.32133518 L6,7.82152196 Z M6.85714286,11.1428571 L7.60704947,11.1428571 C7.66627441,11.1428571 7.71428571,11.1889409 7.71428571,11.2479597 L7.71428571,11.8948975 C7.71428571,11.952944 7.66482925,12 7.60704947,12 L6.10510254,12 C6.04705601,12 6,11.9505435 6,11.8927638 L6,10.3929505 C6,10.3337256 6.04608372,10.2857143 6.10510254,10.2857143 L6.75204032,10.2857143 C6.81008685,10.2857143 6.85714286,10.3351707 6.85714286,10.3929505 L6.85714286,11.1428571 Z M8.57142857,0.105102539 C8.57142857,0.0470560096 8.62088503,1.11022302e-14 8.67866482,1.11022302e-14 L10.178478,1.11022302e-14 C10.237703,1.11022302e-14 10.2857143,0.0460837228 10.2857143,0.105102539 L10.2857143,0.752040318 C10.2857143,0.810086848 10.2362578,0.857142857 10.178478,0.857142857 L8.67866482,0.857142857 C8.61943988,0.857142857 8.57142857,0.811059134 8.57142857,0.752040318 L8.57142857,0.105102539 Z M8.57142857,11.2479597 C8.57142857,11.1899132 8.62088503,11.1428571 8.67866482,11.1428571 L10.178478,11.1428571 C10.237703,11.1428571 10.2857143,11.1889409 10.2857143,11.2479597 L10.2857143,11.8948975 C10.2857143,11.952944 10.2362578,12 10.178478,12 L8.67866482,12 C8.61943988,12 8.57142857,11.9539163 8.57142857,11.8948975 L8.57142857,11.2479597 Z M11.1428571,0.105102539 C11.1428571,0.0470560096 11.1923136,1.11022302e-14 11.2500934,1.11022302e-14 L12.7499066,1.11022302e-14 C12.8091316,1.11022302e-14 12.8571429,0.0460837228 12.8571429,0.105102539 L12.8571429,0.752040318 C12.8571429,0.810086848 12.8076864,0.857142857 12.7499066,0.857142857 L11.2500934,0.857142857 C11.1908684,0.857142857 11.1428571,0.811059134 11.1428571,0.752040318 L11.1428571,0.105102539 Z M11.1428571,11.2479597 C11.1428571,11.1899132 11.1923136,11.1428571 11.2500934,11.1428571 L12.7499066,11.1428571 C12.8091316,11.1428571 12.8571429,11.1889409 12.8571429,11.2479597 L12.8571429,11.8948975 C12.8571429,11.952944 12.8076864,12 12.7499066,12 L11.2500934,12 C11.1908684,12 11.1428571,11.9539163 11.1428571,11.8948975 L11.1428571,11.2479597 Z M13.7142857,0.105102539 C13.7142857,0.0470560096 13.7637422,1.11022302e-14 13.821522,1.11022302e-14 L15.3213352,1.11022302e-14 C15.3805601,1.11022302e-14 15.4285714,0.0460837228 15.4285714,0.105102539 L15.4285714,0.752040318 C15.4285714,0.810086848 15.379115,0.857142857 15.3213352,0.857142857 L13.821522,0.857142857 C13.762297,0.857142857 13.7142857,0.811059134 13.7142857,0.752040318 L13.7142857,0.105102539 Z M13.7142857,11.2479597 C13.7142857,11.1899132 13.7637422,11.1428571 13.821522,11.1428571 L15.3213352,11.1428571 C15.3805601,11.1428571 15.4285714,11.1889409 15.4285714,11.2479597 L15.4285714,11.8948975 C15.4285714,11.952944 15.379115,12 15.3213352,12 L13.821522,12 C13.762297,12 13.7142857,11.9539163 13.7142857,11.8948975 L13.7142857,11.2479597 Z M18,10.3929505 L18,11.8948975 C18,11.952944 17.9505435,12 17.8927638,12 L16.3929505,12 C16.3337256,12 16.2857143,11.9539163 16.2857143,11.8948975 L16.2857143,11.2479597 C16.2857143,11.1899132 16.3351707,11.1428571 16.3929505,11.1428571 L17.1428571,11.1428571 L17.1428571,10.3929505 C17.1428571,10.3337256 17.1889409,10.2857143 17.2479597,10.2857143 L17.8948975,10.2857143 C17.952944,10.2857143 18,10.3351707 18,10.3929505 Z" id="Shape" fill="currentColor" fill-rule="nonzero"></path>
    </g>
</svg>