<?xml version="1.0" encoding="UTF-8"?>
<svg width="1em" height="1em" viewBox="0 0 18 18" version="1.1" xmlns="http://www.w3.org/2000/svg" xmlns:xlink="http://www.w3.org/1999/xlink">
    <!-- Generator: Sketch 53.2 (72643) - https://sketchapp.com -->
    <title>symbols</title>
    <desc>Created with Sketch.</desc>
    <g id="symbols" stroke="none" stroke-width="1" fill="none" fill-rule="evenodd">
        <path d="M12.4570577,2.17216751 C12.4093439,2.30046786 12.3043738,2.39916043 12.1803181,2.43863746 L10.767992,2.9617081 C10.7202783,2.98144662 10.6630219,2.99131588 10.6057654,2.99131588 C10.4149105,2.99131588 10.2240557,2.86301553 10.1572565,2.66563038 C10.0713718,2.40902969 10.2049702,2.12282123 10.4530815,2.03399791 L10.6725646,1.95504385 C10.0141153,1.74778945 9.31749503,1.63922761 8.61133201,1.63922761 C4.66063618,1.63922761 1.45427435,4.9552981 1.45427435,9.04117066 C1.45427435,10.0478349 1.64512922,11.0248914 2.01729622,11.9229938 C2.1222664,12.1795945 2.00775348,12.465803 1.76918489,12.5743648 C1.70238569,12.6039726 1.64512922,12.6138418 1.57833002,12.6138418 C1.39701789,12.6138418 1.21570577,12.50528 1.13936382,12.3177641 C0.719483101,11.2913613 0.5,10.1860045 0.5,9.04117066 C0.5,4.41248894 4.13578529,0.652301875 8.61133201,0.652301875 C9.47972167,0.652301875 10.3099404,0.790471479 11.1115308,1.05694143 L10.9588469,0.691778905 C10.8538767,0.435178213 10.9683897,0.148969748 11.2069583,0.040407917 C11.4455268,-0.0681539143 11.7318091,0.0502771744 11.8367793,0.297008609 L12.4570577,1.78726647 C12.5143141,1.90569756 12.5143141,2.05373642 12.4570577,2.17216751 Z M17.5,8.90235571 C17.5,13.6911269 13.7384659,17.5813654 9.10812607,17.5813654 C7.99250047,17.5813654 6.92623885,17.3669428 5.93895956,16.9380976 L6.08705145,17.285258 C6.19565217,17.540523 6.08705145,17.846841 5.83035884,17.9591576 C5.77112208,17.9897894 5.70201253,18 5.64277577,18 C5.44531992,18 5.26760964,17.8876834 5.1886273,17.693682 L4.53702297,16.1518815 C4.48765901,16.0191437 4.48765901,15.8761953 4.53702297,15.7434575 C4.59625973,15.6209303 4.69498766,15.5188243 4.82333397,15.4677713 L6.28450731,14.9266095 C6.54119992,14.8347141 6.82751092,14.9776625 6.91636605,15.2431381 C7.01509398,15.5086137 6.87687488,15.8047211 6.62018227,15.8966165 L6.34374407,15.9987225 C7.20267705,16.3765147 8.13071957,16.5603054 9.10812607,16.5603054 C13.1954623,16.5603054 16.5127207,13.129544 16.5127207,8.90235571 C16.5127207,7.87108514 16.3152649,6.87044637 15.9203531,5.92086061 C15.8117524,5.65538501 15.9302259,5.35927762 16.1770458,5.24696103 C16.4337384,5.13464443 16.7200494,5.25717163 16.8286501,5.51243662 C17.2729258,6.59476018 17.5,7.73834734 17.5,8.90235571 Z M9,13 C6.790861,13 5,11.209139 5,9 C5,6.790861 6.790861,5 9,5 C11.209139,5 13,6.790861 13,9 C13,11.209139 11.209139,13 9,13 Z" id="Shape" fill="currentColor" fill-rule="nonzero"></path>
    </g>
</svg>