<?xml version="1.0" encoding="UTF-8"?>
<svg width="1em" height="1em" viewBox="0 0 18 18" version="1.1" xmlns="http://www.w3.org/2000/svg" xmlns:xlink="http://www.w3.org/1999/xlink">
    <!-- Generator: Sketch 53.2 (72643) - https://sketchapp.com -->
    <title>tab</title>
    <desc>Created with Sketch.</desc>
    <g id="tab" stroke="none" stroke-width="1" fill="none" fill-rule="evenodd">
        <path d="M17.1428571,17.8928571 C17.1428571,17.9520305 17.0948877,18 17.0357143,18 L15.5357143,18 C15.4765409,18 15.4285714,17.9520305 15.4285714,17.8928571 L15.4285714,17.25 C15.4285714,17.1908266 15.4765409,17.1428571 15.5357143,17.1428571 L17.0357143,17.1428571 C17.0948877,17.1428571 17.1428571,17.1908266 17.1428571,17.25 L17.1428571,16.3928571 C17.1428571,16.3336838 17.1908266,16.2857143 17.25,16.2857143 L17.8928571,16.2857143 C17.9520305,16.2857143 18,16.3336838 18,16.3928571 L18,17.8928571 C18,17.9520305 17.9520305,18 17.8928571,18 L17.25,18 C17.1908266,18 17.1428571,17.9520305 17.1428571,17.8928571 L17.1428571,17.8928571 Z M17.8928571,3.42857143 C17.9520305,3.42857143 18,3.47654092 18,3.53571429 L18,5.03571429 C18,5.09488765 17.9520305,5.14285714 17.8928571,5.14285714 L17.25,5.14285714 C17.1908266,5.14285714 17.1428571,5.09488765 17.1428571,5.03571429 L17.1428571,3.53571429 C17.1428571,3.47654092 17.1908266,3.42857143 17.25,3.42857143 L0.105707198,3.42857143 C0.0473267248,3.42857143 0,3.38270678 0,3.32042476 L0,0.106771588 C0,0.0478032684 0.0492619106,0 0.109051568,0 L7.60523415,0 C7.66546166,0 7.71428571,0.0520706177 7.71428571,0.106771588 L7.71428571,2.89322841 C7.71428571,2.95219673 7.76014382,3 7.82283962,3 L17.8914461,3 C17.9513988,3 18,3.04586465 18,3.10814667 L18,3.32042476 C18,3.38015252 17.9483643,3.42857143 17.8942928,3.42857143 L17.8928571,3.42857143 Z M8.25,0.428571429 L12.75,0.428571429 C12.8091734,0.428571429 12.8571429,0.47654092 12.8571429,0.535714286 L12.8571429,2.46428571 C12.8571429,2.52345908 12.8091734,2.57142857 12.75,2.57142857 L8.25,2.57142857 C8.19082663,2.57142857 8.14285714,2.52345908 8.14285714,2.46428571 L8.14285714,0.535714286 C8.14285714,0.47654092 8.19082663,0.428571429 8.25,0.428571429 Z M0.107142857,17.1428571 L1.60714286,17.1428571 C1.66631622,17.1428571 1.71428571,17.1908266 1.71428571,17.25 L1.71428571,17.8928571 C1.71428571,17.9520305 1.66631622,18 1.60714286,18 L0.107142857,18 C0.0479694911,18 0,17.9520305 0,17.8928571 L0,17.25 C0,17.1908266 0.0479694911,17.1428571 0.107142857,17.1428571 Z M17.25,13.7142857 L17.8928571,13.7142857 C17.9520305,13.7142857 18,13.7622552 18,13.8214286 L18,15.3214286 C18,15.3806019 17.9520305,15.4285714 17.8928571,15.4285714 L17.25,15.4285714 C17.1908266,15.4285714 17.1428571,15.3806019 17.1428571,15.3214286 L17.1428571,13.8214286 C17.1428571,13.7622552 17.1908266,13.7142857 17.25,13.7142857 Z M17.25,11.1428571 L17.8928571,11.1428571 C17.9520305,11.1428571 18,11.1908266 18,11.25 L18,12.75 C18,12.8091734 17.9520305,12.8571429 17.8928571,12.8571429 L17.25,12.8571429 C17.1908266,12.8571429 17.1428571,12.8091734 17.1428571,12.75 L17.1428571,11.25 C17.1428571,11.1908266 17.1908266,11.1428571 17.25,11.1428571 Z M17.25,8.57142857 L17.8928571,8.57142857 C17.9520305,8.57142857 18,8.61939806 18,8.67857143 L18,10.1785714 C18,10.2377448 17.9520305,10.2857143 17.8928571,10.2857143 L17.25,10.2857143 C17.1908266,10.2857143 17.1428571,10.2377448 17.1428571,10.1785714 L17.1428571,8.67857143 C17.1428571,8.61939806 17.1908266,8.57142857 17.25,8.57142857 Z M17.25,6 L17.8928571,6 C17.9520305,6 18,6.04796949 18,6.10714286 L18,7.60714286 C18,7.66631622 17.9520305,7.71428571 17.8928571,7.71428571 L17.25,7.71428571 C17.1908266,7.71428571 17.1428571,7.66631622 17.1428571,7.60714286 L17.1428571,6.10714286 C17.1428571,6.04796949 17.1908266,6 17.25,6 Z M0.107142857,14.5714286 L0.75,14.5714286 C0.809173366,14.5714286 0.857142857,14.6193981 0.857142857,14.6785714 L0.857142857,16.1785714 C0.857142857,16.2377448 0.809173366,16.2857143 0.75,16.2857143 L0.107142857,16.2857143 C0.0479694911,16.2857143 0,16.2377448 0,16.1785714 L0,14.6785714 C0,14.6193981 0.0479694911,14.5714286 0.107142857,14.5714286 Z M0.107142857,12 L0.75,12 C0.809173366,12 0.857142857,12.0479695 0.857142857,12.1071429 L0.857142857,13.6071429 C0.857142857,13.6663162 0.809173366,13.7142857 0.75,13.7142857 L0.107142857,13.7142857 C0.0479694911,13.7142857 0,13.6663162 0,13.6071429 L0,12.1071429 C0,12.0479695 0.0479694911,12 0.107142857,12 Z M0.107142857,9.42857143 L0.75,9.42857143 C0.809173366,9.42857143 0.857142857,9.47654092 0.857142857,9.53571429 L0.857142857,11.0357143 C0.857142857,11.0948877 0.809173366,11.1428571 0.75,11.1428571 L0.107142857,11.1428571 C0.0479694911,11.1428571 0,11.0948877 0,11.0357143 L0,9.53571429 C0,9.47654092 0.0479694911,9.42857143 0.107142857,9.42857143 Z M0.107142857,6.85714286 L0.75,6.85714286 C0.809173366,6.85714286 0.857142857,6.90511235 0.857142857,6.96428571 L0.857142857,8.46428571 C0.857142857,8.52345908 0.809173366,8.57142857 0.75,8.57142857 L0.107142857,8.57142857 C0.0479694911,8.57142857 0,8.52345908 0,8.46428571 L0,6.96428571 C0,6.90511235 0.0479694911,6.85714286 0.107142857,6.85714286 Z M0.107142857,4.28571429 L0.75,4.28571429 C0.809173366,4.28571429 0.857142857,4.33368378 0.857142857,4.39285714 L0.857142857,5.89285714 C0.857142857,5.95203051 0.809173366,6 0.75,6 L0.107142857,6 C0.0479694911,6 0,5.95203051 0,5.89285714 L0,4.39285714 C0,4.33368378 0.0479694911,4.28571429 0.107142857,4.28571429 Z M2.67857143,17.1428571 L4.17857143,17.1428571 C4.23774479,17.1428571 4.28571429,17.1908266 4.28571429,17.25 L4.28571429,17.8928571 C4.28571429,17.9520305 4.23774479,18 4.17857143,18 L2.67857143,18 C2.61939806,18 2.57142857,17.9520305 2.57142857,17.8928571 L2.57142857,17.25 C2.57142857,17.1908266 2.61939806,17.1428571 2.67857143,17.1428571 Z M5.25,17.1428571 L6.75,17.1428571 C6.80917337,17.1428571 6.85714286,17.1908266 6.85714286,17.25 L6.85714286,17.8928571 C6.85714286,17.9520305 6.80917337,18 6.75,18 L5.25,18 C5.19082663,18 5.14285714,17.9520305 5.14285714,17.8928571 L5.14285714,17.25 C5.14285714,17.1908266 5.19082663,17.1428571 5.25,17.1428571 Z M7.82142857,17.1428571 L9.32142857,17.1428571 C9.38060194,17.1428571 9.42857143,17.1908266 9.42857143,17.25 L9.42857143,17.8928571 C9.42857143,17.9520305 9.38060194,18 9.32142857,18 L7.82142857,18 C7.76225521,18 7.71428571,17.9520305 7.71428571,17.8928571 L7.71428571,17.25 C7.71428571,17.1908266 7.76225521,17.1428571 7.82142857,17.1428571 Z M10.3928571,17.1428571 L11.8928571,17.1428571 C11.9520305,17.1428571 12,17.1908266 12,17.25 L12,17.8928571 C12,17.9520305 11.9520305,18 11.8928571,18 L10.3928571,18 C10.3336838,18 10.2857143,17.9520305 10.2857143,17.8928571 L10.2857143,17.25 C10.2857143,17.1908266 10.3336838,17.1428571 10.3928571,17.1428571 Z M12.9642857,17.1428571 L14.4642857,17.1428571 C14.5234591,17.1428571 14.5714286,17.1908266 14.5714286,17.25 L14.5714286,17.8928571 C14.5714286,17.9520305 14.5234591,18 14.4642857,18 L12.9642857,18 C12.9051123,18 12.8571429,17.9520305 12.8571429,17.8928571 L12.8571429,17.25 C12.8571429,17.1908266 12.9051123,17.1428571 12.9642857,17.1428571 Z M13.3928571,0.428571429 L17.8928571,0.428571429 C17.9520305,0.428571429 18,0.47654092 18,0.535714286 L18,2.46428571 C18,2.52345908 17.9520305,2.57142857 17.8928571,2.57142857 L13.3928571,2.57142857 C13.3336838,2.57142857 13.2857143,2.52345908 13.2857143,2.46428571 L13.2857143,0.535714286 C13.2857143,0.47654092 13.3336838,0.428571429 13.3928571,0.428571429 Z" id="Shape" fill="currentColor" fill-rule="nonzero"></path>
    </g>
</svg>