<?xml version="1.0" encoding="UTF-8"?>
<svg width="1em" height="1em" viewBox="0 0 18 18" version="1.1" xmlns="http://www.w3.org/2000/svg" xmlns:xlink="http://www.w3.org/1999/xlink">
    <!-- Generator: Sketch 53.2 (72643) - https://sketchapp.com -->
    <title>tablet</title>
    <desc>Created with Sketch.</desc>
    <g id="tablet" stroke="none" stroke-width="1" fill="none" fill-rule="evenodd">
        <path d="M2,16.125109 C2,16.0560132 2.05640754,16 2.12103081,16 L15.8789692,16 C15.9458127,16 16,16.0576992 16,16.125109 L16,17.874891 C16,17.9439868 15.9435925,18 15.8789692,18 L2.12103081,18 C2.05418734,18 2,17.9423008 2,17.874891 L2,16.125109 Z M9,17.5 C9.27614237,17.5 9.5,17.2761424 9.5,17 C9.5,16.7238576 9.27614237,16.5 9,16.5 C8.72385763,16.5 8.5,16.7238576 8.5,17 C8.5,17.2761424 8.72385763,17.5 9,17.5 Z M2,0 L16,0 L16,15 L2,15 L2,0 Z M3,1.12890625 L3,3.87109375 C3,3.94792938 3.05489868,4 3.12261963,4 L4,4 L4,2.12510896 C4,2.0576992 4.05601319,2 4.12510896,2 L6,2 L6,1.12261963 C6,1.05376434 5.94228671,1 5.87109375,1 L3.12890625,1 C3.05207062,1 3,1.05771329 3,1.12890625 Z" id="Shape" fill="currentColor" fill-rule="nonzero"></path>
    </g>
</svg>