<?xml version="1.0" encoding="UTF-8"?>
<svg width="1em" height="1em" viewBox="0 0 18 18" version="1.1" xmlns="http://www.w3.org/2000/svg" xmlns:xlink="http://www.w3.org/1999/xlink">
    <!-- Generator: Sketch 53.2 (72643) - https://sketchapp.com -->
    <title>tag</title>
    <desc>Created with Sketch.</desc>
    <g id="tag" stroke="none" stroke-width="1" fill="none" fill-rule="evenodd">
        <path d="M0.0863036575,7.93715128 L0.00164263997,8.02181229 L0,0.00164263997 L8.02345493,0 L7.93879392,0.0846610175 C7.98555091,0.0379040286 8.05976348,0.0363085491 8.11014122,0.0866862875 L17.964034,9.94057908 C18.0119095,9.9884546 18.0149556,10.06303 17.9660593,10.1119264 L10.113569,17.9644166 C10.066812,18.0111736 9.99259946,18.0127691 9.94222172,17.9623914 L0.0883289274,8.10849858 C0.0404534129,8.06062307 0.0374073079,7.98604763 0.0863036575,7.93715128 L0.0863036575,7.93715128 Z M3.67830661,3.67666397 C4.04750032,3.30747025 4.04750032,2.70888897 3.67830661,2.33969525 C3.30911289,1.97050154 2.71053161,1.97050154 2.34133789,2.33969525 C1.97214418,2.70888897 1.97214418,3.30747025 2.34133789,3.67666397 C2.71053161,4.04585768 3.30911289,4.04585768 3.67830661,3.67666397 Z" id="Shape" fill="currentColor" fill-rule="nonzero"></path>
    </g>
</svg>