<?xml version="1.0" encoding="UTF-8"?>
<svg width="1em" height="1em" viewBox="0 0 18 18" version="1.1" xmlns="http://www.w3.org/2000/svg" xmlns:xlink="http://www.w3.org/1999/xlink">
    <!-- Generator: Sketch 53.2 (72643) - https://sketchapp.com -->
    <title>telephone</title>
    <desc>Created with Sketch.</desc>
    <g id="telephone" stroke="none" stroke-width="1" fill="none" fill-rule="evenodd">
        <path d="M9,4.11111111 C5.98702361,4.07793576 4.30700934,5.05464815 3.85714286,8.11111111 L0,8.11111111 C0,2.23630858 4.54945055,1 9,1 C13.4501987,1 18,2.23630858 18,8.11111111 L14.1428571,8.11111111 C13.7042383,5.00543134 12.0382277,4.14468141 9,4.11111111 Z M1.92857143,9.66594709 C0.863501364,9.66594709 0,9.74189335 0,8.33333333 L3.85714286,8.33333333 C3.85714286,8.50206124 3.84365634,8.64796786 3.82032832,8.77666497 C3.64682615,9.7235615 2.86643087,9.66594709 1.92857143,9.66594709 Z M14.1428571,8.33333333 L18,8.33333333 C18,9.74216777 17.1365688,9.66593983 16.0714286,9.66593983 C15.1412448,9.66593983 14.3656079,9.72320953 14.1834892,8.80136496 C14.1570058,8.6670774 14.1428571,8.51264672 14.1428571,8.33333333 Z M12.767809,6.59485959 L12.767809,7.62514799 C13.6672469,8.58297413 16.6084484,12.658517 16.7142857,13.1377979 L16.7142857,16.4482568 C16.7142857,16.7524512 16.4728331,17 16.1761298,17 L1.82530529,17 C1.52860199,17 1.28714937,16.7524512 1.28714937,16.4482568 L1.28571429,13.1543502 C1.39262793,12.6607239 4.33454695,8.58334195 5.23362611,7.62551582 L5.23362611,6.59485959 C5.23362611,6.34878214 5.51023825,6.33333333 5.8514291,6.33333333 L6.40967618,6.33333333 C6.75086703,6.33333333 7.02747917,6.34878214 7.02747917,6.59485959 L7.02747917,7.43681966 L10.9739559,7.43681966 L10.9739559,6.59485959 C10.9739559,6.34878214 11.2505681,6.33333333 11.5917589,6.33333333 L12.1496472,6.33333333 C12.4911968,6.33333333 12.767809,6.34878214 12.767809,6.59485959 Z M6.8330255,13.5975838 C7.12183584,13.5975838 7.35611305,13.3577595 7.35611305,13.0612895 C7.35611305,12.7648195 7.12183584,12.5249951 6.8330255,12.5249951 C6.54421516,12.5249951 6.30993795,12.7648195 6.30993795,13.0612895 C6.30993795,13.3577595 6.54421516,13.5975838 6.8330255,13.5975838 Z M6.8330255,11.7584399 C7.12183584,11.7584399 7.35611305,11.5186156 7.35611305,11.2221456 C7.35611305,10.9256756 7.12183584,10.6858512 6.8330255,10.6858512 C6.54421516,10.6858512 6.30993795,10.9256756 6.30993795,11.2221456 C6.30993795,11.5186156 6.54421516,11.7584399 6.8330255,11.7584399 Z M6.8330255,9.9196639 C7.12183584,9.9196639 7.35611305,9.67983953 7.35611305,9.38336954 C7.35611305,9.08726738 7.12183584,8.84707519 6.8330255,8.84707519 C6.54421516,8.84707519 6.30993795,9.08726738 6.30993795,9.38336954 C6.30993795,9.67983953 6.54421516,9.9196639 6.8330255,9.9196639 Z M8.98564918,13.5975838 C9.27481829,13.5975838 9.50873673,13.3577595 9.50873673,13.0612895 C9.50873673,12.7648195 9.27481829,12.5249951 8.98564918,12.5249951 C8.69683883,12.5249951 8.46256162,12.7648195 8.46256162,13.0612895 C8.46256162,13.3577595 8.69683883,13.5975838 8.98564918,13.5975838 Z M8.98564918,11.7584399 C9.27481829,11.7584399 9.50873673,11.5186156 9.50873673,11.2221456 C9.50873673,10.9256756 9.27481829,10.6858512 8.98564918,10.6858512 C8.69683883,10.6858512 8.46256162,10.9256756 8.46256162,11.2221456 C8.46256162,11.5186156 8.69683883,11.7584399 8.98564918,11.7584399 Z M8.98564918,9.9196639 C9.27481829,9.9196639 9.50873673,9.67983953 9.50873673,9.38336954 C9.50873673,9.08726738 9.27481829,8.84707519 8.98564918,8.84707519 C8.69683883,8.84707519 8.46256162,9.08726738 8.46256162,9.38336954 C8.46256162,9.67983953 8.69683883,9.9196639 8.98564918,9.9196639 Z M11.1382729,13.5975838 C11.427442,13.5975838 11.6613604,13.3577595 11.6613604,13.0612895 C11.6613604,12.7648195 11.427442,12.5249951 11.1382729,12.5249951 C10.8491037,12.5249951 10.6151853,12.7648195 10.6151853,13.0612895 C10.6151853,13.3577595 10.8491037,13.5975838 11.1382729,13.5975838 Z M11.1382729,11.7584399 C11.427442,11.7584399 11.6613604,11.5186156 11.6613604,11.2221456 C11.6613604,10.9256756 11.427442,10.6858512 11.1382729,10.6858512 C10.8491037,10.6858512 10.6151853,10.9256756 10.6151853,11.2221456 C10.6151853,11.5186156 10.8491037,11.7584399 11.1382729,11.7584399 Z M11.1382729,9.9196639 C11.427442,9.9196639 11.6613604,9.67983953 11.6613604,9.38336954 C11.6613604,9.08726738 11.427442,8.84707519 11.1382729,8.84707519 C10.8491037,8.84707519 10.6151853,9.08726738 10.6151853,9.38336954 C10.6151853,9.67983953 10.8491037,9.9196639 11.1382729,9.9196639 Z" id="Shape" fill="currentColor" fill-rule="nonzero"></path>
    </g>
</svg>