<?xml version="1.0" encoding="UTF-8"?>
<svg width="1em" height="1em" viewBox="0 0 18 18" version="1.1" xmlns="http://www.w3.org/2000/svg" xmlns:xlink="http://www.w3.org/1999/xlink">
    <!-- Generator: Sketch 53.2 (72643) - https://sketchapp.com -->
    <title>text</title>
    <desc>Created with Sketch.</desc>
    <g id="text" stroke="none" stroke-width="1" fill="none" fill-rule="evenodd">
        <path d="M0.107142857,0 L17.8928571,0 C17.9520305,0 18,0.0479694911 18,0.107142857 L18,17.8928571 C18,17.9520305 17.9520305,18 17.8928571,18 L0.107142857,18 C0.0479694911,18 0,17.9520305 0,17.8928571 L0,0.107142857 C0,0.0479694911 0.0479694911,0 0.107142857,0 Z M8.67857143,2.14285714 C8.61939806,2.14285714 8.57142857,2.19082663 8.57142857,2.25 L8.57142857,2.89285714 C8.57142857,2.95203051 8.61939806,3 8.67857143,3 L15.75,3 C15.8091734,3 15.8571429,2.95203051 15.8571429,2.89285714 L15.8571429,2.25 C15.8571429,2.19082663 15.8091734,2.14285714 15.75,2.14285714 L8.67857143,2.14285714 Z M2.25,2.14285714 C2.19082663,2.14285714 2.14285714,2.19082663 2.14285714,2.25 L2.14285714,2.89285714 C2.14285714,2.95203051 2.19082663,3 2.25,3 L7.60714286,3 C7.66631622,3 7.71428571,2.95203051 7.71428571,2.89285714 L7.71428571,2.25 C7.71428571,2.19082663 7.66631622,2.14285714 7.60714286,2.14285714 L2.25,2.14285714 Z M2.25,4.28571429 C2.19082663,4.28571429 2.14285714,4.33368378 2.14285714,4.39285714 L2.14285714,5.03571429 C2.14285714,5.09488765 2.19082663,5.14285714 2.25,5.14285714 L8.89285714,5.14285714 C8.95203051,5.14285714 9,5.09488765 9,5.03571429 L9,4.39285714 C9,4.33368378 8.95203051,4.28571429 8.89285714,4.28571429 L2.25,4.28571429 Z M9.96428571,4.28571429 C9.90511235,4.28571429 9.85714286,4.33368378 9.85714286,4.39285714 L9.85714286,5.03571429 C9.85714286,5.09488765 9.90511235,5.14285714 9.96428571,5.14285714 L12.75,5.14285714 C12.8091734,5.14285714 12.8571429,5.09488765 12.8571429,5.03571429 L12.8571429,4.39285714 C12.8571429,4.33368378 12.8091734,4.28571429 12.75,4.28571429 L9.96428571,4.28571429 Z M13.8214286,4.28571429 C13.7622552,4.28571429 13.7142857,4.33368378 13.7142857,4.39285714 L13.7142857,5.03571429 C13.7142857,5.09488765 13.7622552,5.14285714 13.8214286,5.14285714 L15.75,5.14285714 C15.8091734,5.14285714 15.8571429,5.09488765 15.8571429,5.03571429 L15.8571429,4.39285714 C15.8571429,4.33368378 15.8091734,4.28571429 15.75,4.28571429 L13.8214286,4.28571429 Z M6.53571429,6.42857143 C6.47654092,6.42857143 6.42857143,6.47654092 6.42857143,6.53571429 L6.42857143,7.17857143 C6.42857143,7.23774479 6.47654092,7.28571429 6.53571429,7.28571429 L15.75,7.28571429 C15.8091734,7.28571429 15.8571429,7.23774479 15.8571429,7.17857143 L15.8571429,6.53571429 C15.8571429,6.47654092 15.8091734,6.42857143 15.75,6.42857143 L6.53571429,6.42857143 Z M2.25,6.42857143 C2.19082663,6.42857143 2.14285714,6.47654092 2.14285714,6.53571429 L2.14285714,7.17857143 C2.14285714,7.23774479 2.19082663,7.28571429 2.25,7.28571429 L5.46428571,7.28571429 C5.52345908,7.28571429 5.57142857,7.23774479 5.57142857,7.17857143 L5.57142857,6.53571429 C5.57142857,6.47654092 5.52345908,6.42857143 5.46428571,6.42857143 L2.25,6.42857143 Z M9.53571429,8.57142857 C9.47654092,8.57142857 9.42857143,8.61939806 9.42857143,8.67857143 L9.42857143,9.32142857 C9.42857143,9.38060194 9.47654092,9.42857143 9.53571429,9.42857143 L15.75,9.42857143 C15.8091734,9.42857143 15.8571429,9.38060194 15.8571429,9.32142857 L15.8571429,8.67857143 C15.8571429,8.61939806 15.8091734,8.57142857 15.75,8.57142857 L9.53571429,8.57142857 Z M2.25,8.57142857 C2.19082663,8.57142857 2.14285714,8.61939806 2.14285714,8.67857143 L2.14285714,9.32142857 C2.14285714,9.38060194 2.19082663,9.42857143 2.25,9.42857143 L8.46428571,9.42857143 C8.52345908,9.42857143 8.57142857,9.38060194 8.57142857,9.32142857 L8.57142857,8.67857143 C8.57142857,8.61939806 8.52345908,8.57142857 8.46428571,8.57142857 L2.25,8.57142857 Z M2.25,10.7142857 C2.19082663,10.7142857 2.14285714,10.7622552 2.14285714,10.8214286 L2.14285714,11.4642857 C2.14285714,11.5234591 2.19082663,11.5714286 2.25,11.5714286 L15.75,11.5714286 C15.8091734,11.5714286 15.8571429,11.5234591 15.8571429,11.4642857 L15.8571429,10.8214286 C15.8571429,10.7622552 15.8091734,10.7142857 15.75,10.7142857 L2.25,10.7142857 Z M6.96428571,12.8571429 C6.90511235,12.8571429 6.85714286,12.9051123 6.85714286,12.9642857 L6.85714286,13.6071429 C6.85714286,13.6663162 6.90511235,13.7142857 6.96428571,13.7142857 L15.75,13.7142857 C15.8091734,13.7142857 15.8571429,13.6663162 15.8571429,13.6071429 L15.8571429,12.9642857 C15.8571429,12.9051123 15.8091734,12.8571429 15.75,12.8571429 L6.96428571,12.8571429 Z M2.25,12.8571429 C2.19082663,12.8571429 2.14285714,12.9051123 2.14285714,12.9642857 L2.14285714,13.6071429 C2.14285714,13.6663162 2.19082663,13.7142857 2.25,13.7142857 L5.89285714,13.7142857 C5.95203051,13.7142857 6,13.6663162 6,13.6071429 L6,12.9642857 C6,12.9051123 5.95203051,12.8571429 5.89285714,12.8571429 L2.25,12.8571429 Z M2.25,15 C2.19082663,15 2.14285714,15.0479695 2.14285714,15.1071429 L2.14285714,15.75 C2.14285714,15.8091734 2.19082663,15.8571429 2.25,15.8571429 L15.75,15.8571429 C15.8091734,15.8571429 15.8571429,15.8091734 15.8571429,15.75 L15.8571429,15.1071429 C15.8571429,15.0479695 15.8091734,15 15.75,15 L2.25,15 Z" id="Shape" fill="currentColor" fill-rule="nonzero"></path>
    </g>
</svg>