<?xml version="1.0" encoding="UTF-8"?>
<svg width="1em" height="1em" viewBox="0 0 18 18" version="1.1" xmlns="http://www.w3.org/2000/svg" xmlns:xlink="http://www.w3.org/1999/xlink">
    <!-- Generator: Sketch 55 (78076) - https://sketchapp.com -->
    <title>themes</title>
    <desc>Created with Sketch.</desc>
    <g id="themes" stroke="none" stroke-width="1" fill="none" fill-rule="evenodd">
        <path d="M0.28125,-8.8817842e-15 L11.71875,-8.8817842e-15 C11.8740801,-8.91031787e-15 12,0.125919914 12,0.28125 L12,2 L-7.10542736e-15,2 L-7.10542736e-15,0.28125 C-7.12444981e-15,0.125919914 0.125919914,-8.85325052e-15 0.28125,-8.8817842e-15 Z M-7.10542736e-15,9 L6,9 L6,9.71875 C6,9.87408009 5.87408009,10 5.71875,10 L0.28125,10 C0.125919914,10 -7.08640491e-15,9.87408009 -7.10542736e-15,9.71875 L-7.10542736e-15,9 Z M-7.10542736e-15,2 L1,2 L1,9 L-7.10542736e-15,9 L-7.10542736e-15,2 Z M11,2 L12,2 L12,5 L11,5 L11,2 Z M12,6 C15.3333333,6 18,8.4 18,11.3333333 C18,13.2 16.5333333,14.6666667 14.6666667,14.6666667 L13.4666667,14.6666667 C12.9333595,14.6666667 12.4666667,15.1333333 12.4666667,15.6666667 C12.4666667,15.9333333 12.6,16.1333333 12.7333333,16.3333333 C12.9333333,16.5333333 13,16.7333333 13,17 C13,17.5333333 12.5333333,18 12,18 C8.66666667,18 6,15.3333333 6,12 C6,8.66666667 8.66666667,6 12,6 Z M8.33333333,12 C8.86666667,12 9.33333333,11.5333333 9.33333333,11 C9.33333333,10.4666667 8.86666667,10 8.33333333,10 C7.8,10 7.33333333,10.4666667 7.33333333,11 C7.33333333,11.5333333 7.8,12 8.33333333,12 Z M10.3333333,9.33333333 C10.8666667,9.33333333 11.3333333,8.86666667 11.3333333,8.33333333 C11.3333333,7.8 10.8666667,7.33333333 10.3333333,7.33333333 C9.8,7.33333333 9.33333333,7.8 9.33333333,8.33333333 C9.33333333,8.86666667 9.8,9.33333333 10.3333333,9.33333333 Z M13.6666667,9.33333333 C14.2,9.33333333 14.6666667,8.86666667 14.6666667,8.33333333 C14.6666667,7.8 14.2,7.33333333 13.6666667,7.33333333 C13.1333333,7.33333333 12.6666667,7.8 12.6666667,8.33333333 C12.6666667,8.86666667 13.1333333,9.33333333 13.6666667,9.33333333 Z M15.6666667,12 C16.2,12 16.6666667,11.5333333 16.6666667,11 C16.6666667,10.4666667 16.2,10 15.6666667,10 C15.1333333,10 14.6666667,10.4666667 14.6666667,11 C14.6666667,11.5333333 15.1333333,12 15.6666667,12 Z" id="Fill" fill="currentColor" fill-rule="nonzero"></path>
    </g>
</svg>