<?xml version="1.0" encoding="UTF-8"?>
<svg width="1em" height="1em" viewBox="0 0 18 18" version="1.1" xmlns="http://www.w3.org/2000/svg" xmlns:xlink="http://www.w3.org/1999/xlink">
    <!-- Generator: Sketch 53.2 (72643) - https://sketchapp.com -->
    <title>thumbnail-view</title>
    <desc>Created with Sketch.</desc>
    <g id="thumbnail-view" stroke="none" stroke-width="1" fill="none" fill-rule="evenodd">
        <path d="M0,14.6810478 C0,14.6205068 0.0487685374,14.5714286 0.111277035,14.5714286 L3.74586582,14.5714286 C3.80732243,14.5714286 3.85714286,14.6202601 3.85714286,14.6810478 L3.85714286,15.7475236 C3.85714286,15.8080646 3.80837432,15.8571429 3.74586582,15.8571429 L0.111277035,15.8571429 C0.0498204257,15.8571429 0,15.8083113 0,15.7475236 L0,14.6810478 Z M0,16.823905 C0,16.7633639 0.0518703461,16.7142857 0.104141235,16.7142857 L5.89585876,16.7142857 C5.95337438,16.7142857 6,16.7631172 6,16.823905 L6,17.8903807 C6,17.9509218 5.94812965,18 5.89585876,18 L0.104141235,18 C0.0466256192,18 0,17.9511685 0,17.8903807 L0,16.823905 Z M5.14285714,14.6810478 C5.14285714,14.6205068 5.18941263,14.5714286 5.25400788,14.5714286 L17.8888493,14.5714286 C17.9502361,14.5714286 18,14.6202601 18,14.6810478 L18,15.7475236 C18,15.8080646 17.9534445,15.8571429 17.8888493,15.8571429 L5.25400788,15.8571429 C5.19262102,15.8571429 5.14285714,15.8083113 5.14285714,15.7475236 L5.14285714,14.6810478 Z M7.28571429,16.823905 C7.28571429,16.7633639 7.3377849,16.7142857 7.39248587,16.7142857 L10.1789427,16.7142857 C10.237911,16.7142857 10.2857143,16.7631172 10.2857143,16.823905 L10.2857143,17.8903807 C10.2857143,17.9509218 10.2336437,18 10.1789427,18 L7.39248587,18 C7.33351755,18 7.28571429,17.9511685 7.28571429,17.8903807 L7.28571429,16.823905 Z M11.5714286,16.823905 C11.5714286,16.7633639 11.6194777,16.7142857 11.6776449,16.7142857 L17.8937837,16.7142857 C17.9524453,16.7142857 18,16.7631172 18,16.823905 L18,17.8903807 C18,17.9509218 17.9519509,18 17.8937837,18 L11.6776449,18 C11.6189832,18 11.5714286,17.9511685 11.5714286,17.8903807 L11.5714286,16.823905 Z M2.67857143,0 L15.3214286,0 C15.3806019,0 15.4285714,0.0479694911 15.4285714,0.107142857 L15.4285714,12.75 C15.4285714,12.8091734 15.3806019,12.8571429 15.3214286,12.8571429 L2.67857143,12.8571429 C2.61939806,12.8571429 2.57142857,12.8091734 2.57142857,12.75 L2.57142857,0.107142857 C2.57142857,0.0479694911 2.61939806,0 2.67857143,0 Z" id="Shape" fill="currentColor" fill-rule="nonzero"></path>
    </g>
</svg>