<?xml version="1.0" encoding="UTF-8"?>
<svg width="1em" height="1em" viewBox="0 0 18 18" version="1.1" xmlns="http://www.w3.org/2000/svg" xmlns:xlink="http://www.w3.org/1999/xlink">
    <!-- Generator: Sketch 53.2 (72643) - https://sketchapp.com -->
    <title>tile-view</title>
    <desc>Created with Sketch.</desc>
    <g id="tile-view" stroke="none" stroke-width="1" fill="none" fill-rule="evenodd">
        <path d="M0,0.124098301 C0,0.0555607019 0.0565452576,0 0.124098301,0 L3.8759017,0 C3.9444393,0 4,0.0565452576 4,0.124098301 L4,3.8759017 C4,3.9444393 3.94345474,4 3.8759017,4 L0.124098301,4 C0.0555607019,4 0,3.94345474 0,3.8759017 L0,0.124098301 Z M0,7.1240983 C0,7.0555607 0.0565452576,7 0.124098301,7 L3.8759017,7 C3.9444393,7 4,7.05654526 4,7.1240983 L4,10.8759017 C4,10.9444393 3.94345474,11 3.8759017,11 L0.124098301,11 C0.0555607019,11 0,10.9434547 0,10.8759017 L0,7.1240983 Z M7,0.124098301 C7,0.0555607019 7.05654526,0 7.1240983,0 L10.8759017,0 C10.9444393,0 11,0.0565452576 11,0.124098301 L11,3.8759017 C11,3.9444393 10.9434547,4 10.8759017,4 L7.1240983,4 C7.0555607,4 7,3.94345474 7,3.8759017 L7,0.124098301 Z M7,7.1240983 C7,7.0555607 7.05654526,7 7.1240983,7 L10.8759017,7 C10.9444393,7 11,7.05654526 11,7.1240983 L11,10.8759017 C11,10.9444393 10.9434547,11 10.8759017,11 L7.1240983,11 C7.0555607,11 7,10.9434547 7,10.8759017 L7,7.1240983 Z M14,0.124098301 C14,0.0555607019 14.0565453,0 14.1240983,0 L17.8759017,0 C17.9444393,0 18,0.0565452576 18,0.124098301 L18,3.8759017 C18,3.9444393 17.9434547,4 17.8759017,4 L14.1240983,4 C14.0555607,4 14,3.94345474 14,3.8759017 L14,0.124098301 Z M14,7.1240983 C14,7.0555607 14.0565453,7 14.1240983,7 L17.8759017,7 C17.9444393,7 18,7.05654526 18,7.1240983 L18,10.8759017 C18,10.9444393 17.9434547,11 17.8759017,11 L14.1240983,11 C14.0555607,11 14,10.9434547 14,10.8759017 L14,7.1240983 Z M0,14.1240983 C0,14.0555607 0.0565452576,14 0.124098301,14 L3.8759017,14 C3.9444393,14 4,14.0565453 4,14.1240983 L4,17.8759017 C4,17.9444393 3.94345474,18 3.8759017,18 L0.124098301,18 C0.0555607019,18 0,17.9434547 0,17.8759017 L0,14.1240983 Z M7,14.1240983 C7,14.0555607 7.05654526,14 7.1240983,14 L10.8759017,14 C10.9444393,14 11,14.0565453 11,14.1240983 L11,17.8759017 C11,17.9444393 10.9434547,18 10.8759017,18 L7.1240983,18 C7.0555607,18 7,17.9434547 7,17.8759017 L7,14.1240983 Z M14,14.1240983 C14,14.0555607 14.0565453,14 14.1240983,14 L17.8759017,14 C17.9444393,14 18,14.0565453 18,14.1240983 L18,17.8759017 C18,17.9444393 17.9434547,18 17.8759017,18 L14.1240983,18 C14.0555607,18 14,17.9434547 14,17.8759017 L14,14.1240983 Z" id="Shape" fill="currentColor" fill-rule="nonzero"></path>
    </g>
</svg>