<?xml version="1.0" encoding="UTF-8"?>
<svg width="1em" height="1em" viewBox="0 0 18 18" version="1.1" xmlns="http://www.w3.org/2000/svg" xmlns:xlink="http://www.w3.org/1999/xlink">
    <!-- Generator: Sketch 53.2 (72643) - https://sketchapp.com -->
    <title>time-machine</title>
    <desc>Created with Sketch.</desc>
    <g id="time-machine" stroke="none" stroke-width="1" fill="none" fill-rule="evenodd">
        <path d="M7,7 L7,1 L6,1 L6,7 L7,7 Z M7.85058775,10.1001465 C6.27872769,10.7390496 5.41381112,11.478837 4.52544074,12.694661 C1.90101246,11.8588437 0,9.40142446 0,6.5 C0,2.91014913 2.91014913,0 6.5,0 C10.0898509,0 13,2.91014913 13,6.5 C13,7.60508252 12.7242269,8.64575479 12.2377457,9.55695189 C10.5953835,9.3594007 9.42244781,9.46124336 7.85058775,10.1001465 Z M7,6 L7,7 L11,7 L11,6 L7,6 Z M11.25,10.125 C8.67068119,10.125 6.33162013,11.4402025 4.60563056,13.5764413 C4.46478981,13.7514585 4.46478981,13.9959677 4.60563056,14.1709849 C6.33162013,16.3097975 8.67068119,17.625 11.25,17.625 C13.8293188,17.625 16.1683799,16.3097975 17.8943694,14.1735587 C18.0352102,13.9985415 18.0352102,13.7540323 17.8943694,13.5790151 C16.1683799,11.4402025 13.8293188,10.125 11.25,10.125 Z M11.4455081,16.8688893 C9.63632866,16.9826921 8.14229661,15.4915835 8.25609984,13.6794926 C8.34947684,12.185466 9.56045985,10.9744874 11.0544919,10.8811107 C12.8636713,10.7673079 14.3577034,12.2584165 14.2439002,14.0705074 C14.1476051,15.561616 12.9366221,16.7725946 11.4455081,16.8688893 Z M11.3942489,16.1204148 C10.0370904,16.2057609 8.91560615,15.0881336 9.00499983,13.7307245 C9.07407675,12.6090331 9.98426687,11.7027389 11.1057511,11.6295852 C12.4629096,11.5442391 13.5843938,12.6618664 13.4950002,14.0192755 C13.4218599,15.145031 12.5116698,16.0513252 11.3942489,16.1204148 Z" id="Shape" fill="currentColor" fill-rule="nonzero"></path>
    </g>
</svg>