<?xml version="1.0" encoding="UTF-8"?>
<svg width="1em" height="1em" viewBox="0 0 18 18" version="1.1" xmlns="http://www.w3.org/2000/svg" xmlns:xlink="http://www.w3.org/1999/xlink">
    <!-- Generator: Sketch 53.2 (72643) - https://sketchapp.com -->
    <title>trashbin</title>
    <desc>Created with Sketch.</desc>
    <g id="trashbin" stroke="none" stroke-width="1" fill="none" fill-rule="evenodd">
        <path d="M2.98002462,17.7203447 L2.01997538,4.27965531 C2.00864506,4.12103081 2.13091637,4 2.2924099,4 L15.7075901,4 C15.8789692,4 15.9910567,4.12520595 15.9800246,4.27965531 L15.0199754,17.7203447 C15.0086451,17.8789692 14.8776916,18 14.7268167,18 L3.27318335,18 C3.13476562,18 2.99105672,17.8747941 2.98002462,17.7203447 Z M5,6.24719238 L5,15.7528076 C5,15.8876953 5.11297746,16 5.25234222,16 L5.74765778,16 C5.89298248,16 6,15.8893282 6,15.7528076 L6,6.24719238 C6,6.11230469 5.88702254,6 5.74765778,6 L5.25234222,6 C5.10701752,6 5,6.1106718 5,6.24719238 Z M12,6.24719238 L12,15.7528076 C12,15.8876953 12.1129775,16 12.2523422,16 L12.7476578,16 C12.8929825,16 13,15.8893282 13,15.7528076 L13,6.24719238 C13,6.11230469 12.8870225,6 12.7476578,6 L12.2523422,6 C12.1070175,6 12,6.1106718 12,6.24719238 Z M8.5,6.24719238 L8.5,15.7528076 C8.5,15.8876953 8.61297746,16 8.75234222,16 L9.24765778,16 C9.39298248,16 9.5,15.8893282 9.5,15.7528076 L9.5,6.24719238 C9.5,6.11230469 9.38702254,6 9.24765778,6 L8.75234222,6 C8.60701752,6 8.5,6.1106718 8.5,6.24719238 Z M17,1.27404246 L17,2.72125465 C17,2.86846584 16.875665,3 16.72229,3 L1.27770996,3 C1.11958885,3 1,2.87519851 1,2.72124808 L1,1.27400173 C1,1.12678707 1.12676954,0.99524981 1.28314769,0.99524981 L5.71685231,0.99524981 C5.87640381,0.99524981 6,0.87349079 6,0.723293426 L6,0.271956384 C6,0.122037162 6.12956542,0 6.28939247,0 L11.7106075,0 C11.8746815,0 12,0.121764807 12,0.271969309 L12,0.7233278 C12,0.873254146 12.1267695,0.995297109 12.2831477,0.995297109 L16.7168523,0.995297109 C16.8764038,0.995297109 17,1.12009565 17,1.27404246 Z" id="Shape" fill="currentColor" fill-rule="nonzero"></path>
    </g>
</svg>