<?xml version="1.0" encoding="UTF-8"?>
<svg width="1em" height="1em" viewBox="0 0 18 18" version="1.1" xmlns="http://www.w3.org/2000/svg" xmlns:xlink="http://www.w3.org/1999/xlink">
    <!-- Generator: Sketch 53.2 (72643) - https://sketchapp.com -->
    <title>typography</title>
    <desc>Created with Sketch.</desc>
    <g id="typography" stroke="none" stroke-width="1" fill="none" fill-rule="evenodd">
        <path d="M7.84254808,5.05078125 L6.00360577,10.3242188 C6.24158654,10.3242188 6.73377404,10.3320313 7.48016827,10.3476563 C8.2265625,10.3632813 8.80528846,10.3710938 9.21634615,10.3710938 C9.35336538,10.3710938 9.55889423,10.3632813 9.83293269,10.3476563 C9.20552885,8.37109375 8.54206731,6.60546875 7.84254808,5.05078125 Z M0,18 L0.0216346154,17.0742188 C0.1875,17.0195312 0.389423077,16.9707031 0.627403846,16.9277344 C0.865384615,16.8847656 1.07091346,16.84375 1.24399038,16.8046875 C1.41706731,16.765625 1.59555288,16.7089844 1.77944712,16.6347656 C1.96334135,16.5605469 2.12379808,16.4472656 2.26081731,16.2949219 C2.39783654,16.1425781 2.50961538,15.9453125 2.59615385,15.703125 L5.15985577,8.484375 L8.18870192,0 L9.57331731,0 C9.63100962,0.109375 9.67067308,0.19140625 9.69230769,0.24609375 L11.9098558,5.87109375 C12.1478365,6.48046875 12.5300481,7.48632812 13.0564904,8.88867188 C13.5829327,10.2910156 13.9939904,11.3632812 14.2896635,12.1054688 C14.3978365,12.3710938 14.6069712,12.9355469 14.9170673,13.7988281 C15.2271635,14.6621094 15.4867788,15.3203125 15.6959135,15.7734375 C15.8401442,16.125 15.9663462,16.3476562 16.0745192,16.4414062 C16.2115385,16.5585938 16.5288462,16.6738281 17.0264423,16.7871094 C17.5240385,16.9003906 17.8269231,16.9804688 17.9350962,17.0273438 C17.9783654,17.3242188 18,17.546875 18,17.6953125 C18,17.7265625 17.9981971,17.7773438 17.9945913,17.8476562 C17.9909856,17.9179688 17.9891827,17.96875 17.9891827,18 C17.5348558,18 16.8497596,17.96875 15.9338942,17.90625 C15.0180288,17.84375 14.3293269,17.8125 13.8677885,17.8125 C13.3197115,17.8125 12.5444712,17.8398438 11.5420673,17.8945312 C10.5396635,17.9492188 9.89783654,17.9804688 9.61658654,17.9882812 C9.61658654,17.6523438 9.63100962,17.3476562 9.65985577,17.0742188 L11.0769231,16.7460938 C11.0841346,16.7460938 11.1292067,16.7363281 11.2121394,16.7167969 C11.2950721,16.6972656 11.3509615,16.6835938 11.3798077,16.6757812 C11.4086538,16.6679688 11.4609375,16.6503906 11.5366587,16.6230469 C11.6123798,16.5957031 11.6664663,16.5703125 11.6989183,16.546875 C11.7313702,16.5234375 11.7710337,16.4921875 11.8179087,16.453125 C11.8647837,16.4140625 11.8972356,16.3710938 11.9152644,16.3242188 C11.9332933,16.2773438 11.9423077,16.2226562 11.9423077,16.1601562 C11.9423077,16.0351562 11.8305288,15.6582031 11.6069712,15.0292969 C11.3834135,14.4003906 11.1237981,13.7070312 10.828125,12.9492188 C10.5324519,12.1914062 10.3810096,11.8007812 10.3737981,11.7773438 L5.50600962,11.7539062 C5.31850962,12.2070312 5.04266827,12.9707031 4.67848558,14.0449219 C4.31430288,15.1191406 4.13221154,15.7539062 4.13221154,15.9492188 C4.13221154,16.1210938 4.18269231,16.2675781 4.28365385,16.3886719 C4.38461538,16.5097656 4.54146635,16.6054688 4.75420673,16.6757812 C4.96694712,16.7460938 5.14182692,16.7988281 5.27884615,16.8339844 C5.41586538,16.8691406 5.62139423,16.9023438 5.89543269,16.9335938 C6.16947115,16.9648438 6.31730769,16.9804688 6.33894231,16.9804688 C6.34615385,17.1289062 6.34975962,17.3554688 6.34975962,17.6601562 C6.34975962,17.7304688 6.34254808,17.8359375 6.328125,17.9765625 C5.90985577,17.9765625 5.28064904,17.9375 4.44050481,17.859375 C3.60036058,17.78125 2.97115385,17.7421875 2.55288462,17.7421875 C2.49519231,17.7421875 2.39963942,17.7578125 2.26622596,17.7890625 C2.1328125,17.8203125 2.05528846,17.8359375 2.03365385,17.8359375 C1.45673077,17.9453125 0.778846154,18 0,18 Z" id="Shape" fill="currentColor" fill-rule="nonzero"></path>
    </g>
</svg>