<?xml version="1.0" encoding="UTF-8"?>
<svg width="1em" height="1em" viewBox="0 0 18 18" version="1.1" xmlns="http://www.w3.org/2000/svg" xmlns:xlink="http://www.w3.org/1999/xlink">
    <!-- Generator: Sketch 53.2 (72643) - https://sketchapp.com -->
    <title>unit</title>
    <desc>Created with Sketch.</desc>
    <g id="unit" stroke="none" stroke-width="1" fill="none" fill-rule="evenodd">
        <path d="M0.107142857,4 L17.8928571,4 C17.9520305,4 18,4.04663701 18,4.10416667 L18,13.8958333 C18,13.953363 17.9520305,14 17.8928571,14 L0.107142857,14 C0.0479694911,14 0,13.953363 0,13.8958333 L0,4.10416667 C0,4.04663701 0.0479694911,4 0.107142857,4 Z M2.125,7 C2.05596441,7 2,7.04796949 2,7.10714286 L2,12.8928571 C2,12.9520305 2.05596441,13 2.125,13 L3.875,13 C3.94403559,13 4,12.9520305 4,12.8928571 L4,7.10714286 C4,7.04796949 3.94403559,7 3.875,7 L2.125,7 Z M5.125,8 C5.05596441,8 5,8.04663701 5,8.10416667 L5,12.8958333 C5,12.953363 5.05596441,13 5.125,13 L6.875,13 C6.94403559,13 7,12.953363 7,12.8958333 L7,8.10416667 C7,8.04663701 6.94403559,8 6.875,8 L5.125,8 Z M8.125,7 C8.05596441,7 8,7.04796949 8,7.10714286 L8,12.8928571 C8,12.9520305 8.05596441,13 8.125,13 L9.875,13 C9.94403559,13 10,12.9520305 10,12.8928571 L10,7.10714286 C10,7.04796949 9.94403559,7 9.875,7 L8.125,7 Z M11.125,8 C11.0559644,8 11,8.04663701 11,8.10416667 L11,12.8958333 C11,12.953363 11.0559644,13 11.125,13 L12.875,13 C12.9440356,13 13,12.953363 13,12.8958333 L13,8.10416667 C13,8.04663701 12.9440356,8 12.875,8 L11.125,8 Z M14.125,7 C14.0559644,7 14,7.04796949 14,7.10714286 L14,12.8928571 C14,12.9520305 14.0559644,13 14.125,13 L15.875,13 C15.9440356,13 16,12.9520305 16,12.8928571 L16,7.10714286 C16,7.04796949 15.9440356,7 15.875,7 L14.125,7 Z" id="Shape" fill="currentColor" fill-rule="nonzero"></path>
    </g>
</svg>