<?xml version="1.0" encoding="UTF-8"?>
<svg width="1em" height="1em" viewBox="0 0 18 18" version="1.1" xmlns="http://www.w3.org/2000/svg" xmlns:xlink="http://www.w3.org/1999/xlink">
    <!-- Generator: Sketch 53.2 (72643) - https://sketchapp.com -->
    <title>upload</title>
    <desc>Created with Sketch.</desc>
    <g id="upload" stroke="none" stroke-width="1" fill="none" fill-rule="evenodd">
        <path d="M4.30524055,14.4614696 C4.18471798,14.4614696 4.0652798,14.4253748 3.96257226,14.3555089 C3.79712481,14.2424222 3.69813519,14.0548221 3.69813519,13.8543643 L3.69829011,10.435272 C3.69829011,9.49556776 4.39478046,8.71759299 5.29808011,8.58452244 C5.24633906,8.10831885 5.21876449,7.61352566 5.21876449,7.10386078 C5.21860957,3.28602165 8.62623819,0.253902955 8.77139199,0.126719108 L8.91577122,0 L9.06015044,0.126719108 C9.20514932,0.253748042 12.6127779,3.28586674 12.6127779,7.10386078 C12.6127779,7.61073722 12.5855132,8.10305179 12.5343918,8.57677677 C13.4623227,8.68738489 14.1848385,9.47806255 14.1848385,10.435427 L14.1848385,13.8543643 C14.1849934,14.054977 14.0860038,14.2422672 13.9204014,14.3555089 C13.8181586,14.4255297 13.6985655,14.4614696 13.5780429,14.4614696 C13.5036845,14.4614696 13.4287065,14.4475274 13.3572914,14.4197979 L10.6326757,13.3558531 C10.1220814,13.8543643 9.5394523,14.135532 8.91577122,14.135532 C8.29797684,14.135532 7.72076975,13.8594764 7.21389332,13.3702601 L4.52599205,14.4197979 C4.45457701,14.4475274 4.37959895,14.4614696 4.30524055,14.4614696 Z M7.07849907,5.66920839 C7.07849907,6.6823416 7.90263801,7.50648054 8.91577122,7.50617071 C9.92874951,7.50632563 10.7528885,6.68218669 10.7528885,5.66905348 C10.7528885,4.6562301 9.9285946,3.83193624 8.91577122,3.83193624 C7.90263801,3.83193624 7.07849907,4.65607518 7.07849907,5.66920839 Z M8.94148683,18 C8.8469897,18 8.76256193,17.9391191 8.73328331,17.8494242 C8.69455497,17.7316901 8.58627055,17.4406079 8.46125549,17.2207859 C8.32818494,17.2878634 8.19433982,17.3244229 8.15669588,17.3338727 C8.07645077,17.3543212 7.99140335,17.3275212 7.93718368,17.2649362 C7.89334321,17.2142796 6.86332445,16.0126168 6.86332445,14.8990998 C6.86332445,14.6583645 6.89198341,14.4184037 6.94883661,14.1861886 C6.96680655,14.1127597 7.02102622,14.0538926 7.09259618,14.030036 C7.16416614,14.0061793 7.24301703,14.0208961 7.30110953,14.0690741 C7.80907035,14.4884245 8.3521965,14.7009656 8.91546139,14.7009656 C9.49576674,14.7009656 10.0526802,14.4774257 10.5707104,14.0362325 C10.6280283,13.9872799 10.7067243,13.9711689 10.7786041,13.9940961 C10.8506388,14.0165585 10.9057879,14.0748059 10.9248423,14.1477701 C10.9877371,14.3903644 11.0194943,14.643028 11.0196492,14.89879 C11.0194943,16.0124619 9.98963045,17.2142796 9.94578998,17.2649362 C9.94238188,17.2686541 9.93866396,17.2726819 9.93510096,17.2762449 C9.88072638,17.3306195 9.80156566,17.3527721 9.72627778,17.3335628 C9.68847893,17.3239582 9.55478872,17.2872437 9.42156325,17.2203212 C9.29639328,17.4402981 9.18826377,17.7312254 9.14984526,17.8489595 C9.12025682,17.9389641 9.03660362,18 8.94148683,18 Z M1,9.12510896 C1,9.05601319 1.05376434,9 1.12261963,9 L1.87738037,9 C1.94510132,9 2,9.0576992 2,9.12510896 L2,10.874891 C2,10.9439868 1.94623566,11 1.87738037,11 L1.12261963,11 C1.05489868,11 1,10.9423008 1,10.874891 L1,9.12510896 Z M16,12.1226196 C16,12.0548987 16.0537643,12 16.1226196,12 L16.8773804,12 C16.9451013,12 17,12.0537643 17,12.1226196 L17,12.8773804 C17,12.9451013 16.9462357,13 16.8773804,13 L16.1226196,13 C16.0548987,13 16,12.9462357 16,12.8773804 L16,12.1226196 Z M3,16.1226196 C3,16.0548987 3.05376434,16 3.12261963,16 L3.87738037,16 C3.94510132,16 4,16.0537643 4,16.1226196 L4,16.8773804 C4,16.9451013 3.94623566,17 3.87738037,17 L3.12261963,17 C3.05489868,17 3,16.9462357 3,16.8773804 L3,16.1226196 Z M15,1.10677159 C15,1.04780327 15.0537643,1 15.1226196,1 L15.8773804,1 C15.9451013,1 16,1.05207062 16,1.10677159 L16,3.89322841 C16,3.95219673 15.9462357,4 15.8773804,4 L15.1226196,4 C15.0548987,4 15,3.94792938 15,3.89322841 L15,1.10677159 Z M3,3.09646416 C3,3.04318847 3.05376434,3 3.12261963,3 L3.87738037,3 C3.94510132,3 4,3.04177284 4,3.09646416 L4,4.90353584 C4,4.95681153 3.94623566,5 3.87738037,5 L3.12261963,5 C3.05489868,5 3,4.95822716 3,4.90353584 L3,3.09646416 Z" id="Shape" fill="currentColor" fill-rule="nonzero"></path>
    </g>
</svg>