<?xml version="1.0" encoding="UTF-8"?>
<svg width="1em" height="1em" viewBox="0 0 18 18" version="1.1" xmlns="http://www.w3.org/2000/svg" xmlns:xlink="http://www.w3.org/1999/xlink">
    <!-- Generator: Sketch 53.2 (72643) - https://sketchapp.com -->
    <title>url</title>
    <desc>Created with Sketch.</desc>
    <g id="url" stroke="none" stroke-width="1" fill="none" fill-rule="evenodd">
        <path d="M18,3.25 L18,17.75 C18,17.8880712 17.8880712,18 17.75,18 L0.25,18 C0.111928813,18 9.97963636e-16,17.8880712 0,17.75 L0,3.25 C-1.69088438e-17,3.11192881 0.111928813,3 0.25,3 L17.75,3 C17.8880712,3 18,3.11192881 18,3.25 Z M4.71428571,7.28571429 L4.71428571,8.14285714 L7.71428571,8.14285714 L7.71428571,7.28571429 L4.71428571,7.28571429 Z M10.2857143,7.28571429 L10.2857143,8.14285714 L13.2857143,8.14285714 L13.2857143,7.28571429 L10.2857143,7.28571429 Z M6.42857143,9.42857143 L6.42857143,10.2857143 L11.5714286,10.2857143 L11.5714286,9.42857143 L6.42857143,9.42857143 Z M3.85714286,7.28571429 L3.85714286,12.4285714 L4.71428571,12.4285714 L4.71428571,7.28571429 L3.85714286,7.28571429 Z M13.2857143,7.28571429 L13.2857143,12.4285714 L14.1428571,12.4285714 L14.1428571,7.28571429 L13.2857143,7.28571429 Z M4.71428571,11.5714286 L4.71428571,12.4285714 L7.71428571,12.4285714 L7.71428571,11.5714286 L4.71428571,11.5714286 Z M10.2857143,11.5714286 L10.2857143,12.4285714 L13.2857143,12.4285714 L13.2857143,11.5714286 L10.2857143,11.5714286 Z M18,0.25 L18,1.75 C18,1.88807119 17.8880712,2 17.75,2 L0.25,2 C0.111928813,2 1.69088438e-17,1.88807119 0,1.75 L0,0.25 C-1.69088438e-17,0.111928813 0.111928813,-1.89594505e-14 0.25,-1.89848137e-14 L17.75,-1.89848137e-14 C17.8880712,-1.9010177e-14 18,0.111928813 18,0.25 Z M1.5,1.5 C1.77614237,1.5 2,1.27614237 2,1 C2,0.723857625 1.77614237,0.5 1.5,0.5 C1.22385763,0.5 1,0.723857625 1,1 C1,1.27614237 1.22385763,1.5 1.5,1.5 Z M3.5,1.5 C3.77614237,1.5 4,1.27614237 4,1 C4,0.723857625 3.77614237,0.5 3.5,0.5 C3.22385763,0.5 3,0.723857625 3,1 C3,1.27614237 3.22385763,1.5 3.5,1.5 Z M5.5,1.5 C5.77614237,1.5 6,1.27614237 6,1 C6,0.723857625 5.77614237,0.5 5.5,0.5 C5.22385763,0.5 5,0.723857625 5,1 C5,1.27614237 5.22385763,1.5 5.5,1.5 Z" id="Shape" fill="currentColor" fill-rule="nonzero"></path>
    </g>
</svg>