<?xml version="1.0" encoding="UTF-8"?>
<svg width="1em" height="1em" viewBox="0 0 18 18" version="1.1" xmlns="http://www.w3.org/2000/svg" xmlns:xlink="http://www.w3.org/1999/xlink">
    <!-- Generator: Sketch 53.2 (72643) - https://sketchapp.com -->
    <title>username</title>
    <desc>Created with Sketch.</desc>
    <g id="username" stroke="none" stroke-width="1" fill="none" fill-rule="evenodd">
        <path d="M9,0 C4.03751613,0 0,4.03751613 0,9 C0,13.9624839 4.03751613,18 9,18 C13.9624839,18 18,13.9624839 18,9 C18,4.03751613 13.9624839,0 9,0 Z M9,3.77419355 C11.0810323,3.77419355 12.7741935,5.46735484 12.7741935,7.5483871 C12.7741935,9.62941935 11.0810323,11.3225806 9,11.3225806 C6.91896774,11.3225806 5.22580645,9.62941935 5.22580645,7.5483871 C5.22580645,5.46735484 6.91896774,3.77419355 9,3.77419355 Z M9,17.4193548 C6.80719355,17.4193548 4.80803226,16.5759677 3.30822581,15.1972258 C4.54064516,13.1635161 6.76480645,11.9032258 9.14516129,11.9032258 C11.4860323,11.9032258 13.608871,13.067129 14.8732258,15.0241935 C13.355129,16.5048387 11.2828065,17.4193548 9,17.4193548 Z" id="Shape" fill="currentColor" fill-rule="nonzero"></path>
    </g>
</svg>