<?xml version="1.0" encoding="UTF-8"?>
<svg width="1em" height="1em" viewBox="0 0 18 18" version="1.1" xmlns="http://www.w3.org/2000/svg" xmlns:xlink="http://www.w3.org/1999/xlink">
    <!-- Generator: Sketch 53.2 (72643) - https://sketchapp.com -->
    <title>vertical-split</title>
    <desc>Created with Sketch.</desc>
    <g id="vertical-split" stroke="none" stroke-width="1" fill="none" fill-rule="evenodd">
        <path d="M0.107142857,1.71428571 L7.60714286,1.71428571 C7.66631622,1.71428571 7.71428571,1.76225521 7.71428571,1.82142857 L7.71428571,16.6071429 C7.71428571,16.6663162 7.66631622,16.7142857 7.60714286,16.7142857 L0.107142857,16.7142857 C0.0479694911,16.7142857 0,16.6663162 0,16.6071429 L0,1.82142857 C0,1.76225521 0.0479694911,1.71428571 0.107142857,1.71428571 Z M10.3928571,1.71428571 L17.8928571,1.71428571 C17.9520305,1.71428571 18,1.76225521 18,1.82142857 L18,16.6071429 C18,16.6663162 17.9520305,16.7142857 17.8928571,16.7142857 L10.3928571,16.7142857 C10.3336838,16.7142857 10.2857143,16.6663162 10.2857143,16.6071429 L10.2857143,1.82142857 C10.2857143,1.76225521 10.3336838,1.71428571 10.3928571,1.71428571 Z M8.67857143,0 L9.32142857,0 C9.38060194,0 9.42857143,0.0479694911 9.42857143,0.107142857 L9.42857143,17.8928571 C9.42857143,17.9520305 9.38060194,18 9.32142857,18 L8.67857143,18 C8.61939806,18 8.57142857,17.9520305 8.57142857,17.8928571 L8.57142857,0.107142857 C8.57142857,0.0479694911 8.61939806,0 8.67857143,0 Z" id="Shape" fill="currentColor" fill-rule="nonzero"></path>
    </g>
</svg>