<?xml version="1.0" encoding="UTF-8"?>
<svg width="1em" height="1em" viewBox="0 0 18 18" version="1.1" xmlns="http://www.w3.org/2000/svg" xmlns:xlink="http://www.w3.org/1999/xlink">
    <!-- Generator: Sketch 55 (78076) - https://sketchapp.com -->
    <title>web-page</title>
    <desc>Created with Sketch.</desc>
    <g id="web-page" stroke="none" stroke-width="1" fill="none" fill-rule="evenodd">
        <path d="M0.107142857,3 L17.8928571,3 C17.9520305,3 18,3.04418243 18,3.09868421 L18,17.9013158 C18,17.9558176 17.9520305,18 17.8928571,18 L0.107142857,18 C0.0479694911,18 0,17.9558176 0,17.9013158 L0,3.09868421 C0,3.04418243 0.0479694911,3 0.107142857,3 Z M1.109375,5 C1.04896886,5 1,5.04663701 1,5.10416667 L1,9.89583333 C1,9.95336299 1.04896886,10 1.109375,10 L7.890625,10 C7.95103114,10 8,9.95336299 8,9.89583333 L8,5.10416667 C8,5.04663701 7.95103114,5 7.890625,5 L1.109375,5 Z M9.11764706,5 C9.05267238,5 9,5.05596441 9,5.125 L9,5.875 C9,5.94403559 9.05267238,6 9.11764706,6 L16.8823529,6 C16.9473276,6 17,5.94403559 17,5.875 L17,5.125 C17,5.05596441 16.9473276,5 16.8823529,5 L9.11764706,5 Z M9.11764706,9 C9.05267238,9 9,9.05596441 9,9.125 L9,9.875 C9,9.94403559 9.05267238,10 9.11764706,10 L16.8823529,10 C16.9473276,10 17,9.94403559 17,9.875 L17,9.125 C17,9.05596441 16.9473276,9 16.8823529,9 L9.11764706,9 Z M9.11764706,7 C9.05267238,7 9,7.05596441 9,7.125 L9,7.875 C9,7.94403559 9.05267238,8 9.11764706,8 L16.8823529,8 C16.9473276,8 17,7.94403559 17,7.875 L17,7.125 C17,7.05596441 16.9473276,7 16.8823529,7 L9.11764706,7 Z M1.11111111,13 C1.04974614,13 1,13.0559644 1,13.125 L1,13.875 C1,13.9440356 1.04974614,14 1.11111111,14 L16.8888889,14 C16.9502539,14 17,13.9440356 17,13.875 L17,13.125 C17,13.0559644 16.9502539,13 16.8888889,13 L1.11111111,13 Z M1.11111111,15 C1.04974614,15 1,15.0559644 1,15.125 L1,15.875 C1,15.9440356 1.04974614,16 1.11111111,16 L16.8888889,16 C16.9502539,16 17,15.9440356 17,15.875 L17,15.125 C17,15.0559644 16.9502539,15 16.8888889,15 L1.11111111,15 Z M1.11111111,11 C1.04974614,11 1,11.0559644 1,11.125 L1,11.875 C1,11.9440356 1.04974614,12 1.11111111,12 L16.8888889,12 C16.9502539,12 17,11.9440356 17,11.875 L17,11.125 C17,11.0559644 16.9502539,11 16.8888889,11 L1.11111111,11 Z M0.107142857,-1.62092562e-14 L17.8928571,-1.62092562e-14 C17.9520305,-1.62092562e-14 18,0.0746192084 18,0.166666667 L18,1.83333333 C18,1.92538079 17.9520305,2 17.8928571,2 L0.107142857,2 C0.0479694911,2 0,1.92538079 0,1.83333333 L0,0.166666667 C0,0.0746192084 0.0479694911,-1.62092562e-14 0.107142857,-1.62092562e-14 Z M1.5,1.5 C1.77614237,1.5 2,1.27614237 2,1 C2,0.723857625 1.77614237,0.5 1.5,0.5 C1.22385763,0.5 1,0.723857625 1,1 C1,1.27614237 1.22385763,1.5 1.5,1.5 Z M3.5,1.5 C3.77614237,1.5 4,1.27614237 4,1 C4,0.723857625 3.77614237,0.5 3.5,0.5 C3.22385763,0.5 3,0.723857625 3,1 C3,1.27614237 3.22385763,1.5 3.5,1.5 Z M5.5,1.5 C5.77614237,1.5 6,1.27614237 6,1 C6,0.723857625 5.77614237,0.5 5.5,0.5 C5.22385763,0.5 5,0.723857625 5,1 C5,1.27614237 5.22385763,1.5 5.5,1.5 Z" id="Fill" fill="currentColor" fill-rule="nonzero"></path>
    </g>
</svg>