<?xml version="1.0" encoding="UTF-8"?>
<svg width="1em" height="1em" viewBox="0 0 18 18" version="1.1" xmlns="http://www.w3.org/2000/svg" xmlns:xlink="http://www.w3.org/1999/xlink">
    <!-- Generator: Sketch 53.2 (72643) - https://sketchapp.com -->
    <title>window-manager</title>
    <desc>Created with Sketch.</desc>
    <g id="window-manager" stroke="none" stroke-width="1" fill="none" fill-rule="evenodd">
        <path d="M0.28125,0 L17.71875,0 C17.8740801,-2.85336739e-17 18,0.125919914 18,0.28125 L18,2.25 L0,2.25 L0,0.28125 C-1.90224492e-17,0.125919914 0.125919914,2.85336739e-17 0.28125,0 Z M0,16.875 L18,16.875 L18,17.71875 C18,17.8740801 17.8740801,18 17.71875,18 L0.28125,18 C0.125919914,18 1.90224492e-17,17.8740801 0,17.71875 L0,16.875 Z M0,2.25 L1.125,2.25 L1.125,16.875 L0,16.875 L0,2.25 Z M16.875,2.25 L18,2.25 L18,16.875 L16.875,16.875 L16.875,2.25 Z M12.375,5.625 L13.5,5.625 L13.5,6.46875 C13.5,6.62408009 13.3740801,6.75 13.21875,6.75 L12.65625,6.75 C12.5009199,6.75 12.375,6.62408009 12.375,6.46875 L12.375,5.625 Z M2.25,5.625 L3.375,5.625 L3.375,12.09375 C3.375,12.2490801 3.24908009,12.375 3.09375,12.375 L2.53125,12.375 C2.37591991,12.375 2.25,12.2490801 2.25,12.09375 L2.25,5.625 Z M2.53125,4.5 L13.21875,4.5 C13.3740801,4.5 13.5,4.62591991 13.5,4.78125 L13.5,5.625 L2.25,5.625 L2.25,4.78125 C2.25,4.62591991 2.37591991,4.5 2.53125,4.5 Z M5.90625,7.875 L15.46875,7.875 C15.6240801,7.875 15.75,8.00091991 15.75,8.15625 L15.75,14.34375 C15.75,14.4990801 15.6240801,14.625 15.46875,14.625 L5.90625,14.625 C5.75091991,14.625 5.625,14.4990801 5.625,14.34375 L5.625,8.15625 C5.625,8.00091991 5.75091991,7.875 5.90625,7.875 Z" id="Shape" fill="currentColor" fill-rule="nonzero"></path>
    </g>
</svg>