<?xml version="1.0" encoding="UTF-8"?>
<svg width="1em" height="1em" viewBox="0 0 18 18" version="1.1" xmlns="http://www.w3.org/2000/svg" xmlns:xlink="http://www.w3.org/1999/xlink">
    <!-- Generator: Sketch 55 (78076) - https://sketchapp.com -->
    <title>workspace</title>
    <desc>Created with Sketch.</desc>
    <g id="workspace" stroke="none" stroke-width="1" fill="none" fill-rule="evenodd">
        <path d="M5.14285714,0 L6,0 L6,6 L5.14285714,5.14332799 L5.14285714,0 Z M5.14285714,10.2857143 L5.14285714,14.1428571 L6,14.1428571 L6,11.1417411 L5.14285714,10.2857143 Z M17.1428571,17.1428571 L17.1428571,0.857142857 L6,0.857142857 L6,0 L18,0 L18,18 L0,18 L0,0 L17.1428571,17.1428571 Z M6.85714286,1.71428571 L16.2857143,1.71428571 L16.2857143,2.57142857 L6.85714286,2.57142857 L6.85714286,1.71428571 Z M10.2857143,3.42857143 L16.2857143,3.42857143 L16.2857143,4.28571429 L10.2857143,4.28571429 L10.2857143,3.42857143 Z M6.85714286,3.42857143 L9.42857143,3.42857143 L9.42857143,4.28571429 L6.85714286,4.28571429 L6.85714286,3.42857143 Z M8.57142857,5.14285714 L16.2857143,5.14285714 L16.2857143,6 L8.57142857,6 L8.57142857,5.14285714 Z M10.2857143,6.85714286 L12.8571429,6.85714286 L12.8571429,7.71428571 L10.2857143,7.71428571 L10.2857143,6.85714286 Z M13.7142857,6.85714286 L16.2857143,6.85714286 L16.2857143,7.71428571 L13.7142857,7.71428571 L13.7142857,6.85714286 Z M12,8.57142857 L16.2857143,8.57142857 L16.2857143,9.42857143 L12,9.42857143 L12,8.57142857 Z M3.85714286,9 L3.85714286,14.1428571 L9,14.1428571 L3.85714286,9 Z" id="Fill" fill="currentColor" fill-rule="nonzero"></path>
    </g>
</svg>