<?xml version="1.0" encoding="UTF-8"?>
<svg width="1em" height="1em" viewBox="0 0 18 18" version="1.1" xmlns="http://www.w3.org/2000/svg" xmlns:xlink="http://www.w3.org/1999/xlink">
    <!-- Generator: Sketch 53.2 (72643) - https://sketchapp.com -->
    <title>z-to-a</title>
    <desc>Created with Sketch.</desc>
    <g id="z-to-a" stroke="none" stroke-width="1" fill="none" fill-rule="evenodd">
        <path d="M4.51630754,0 L4.51630754,0.124017598 L1.45720678,6.28355831 L4.41295954,6.28355831 L4.41295954,7.2343599 L0,7.2343599 L0,7.0896727 L3.07977036,0.950801587 L0.0413391994,0.950801587 L0.0413391994,0 L4.51630754,0 Z M16.9269668,17.9975753 L16.2862092,16.4576902 L13.1857693,16.4576902 L12.5450117,17.9975753 L11.4598577,17.9975753 L14.6533108,10.6598674 L14.797998,10.6598674 L18.001786,17.9975753 L16.9269668,17.9975753 Z M13.5698311,15.5090897 L15.8848263,15.5090897 L14.7273287,12.7186937 L13.5698311,15.5090897 Z M7.99990063,4.10548752 C7.99990063,4.04720093 8.03788024,3.99995031 8.08515901,3.99995031 L8.91462983,3.99995031 C8.96171673,3.99995031 8.99988821,4.04453404 8.99988821,4.10548752 L8.99988821,13.8942889 C8.99988821,13.9525755 8.9619086,13.9998261 8.91462983,13.9998261 L8.08515901,13.9998261 C8.03807211,13.9998261 7.99990063,13.9552424 7.99990063,13.8942889 L7.99990063,4.10548752 Z" id="Shape" fill="currentColor" fill-rule="nonzero"></path>
    </g>
</svg>